<svg xmlns="http://www.w3.org/2000/svg" xmlns:xlink="http://www.w3.org/1999/xlink" width="88" zoomAndPan="magnify" viewBox="0 0 66 75.749997" height="101" preserveAspectRatio="xMidYMid meet" version="1.0"><defs><clipPath id="bcf817ed77"><path d="M 45 28 L 65.144531 28 L 65.144531 70 L 45 70 Z M 45 28 " clip-rule="nonzero"/></clipPath><clipPath id="122efc1e15"><path d="M 20 51 L 43 51 L 43 74.753906 L 20 74.753906 Z M 20 51 " clip-rule="nonzero"/></clipPath><clipPath id="5ec23ff958"><path d="M 0.109375 28 L 20 28 L 20 69 L 0.109375 69 Z M 0.109375 28 " clip-rule="nonzero"/></clipPath></defs><g clip-path="url(#bcf817ed77)"><path fill="#10265b" d="M 62.535156 55.484375 C 62.296875 55.503906 62.054688 55.53125 61.832031 55.550781 C 61.71875 55.691406 61.625 55.816406 61.519531 55.949219 C 61.542969 58.285156 61.574219 60.632812 61.589844 62.976562 C 61.597656 64.351562 61.558594 65.71875 61.25 67.074219 C 61.050781 67.929688 61.042969 68.824219 60.957031 69.578125 C 60.777344 69.828125 60.597656 69.796875 60.585938 69.578125 C 60.515625 68.289062 60.464844 67 60.445312 65.707031 C 60.425781 64.496094 60.449219 63.28125 60.445312 62.070312 C 60.445312 61.585938 60.46875 61.085938 60.363281 60.625 C 59.945312 58.808594 60.359375 57.109375 61.027344 55.394531 C 60.890625 55.230469 60.777344 55 60.585938 54.886719 C 60.171875 54.640625 59.730469 54.429688 59.285156 54.246094 C 57.34375 53.433594 55.457031 52.519531 53.664062 51.417969 C 53.183594 51.117188 52.679688 50.863281 52.179688 50.605469 C 50.660156 49.824219 49.257812 48.886719 48.003906 47.722656 C 47.660156 47.40625 47.378906 46.96875 46.832031 46.9375 C 46.753906 47.066406 46.613281 47.191406 46.613281 47.316406 C 46.597656 49.660156 46.597656 52.007812 46.597656 54.351562 C 46.597656 54.675781 46.597656 55.003906 46.648438 55.316406 C 47.089844 57.886719 46.859375 60.476562 46.90625 63.0625 C 46.910156 63.386719 46.9375 63.71875 46.859375 64.027344 C 46.546875 65.378906 46.5625 66.757812 46.472656 68.128906 C 46.457031 68.359375 46.355469 68.585938 46.265625 68.945312 C 46.164062 68.601562 46.058594 68.386719 46.042969 68.167969 C 45.984375 67.363281 45.964844 66.554688 45.925781 65.742188 C 45.898438 65.257812 45.949219 64.753906 45.828125 64.296875 C 45.488281 63.023438 45.570312 61.730469 45.554688 60.4375 C 45.535156 58.574219 45.511719 56.71875 45.488281 54.855469 C 45.4375 50.167969 45.394531 45.476562 45.570312 40.785156 C 45.625 39.335938 45.605469 37.894531 45.789062 36.4375 C 45.976562 34.921875 45.871094 33.371094 45.863281 31.832031 C 45.863281 30.699219 45.835938 29.570312 46.136719 28.453125 C 46.335938 28.3125 46.523438 28.175781 46.761719 28.003906 C 46.875 28.523438 46.984375 28.988281 47.097656 29.503906 C 47.292969 29.589844 47.5 29.746094 47.722656 29.773438 C 48.480469 29.867188 49.265625 29.773438 50.199219 30.011719 C 49.488281 30.269531 48.960938 30.460938 48.414062 30.660156 C 48.03125 30.621094 47.628906 30.585938 47.230469 30.550781 C 47.191406 30.621094 47.140625 30.6875 47.109375 30.765625 C 47.078125 30.835938 47.042969 30.917969 47.046875 30.992188 C 47.105469 34.707031 46.867188 38.425781 46.957031 41.933594 C 47.15625 42.550781 47.5 42.785156 47.824219 43.019531 C 48.539062 43.539062 49.253906 44.074219 50.011719 44.539062 C 52.90625 46.316406 55.855469 47.984375 59.019531 49.246094 C 59.242188 49.335938 59.46875 49.429688 59.679688 49.542969 C 61.230469 50.414062 62.789062 51.265625 64.425781 51.960938 C 64.871094 52.15625 65.257812 52.46875 65.507812 53.066406 C 65.488281 53.261719 65.507812 53.597656 65.410156 53.890625 C 65.164062 54.605469 64.675781 55.136719 64.023438 55.503906 C 63.890625 55.574219 63.714844 55.558594 63.550781 55.582031 L 63.449219 55.472656 C 63.441406 54.765625 64.058594 54.359375 64.261719 53.757812 C 64.304688 53.628906 64.246094 53.464844 64.222656 53.261719 C 63.3125 52.644531 62.234375 52.285156 61.246094 51.765625 C 59.679688 50.941406 58.09375 50.160156 56.5 49.386719 C 53.746094 48.046875 51.023438 46.664062 48.5 44.921875 C 48.105469 44.648438 47.695312 44.382812 47.28125 44.144531 C 47.164062 44.082031 46.988281 44.125 46.835938 44.117188 C 46.542969 44.648438 46.507812 45.179688 46.875 45.695312 C 47.605469 46.039062 48.292969 46.433594 48.886719 47.003906 C 49.992188 48.078125 51.304688 48.863281 52.652344 49.59375 C 54.632812 50.667969 56.585938 51.796875 58.617188 52.773438 C 59.550781 53.21875 61.460938 54.640625 62.515625 55.550781 L 62.554688 55.488281 Z M 62.535156 55.484375 " fill-opacity="1" fill-rule="nonzero"/></g><path fill="#10265b" d="M 34.398438 39.324219 C 34.902344 39.667969 35.449219 39.730469 35.585938 40.285156 C 35.511719 40.425781 35.4375 40.5625 35.320312 40.785156 C 34.699219 40.96875 34.011719 41.167969 33.417969 41.339844 C 32.273438 41.390625 31.226562 41.46875 30.179688 41.480469 C 29.460938 41.484375 28.738281 41.414062 28.019531 41.34375 C 27.914062 41.332031 27.824219 41.128906 27.726562 41.015625 C 27.6875 40.453125 28.257812 40.242188 28.425781 39.785156 C 28.449219 39.632812 28.511719 39.476562 28.492188 39.324219 C 28.441406 38.925781 28.355469 38.53125 28.285156 38.136719 C 28.21875 37.742188 28.113281 37.347656 28.097656 36.945312 C 28.046875 35.496094 28.035156 34.042969 28 32.589844 C 27.953125 30.707031 28.296875 28.898438 28.980469 27.15625 C 29.457031 25.953125 30.136719 24.855469 30.945312 23.847656 C 31.039062 23.730469 31.207031 23.671875 31.34375 23.585938 C 31.886719 23.421875 32.300781 23.652344 32.621094 24.050781 C 33.175781 24.753906 33.488281 25.589844 33.863281 26.605469 C 33.875 27.472656 33.882812 28.519531 33.90625 29.566406 C 33.917969 30.695312 33.941406 31.828125 33.964844 32.957031 C 33.992188 33.996094 34.054688 35.039062 34.054688 36.085938 C 34.054688 37.125 34.261719 38.15625 34.398438 39.320312 Z M 34.398438 39.324219 " fill-opacity="1" fill-rule="nonzero"/><g clip-path="url(#122efc1e15)"><path fill="#10265b" d="M 20.421875 74.351562 C 20.269531 74.164062 20.164062 74.046875 20.078125 73.914062 C 20.035156 73.855469 20.03125 73.769531 20.007812 73.6875 C 20.609375 73.3125 21.261719 73.523438 21.898438 73.53125 C 22.546875 73.53125 23.195312 73.617188 23.835938 73.585938 C 24.46875 73.554688 25.121094 73.695312 25.730469 73.4375 C 25.789062 73.367188 25.871094 73.316406 25.890625 73.246094 C 25.9375 73.101562 26 72.929688 25.964844 72.785156 C 25.605469 71.363281 25.601562 69.90625 25.527344 68.460938 C 25.5 67.976562 25.492188 67.488281 25.40625 67.015625 C 25.011719 64.929688 25.0625 62.84375 25.34375 60.753906 C 25.441406 60.039062 25.507812 59.308594 25.53125 58.585938 C 25.605469 56.496094 26.296875 54.644531 27.585938 53.003906 C 27.730469 52.816406 27.910156 52.644531 28.117188 52.417969 C 30.148438 51.441406 32.238281 50.648438 34.6875 51.820312 C 35.644531 52.382812 36.347656 53.347656 36.726562 54.539062 C 37.191406 55.996094 37.84375 57.394531 38.011719 58.9375 C 38.074219 59.5 38.167969 60.058594 38.234375 60.613281 C 38.304688 61.257812 38.28125 61.917969 38.433594 62.535156 C 38.792969 63.984375 38.746094 65.414062 38.375 66.886719 C 38.84375 68.921875 38.664062 71.027344 38.800781 73.175781 C 39.871094 73.65625 41.039062 73.265625 42.128906 73.539062 C 42.238281 73.632812 42.351562 73.726562 42.464844 73.820312 C 42.488281 74.117188 42.277344 74.300781 42.066406 74.339844 C 41.511719 74.4375 40.945312 74.5 40.386719 74.507812 C 37.15625 74.550781 33.925781 74.574219 30.695312 74.601562 C 29.570312 74.613281 28.433594 74.5625 27.328125 74.875 C 25.070312 74.910156 22.804688 75.0625 20.4375 74.351562 Z M 36.617188 57.847656 C 36.308594 56.996094 35.984375 56.085938 35.640625 55.183594 C 35.382812 54.507812 35.089844 53.835938 34.613281 53.273438 C 33.945312 52.480469 33.066406 52.019531 32.042969 52.246094 C 30.71875 52.542969 29.359375 52.851562 28.292969 53.753906 C 27.316406 55.402344 27.367188 55.417969 26.972656 56.863281 C 26.667969 57.972656 26.613281 59.097656 26.554688 60.21875 C 26.503906 61.1875 26.507812 62.148438 26.320312 63.113281 C 26.136719 64.058594 26.148438 65.035156 26.4375 65.992188 C 26.546875 66.371094 26.589844 66.792969 26.589844 67.191406 C 26.589844 69.058594 26.917969 70.882812 27.136719 72.726562 C 27.160156 72.949219 27.3125 73.15625 27.394531 73.339844 C 27.589844 73.414062 27.738281 73.519531 27.890625 73.519531 C 31.035156 73.496094 34.1875 73.460938 37.289062 73.425781 C 37.457031 73.28125 37.574219 73.175781 37.714844 73.054688 C 37.714844 72.023438 37.765625 70.976562 37.492188 69.9375 C 37.371094 69.476562 37.328125 68.980469 37.320312 68.5 C 37.300781 67.535156 37.308594 66.5625 37.335938 65.59375 C 37.378906 63.972656 37.25 62.363281 37.078125 60.753906 C 36.976562 59.792969 36.78125 58.84375 36.621094 57.832031 Z M 36.617188 57.847656 " fill-opacity="1" fill-rule="nonzero"/></g><g clip-path="url(#5ec23ff958)"><path fill="#10265b" d="M 1.34375 54.09375 C 0.902344 54.015625 0.621094 53.769531 0.507812 53.28125 C 0.613281 53.019531 0.742188 52.726562 0.832031 52.507812 C 1.292969 51.917969 1.847656 51.566406 2.425781 51.285156 C 3.304688 50.855469 4.085938 50.289062 4.828125 49.664062 C 6.695312 48.097656 8.730469 46.808594 10.957031 45.800781 C 12.207031 45.234375 13.394531 44.566406 14.488281 43.707031 C 15.363281 43.019531 16.246094 42.28125 17.40625 42.273438 C 17.53125 41.882812 17.664062 41.660156 17.667969 41.433594 C 17.6875 40.785156 17.761719 40.125 17.632812 39.5 C 17.375 38.222656 17.425781 36.925781 17.304688 35.640625 C 17.246094 35 17.222656 34.347656 17.082031 33.71875 C 16.773438 32.359375 16.8125 30.996094 16.957031 29.792969 C 17.164062 29.230469 17.421875 28.941406 17.847656 28.835938 L 17.796875 28.785156 C 17.839844 30.078125 17.898438 31.367188 18.179688 32.636719 C 18.320312 33.265625 18.3125 33.921875 18.367188 34.5625 C 18.449219 35.53125 18.453125 36.496094 18.664062 37.453125 C 18.789062 38 18.75 38.574219 18.761719 39.140625 C 18.832031 43.664062 18.898438 48.195312 18.960938 52.714844 C 18.96875 53.445312 18.933594 54.167969 19.152344 54.882812 C 19.222656 55.109375 19.234375 55.363281 19.234375 55.601562 C 19.289062 59.71875 19.527344 63.84375 19.195312 67.960938 C 19.191406 68.035156 19.140625 68.105469 19.101562 68.226562 C 19.023438 68.140625 18.914062 68.078125 18.910156 68.003906 C 18.84375 67.199219 18.792969 66.390625 18.738281 65.585938 C 18.714844 65.261719 18.75 64.929688 18.6875 64.621094 C 18.121094 62.070312 18.25 59.480469 18.160156 56.902344 C 18.148438 56.578125 18.195312 56.242188 18.121094 55.933594 C 17.726562 54.339844 17.863281 52.722656 17.851562 51.109375 C 17.839844 49.730469 17.816406 48.359375 17.769531 46.988281 C 17.765625 46.785156 17.613281 46.589844 17.523438 46.382812 C 16.804688 46.492188 16.3125 46.960938 15.726562 47.207031 C 15.128906 47.460938 14.539062 47.71875 13.972656 48.027344 C 13.402344 48.335938 12.882812 48.71875 12.320312 49.042969 C 11.132812 49.730469 9.9375 50.40625 8.738281 51.074219 C 7.050781 52.019531 5.351562 52.953125 3.765625 54.078125 C 3.574219 54.214844 3.414062 54.402344 3.234375 54.5625 L 3.277344 54.527344 C 2.558594 54.855469 1.832031 55.179688 1.222656 55.457031 C 0.613281 55.417969 0.144531 55.394531 0.101562 54.75 C 0.457031 54.445312 1.058594 54.558594 1.28125 54.042969 C 2.4375 53.871094 3.441406 53.339844 4.328125 52.628906 C 5.15625 51.960938 6.039062 51.417969 7.003906 50.992188 C 7.296875 50.859375 7.589844 50.707031 7.855469 50.53125 C 10.066406 49.035156 12.398438 47.75 14.78125 46.550781 C 15.578125 46.144531 16.382812 45.796875 17.246094 45.558594 C 17.378906 45.523438 17.480469 45.355469 17.664062 45.1875 C 17.683594 44.847656 17.71875 44.449219 17.71875 44.050781 C 17.71875 43.742188 17.667969 43.433594 17.640625 43.117188 C 17.222656 43.15625 16.996094 43.402344 16.734375 43.585938 C 14.800781 44.910156 12.847656 46.207031 10.703125 47.183594 C 9.75 47.617188 8.800781 48.113281 7.964844 48.734375 C 6.144531 50.085938 4.238281 51.304688 2.386719 52.605469 C 2.054688 52.832031 1.757812 53.101562 1.464844 53.332031 C 1.414062 53.628906 1.375 53.863281 1.339844 54.097656 Z M 1.34375 54.09375 " fill-opacity="1" fill-rule="nonzero"/></g><path fill="#10265b" d="M 14.953125 64.691406 C 13.445312 64.878906 11.910156 64.71875 10.382812 64.675781 C 9.996094 64.667969 9.601562 64.5 9.21875 64.367188 C 9.078125 64.324219 8.972656 64.175781 8.796875 64.039062 C 8.9375 63.78125 9.089844 63.507812 9.300781 63.117188 C 9.253906 62.769531 9.175781 62.296875 9.132812 61.828125 C 8.992188 60.195312 9.40625 58.621094 9.757812 57.050781 C 9.964844 56.125 9.996094 55.109375 10.824219 54.167969 C 11.082031 53.914062 11.527344 53.980469 11.976562 54.265625 C 12.613281 54.867188 12.5 55.773438 12.871094 56.355469 C 13.007812 58.644531 13.210938 60.816406 13.058594 62.925781 C 13.589844 63.679688 14.335938 63.167969 14.90625 63.40625 C 15.566406 63.90625 15.570312 64.074219 14.941406 64.6875 Z M 11.269531 56.222656 C 11.308594 56.175781 11.375 56.136719 11.386719 56.085938 C 11.402344 56.015625 11.40625 55.925781 11.371094 55.867188 C 11.28125 55.726562 11.195312 55.78125 11.183594 56.011719 C 11.183594 56.074219 11.234375 56.140625 11.269531 56.222656 Z M 11.269531 56.222656 " fill-opacity="1" fill-rule="nonzero"/><path fill="#10265b" d="M 45.039062 25.375 C 44.003906 24.839844 43.324219 23.910156 42.566406 23.085938 C 40.652344 21 38.746094 18.921875 36.71875 16.949219 C 35.441406 15.707031 34.257812 14.378906 33.035156 13.085938 C 32.816406 12.859375 32.582031 12.636719 32.386719 12.445312 C 32.167969 12.496094 31.976562 12.480469 31.878906 12.566406 C 30.671875 13.644531 29.613281 14.867188 28.585938 16.121094 C 28.226562 16.558594 27.882812 17.007812 27.496094 17.421875 C 25.554688 19.488281 23.742188 21.65625 21.984375 23.875 C 21.738281 24.1875 21.453125 24.484375 21.160156 24.757812 C 21.058594 24.855469 20.871094 24.851562 20.71875 24.894531 L 20.761719 24.929688 C 20.804688 24.699219 20.78125 24.414062 20.90625 24.242188 C 22.003906 22.75 23 21.1875 24.183594 19.765625 C 25.160156 18.59375 26.09375 17.371094 27.039062 16.171875 C 28.242188 14.65625 29.578125 13.257812 30.953125 11.902344 C 31.175781 11.679688 31.476562 11.535156 31.664062 11.40625 C 32.089844 11.347656 32.410156 11.351562 32.691406 11.550781 C 33.019531 11.78125 33.375 11.988281 33.652344 12.273438 C 35.007812 13.644531 36.347656 15.035156 37.683594 16.425781 C 37.90625 16.660156 38.09375 16.917969 38.296875 17.164062 C 38.9375 17.960938 39.34375 18.289062 40.671875 19.117188 L 40.617188 19.058594 C 40.644531 19.394531 40.84375 19.558594 41.164062 19.605469 L 41.109375 19.539062 C 41.132812 19.941406 41.269531 20.300781 41.5625 20.585938 C 42.070312 21.070312 42.585938 21.546875 43.097656 22.027344 L 43.0625 21.988281 C 43.582031 22.765625 44.109375 23.542969 44.628906 24.324219 C 44.851562 24.65625 45 25.011719 44.980469 25.421875 L 45.03125 25.371094 Z M 45.039062 25.375 " fill-opacity="1" fill-rule="nonzero"/><path fill="#10265b" d="M 50.148438 63.574219 C 50.207031 63.28125 50.261719 62.988281 50.332031 62.617188 C 50.214844 62.136719 50.082031 61.589844 49.96875 61.113281 C 49.976562 60.886719 49.972656 60.726562 49.996094 60.5625 C 50.113281 59.6875 50.261719 58.816406 50.347656 57.9375 C 50.441406 56.964844 50.707031 56.046875 51.085938 55.15625 C 51.277344 54.710938 51.539062 54.300781 52.085938 54.210938 C 52.59375 54.34375 52.933594 54.691406 53.105469 55.15625 C 53.464844 56.136719 53.777344 57.132812 53.792969 58.195312 C 53.8125 59.398438 53.824219 60.609375 53.847656 61.8125 C 53.859375 62.207031 53.773438 62.617188 54.046875 63.003906 C 54.332031 63.523438 55.128906 62.964844 55.40625 63.574219 C 53.023438 63.9375 52.046875 63.9375 50.144531 63.570312 Z M 50.148438 63.574219 " fill-opacity="1" fill-rule="nonzero"/><path fill="#10265b" d="M 13.464844 30.722656 C 13.242188 30.816406 13.015625 30.902344 12.808594 30.988281 C 12.644531 30.878906 12.5625 30.730469 12.652344 30.566406 C 13.136719 29.636719 13.710938 28.769531 14.417969 27.976562 C 15.382812 26.890625 16.269531 25.734375 17.199219 24.617188 C 17.921875 23.753906 18.664062 22.898438 19.398438 22.042969 C 19.613281 21.800781 19.875 21.585938 20.035156 21.320312 C 20.453125 20.609375 21.023438 20.039062 21.617188 19.488281 C 22.328125 18.824219 22.976562 18.105469 23.542969 17.3125 C 23.820312 16.917969 24.105469 16.488281 24.488281 16.214844 C 25.632812 15.40625 26.433594 14.285156 27.347656 13.265625 C 28.207031 12.296875 29.101562 11.367188 29.828125 10.285156 C 29.949219 10.109375 30.207031 10.015625 30.414062 9.90625 C 30.46875 9.875 30.570312 9.898438 30.632812 9.933594 C 30.792969 10.03125 30.878906 10.183594 30.808594 10.332031 C 30.675781 10.617188 30.546875 10.921875 30.347656 11.171875 C 28.890625 13.007812 27.410156 14.824219 25.785156 16.511719 C 24.050781 18.320312 22.417969 20.214844 20.664062 22.007812 C 19.820312 22.867188 19.101562 23.851562 18.335938 24.792969 C 18.085938 25.109375 17.910156 25.492188 17.628906 25.769531 C 16.070312 27.308594 14.859375 29.136719 13.417969 30.769531 L 13.460938 30.722656 Z M 13.464844 30.722656 " fill-opacity="1" fill-rule="nonzero"/><path fill="#10265b" d="M 40.683594 19.117188 C 40.660156 18.960938 40.679688 18.777344 40.597656 18.65625 C 40.328125 18.261719 40.035156 17.882812 39.734375 17.519531 C 38.917969 16.539062 38.0625 15.589844 37.273438 14.585938 C 36.535156 13.648438 35.628906 12.84375 34.78125 12.003906 C 34.152344 11.386719 33.484375 10.816406 32.847656 10.207031 C 32.621094 9.992188 32.398438 9.753906 32.371094 9.402344 L 32.449219 9.332031 C 32.683594 9.367188 32.949219 9.347656 33.152344 9.449219 C 33.796875 9.785156 34.40625 10.171875 34.917969 10.714844 C 35.472656 11.300781 36.042969 11.878906 36.675781 12.375 C 37.578125 13.082031 38.363281 13.910156 38.988281 14.84375 C 39.582031 15.722656 40.3125 16.46875 40.972656 17.28125 C 41.421875 17.847656 41.929688 18.371094 42.382812 18.941406 C 43.035156 19.753906 43.796875 20.496094 44.542969 21.226562 C 45.414062 22.078125 46.214844 22.96875 46.851562 24.015625 C 47.5625 25.183594 48.398438 26.28125 49.171875 27.410156 C 49.367188 27.6875 49.40625 28.007812 49.367188 28.335938 L 49.410156 28.285156 C 49.144531 28.117188 48.839844 27.992188 48.621094 27.78125 C 47.46875 26.660156 46.378906 25.472656 45.5625 24.082031 C 45.101562 23.300781 44.484375 22.691406 43.75 22.1875 C 43.5625 22.0625 43.300781 22.050781 43.070312 21.988281 L 43.105469 22.027344 C 42.761719 20.945312 42.121094 20.09375 41.117188 19.539062 C 41.117188 19.539062 41.175781 19.605469 41.175781 19.605469 C 41.132812 19.28125 40.976562 19.074219 40.628906 19.058594 Z M 40.683594 19.117188 " fill-opacity="1" fill-rule="nonzero"/><path fill="#10265b" d="M 32.367188 9.410156 C 32.128906 9.378906 31.890625 9.347656 31.671875 9.316406 C 31.558594 9.171875 31.460938 9.046875 31.371094 8.9375 C 31.171875 7.410156 30.980469 5.898438 30.8125 4.582031 C 30.589844 3.882812 29.867188 3.949219 29.746094 3.347656 C 29.941406 3.160156 30.160156 2.953125 30.410156 2.710938 C 30.554688 1.960938 30.707031 1.179688 30.847656 0.4375 C 31.035156 0.3125 31.164062 0.226562 31.339844 0.105469 C 31.507812 0.214844 31.695312 0.34375 31.878906 0.46875 C 31.925781 1.0625 31.964844 1.625 32.007812 2.179688 C 32.117188 2.300781 32.226562 2.417969 32.324219 2.527344 C 32.929688 2.757812 33.636719 2.3125 34.222656 2.878906 C 34.148438 3.054688 34.0625 3.253906 34.003906 3.394531 C 33.382812 3.738281 32.621094 3.449219 32.167969 4.058594 C 31.773438 4.957031 32.402344 5.785156 32.367188 6.667969 C 32.332031 7.550781 32.410156 8.4375 32.4375 9.328125 L 32.359375 9.398438 Z M 32.367188 9.410156 " fill-opacity="1" fill-rule="nonzero"/><path fill="#10265b" d="M 45.992188 72.988281 C 45.890625 72.757812 45.804688 72.558594 45.703125 72.320312 C 45.96875 72.203125 46.183594 72.046875 46.402344 72.03125 C 46.960938 71.992188 47.535156 72.007812 48.101562 72.003906 C 50.609375 72.003906 53.121094 72.003906 55.628906 72.003906 C 56.515625 72.003906 57.398438 72.015625 58.265625 72.117188 C 58.355469 72.539062 58.320312 72.640625 58.097656 72.710938 C 57.945312 72.761719 57.800781 72.863281 57.648438 72.871094 C 56.519531 72.964844 55.390625 73.089844 54.257812 73.105469 C 51.910156 73.128906 49.5625 73.09375 47.214844 73.074219 C 46.816406 73.074219 46.414062 73.019531 45.992188 72.984375 Z M 45.992188 72.988281 " fill-opacity="1" fill-rule="nonzero"/><path fill="#10265b" d="M 4.796875 73.261719 C 4.699219 73.101562 4.582031 72.902344 4.4375 72.671875 C 4.691406 72.558594 4.90625 72.390625 5.121094 72.382812 C 5.847656 72.355469 6.574219 72.371094 7.296875 72.398438 C 9.070312 72.453125 10.828125 72.472656 12.59375 72.148438 C 13.855469 71.921875 15.160156 72.015625 16.449219 72.125 C 16.429688 72.574219 16.074219 72.648438 15.835938 72.734375 C 14.933594 73.058594 13.996094 73.347656 13.03125 73.402344 C 10.453125 73.566406 7.875 73.601562 5.292969 73.417969 C 5.136719 73.410156 4.992188 73.324219 4.792969 73.257812 Z M 4.796875 73.261719 " fill-opacity="1" fill-rule="nonzero"/><path fill="#10265b" d="M 3.234375 54.558594 C 3.46875 54.664062 3.644531 54.839844 3.679688 55.085938 C 3.746094 55.480469 3.78125 55.890625 3.78125 56.289062 C 3.792969 57.339844 3.78125 58.386719 3.78125 59.441406 C 3.78125 60.007812 3.75 60.578125 3.828125 61.136719 C 3.902344 61.691406 4.035156 62.226562 3.878906 62.800781 C 3.714844 63.375 4.15625 63.882812 4.167969 64.449219 C 4.1875 65.65625 4.214844 66.871094 4.214844 68.082031 C 4.214844 68.804688 4.207031 69.535156 4.015625 70.273438 C 3.964844 70.179688 3.902344 70.121094 3.898438 70.066406 C 3.777344 67.808594 3.191406 65.601562 3.125 63.339844 C 3.113281 62.945312 2.980469 62.550781 2.910156 62.15625 C 2.871094 61.917969 2.773438 61.667969 2.820312 61.445312 C 2.992188 60.5625 2.953125 59.703125 2.84375 58.8125 C 2.75 58.019531 2.824219 57.199219 2.824219 56.238281 C 2.945312 55.765625 3.109375 55.148438 3.277344 54.527344 L 3.234375 54.5625 Z M 3.234375 54.558594 " fill-opacity="1" fill-rule="nonzero"/><path fill="#10265b" d="M 13.425781 30.769531 C 13.976562 30.820312 14.527344 30.867188 15.191406 30.925781 C 14.207031 31.253906 14.097656 31.238281 13.464844 30.722656 Z M 13.425781 30.769531 " fill-opacity="1" fill-rule="nonzero"/><path fill="#10265b" d="M 63.535156 55.574219 C 63.027344 56.105469 62.925781 56.097656 62.535156 55.488281 L 62.496094 55.550781 C 62.808594 55.523438 63.121094 55.5 63.433594 55.472656 L 63.535156 55.578125 Z M 63.535156 55.574219 " fill-opacity="1" fill-rule="nonzero"/><path fill="#10265b" d="M 20.726562 24.890625 C 20.675781 25.011719 20.628906 25.132812 20.578125 25.253906 C 20.527344 25.214844 20.480469 25.175781 20.429688 25.128906 C 20.542969 25.0625 20.652344 24.992188 20.761719 24.925781 L 20.71875 24.890625 Z M 20.726562 24.890625 " fill-opacity="1" fill-rule="nonzero"/><path fill="#10265b" d="M 44.988281 25.425781 C 45.070312 25.484375 45.15625 25.539062 45.191406 25.5625 C 45.167969 25.53125 45.101562 25.453125 45.039062 25.375 Z M 44.988281 25.425781 " fill-opacity="1" fill-rule="nonzero"/><path fill="#10265b" d="M 19.800781 26.398438 C 19.84375 26.28125 19.894531 26.164062 19.941406 26.042969 C 19.988281 26.085938 20.035156 26.125 20.082031 26.164062 C 19.972656 26.226562 19.859375 26.285156 19.753906 26.347656 L 19.800781 26.394531 Z M 19.800781 26.398438 " fill-opacity="1" fill-rule="nonzero"/><path fill="#10265b" d="M 19.753906 26.347656 C 19.71875 26.640625 19.585938 26.832031 19.261719 26.824219 L 19.3125 26.867188 C 19.355469 26.582031 19.484375 26.398438 19.804688 26.394531 L 19.757812 26.347656 Z M 19.753906 26.347656 " fill-opacity="1" fill-rule="nonzero"/><path fill="#10265b" d="M 19.261719 26.824219 C 19.207031 26.914062 19.152344 27.011719 19.097656 27.101562 C 19.109375 27.054688 19.109375 27 19.136719 26.976562 C 19.1875 26.929688 19.253906 26.902344 19.308594 26.867188 C 19.308594 26.867188 19.257812 26.824219 19.257812 26.824219 Z M 19.261719 26.824219 " fill-opacity="1" fill-rule="nonzero"/><path fill="#10265b" d="M 18.347656 28.332031 C 18.402344 28.25 18.457031 28.167969 18.484375 28.132812 C 18.453125 28.160156 18.378906 28.21875 18.296875 28.28125 Z M 18.347656 28.332031 " fill-opacity="1" fill-rule="nonzero"/><path fill="#10265b" d="M 18.296875 28.28125 C 18.195312 28.511719 18.039062 28.695312 17.789062 28.78125 L 17.839844 28.832031 C 18.007812 28.664062 18.179688 28.496094 18.347656 28.332031 Z M 18.296875 28.28125 " fill-opacity="1" fill-rule="nonzero"/><path fill="#10265b" d="M 49.367188 28.339844 C 49.453125 28.402344 49.539062 28.46875 49.625 28.527344 C 49.582031 28.511719 49.523438 28.507812 49.503906 28.472656 C 49.460938 28.417969 49.441406 28.351562 49.417969 28.285156 L 49.371094 28.335938 Z M 49.367188 28.339844 " fill-opacity="1" fill-rule="nonzero"/><path fill="#10265b" d="M 35.058594 65 C 34.90625 64.964844 34.746094 64.953125 34.609375 64.890625 C 33.90625 64.550781 33.71875 63.988281 34.085938 63.359375 C 34.464844 62.71875 35.09375 62.703125 35.585938 63.332031 C 35.628906 63.390625 35.640625 63.476562 35.671875 63.558594 C 35.640625 64.109375 35.574219 64.644531 35.0625 65 Z M 35.058594 65 " fill-opacity="1" fill-rule="nonzero"/></svg>