<svg xmlns="http://www.w3.org/2000/svg" xmlns:xlink="http://www.w3.org/1999/xlink" width="56" zoomAndPan="magnify" viewBox="0 0 42 27.749998" height="37" preserveAspectRatio="xMidYMid meet" version="1.0"><defs><clipPath id="1a7077890b"><path d="M 0.1875 0 L 41.070312 0 L 41.070312 26.757812 L 0.1875 26.757812 Z M 0.1875 0 " clip-rule="nonzero"/></clipPath></defs><g clip-path="url(#1a7077890b)"><path fill="#1c3c75" d="M 26.167969 11.621094 C 24.984375 12.476562 23.800781 13.324219 22.621094 14.179688 C 21.980469 14.648438 21.339844 15.121094 20.753906 15.546875 C 20.460938 15.589844 20.308594 15.503906 20.1875 15.324219 C 20.078125 15.164062 19.976562 14.980469 19.824219 14.867188 C 18.929688 14.179688 18.019531 13.515625 17.082031 12.816406 C 16.917969 12.867188 16.707031 12.882812 16.558594 12.988281 C 16.128906 13.296875 15.695312 13.613281 15.3125 13.972656 C 13.808594 15.394531 12.148438 16.601562 10.414062 17.714844 C 8.679688 18.820312 6.972656 19.964844 5.234375 21.0625 C 4.90625 21.269531 4.574219 21.519531 4.160156 21.542969 C 3.976562 21.476562 3.933594 21.378906 4.0625 21.269531 C 5.429688 20.109375 6.921875 19.117188 8.398438 18.105469 C 10.207031 16.867188 11.992188 15.597656 13.679688 14.210938 C 14.449219 13.578125 15.136719 12.847656 15.851562 12.15625 C 15.929688 12.078125 15.941406 11.929688 15.984375 11.808594 C 13.601562 9.894531 10.988281 8.308594 8.351562 6.773438 C 7.148438 6.070312 5.972656 5.3125 4.871094 4.46875 C 4.074219 3.855469 3.242188 3.324219 2.347656 2.894531 C 1.890625 3.007812 1.863281 3.035156 1.828125 3.34375 C 1.742188 4.066406 1.777344 4.796875 1.535156 5.507812 C 1.414062 5.871094 1.460938 6.296875 1.449219 6.695312 C 1.332031 10.484375 1.367188 14.277344 1.46875 18.066406 C 1.472656 18.328125 1.429688 18.617188 1.515625 18.855469 C 1.835938 19.757812 1.792969 20.695312 1.820312 21.621094 C 1.847656 22.496094 2.226562 23.28125 2.292969 24.167969 C 2.8125 24.355469 3.308594 24.527344 3.820312 24.707031 C 3.996094 24.726562 4.195312 24.753906 4.394531 24.769531 C 4.726562 24.792969 5.070312 24.757812 5.386719 24.835938 C 7.089844 25.261719 8.820312 25.125 10.542969 25.183594 C 11.074219 25.199219 11.609375 25.210938 12.136719 25.222656 C 12.335938 25.230469 12.550781 25.195312 12.734375 25.25 C 14.039062 25.636719 15.375 25.46875 16.699219 25.492188 C 19.957031 25.546875 23.214844 25.578125 26.472656 25.625 C 26.9375 25.628906 27.394531 25.644531 27.851562 25.796875 C 28.09375 25.875 28.375 25.886719 28.636719 25.886719 C 30.699219 25.90625 32.757812 25.921875 34.820312 25.914062 C 35.347656 25.914062 35.867188 25.863281 36.394531 25.710938 C 36.894531 25.566406 37.445312 25.597656 38.027344 25.546875 C 38.484375 25.410156 38.992188 25.269531 39.496094 25.109375 C 40 24.945312 40.402344 24.550781 40.925781 24.445312 C 41.066406 24.417969 41.164062 24.511719 41.203125 24.675781 C 41.089844 24.886719 40.964844 25.121094 40.859375 25.324219 C 39.96875 26.152344 38.851562 26.390625 37.589844 26.761719 C 35.523438 26.867188 33.257812 26.894531 31 26.886719 C 29.671875 26.882812 28.339844 26.867188 27.011719 26.808594 C 25.953125 26.761719 24.878906 26.925781 23.851562 26.53125 C 23.1875 26.507812 22.523438 26.464844 21.859375 26.460938 C 19.136719 26.441406 16.40625 26.433594 13.679688 26.414062 C 12.882812 26.410156 12.085938 26.390625 11.285156 26.375 C 11.085938 26.371094 10.871094 26.402344 10.691406 26.34375 C 9.589844 25.972656 8.449219 26.136719 7.328125 26.0625 C 6.796875 26.027344 6.261719 26.046875 5.734375 26.011719 C 5.273438 25.980469 4.808594 25.933594 4.355469 25.847656 C 3.835938 25.75 3.328125 25.601562 2.824219 25.480469 C 2.320312 25.21875 1.984375 24.828125 1.820312 24.289062 C 1.707031 23.90625 1.507812 23.542969 1.453125 23.160156 C 1.371094 22.5625 1.183594 22 1.066406 21.414062 C 0.980469 20.964844 1 20.488281 0.964844 20.023438 C 0.921875 19.433594 0.945312 18.835938 0.738281 18.253906 C 0.628906 17.953125 0.636719 17.601562 0.625 17.273438 C 0.578125 15.941406 0.542969 14.613281 0.507812 13.285156 C 0.488281 12.625 0.523438 11.96875 0.316406 11.3125 C 0.203125 10.945312 0.195312 10.496094 0.296875 10.128906 C 0.566406 9.148438 0.488281 8.152344 0.542969 7.160156 C 0.574219 6.632812 0.566406 6.097656 0.59375 5.566406 C 0.628906 4.839844 0.613281 4.113281 0.851562 3.398438 C 0.976562 3.035156 0.941406 2.609375 0.964844 2.214844 C 0.984375 1.886719 0.984375 1.554688 0.988281 1.324219 C 1.230469 0.824219 1.644531 0.75 1.996094 0.574219 C 2.125 0.546875 2.25 0.507812 2.378906 0.488281 C 3.230469 0.378906 4.105469 0.460938 4.941406 0.15625 C 5.242188 0.046875 5.597656 0.0859375 5.933594 0.078125 C 7.199219 0.0429688 8.460938 -0.00390625 9.726562 0 C 13.917969 0.015625 18.105469 0.0507812 22.296875 0.078125 C 22.828125 0.0820312 23.347656 0.105469 23.871094 0.257812 C 24.246094 0.371094 24.660156 0.367188 25.058594 0.378906 C 25.988281 0.410156 26.921875 0.410156 27.851562 0.441406 C 28.710938 0.46875 29.570312 0.441406 30.417969 0.695312 C 30.851562 0.824219 31.34375 0.769531 31.804688 0.800781 C 32.863281 0.871094 33.933594 0.78125 34.960938 1.160156 C 35.203125 1.25 35.488281 1.238281 35.753906 1.234375 C 36.574219 1.222656 37.273438 1.644531 38.039062 1.773438 L 38.039062 2.222656 C 37.96875 2.277344 37.90625 2.355469 37.867188 2.347656 C 36.757812 2.097656 35.632812 2.085938 34.503906 2.066406 C 34.175781 2.0625 33.839844 2.046875 33.507812 2.027344 C 33.3125 2.019531 33.09375 2.042969 32.917969 1.972656 C 32.148438 1.675781 31.34375 1.75 30.554688 1.695312 C 29.496094 1.625 28.421875 1.757812 27.394531 1.390625 C 27.214844 1.328125 27 1.367188 26.796875 1.363281 C 24.671875 1.320312 22.542969 1.277344 20.417969 1.234375 C 19.886719 1.222656 19.359375 1.25 18.839844 1.054688 C 18.601562 0.96875 18.320312 0.96875 18.054688 0.96875 C 15.199219 0.945312 12.335938 0.929688 9.476562 0.921875 C 8.8125 0.921875 8.148438 0.957031 7.484375 0.976562 C 6.261719 1.371094 4.980469 1.199219 3.644531 1.363281 C 3.417969 1.457031 3.117188 1.582031 2.839844 1.699219 C 2.835938 1.808594 2.816406 1.886719 2.828125 1.894531 C 4.117188 2.59375 5.273438 3.480469 6.457031 4.335938 C 7.472656 5.078125 8.554688 5.738281 9.65625 6.351562 C 11.929688 7.605469 14.039062 9.097656 16.09375 10.671875 C 16.726562 11.152344 17.277344 11.742188 17.855469 12.289062 C 18.292969 12.695312 18.722656 13.113281 19.160156 13.523438 C 19.546875 13.890625 19.96875 14.199219 20.476562 14.375 C 20.851562 14.367188 21.0625 14.078125 21.332031 13.894531 C 23.152344 12.667969 24.828125 11.261719 26.542969 9.902344 C 28.210938 8.582031 29.734375 7.097656 31.417969 5.796875 C 32.519531 4.945312 33.648438 4.125 34.808594 3.355469 C 35.136719 3.140625 35.511719 2.980469 35.882812 2.859375 C 36.042969 2.804688 36.25 2.90625 36.453125 2.941406 C 36.371094 3.089844 36.339844 3.230469 36.253906 3.296875 C 35.71875 3.6875 35.171875 4.0625 34.625 4.441406 C 34.410156 4.59375 34.175781 4.730469 33.976562 4.898438 C 33.164062 5.585938 32.367188 6.285156 31.535156 6.949219 C 30.292969 7.941406 29.125 9.03125 27.910156 10.070312 C 27.507812 10.414062 27.066406 10.710938 26.664062 11.054688 C 26.464844 11.21875 26.316406 11.445312 26.148438 11.644531 C 26.148438 11.644531 26.167969 11.625 26.167969 11.625 Z M 26.167969 11.621094 " fill-opacity="1" fill-rule="nonzero"/></g><path fill="#1c3c75" d="M 22.199219 9.695312 C 20.351562 8.765625 18.773438 7.820312 17.527344 6.304688 C 17.375 6.007812 17.195312 5.65625 16.992188 5.265625 L 16.992188 4.351562 C 17.300781 3.632812 17.875 3.582031 18.503906 3.652344 C 18.90625 3.707031 19.234375 3.953125 19.578125 4.136719 C 19.917969 4.316406 20.148438 4.675781 20.507812 4.828125 C 21.117188 4.460938 21.652344 4.082031 22.242188 3.800781 C 22.710938 3.570312 23.234375 3.460938 23.679688 3.316406 C 24.148438 3.367188 24.484375 3.558594 24.792969 3.828125 C 25.03125 4.191406 24.988281 4.582031 24.867188 4.964844 C 24.792969 5.214844 24.671875 5.453125 24.5625 5.695312 C 23.949219 7.085938 23.066406 8.308594 22.199219 9.695312 Z M 22.199219 9.695312 " fill-opacity="1" fill-rule="nonzero"/><path fill="#1c3c75" d="M 39.945312 23.828125 C 39.644531 23.546875 39.539062 23.160156 39.363281 22.734375 C 39.335938 22.273438 39.308594 21.742188 39.277344 21.214844 C 39.261719 20.949219 39.296875 20.664062 39.214844 20.421875 C 38.882812 19.453125 38.96875 18.457031 38.957031 17.464844 C 38.914062 13.882812 38.875 10.296875 38.828125 6.714844 C 38.824219 6.386719 38.828125 6.042969 38.738281 5.730469 C 38.378906 4.523438 38.570312 3.382812 39.066406 2.269531 C 39.394531 2.25 39.582031 2.417969 39.640625 2.683594 C 39.699219 2.9375 39.707031 3.210938 39.707031 3.472656 C 39.722656 8.25 39.738281 13.027344 39.753906 17.804688 C 39.757812 18.867188 39.777344 19.929688 39.789062 20.992188 C 39.796875 21.585938 39.816406 22.175781 40.050781 22.746094 C 40.148438 22.980469 40.128906 23.269531 40.128906 23.535156 C 40.128906 23.632812 40.011719 23.730469 39.953125 23.828125 Z M 39.945312 23.828125 " fill-opacity="1" fill-rule="nonzero"/><path fill="#1c3c75" d="M 36.953125 21.992188 L 36.542969 21.992188 C 36.441406 21.941406 36.300781 21.90625 36.207031 21.828125 C 34.960938 20.738281 33.628906 19.742188 32.515625 18.511719 C 32.070312 18.019531 31.53125 17.617188 31.210938 17.015625 C 30.003906 15.789062 28.90625 14.457031 27.488281 13.445312 C 27.007812 13.101562 26.609375 12.644531 26.164062 12.234375 L 26.164062 11.621094 L 26.144531 11.640625 C 26.335938 11.664062 26.554688 11.636719 26.71875 11.71875 C 27.246094 11.984375 27.769531 12.246094 28.203125 12.671875 C 29.757812 14.191406 31.320312 15.695312 32.667969 17.402344 C 33.199219 18.070312 33.828125 18.660156 34.425781 19.273438 C 35.160156 20.027344 35.910156 20.765625 36.648438 21.515625 C 36.789062 21.65625 36.914062 21.804688 36.914062 22.023438 L 36.945312 21.992188 Z M 36.953125 21.992188 " fill-opacity="1" fill-rule="nonzero"/><path fill="#1c3c75" d="M 36.917969 22.023438 C 37.019531 22.078125 37.121094 22.132812 37.222656 22.1875 C 36.929688 22.402344 36.980469 22.140625 36.953125 21.992188 L 36.921875 22.023438 Z M 36.917969 22.023438 " fill-opacity="1" fill-rule="nonzero"/></svg>