<svg xmlns="http://www.w3.org/2000/svg" xmlns:xlink="http://www.w3.org/1999/xlink" width="109" zoomAndPan="magnify" viewBox="0 0 81.75 155.249994" height="207" preserveAspectRatio="xMidYMid meet" version="1.0"><defs><clipPath id="2e05992358"><path d="M 31 20 L 36 20 L 36 24 L 31 24 Z M 31 20 " clip-rule="nonzero"/></clipPath><clipPath id="9dd6a607ec"><path d="M 31.171875 21.707031 L 35.359375 20.703125 L 35.863281 22.808594 L 31.679688 23.8125 Z M 31.171875 21.707031 " clip-rule="nonzero"/></clipPath><clipPath id="a24ce64ba6"><path d="M 35.441406 21.699219 C 34.402344 22.953125 33.902344 23.265625 33.558594 23.347656 C 33.316406 23.40625 33.144531 23.351562 32.894531 23.300781 C 32.535156 23.210938 31.910156 22.996094 31.652344 22.785156 C 31.476562 22.652344 31.371094 22.472656 31.332031 22.320312 C 31.304688 22.199219 31.367188 22.058594 31.421875 21.949219 C 31.492188 21.851562 31.59375 21.746094 31.710938 21.703125 C 31.859375 21.652344 32.132812 21.664062 32.269531 21.761719 C 32.402344 21.855469 32.523438 22.097656 32.53125 22.257812 C 32.542969 22.378906 32.484375 22.523438 32.410156 22.621094 C 32.335938 22.714844 32.214844 22.808594 32.097656 22.839844 C 31.945312 22.875 31.675781 22.8125 31.539062 22.71875 C 31.445312 22.644531 31.378906 22.5 31.347656 22.378906 C 31.320312 22.261719 31.332031 22.113281 31.386719 22.003906 C 31.4375 21.894531 31.542969 21.792969 31.65625 21.734375 C 31.753906 21.675781 31.863281 21.667969 32.023438 21.675781 C 32.335938 21.714844 33.050781 22.226562 33.390625 22.191406 C 33.59375 22.175781 33.703125 22.039062 33.878906 21.898438 C 34.160156 21.671875 34.535156 20.914062 34.835938 20.839844 C 35.046875 20.789062 35.332031 20.914062 35.433594 21.066406 C 35.527344 21.199219 35.441406 21.699219 35.441406 21.699219 " clip-rule="nonzero"/></clipPath><clipPath id="142a94b591"><path d="M 41 19 L 46 19 L 46 23 L 41 23 Z M 41 19 " clip-rule="nonzero"/></clipPath><clipPath id="8a7b3b0142"><path d="M 41.105469 20.121094 L 45.09375 19.164062 L 45.644531 21.457031 L 41.660156 22.417969 Z M 41.105469 20.121094 " clip-rule="nonzero"/></clipPath><clipPath id="1f3dcbd2b4"><path d="M 42.15625 20.121094 C 43.039062 20.816406 43.25 20.828125 43.449219 20.734375 C 43.769531 20.59375 44.175781 19.839844 44.464844 19.707031 C 44.609375 19.640625 44.734375 19.644531 44.851562 19.664062 C 44.96875 19.683594 45.097656 19.761719 45.183594 19.855469 C 45.269531 19.945312 45.320312 20.09375 45.335938 20.214844 C 45.347656 20.339844 45.320312 20.492188 45.25 20.585938 C 45.175781 20.683594 45.058594 20.792969 44.9375 20.820312 C 44.789062 20.859375 44.515625 20.84375 44.378906 20.75 C 44.246094 20.652344 44.125 20.410156 44.128906 20.234375 C 44.136719 20.074219 44.285156 19.832031 44.40625 19.738281 C 44.515625 19.664062 44.667969 19.628906 44.785156 19.648438 C 44.914062 19.648438 45.054688 19.710938 45.140625 19.800781 C 45.246094 19.917969 45.351562 20.148438 45.335938 20.34375 C 45.308594 20.574219 45.058594 20.855469 44.84375 21.085938 C 44.601562 21.347656 44.269531 21.683594 43.921875 21.832031 C 43.558594 21.980469 43.078125 22.097656 42.679688 21.96875 C 42.195312 21.816406 41.386719 21.101562 41.265625 20.730469 C 41.199219 20.507812 41.308594 20.242188 41.421875 20.121094 C 41.511719 20.019531 41.660156 19.984375 41.789062 19.984375 C 41.917969 19.984375 42.15625 20.121094 42.15625 20.121094 " clip-rule="nonzero"/></clipPath><clipPath id="234b94c740"><path d="M 13 84 L 75 84 L 75 138 L 13 138 Z M 13 84 " clip-rule="nonzero"/></clipPath><clipPath id="004efcf961"><path d="M 15.292969 81.878906 L 75.976562 84.398438 L 73.703125 139.15625 L 13.019531 136.632812 Z M 15.292969 81.878906 " clip-rule="nonzero"/></clipPath><clipPath id="6f245009aa"><path d="M 62.585938 84.792969 C 65.878906 103.402344 72.679688 120.5625 73.722656 125.136719 C 74.027344 126.484375 74.15625 127.109375 74.074219 127.824219 C 74 128.335938 73.9375 128.644531 73.507812 129.089844 C 72.589844 130.128906 69.699219 131.554688 67.390625 132.695312 C 64.65625 134.070312 59.996094 135.988281 58.070312 136.578125 C 57.234375 136.851562 56.816406 137.039062 56.199219 136.960938 C 55.636719 136.886719 55.03125 136.605469 54.539062 136.121094 C 53.894531 135.527344 53.464844 134.636719 52.851562 133.324219 C 51.578125 130.542969 49.175781 123.960938 48.160156 119.90625 C 47.367188 116.683594 47.417969 114.265625 46.726562 111.097656 C 45.855469 107.253906 42.90625 100.1875 43.238281 98.449219 C 43.363281 97.941406 43.683594 97.644531 43.945312 97.554688 C 44.203125 97.511719 44.707031 97.738281 44.851562 97.953125 C 45 98.164062 44.835938 98.414062 44.761719 98.925781 C 44.464844 101.125 43.042969 110.535156 42.09375 116.050781 C 41.210938 121.265625 40.433594 127.558594 39.25 131.269531 C 38.539062 133.554688 37.933594 135.691406 36.816406 136.621094 C 36.015625 137.257812 35.199219 137.171875 34.0625 137.277344 C 32.203125 137.457031 29.4375 137.136719 26.621094 136.761719 C 22.9375 136.25 15.417969 135.167969 13.972656 134.078125 C 13.523438 133.75 13.335938 133.332031 13.394531 133.074219 C 13.457031 132.820312 13.933594 132.480469 14.191406 132.542969 C 14.445312 132.605469 15.027344 133.453125 14.914062 133.652344 C 14.804688 133.855469 13.816406 134.070312 13.617188 133.90625 C 13.417969 133.746094 13.390625 133.179688 13.503906 132.925781 C 13.617188 132.726562 13.878906 132.582031 14.34375 132.550781 C 16.152344 132.367188 24.589844 134.878906 28.226562 135.285156 C 30.582031 135.589844 32.6875 135.675781 34.082031 135.53125 C 34.910156 135.460938 35.472656 135.535156 36.007812 135.042969 C 36.914062 134.207031 37.300781 132.371094 37.96875 129.875 C 39.554688 123.921875 41.652344 101.882812 43.074219 98.648438 C 43.359375 97.992188 43.632812 97.644531 43.945312 97.554688 C 44.203125 97.460938 44.609375 97.632812 44.851562 97.953125 C 45.394531 98.539062 45.597656 99.835938 46.042969 101.5 C 47.066406 105.351562 48.410156 115.183594 50.03125 120.753906 C 51.285156 125.234375 53.195312 130.046875 54.378906 132.511719 C 54.945312 133.71875 55.210938 134.761719 55.867188 135.097656 C 56.421875 135.375 56.996094 135.144531 57.773438 134.96875 C 59.28125 134.621094 61.792969 133.59375 63.949219 132.550781 C 66.519531 131.320312 71.324219 129.613281 72.21875 127.953125 C 72.667969 127.046875 72.273438 126.617188 71.96875 125.214844 C 71.035156 120.496094 63.933594 101.882812 62.277344 94.660156 C 61.410156 90.816406 60.832031 87.347656 61.007812 85.605469 C 61.09375 84.835938 61.277344 84.121094 61.589844 84.03125 C 61.847656 83.941406 62.585938 84.792969 62.585938 84.792969 " clip-rule="nonzero"/></clipPath><clipPath id="9f511011d0"><path d="M 10 30 L 68 30 L 68 87 L 10 87 Z M 10 30 " clip-rule="nonzero"/></clipPath><clipPath id="3b6362cf48"><path d="M 10.003906 30.394531 L 69.515625 32.863281 L 67.285156 86.558594 L 7.773438 84.089844 Z M 10.003906 30.394531 " clip-rule="nonzero"/></clipPath><clipPath id="cf5dfc8116"><path d="M 66.925781 48.390625 C 64.992188 70.230469 68.589844 82.726562 66.839844 85.175781 C 66.183594 86.128906 65.375 85.785156 63.773438 85.925781 C 58.402344 86.421875 32.777344 85.152344 28.082031 84.238281 C 26.910156 83.980469 26.554688 83.863281 25.902344 83.476562 C 25.300781 83.09375 24.535156 82.90625 24.261719 82.019531 C 23.53125 79.828125 27.011719 71.636719 27.363281 68.101562 C 27.554688 65.949219 27.402344 64.707031 27.21875 62.898438 C 27.042969 60.933594 26.824219 58.765625 26.132812 56.832031 C 25.390625 54.847656 24.324219 53.257812 22.867188 51.191406 C 20.777344 48.222656 16.347656 44.644531 14.175781 41.15625 C 12.199219 37.988281 9.894531 32.796875 10.007812 31.308594 C 10.027344 30.847656 10.296875 30.550781 10.554688 30.457031 C 10.816406 30.367188 11.574219 30.707031 11.617188 30.964844 C 11.707031 31.226562 11.054688 32.074219 10.796875 32.0625 C 10.542969 32.050781 9.964844 31.050781 10.078125 30.847656 C 10.1875 30.648438 11.019531 30.425781 11.472656 30.703125 C 12.726562 31.472656 13.523438 37.117188 15.449219 40.230469 C 17.667969 43.824219 22.398438 47.621094 24.535156 50.695312 C 25.992188 52.8125 27 54.5 27.695312 56.382812 C 28.292969 58.054688 28.4375 59.605469 28.617188 61.464844 C 28.832031 63.683594 29.148438 66.015625 28.878906 68.78125 C 28.519531 72.472656 24.980469 79.578125 25.980469 81.578125 C 26.503906 82.574219 27.382812 82.507812 28.964844 82.832031 C 34.367188 84.035156 64.738281 82.515625 65.808594 84.003906 C 65.953125 84.214844 65.675781 84.71875 65.574219 84.710938 C 65.113281 84.640625 63.605469 70.121094 63.671875 63.640625 C 63.746094 58.085938 64.445312 49.933594 65.441406 48.226562 C 65.71875 47.773438 66.089844 47.53125 66.34375 47.59375 C 66.597656 47.65625 66.925781 48.390625 66.925781 48.390625 " clip-rule="nonzero"/></clipPath><clipPath id="af0301a8bf"><path d="M 39 29 L 44 29 L 44 32 L 39 32 Z M 39 29 " clip-rule="nonzero"/></clipPath><clipPath id="23140c93a6"><path d="M 39.585938 30.421875 L 43.410156 29.503906 L 43.753906 30.949219 L 39.933594 31.867188 Z M 39.585938 30.421875 " clip-rule="nonzero"/></clipPath><clipPath id="543d7896d1"><path d="M 40.097656 30.65625 C 41.886719 30.753906 42.050781 30.632812 42.265625 30.46875 C 42.535156 30.261719 42.808594 29.671875 43.046875 29.597656 C 43.179688 29.566406 43.386719 29.628906 43.4375 29.710938 C 43.496094 29.808594 43.457031 30.121094 43.359375 30.175781 C 43.261719 30.230469 42.941406 30.164062 42.886719 30.066406 C 42.832031 29.96875 42.917969 29.660156 43.015625 29.605469 C 43.113281 29.550781 43.425781 29.652344 43.46875 29.765625 C 43.542969 29.941406 43.207031 30.46875 42.953125 30.738281 C 42.65625 31.03125 42.148438 31.3125 41.761719 31.421875 C 41.449219 31.511719 41.15625 31.488281 40.847656 31.464844 C 40.519531 31.433594 40.050781 31.402344 39.871094 31.253906 C 39.753906 31.152344 39.691406 30.960938 39.730469 30.855469 C 39.769531 30.753906 40.097656 30.65625 40.097656 30.65625 " clip-rule="nonzero"/></clipPath><clipPath id="a79fa7f595"><path d="M 48 25 L 56 25 L 56 38 L 48 38 Z M 48 25 " clip-rule="nonzero"/></clipPath><clipPath id="03e4b703b0"><path d="M 45.863281 27.109375 L 53.390625 25.300781 L 56.054688 36.390625 L 48.527344 38.199219 Z M 45.863281 27.109375 " clip-rule="nonzero"/></clipPath><clipPath id="83d7fcabc8"><path d="M 52.246094 26.417969 C 55.25 32.964844 55.347656 33.226562 55.304688 33.585938 C 55.265625 33.949219 55.039062 34.335938 54.808594 34.632812 C 54.570312 34.910156 54.34375 35.03125 53.9375 35.320312 C 53.046875 35.933594 50.363281 37.757812 49.527344 37.941406 C 49.242188 38.007812 49.089844 37.964844 48.894531 37.886719 C 48.714844 37.800781 48.503906 37.660156 48.414062 37.476562 C 48.292969 37.25 48.28125 36.789062 48.378906 36.542969 C 48.460938 36.347656 48.625 36.164062 48.828125 36.085938 C 49.058594 35.980469 49.515625 35.964844 49.757812 36.101562 C 49.996094 36.234375 50.246094 36.605469 50.265625 36.886719 C 50.28125 37.15625 50.121094 37.558594 49.910156 37.738281 C 49.699219 37.914062 49.257812 38.003906 49 37.925781 C 48.742188 37.84375 48.414062 37.539062 48.332031 37.273438 C 48.25 37.003906 48.269531 36.679688 48.496094 36.355469 C 49.027344 35.589844 52.320312 34.433594 52.945312 33.707031 C 53.207031 33.40625 53.28125 33.261719 53.269531 32.882812 C 53.246094 32.042969 51.859375 30.0625 51.367188 28.9375 C 51.015625 28.128906 50.5625 27.3125 50.539062 26.808594 C 50.523438 26.542969 50.570312 26.355469 50.695312 26.199219 C 50.800781 26.046875 51.019531 25.898438 51.214844 25.851562 C 51.398438 25.808594 51.664062 25.855469 51.828125 25.941406 C 51.996094 26.046875 52.246094 26.417969 52.246094 26.417969 " clip-rule="nonzero"/></clipPath><clipPath id="d278915fa4"><path d="M 37 30 L 52 30 L 52 43 L 37 43 Z M 37 30 " clip-rule="nonzero"/></clipPath><clipPath id="e5576a9efc"><path d="M 36.582031 33.6875 L 51.347656 30.140625 L 54.019531 41.261719 L 39.253906 44.808594 Z M 36.582031 33.6875 " clip-rule="nonzero"/></clipPath><clipPath id="895dde9a82"><path d="M 41.984375 35.609375 C 50.523438 30.003906 51.039062 30.101562 51.292969 30.359375 C 51.523438 30.589844 51.488281 30.964844 51.480469 31.460938 C 51.476562 32.515625 50.984375 34.785156 50.605469 36.390625 C 50.234375 37.960938 49.578125 40.082031 49.242188 40.992188 C 49.082031 41.394531 49.03125 41.582031 48.855469 41.847656 C 48.671875 42.132812 48.394531 42.453125 48.117188 42.617188 C 47.847656 42.761719 47.523438 42.804688 47.238281 42.8125 C 46.953125 42.816406 46.644531 42.730469 46.363281 42.621094 C 46.070312 42.519531 45.84375 42.382812 45.523438 42.171875 C 45.03125 41.84375 44.203125 41.195312 43.753906 40.777344 C 43.429688 40.488281 43.246094 40.328125 42.984375 39.960938 C 42.550781 39.363281 41.816406 38.085938 41.5625 37.367188 C 41.386719 36.898438 41.527344 36.417969 41.328125 36.117188 C 41.148438 35.839844 40.683594 35.492188 40.457031 35.546875 C 40.230469 35.597656 40.082031 36.113281 39.964844 36.414062 C 39.84375 36.710938 39.773438 37.015625 39.75 37.324219 C 39.714844 37.636719 39.621094 38.105469 39.789062 38.273438 C 39.957031 38.4375 40.476562 38.425781 40.769531 38.308594 C 41.117188 38.160156 41.339844 37.5 41.683594 37.339844 C 41.972656 37.207031 42.371094 37.140625 42.636719 37.253906 C 42.886719 37.367188 43.175781 37.714844 43.226562 37.988281 C 43.277344 38.261719 43.144531 38.710938 42.953125 38.898438 C 42.757812 39.089844 42.308594 39.210938 42.046875 39.179688 C 41.832031 39.152344 41.613281 39.03125 41.476562 38.871094 C 41.34375 38.710938 41.226562 38.484375 41.21875 38.261719 C 41.21875 37.992188 41.390625 37.582031 41.585938 37.394531 C 41.742188 37.246094 41.992188 37.167969 42.199219 37.167969 C 42.40625 37.164062 42.660156 37.214844 42.820312 37.351562 C 43.019531 37.527344 43.25 37.886719 43.246094 38.207031 C 43.25 38.621094 42.929688 39.269531 42.558594 39.648438 C 42.121094 40.085938 41.230469 40.429688 40.6875 40.558594 C 40.328125 40.644531 40.023438 40.640625 39.707031 40.585938 C 39.390625 40.535156 39.078125 40.417969 38.808594 40.230469 C 38.515625 40.011719 38.242188 39.664062 38.0625 39.324219 C 37.886719 38.984375 37.769531 38.566406 37.726562 38.179688 C 37.683594 37.804688 37.683594 37.472656 37.753906 37.039062 C 37.855469 36.457031 38.117188 35.566406 38.355469 35.03125 C 38.519531 34.65625 38.667969 34.332031 38.914062 34.097656 C 39.144531 33.867188 39.425781 33.703125 39.785156 33.617188 C 40.296875 33.496094 41.289062 33.574219 41.785156 33.710938 C 42.109375 33.808594 42.3125 33.917969 42.535156 34.121094 C 42.78125 34.332031 42.980469 34.636719 43.128906 35 C 43.324219 35.476562 43.238281 36.183594 43.484375 36.808594 C 43.785156 37.582031 44.402344 38.566406 44.953125 39.199219 C 45.414062 39.726562 46 40.304688 46.480469 40.441406 C 46.804688 40.539062 47.136719 40.589844 47.414062 40.363281 C 48.082031 39.820312 48.523438 37.003906 48.917969 35.394531 C 49.277344 33.90625 49.355469 31.113281 49.71875 31.039062 C 49.902344 30.996094 50.378906 31.535156 50.308594 31.902344 C 50.121094 32.96875 44 36.6875 42.863281 37.070312 C 42.570312 37.171875 42.433594 37.140625 42.246094 37.089844 C 42.074219 37.039062 41.878906 36.894531 41.777344 36.726562 C 41.671875 36.558594 41.640625 36.296875 41.675781 36.113281 C 41.710938 35.929688 41.984375 35.609375 41.984375 35.609375 " clip-rule="nonzero"/></clipPath><clipPath id="7b7ef018b6"><path d="M 28 32 L 40 32 L 40 44 L 28 44 Z M 28 32 " clip-rule="nonzero"/></clipPath><clipPath id="85f256233d"><path d="M 26.84375 33.480469 L 38.433594 30.695312 L 40.964844 41.234375 L 29.378906 44.019531 Z M 26.84375 33.480469 " clip-rule="nonzero"/></clipPath><clipPath id="c3576e604c"><path d="M 38.621094 36.527344 C 35.980469 35.824219 34.207031 34.144531 33.433594 34.121094 C 33.082031 34.113281 32.878906 34.257812 32.625 34.539062 C 32.109375 35.109375 31.617188 36.902344 31.289062 38.066406 C 30.992188 39.15625 30.398438 40.863281 30.726562 41.292969 C 30.914062 41.550781 31.390625 41.46875 31.835938 41.394531 C 32.597656 41.257812 33.75 40.40625 34.804688 39.960938 C 35.949219 39.480469 37.667969 38.667969 38.464844 38.605469 C 38.839844 38.578125 39.125 38.621094 39.320312 38.78125 C 39.523438 38.957031 39.667969 39.367188 39.664062 39.609375 C 39.660156 39.800781 39.535156 40.007812 39.410156 40.148438 C 39.285156 40.289062 39.078125 40.417969 38.875 40.4375 C 38.625 40.464844 38.226562 40.335938 38.042969 40.15625 C 37.851562 39.964844 37.738281 39.5625 37.789062 39.308594 C 37.839844 39.058594 38.113281 38.738281 38.359375 38.628906 C 38.605469 38.523438 39.023438 38.597656 39.242188 38.722656 C 39.425781 38.820312 39.554688 39.027344 39.613281 39.207031 C 39.671875 39.382812 39.699219 39.632812 39.617188 39.8125 C 39.527344 40.039062 39.296875 40.207031 38.980469 40.410156 C 38.3125 40.824219 36.683594 41.203125 35.582031 41.671875 C 34.496094 42.125 33.226562 42.875 32.421875 43.179688 C 31.957031 43.355469 31.640625 43.449219 31.273438 43.503906 C 30.933594 43.554688 30.601562 43.632812 30.273438 43.523438 C 29.890625 43.390625 29.402344 43.015625 29.175781 42.667969 C 28.976562 42.367188 28.945312 41.976562 28.910156 41.632812 C 28.867188 41.324219 28.917969 41.058594 28.929688 40.71875 C 28.960938 40.3125 28.972656 39.898438 29.054688 39.382812 C 29.175781 38.683594 29.371094 37.777344 29.652344 36.894531 C 29.992188 35.84375 30.652344 34.21875 31.027344 33.519531 C 31.203125 33.191406 31.304688 33.023438 31.511719 32.816406 C 31.738281 32.570312 32.082031 32.277344 32.390625 32.15625 C 32.667969 32.058594 32.96875 32.050781 33.265625 32.089844 C 33.597656 32.140625 33.867188 32.265625 34.300781 32.480469 C 35.183594 32.90625 37.175781 34.371094 38.089844 34.710938 C 38.542969 34.871094 38.925781 34.75 39.171875 34.914062 C 39.359375 35.027344 39.488281 35.234375 39.546875 35.410156 C 39.597656 35.558594 39.601562 35.703125 39.554688 35.839844 C 39.5 36.011719 39.382812 36.25 39.21875 36.367188 C 39.070312 36.484375 38.621094 36.527344 38.621094 36.527344 " clip-rule="nonzero"/></clipPath><clipPath id="a1741adf1b"><path d="M 10 20 L 33 20 L 33 36 L 10 36 Z M 10 20 " clip-rule="nonzero"/></clipPath><clipPath id="aef2106dd9"><path d="M 8.40625 24.457031 L 28.742188 19.574219 L 32.613281 35.679688 L 12.277344 40.566406 Z M 8.40625 24.457031 " clip-rule="nonzero"/></clipPath><clipPath id="a7af5a0317"><path d="M 31.085938 35.753906 C 29.371094 34.460938 29.210938 34.261719 29.023438 33.746094 C 28.578125 32.546875 28.332031 28.875 27.996094 27.332031 C 27.796875 26.4375 27.65625 25.992188 27.414062 25.238281 C 27.109375 24.308594 26.898438 22.445312 26.210938 22.164062 C 25.554688 21.890625 24.585938 22.761719 23.453125 23.351562 C 21.484375 24.382812 17.070312 27.308594 15.621094 28.246094 C 15.054688 28.605469 14.925781 28.667969 14.453125 29.023438 C 13.65625 29.628906 12.171875 31.402344 11.410156 31.683594 C 11.058594 31.8125 10.722656 31.75 10.511719 31.660156 C 10.351562 31.601562 10.257812 31.480469 10.179688 31.339844 C 10.089844 31.167969 10.015625 30.867188 10.035156 30.671875 C 10.042969 30.511719 10.085938 30.355469 10.21875 30.246094 C 10.445312 30.0625 11.195312 29.867188 11.484375 30.003906 C 11.734375 30.121094 11.914062 30.539062 11.941406 30.789062 C 11.960938 30.992188 11.871094 31.21875 11.765625 31.371094 C 11.65625 31.527344 11.472656 31.683594 11.277344 31.730469 C 11.035156 31.789062 10.605469 31.730469 10.394531 31.574219 C 10.179688 31.417969 10.019531 31.011719 10.035156 30.75 C 10.054688 30.492188 10.300781 30.128906 10.507812 29.984375 C 10.667969 29.867188 10.90625 29.855469 11.101562 29.875 C 11.296875 29.890625 11.515625 30 11.660156 30.140625 C 11.800781 30.265625 11.902344 30.496094 11.933594 30.679688 C 11.960938 30.863281 11.910156 31.113281 11.820312 31.28125 C 11.71875 31.449219 11.535156 31.617188 11.363281 31.691406 C 11.1875 31.765625 10.761719 31.773438 10.753906 31.742188 C 10.742188 31.699219 11.726562 31.351562 11.753906 31.390625 C 11.773438 31.417969 11.535156 31.617188 11.410156 31.683594 C 11.28125 31.746094 11.113281 31.785156 10.953125 31.773438 C 10.757812 31.757812 10.476562 31.652344 10.332031 31.511719 C 10.183594 31.371094 10.054688 31.097656 10.027344 30.914062 C 10.007812 30.757812 10.007812 30.632812 10.09375 30.453125 C 10.226562 30.148438 10.628906 29.765625 11.046875 29.378906 C 11.640625 28.804688 12.363281 28.230469 13.453125 27.460938 C 15.496094 25.996094 20.601562 22.761719 22.566406 21.652344 C 23.464844 21.148438 23.90625 20.867188 24.585938 20.640625 C 25.21875 20.425781 26.019531 20.234375 26.527344 20.285156 C 26.871094 20.332031 27.113281 20.480469 27.34375 20.648438 C 27.578125 20.816406 27.757812 21.042969 27.917969 21.308594 C 28.121094 21.625 28.230469 21.949219 28.421875 22.476562 C 28.816406 23.515625 29.523438 25.527344 29.914062 27.222656 C 30.328125 29.082031 30.109375 31.957031 30.761719 33.21875 C 31.148438 33.953125 32.125 34.246094 32.304688 34.664062 C 32.410156 34.894531 32.367188 35.113281 32.3125 35.285156 C 32.265625 35.421875 32.167969 35.542969 32.0625 35.632812 C 31.953125 35.722656 31.828125 35.800781 31.695312 35.832031 C 31.523438 35.855469 31.085938 35.753906 31.085938 35.753906 " clip-rule="nonzero"/></clipPath><clipPath id="6684f2785f"><path d="M 27 10 L 50 10 L 50 23 L 27 23 Z M 27 10 " clip-rule="nonzero"/></clipPath><clipPath id="c6fa515747"><path d="M 25.5625 13.71875 L 47.445312 8.464844 L 49.714844 17.914062 L 27.832031 23.171875 Z M 25.5625 13.71875 " clip-rule="nonzero"/></clipPath><clipPath id="d36ebdce2d"><path d="M 29.285156 19.640625 C 29.148438 21.585938 29.101562 21.789062 28.992188 21.925781 C 28.90625 22.042969 28.78125 22.121094 28.652344 22.167969 C 28.472656 22.226562 28.207031 22.242188 28.015625 22.175781 C 27.839844 22.109375 27.652344 21.929688 27.554688 21.777344 C 27.476562 21.652344 27.414062 21.523438 27.441406 21.375 C 27.480469 21.140625 27.800781 20.953125 27.992188 20.558594 C 28.410156 19.707031 28.742188 16.839844 29.453125 16.347656 C 29.863281 16.074219 30.722656 16.125 30.898438 16.398438 C 31.15625 16.800781 29.878906 18.589844 29.710938 19.28125 C 29.621094 19.640625 29.785156 20.046875 29.617188 20.152344 C 29.410156 20.28125 28.511719 20 28.417969 19.738281 C 28.300781 19.445312 28.972656 18.855469 29.199219 18.355469 C 29.4375 17.816406 29.722656 16.601562 29.789062 16.617188 C 29.835938 16.621094 29.765625 17.246094 29.6875 17.664062 C 29.582031 18.277344 29.445312 19.632812 29.0625 19.902344 C 28.816406 20.070312 28.195312 20.011719 28.125 19.839844 C 27.996094 19.566406 29.167969 18.617188 29.691406 17.804688 C 30.367188 16.765625 31.285156 14.488281 31.738281 14.046875 C 31.882812 13.914062 31.953125 13.882812 32.09375 13.863281 C 32.261719 13.839844 32.507812 13.875 32.660156 13.96875 C 32.824219 14.054688 32.96875 14.261719 33.039062 14.417969 C 33.085938 14.550781 33.105469 14.625 33.070312 14.808594 C 32.957031 15.347656 31.726562 17.0625 31.519531 17.78125 C 31.417969 18.15625 31.585938 18.59375 31.445312 18.675781 C 31.304688 18.757812 30.773438 18.535156 30.695312 18.265625 C 30.503906 17.675781 32.1875 14.925781 32.640625 14.484375 C 32.785156 14.351562 32.875 14.332031 33.011719 14.3125 C 33.183594 14.289062 33.445312 14.320312 33.613281 14.425781 C 33.78125 14.527344 33.925781 14.730469 33.984375 14.910156 C 34.042969 15.085938 34.058594 15.417969 33.941406 15.523438 C 33.796875 15.65625 33.089844 15.570312 33.046875 15.453125 C 33.003906 15.335938 33.464844 15.066406 33.625 14.804688 C 33.820312 14.484375 33.828125 13.925781 34.046875 13.636719 C 34.226562 13.398438 34.496094 13.191406 34.722656 13.136719 C 34.917969 13.089844 35.179688 13.1875 35.347656 13.273438 C 35.476562 13.355469 35.582031 13.457031 35.648438 13.601562 C 35.722656 13.773438 35.796875 14.027344 35.734375 14.234375 C 35.65625 14.492188 35.214844 14.726562 35.011719 14.996094 C 34.816406 15.25 34.753906 15.792969 34.554688 15.824219 C 34.355469 15.855469 33.835938 15.488281 33.804688 15.222656 C 33.75 14.855469 34.585938 14.222656 34.90625 13.699219 C 35.199219 13.199219 35.328125 12.402344 35.664062 12.144531 C 35.890625 11.964844 36.230469 11.914062 36.46875 11.96875 C 36.703125 12.023438 36.996094 12.304688 37.078125 12.523438 C 37.15625 12.710938 37.128906 12.925781 37.054688 13.152344 C 36.960938 13.429688 36.671875 14.023438 36.457031 14.042969 C 36.257812 14.078125 35.863281 13.707031 35.820312 13.464844 C 35.777344 13.140625 36.292969 12.503906 36.523438 12.210938 C 36.683594 12.011719 36.800781 11.824219 37.007812 11.761719 C 37.246094 11.6875 37.648438 11.71875 37.859375 11.859375 C 38.070312 12 38.246094 12.339844 38.265625 12.621094 C 38.289062 12.980469 38.03125 13.761719 37.792969 13.835938 C 37.597656 13.882812 37.105469 13.503906 37.03125 13.253906 C 36.949219 12.984375 37.28125 12.234375 37.449219 12.210938 C 37.621094 12.1875 37.824219 13.046875 38.082031 13.113281 C 38.300781 13.171875 38.808594 12.890625 38.84375 12.707031 C 38.878906 12.523438 38.257812 12.257812 38.269531 11.96875 C 38.289062 11.53125 39.394531 10.691406 39.761719 10.429688 C 39.925781 10.308594 40.023438 10.253906 40.179688 10.234375 C 40.363281 10.203125 40.652344 10.214844 40.839844 10.328125 C 41.046875 10.457031 41.285156 10.714844 41.316406 11.058594 C 41.382812 11.730469 40.496094 14.078125 40.097656 14.140625 C 39.882812 14.175781 39.453125 13.707031 39.4375 13.390625 C 39.425781 12.933594 40.308594 11.90625 40.746094 11.59375 C 41.019531 11.402344 41.335938 11.339844 41.5625 11.351562 C 41.726562 11.359375 41.835938 11.429688 41.957031 11.527344 C 42.097656 11.652344 42.238281 11.84375 42.28125 12.085938 C 42.359375 12.46875 42.152344 13.664062 42.027344 13.679688 C 41.933594 13.683594 41.644531 13.085938 41.691406 12.816406 C 41.738281 12.535156 42.066406 12.1875 42.335938 12.042969 C 42.578125 11.921875 42.984375 11.886719 43.210938 11.976562 C 43.421875 12.050781 43.597656 12.25 43.6875 12.433594 C 43.78125 12.621094 43.769531 12.84375 43.734375 13.09375 C 43.671875 13.425781 43.414062 14.207031 43.210938 14.222656 C 43.035156 14.234375 42.628906 13.726562 42.640625 13.453125 C 42.667969 13.09375 43.417969 12.5 43.773438 12.320312 C 44 12.199219 44.234375 12.175781 44.4375 12.238281 C 44.679688 12.308594 44.992188 12.617188 45.101562 12.8125 C 45.183594 12.953125 45.191406 13.109375 45.164062 13.261719 C 45.125 13.445312 44.925781 13.875 44.859375 13.859375 C 44.8125 13.855469 44.71875 13.460938 44.789062 13.367188 C 44.863281 13.269531 45.078125 13.234375 45.238281 13.242188 C 45.429688 13.242188 45.726562 13.347656 45.882812 13.46875 C 46.015625 13.566406 46.097656 13.703125 46.148438 13.851562 C 46.210938 14.042969 46.230469 14.328125 46.15625 14.535156 C 46.074219 14.730469 45.738281 15.066406 45.722656 15.054688 C 45.703125 15.042969 46.285156 14.425781 46.210938 14.316406 C 46.140625 14.207031 45.335938 14.511719 45.296875 14.421875 C 45.261719 14.335938 45.859375 13.84375 46.105469 13.734375 C 46.265625 13.664062 46.421875 13.660156 46.570312 13.671875 C 46.714844 13.683594 46.867188 13.726562 47.003906 13.824219 C 47.160156 13.945312 47.355469 14.167969 47.421875 14.375 C 47.488281 14.582031 47.433594 14.882812 47.363281 15.058594 C 47.300781 15.199219 47.164062 15.425781 47.066406 15.417969 C 46.9375 15.402344 46.617188 14.664062 46.679688 14.601562 C 46.769531 14.515625 48.058594 15.355469 48.03125 15.441406 C 48 15.511719 47.183594 15.4375 47.144531 15.335938 C 47.121094 15.246094 47.453125 14.972656 47.65625 14.878906 C 47.855469 14.78125 48.148438 14.742188 48.347656 14.773438 C 48.511719 14.796875 48.65625 14.859375 48.777344 14.972656 C 48.921875 15.113281 49.09375 15.359375 49.117188 15.59375 C 49.136719 15.859375 48.828125 16.175781 48.816406 16.464844 C 48.804688 16.738281 49.046875 17.03125 48.992188 17.265625 C 48.949219 17.484375 48.769531 17.71875 48.589844 17.839844 C 48.414062 17.964844 48.125 18.03125 47.914062 18.019531 C 47.753906 18.011719 47.601562 17.96875 47.460938 17.855469 C 47.28125 17.695312 46.933594 17.1875 47.03125 17.050781 C 47.171875 16.84375 48.921875 17.09375 49.0625 17.34375 C 49.140625 17.484375 48.941406 17.773438 48.800781 17.917969 C 48.660156 18.0625 48.453125 18.191406 48.253906 18.238281 C 48.058594 18.289062 47.808594 18.234375 47.628906 18.152344 C 47.449219 18.066406 47.265625 17.902344 47.183594 17.699219 C 47.097656 17.464844 47.113281 17 47.214844 16.769531 C 47.296875 16.574219 47.488281 16.433594 47.675781 16.355469 C 47.863281 16.277344 48.109375 16.234375 48.316406 16.296875 C 48.558594 16.382812 48.914062 16.664062 49.003906 16.914062 C 49.101562 17.175781 49.011719 17.613281 48.875 17.835938 C 48.761719 18.023438 48.550781 18.136719 48.359375 18.199219 C 48.164062 18.261719 47.925781 18.253906 47.734375 18.191406 C 47.542969 18.125 47.34375 17.964844 47.242188 17.796875 C 47.136719 17.632812 46.980469 17.320312 47.09375 17.179688 C 47.269531 16.929688 48.855469 16.820312 49.015625 17.023438 C 49.109375 17.144531 48.898438 17.527344 48.777344 17.683594 C 48.679688 17.820312 48.542969 17.914062 48.378906 17.957031 C 48.136719 18.011719 47.691406 18.007812 47.460938 17.855469 C 47.234375 17.703125 47.085938 17.355469 47.03125 17.050781 C 46.964844 16.71875 47.03125 16.269531 47.136719 15.910156 C 47.242188 15.550781 47.441406 15.054688 47.65625 14.878906 C 47.789062 14.765625 47.957031 14.742188 48.117188 14.75 C 48.324219 14.75 48.621094 14.851562 48.777344 14.972656 C 48.914062 15.070312 48.996094 15.210938 49.0625 15.351562 C 49.125 15.496094 49.164062 15.648438 49.128906 15.832031 C 49.054688 16.121094 48.75 16.65625 48.402344 16.867188 C 48.019531 17.117188 47.195312 17.28125 46.808594 17.121094 C 46.488281 16.992188 46.265625 16.535156 46.160156 16.222656 C 46.0625 15.945312 46.035156 15.363281 46.09375 15.347656 C 46.15625 15.332031 46.710938 16.457031 46.617188 16.53125 C 46.523438 16.601562 45.734375 16.105469 45.554688 15.765625 C 45.386719 15.453125 45.433594 14.980469 45.496094 14.648438 C 45.554688 14.363281 45.695312 14.023438 45.898438 13.863281 C 46.070312 13.726562 46.375 13.667969 46.570312 13.671875 C 46.730469 13.679688 46.863281 13.710938 47.003906 13.824219 C 47.183594 13.96875 47.421875 14.375 47.460938 14.605469 C 47.488281 14.773438 47.441406 14.914062 47.363281 15.058594 C 47.292969 15.21875 47.152344 15.363281 46.980469 15.519531 C 46.761719 15.730469 46.476562 16.070312 46.121094 16.1875 C 45.722656 16.328125 45.039062 16.398438 44.707031 16.207031 C 44.390625 16.027344 44.15625 15.511719 44.105469 15.171875 C 44.070312 14.878906 44.191406 14.59375 44.300781 14.3125 C 44.414062 13.996094 44.539062 13.519531 44.789062 13.367188 C 45.011719 13.234375 45.453125 13.269531 45.675781 13.34375 C 45.835938 13.402344 45.941406 13.519531 46.035156 13.640625 C 46.128906 13.761719 46.199219 13.921875 46.203125 14.078125 C 46.21875 14.265625 46.160156 14.566406 46.058594 14.734375 C 45.980469 14.878906 45.84375 14.960938 45.722656 15.054688 C 45.585938 15.152344 45.464844 15.246094 45.273438 15.320312 C 44.980469 15.425781 44.441406 15.632812 44.082031 15.527344 C 43.6875 15.414062 43.179688 14.964844 43.039062 14.566406 C 42.898438 14.1875 43.0625 13.605469 43.175781 13.226562 C 43.261719 12.917969 43.402344 12.632812 43.582031 12.460938 C 43.753906 12.308594 43.984375 12.203125 44.210938 12.214844 C 44.449219 12.21875 44.832031 12.414062 44.988281 12.601562 C 45.125 12.773438 45.164062 13.070312 45.164062 13.261719 C 45.152344 13.421875 45.113281 13.527344 45.007812 13.679688 C 44.808594 13.984375 44.210938 14.539062 43.832031 14.824219 C 43.53125 15.039062 43.265625 15.246094 42.972656 15.300781 C 42.699219 15.351562 42.371094 15.316406 42.121094 15.203125 C 41.851562 15.074219 41.546875 14.796875 41.445312 14.503906 C 41.316406 14.167969 41.414062 13.648438 41.527344 13.257812 C 41.644531 12.878906 41.878906 12.40625 42.160156 12.179688 C 42.386719 11.996094 42.738281 11.867188 42.992188 11.917969 C 43.242188 11.96875 43.585938 12.203125 43.6875 12.433594 C 43.792969 12.664062 43.761719 13.007812 43.644531 13.304688 C 43.460938 13.75 42.8125 14.429688 42.390625 14.722656 C 42.070312 14.925781 41.765625 15.113281 41.449219 15.058594 C 41.050781 14.996094 40.453125 14.488281 40.261719 14.101562 C 40.105469 13.773438 40.171875 13.390625 40.238281 13.007812 C 40.308594 12.5625 40.472656 11.851562 40.746094 11.59375 C 40.953125 11.402344 41.332031 11.3125 41.5625 11.351562 C 41.777344 11.378906 41.988281 11.519531 42.109375 11.699219 C 42.234375 11.890625 42.328125 12.203125 42.257812 12.523438 C 42.128906 13.046875 41.3125 13.960938 40.867188 14.417969 C 40.558594 14.734375 40.328125 15.042969 39.980469 15.109375 C 39.597656 15.1875 38.917969 15 38.648438 14.746094 C 38.421875 14.527344 38.328125 14.136719 38.328125 13.800781 C 38.3125 13.40625 38.515625 12.992188 38.691406 12.535156 C 38.917969 11.953125 39.292969 10.988281 39.617188 10.605469 C 39.804688 10.402344 40 10.292969 40.179688 10.234375 C 40.324219 10.179688 40.472656 10.195312 40.625 10.238281 C 40.800781 10.304688 41.058594 10.453125 41.167969 10.632812 C 41.28125 10.84375 41.351562 11.195312 41.25 11.507812 C 41.082031 12.007812 40.214844 12.773438 39.785156 13.164062 C 39.480469 13.429688 39.308594 13.644531 38.964844 13.746094 C 38.546875 13.859375 37.742188 13.894531 37.410156 13.640625 C 37.097656 13.394531 36.933594 12.71875 37 12.335938 C 37.0625 11.984375 37.394531 11.523438 37.707031 11.417969 C 38.042969 11.304688 38.699219 11.511719 38.960938 11.738281 C 39.167969 11.925781 39.265625 12.269531 39.269531 12.554688 C 39.261719 12.859375 39.082031 13.160156 38.902344 13.472656 C 38.683594 13.828125 38.371094 14.316406 38.042969 14.554688 C 37.773438 14.75 37.453125 14.875 37.148438 14.867188 C 36.824219 14.847656 36.386719 14.683594 36.183594 14.445312 C 35.988281 14.21875 35.921875 13.820312 35.953125 13.480469 C 35.984375 13.074219 36.3125 12.515625 36.523438 12.210938 C 36.667969 12 36.835938 11.847656 37.007812 11.761719 C 37.148438 11.695312 37.304688 11.671875 37.453125 11.699219 C 37.636719 11.734375 37.902344 11.832031 38.039062 12.007812 C 38.179688 12.195312 38.25 12.5625 38.238281 12.835938 C 38.21875 13.09375 38.097656 13.316406 37.957031 13.589844 C 37.757812 13.953125 37.476562 14.453125 37.101562 14.75 C 36.714844 15.066406 36.082031 15.472656 35.679688 15.394531 C 35.292969 15.3125 34.808594 14.695312 34.691406 14.324219 C 34.585938 14.03125 34.683594 13.703125 34.800781 13.390625 C 34.957031 12.984375 35.371094 12.375 35.664062 12.144531 C 35.867188 12 36.078125 11.9375 36.269531 11.9375 C 36.460938 11.9375 36.707031 12.039062 36.847656 12.164062 C 36.996094 12.304688 37.113281 12.53125 37.128906 12.734375 C 37.144531 12.9375 37.09375 13.109375 36.984375 13.390625 C 36.769531 13.953125 36.191406 15.207031 35.625 15.824219 C 35.128906 16.355469 34.367188 17.03125 33.859375 16.980469 C 33.421875 16.941406 32.863281 16.277344 32.746094 15.859375 C 32.636719 15.472656 32.839844 14.992188 33.078125 14.585938 C 33.371094 14.082031 34.113281 13.378906 34.515625 13.203125 C 34.746094 13.101562 34.957031 13.113281 35.148438 13.179688 C 35.339844 13.246094 35.546875 13.449219 35.648438 13.601562 C 35.726562 13.726562 35.753906 13.847656 35.765625 14.019531 C 35.777344 14.269531 35.679688 14.660156 35.558594 14.960938 C 35.445312 15.277344 35.230469 15.582031 35.054688 15.847656 C 34.890625 16.09375 34.761719 16.347656 34.523438 16.550781 C 34.214844 16.796875 33.6875 17.195312 33.320312 17.125 C 32.921875 17.046875 32.359375 16.367188 32.238281 15.933594 C 32.125 15.53125 32.308594 14.898438 32.5 14.628906 C 32.632812 14.453125 32.828125 14.339844 33.011719 14.3125 C 33.199219 14.285156 33.453125 14.351562 33.613281 14.425781 C 33.742188 14.488281 33.84375 14.589844 33.90625 14.71875 C 33.992188 14.875 34.050781 15.050781 34.007812 15.332031 C 33.882812 16.082031 32.550781 18.488281 31.914062 19.167969 C 31.597656 19.5 31.335938 19.738281 31.011719 19.71875 C 30.621094 19.6875 29.925781 19.121094 29.757812 18.683594 C 29.597656 18.273438 29.8125 17.710938 29.953125 17.234375 C 30.101562 16.71875 30.371094 16.191406 30.660156 15.675781 C 30.960938 15.125 31.449219 14.304688 31.738281 14.046875 C 31.871094 13.933594 31.953125 13.882812 32.09375 13.863281 C 32.261719 13.839844 32.507812 13.875 32.660156 13.96875 C 32.824219 14.054688 32.980469 14.242188 33.039062 14.417969 C 33.097656 14.597656 33.082031 14.726562 33.003906 15 C 32.75 15.875 30.929688 19.117188 30.121094 20.125 C 29.71875 20.636719 29.425781 21.011719 29.007812 21.125 C 28.601562 21.238281 27.972656 21.136719 27.6875 20.886719 C 27.429688 20.660156 27.335938 20.203125 27.324219 19.761719 C 27.300781 19.128906 27.566406 18.125 27.871094 17.460938 C 28.15625 16.851562 28.660156 16.234375 29.035156 15.875 C 29.296875 15.636719 29.492188 15.445312 29.8125 15.386719 C 30.226562 15.316406 31.046875 15.421875 31.3125 15.726562 C 31.558594 16.019531 31.492188 16.609375 31.410156 17.136719 C 31.296875 17.914062 30.738281 19.179688 30.332031 19.882812 C 30.039062 20.382812 29.777344 21.019531 29.410156 21.078125 C 29.011719 21.140625 28.136719 20.492188 27.953125 20.054688 C 27.78125 19.683594 27.984375 19.265625 28.117188 18.757812 C 28.328125 17.972656 28.945312 16.488281 29.332031 15.914062 C 29.53125 15.613281 29.691406 15.414062 29.9375 15.308594 C 30.191406 15.183594 30.660156 15.070312 30.84375 15.234375 C 31.101562 15.441406 31.066406 16.230469 30.996094 16.871094 C 30.890625 17.820312 30.1875 19.40625 29.804688 20.328125 C 29.527344 20.96875 29.289062 21.632812 28.992188 21.925781 C 28.8125 22.113281 28.644531 22.203125 28.441406 22.21875 C 28.207031 22.242188 27.832031 22.078125 27.671875 21.941406 C 27.550781 21.84375 27.507812 21.726562 27.472656 21.574219 C 27.425781 21.378906 27.433594 21.152344 27.445312 20.863281 C 27.457031 20.445312 27.484375 19.640625 27.640625 19.285156 C 27.730469 19.074219 27.855469 18.917969 28.023438 18.828125 C 28.222656 18.730469 28.605469 18.71875 28.8125 18.796875 C 28.988281 18.867188 29.152344 19.082031 29.222656 19.242188 C 29.285156 19.371094 29.285156 19.640625 29.285156 19.640625 " clip-rule="nonzero"/></clipPath><clipPath id="53dbe50512"><path d="M 47 19 L 51 19 L 51 33 L 47 33 Z M 47 19 " clip-rule="nonzero"/></clipPath><clipPath id="cf53637fda"><path d="M 45.105469 20.023438 L 49.160156 19.050781 L 52.097656 31.28125 L 48.042969 32.253906 Z M 45.105469 20.023438 " clip-rule="nonzero"/></clipPath><clipPath id="f9f4e62897"><path d="M 49.355469 19.90625 C 50.347656 25.355469 50.476562 26.21875 50.40625 27.320312 C 50.316406 28.617188 49.929688 30.910156 49.574219 31.554688 C 49.4375 31.792969 49.3125 31.871094 49.144531 31.960938 C 48.972656 32.046875 48.726562 32.074219 48.542969 32.039062 C 48.359375 32.003906 48.15625 31.894531 48.035156 31.730469 C 47.890625 31.527344 47.765625 31.128906 47.832031 30.871094 C 47.898438 30.617188 48.210938 30.335938 48.441406 30.230469 C 48.628906 30.152344 48.859375 30.179688 49.03125 30.234375 C 49.203125 30.285156 49.398438 30.429688 49.503906 30.597656 C 49.617188 30.808594 49.6875 31.238281 49.613281 31.464844 C 49.5625 31.652344 49.394531 31.804688 49.226562 31.90625 C 49.0625 32.011719 48.835938 32.066406 48.640625 32.046875 C 48.460938 32.027344 48.242188 31.921875 48.101562 31.796875 C 47.957031 31.671875 47.867188 31.550781 47.816406 31.273438 C 47.675781 30.496094 48.5625 27.9375 48.609375 26.539062 C 48.648438 25.445312 48.464844 24.613281 48.316406 23.597656 C 48.140625 22.476562 47.558594 20.78125 47.621094 20.113281 C 47.652344 19.835938 47.722656 19.675781 47.847656 19.535156 C 47.972656 19.390625 48.210938 19.253906 48.402344 19.242188 C 48.589844 19.226562 48.84375 19.292969 48.996094 19.402344 C 49.148438 19.507812 49.355469 19.90625 49.355469 19.90625 " clip-rule="nonzero"/></clipPath><clipPath id="2a3227f2e7"><path d="M 47 17 L 50 17 L 50 21 L 47 21 Z M 47 17 " clip-rule="nonzero"/></clipPath><clipPath id="d8b1604705"><path d="M 46.992188 17.582031 L 49.460938 16.988281 L 50.265625 20.351562 L 47.796875 20.945312 Z M 46.992188 17.582031 " clip-rule="nonzero"/></clipPath><clipPath id="8432bf6d54"><path d="M 48.316406 17.363281 C 49.1875 17.730469 49.605469 18.089844 49.761719 18.40625 C 49.890625 18.675781 49.898438 18.976562 49.859375 19.273438 C 49.824219 19.585938 49.660156 19.976562 49.507812 20.203125 C 49.390625 20.375 49.269531 20.53125 49.089844 20.589844 C 48.871094 20.675781 48.457031 20.664062 48.238281 20.554688 C 48.058594 20.472656 47.9375 20.292969 47.863281 20.121094 C 47.789062 19.945312 47.765625 19.714844 47.835938 19.539062 C 47.90625 19.3125 48.179688 18.992188 48.417969 18.917969 C 48.65625 18.84375 49.058594 18.925781 49.25 19.054688 C 49.417969 19.15625 49.511719 19.355469 49.570312 19.535156 C 49.628906 19.710938 49.636719 19.933594 49.550781 20.113281 C 49.445312 20.332031 49.144531 20.609375 48.902344 20.667969 C 48.660156 20.726562 48.269531 20.613281 48.082031 20.433594 C 47.898438 20.269531 47.808594 19.832031 47.8125 19.636719 C 47.816406 19.527344 47.839844 19.425781 47.902344 19.359375 C 47.980469 19.28125 48.296875 19.265625 48.296875 19.203125 C 48.292969 19.125 47.757812 19.078125 47.5625 18.933594 C 47.390625 18.816406 47.257812 18.59375 47.203125 18.429688 C 47.152344 18.296875 47.152344 18.15625 47.183594 18.019531 C 47.222656 17.851562 47.351562 17.597656 47.519531 17.492188 C 47.710938 17.367188 48.332031 17.363281 48.332031 17.363281 " clip-rule="nonzero"/></clipPath><clipPath id="933dd289f4"><path d="M 48 16 L 69 16 L 69 55 L 48 55 Z M 48 16 " clip-rule="nonzero"/></clipPath><clipPath id="b643ff6287"><path d="M 48.128906 18.382812 L 62.871094 14.839844 L 72.003906 52.867188 L 57.265625 56.410156 Z M 48.128906 18.382812 " clip-rule="nonzero"/></clipPath><clipPath id="e56eb94db7"><path d="M 49.03125 18.613281 C 54.796875 16.796875 55.320312 16.65625 55.964844 16.5625 C 56.597656 16.472656 57.339844 16.375 57.832031 16.433594 C 58.179688 16.476562 58.394531 16.519531 58.691406 16.6875 C 59.117188 16.9375 59.574219 17.449219 60.050781 17.972656 C 60.675781 18.652344 61.5 19.679688 62.082031 20.449219 C 62.554688 21.085938 62.910156 21.574219 63.304688 22.226562 C 63.734375 22.953125 64.121094 23.625 64.546875 24.609375 C 65.179688 26.050781 65.976562 28.441406 66.492188 30.183594 C 66.929688 31.671875 67.242188 33.046875 67.511719 34.371094 C 67.75 35.554688 67.914062 36.632812 68.039062 37.75 C 68.160156 38.851562 68.246094 39.867188 68.222656 41.039062 C 68.191406 42.367188 68.070312 43.65625 67.785156 45.320312 C 67.378906 47.679688 66.21875 52.742188 65.71875 53.835938 C 65.578125 54.121094 65.523438 54.214844 65.359375 54.335938 C 65.210938 54.449219 64.976562 54.539062 64.785156 54.535156 C 64.59375 54.535156 64.355469 54.480469 64.195312 54.34375 C 64.015625 54.179688 63.808594 53.785156 63.824219 53.523438 C 63.839844 53.25 64.066406 52.875 64.289062 52.742188 C 64.515625 52.609375 64.953125 52.582031 65.191406 52.703125 C 65.425781 52.820312 65.671875 53.175781 65.726562 53.417969 C 65.773438 53.613281 65.722656 53.863281 65.636719 54.03125 C 65.546875 54.195312 65.371094 54.378906 65.175781 54.441406 C 64.945312 54.53125 64.515625 54.539062 64.289062 54.402344 C 64.066406 54.261719 63.882812 54.035156 63.816406 53.621094 C 63.601562 52.269531 65.628906 46.90625 66.027344 44.578125 C 66.273438 43.148438 66.332031 42.191406 66.359375 41.054688 C 66.378906 40 66.324219 39.039062 66.21875 38.011719 C 66.109375 36.953125 65.941406 35.925781 65.71875 34.800781 C 65.457031 33.507812 65.179688 32.15625 64.726562 30.671875 C 64.175781 28.84375 63.230469 26.230469 62.484375 24.65625 C 61.96875 23.570312 61.5625 22.933594 60.929688 22.035156 C 60.199219 20.980469 58.886719 19.433594 58.257812 18.800781 C 57.964844 18.507812 57.902344 18.3125 57.558594 18.21875 C 56.910156 18.042969 55.617188 18.429688 54.46875 18.691406 C 52.972656 19.035156 50.273438 20.273438 49.402344 20.292969 C 49.101562 20.300781 48.957031 20.238281 48.804688 20.132812 C 48.652344 20.023438 48.519531 19.800781 48.476562 19.621094 C 48.433594 19.441406 48.464844 19.175781 48.550781 19.011719 C 48.640625 18.847656 49.03125 18.613281 49.03125 18.613281 " clip-rule="nonzero"/></clipPath><clipPath id="9a885c5a76"><path d="M 2 134 L 32 134 L 32 147 L 2 147 Z M 2 134 " clip-rule="nonzero"/></clipPath><clipPath id="bc53db8110"><path d="M 1.265625 138.769531 L 29.683594 131.941406 L 32.582031 144.011719 L 4.164062 150.835938 Z M 1.265625 138.769531 " clip-rule="nonzero"/></clipPath><clipPath id="aa44816a4e"><path d="M 31.078125 138.324219 C 29.535156 142.710938 29.453125 142.90625 29.257812 143.226562 C 29.039062 143.578125 28.777344 143.945312 28.40625 144.257812 C 27.96875 144.632812 27.417969 144.925781 26.710938 145.222656 C 25.652344 145.667969 23.878906 146.109375 22.585938 146.375 C 21.476562 146.59375 20.566406 146.667969 19.425781 146.75 C 18.09375 146.847656 16.386719 146.84375 15.078125 146.839844 C 14.023438 146.835938 13.246094 146.847656 12.195312 146.78125 C 10.929688 146.6875 8.972656 146.441406 8.007812 146.273438 C 7.507812 146.1875 7.308594 146.152344 6.863281 146.023438 C 6.15625 145.808594 5 145.433594 4.261719 145.019531 C 3.636719 144.675781 3.007812 144.238281 2.695312 143.804688 C 2.460938 143.492188 2.3125 143.144531 2.339844 142.851562 C 2.367188 142.574219 2.546875 142.324219 2.816406 142.050781 C 3.300781 141.550781 4.511719 140.878906 5.320312 140.460938 C 6.015625 140.105469 6.472656 139.945312 7.363281 139.605469 C 9.03125 138.980469 12.871094 137.980469 14.570312 137.15625 C 15.585938 136.671875 16.25 136.128906 16.847656 135.683594 C 17.265625 135.375 17.554688 134.925781 17.867188 134.820312 C 18.074219 134.753906 18.285156 134.78125 18.460938 134.851562 C 18.640625 134.917969 18.832031 135.0625 18.9375 135.230469 C 19.039062 135.398438 19.109375 135.621094 19.078125 135.820312 C 19.042969 136.066406 18.816406 136.457031 18.589844 136.574219 C 18.363281 136.691406 17.933594 136.699219 17.699219 136.582031 C 17.464844 136.460938 17.25 136.097656 17.191406 135.855469 C 17.144531 135.660156 17.183594 135.429688 17.300781 135.257812 C 17.441406 135.046875 17.816406 134.8125 18.066406 134.785156 C 18.265625 134.753906 18.476562 134.847656 18.644531 134.949219 C 18.800781 135.054688 18.980469 135.21875 19.027344 135.414062 C 19.101562 135.652344 19.046875 136.015625 18.894531 136.308594 C 18.699219 136.691406 18.191406 137.035156 17.734375 137.386719 C 17.179688 137.804688 16.535156 138.246094 15.816406 138.625 C 14.980469 139.066406 14.066406 139.382812 12.980469 139.769531 C 11.574219 140.28125 9.390625 140.824219 8.023438 141.359375 C 7.03125 141.742188 6.1875 142.277344 5.496094 142.523438 C 5.039062 142.679688 4.34375 142.640625 4.304688 142.808594 C 4.277344 142.960938 4.769531 143.210938 5.085938 143.402344 C 5.511719 143.652344 6.066406 143.902344 6.722656 144.109375 C 7.671875 144.410156 9.179688 144.652344 10.269531 144.804688 C 11.210938 144.945312 11.800781 145.011719 12.894531 145.050781 C 14.714844 145.125 18.25 145.121094 20.121094 144.941406 C 21.320312 144.828125 22.125 144.652344 23.046875 144.445312 C 23.910156 144.253906 24.78125 144.03125 25.523438 143.738281 C 26.195312 143.480469 26.933594 143.175781 27.347656 142.839844 C 27.644531 142.609375 27.742188 142.425781 27.945312 142.074219 C 28.328125 141.40625 28.902344 139.820312 29.144531 139.042969 C 29.289062 138.578125 29.265625 138.21875 29.402344 137.914062 C 29.492188 137.699219 29.589844 137.503906 29.753906 137.398438 C 29.921875 137.292969 30.183594 137.25 30.359375 137.253906 C 30.503906 137.265625 30.628906 137.316406 30.746094 137.398438 C 30.882812 137.511719 31.035156 137.746094 31.089844 137.90625 C 31.121094 138.042969 31.078125 138.324219 31.078125 138.324219 " clip-rule="nonzero"/></clipPath><clipPath id="ca36446aa2"><path d="M 51 131 L 73 131 L 73 150 L 51 150 Z M 51 131 " clip-rule="nonzero"/></clipPath><clipPath id="ee38800f3c"><path d="M 48.828125 136.355469 L 70.894531 131.054688 L 74.152344 144.617188 L 52.085938 149.917969 Z M 48.828125 136.355469 " clip-rule="nonzero"/></clipPath><clipPath id="70de71e572"><path d="M 70.882812 131.820312 C 71.960938 135.101562 72.160156 136.34375 72.09375 137.125 C 72.058594 137.644531 71.945312 137.960938 71.730469 138.394531 C 71.433594 138.960938 70.867188 139.589844 70.351562 140.160156 C 69.78125 140.773438 69.199219 141.265625 68.429688 141.914062 C 67.378906 142.785156 65.878906 143.976562 64.566406 144.882812 C 63.28125 145.765625 61.597656 146.789062 60.625 147.3125 C 60.085938 147.597656 59.855469 147.703125 59.332031 147.90625 C 58.527344 148.210938 57.175781 148.679688 56.238281 148.890625 C 55.480469 149.054688 54.828125 149.132812 54.164062 149.148438 C 53.546875 149.171875 52.773438 149.210938 52.359375 149.007812 C 52.054688 148.859375 51.796875 148.585938 51.726562 148.300781 C 51.632812 147.972656 51.757812 147.558594 51.992188 147.074219 C 52.441406 146.105469 54.453125 144.1875 55.070312 143.242188 C 55.398438 142.746094 55.488281 142.519531 55.707031 142.035156 C 56.003906 141.359375 56.429688 140.332031 56.589844 139.480469 C 56.746094 138.660156 56.546875 137.511719 56.695312 137 C 56.761719 136.746094 56.839844 136.597656 57.003906 136.480469 C 57.207031 136.335938 57.605469 136.207031 57.859375 136.273438 C 58.117188 136.339844 58.425781 136.632812 58.515625 136.882812 C 58.609375 137.128906 58.546875 137.542969 58.390625 137.753906 C 58.238281 137.96875 57.84375 138.125 57.59375 138.140625 C 57.386719 138.140625 57.175781 138.0625 57.03125 137.921875 C 56.863281 137.757812 56.683594 137.335938 56.6875 137.097656 C 56.6875 136.890625 56.8125 136.683594 56.9375 136.542969 C 57.0625 136.402344 57.273438 136.285156 57.457031 136.257812 C 57.644531 136.230469 57.890625 136.265625 58.054688 136.355469 C 58.21875 136.441406 58.378906 136.5625 58.476562 136.777344 C 58.640625 137.121094 58.628906 137.8125 58.605469 138.375 C 58.582031 139.015625 58.445312 139.769531 58.269531 140.429688 C 58.101562 141.0625 57.875 141.640625 57.609375 142.265625 C 57.3125 142.957031 57.039062 143.597656 56.539062 144.371094 C 55.828125 145.464844 54.15625 148.066406 53.519531 148.0625 C 53.214844 148.054688 52.777344 147.425781 52.859375 147.246094 C 52.996094 146.941406 54.878906 147.289062 55.800781 147.144531 C 56.628906 147.011719 57.371094 146.769531 58.144531 146.488281 C 58.953125 146.199219 59.730469 145.851562 60.5625 145.398438 C 61.507812 144.882812 62.414062 144.28125 63.496094 143.480469 C 64.988281 142.386719 67.457031 140.378906 68.609375 139.269531 C 69.273438 138.648438 69.78125 138.175781 70.058594 137.679688 C 70.234375 137.351562 70.292969 137.128906 70.332031 136.753906 C 70.375 136.199219 70.234375 135.359375 70.066406 134.664062 C 69.894531 133.941406 69.382812 133.011719 69.28125 132.511719 C 69.234375 132.25 69.195312 132.085938 69.257812 131.894531 C 69.324219 131.703125 69.5 131.5 69.652344 131.402344 C 69.777344 131.324219 69.910156 131.289062 70.054688 131.289062 C 70.230469 131.292969 70.503906 131.371094 70.644531 131.480469 C 70.757812 131.566406 70.882812 131.820312 70.882812 131.820312 " clip-rule="nonzero"/></clipPath><clipPath id="7af1f68e02"><path d="M 6 13 L 17 13 L 17 28 L 6 28 Z M 6 13 " clip-rule="nonzero"/></clipPath><clipPath id="277994b423"><path d="M 6.597656 13.886719 L 13.25 12.289062 L 16.753906 26.871094 L 10.097656 28.46875 Z M 6.597656 13.886719 " clip-rule="nonzero"/></clipPath><clipPath id="6f453d3187"><path d="M 14.828125 26.539062 C 13.246094 21.613281 12.988281 21.066406 12.707031 20.625 C 12.5 20.308594 12.375 20.179688 12.0625 19.871094 C 11.414062 19.230469 9.628906 17.96875 8.808594 17.210938 C 8.253906 16.691406 7.84375 16.308594 7.503906 15.832031 C 7.214844 15.425781 6.816406 14.960938 6.824219 14.59375 C 6.820312 14.308594 7.039062 13.953125 7.257812 13.804688 C 7.476562 13.65625 7.921875 13.644531 8.160156 13.714844 C 8.351562 13.78125 8.523438 13.960938 8.625 14.128906 C 8.730469 14.296875 8.804688 14.53125 8.757812 14.734375 C 8.703125 14.988281 8.441406 15.351562 8.234375 15.484375 C 8.054688 15.589844 7.816406 15.597656 7.617188 15.566406 C 7.433594 15.53125 7.210938 15.410156 7.082031 15.265625 C 6.953125 15.121094 6.832031 14.894531 6.820312 14.707031 C 6.804688 14.503906 6.84375 14.269531 6.960938 14.097656 C 7.105469 13.90625 7.496094 13.667969 7.742188 13.640625 C 7.945312 13.621094 8.152344 13.683594 8.34375 13.816406 C 8.644531 14.011719 8.871094 14.546875 9.234375 14.9375 C 9.691406 15.4375 10.261719 15.953125 10.867188 16.492188 C 11.59375 17.128906 12.699219 17.804688 13.355469 18.492188 C 13.894531 19.066406 14.292969 19.605469 14.632812 20.226562 C 14.972656 20.832031 15.121094 21.386719 15.378906 22.136719 C 15.734375 23.214844 16.46875 25.332031 16.5 26.074219 C 16.507812 26.359375 16.480469 26.511719 16.375 26.679688 C 16.273438 26.847656 16.070312 27.007812 15.875 27.054688 C 15.695312 27.097656 15.4375 27.078125 15.257812 26.996094 C 15.078125 26.910156 14.828125 26.539062 14.828125 26.539062 " clip-rule="nonzero"/></clipPath><clipPath id="68f2353729"><path d="M 20 11 L 26 11 L 26 23 L 20 23 Z M 20 11 " clip-rule="nonzero"/></clipPath><clipPath id="3474be9d79"><path d="M 19.902344 12.425781 L 24.753906 11.261719 L 27.113281 21.082031 L 22.261719 22.246094 Z M 19.902344 12.425781 " clip-rule="nonzero"/></clipPath><clipPath id="222b86c79e"><path d="M 22.0625 20.960938 C 23.523438 14.152344 23.273438 13.988281 23.035156 13.855469 C 22.796875 13.722656 22.316406 13.644531 22.152344 13.765625 C 22.015625 13.863281 22.09375 14.179688 21.984375 14.332031 C 21.878906 14.484375 21.695312 14.640625 21.496094 14.6875 C 21.257812 14.746094 20.851562 14.652344 20.644531 14.527344 C 20.476562 14.421875 20.363281 14.210938 20.320312 14.03125 C 20.277344 13.847656 20.296875 13.605469 20.367188 13.429688 C 20.4375 13.253906 20.597656 13.070312 20.753906 12.984375 C 20.925781 12.898438 21.132812 12.832031 21.332031 12.863281 C 21.566406 12.917969 21.929688 13.164062 22.058594 13.375 C 22.164062 13.539062 22.171875 13.777344 22.136719 13.960938 C 22.101562 14.144531 21.992188 14.363281 21.847656 14.492188 C 21.707031 14.621094 21.488281 14.707031 21.296875 14.71875 C 21.109375 14.734375 20.882812 14.707031 20.722656 14.585938 C 20.53125 14.441406 20.292969 14.117188 20.289062 13.832031 C 20.285156 13.417969 20.792969 12.6875 21.148438 12.363281 C 21.433594 12.105469 21.78125 11.957031 22.121094 11.90625 C 22.460938 11.859375 22.832031 11.945312 23.167969 12.023438 C 23.507812 12.101562 23.820312 12.152344 24.128906 12.367188 C 24.550781 12.664062 25.191406 13.273438 25.359375 13.839844 C 25.535156 14.4375 25.261719 15.027344 25.101562 15.878906 C 24.824219 17.316406 24.109375 20.851562 23.625 21.621094 C 23.476562 21.863281 23.335938 21.945312 23.160156 22.003906 C 22.984375 22.0625 22.726562 22.058594 22.550781 21.992188 C 22.375 21.921875 22.203125 21.738281 22.113281 21.570312 C 22.027344 21.398438 22.0625 20.960938 22.0625 20.960938 " clip-rule="nonzero"/></clipPath><clipPath id="8239d6c6c7"><path d="M 43 4 L 60 4 L 60 18 L 43 18 Z M 43 4 " clip-rule="nonzero"/></clipPath><clipPath id="f63477bbc7"><path d="M 41.625 6.839844 L 58.054688 2.890625 L 61.054688 15.375 L 44.625 19.320312 Z M 41.625 6.839844 " clip-rule="nonzero"/></clipPath><clipPath id="abb1145fe1"><path d="M 53.429688 16.421875 C 56.816406 11.480469 57.296875 10.757812 57.625 9.996094 C 57.902344 9.355469 58.109375 8.554688 58.183594 8.140625 C 58.214844 7.941406 58.234375 7.824219 58.199219 7.671875 C 58.160156 7.507812 58.050781 7.261719 57.925781 7.195312 C 57.796875 7.132812 57.585938 7.183594 57.445312 7.25 C 57.285156 7.320312 57.203125 7.433594 57.027344 7.570312 C 56.707031 7.839844 56.164062 8.289062 55.757812 8.722656 C 55.316406 9.210938 54.847656 10.121094 54.480469 10.367188 C 54.285156 10.496094 54.09375 10.554688 53.941406 10.515625 C 53.785156 10.472656 53.609375 10.335938 53.53125 10.132812 C 53.363281 9.710938 53.738281 8.472656 53.664062 7.839844 C 53.617188 7.371094 53.484375 6.6875 53.332031 6.660156 C 53.230469 6.636719 53.117188 6.886719 52.996094 7.121094 C 52.722656 7.632812 52.378906 9.199219 51.988281 9.753906 C 51.761719 10.078125 51.480469 10.371094 51.25 10.394531 C 51.078125 10.417969 50.910156 10.316406 50.769531 10.128906 C 50.453125 9.675781 50.449219 7.859375 50.199219 7.089844 C 50.03125 6.589844 49.808594 5.925781 49.628906 5.90625 C 49.496094 5.890625 49.367188 6.207031 49.257812 6.425781 C 49.121094 6.714844 49.027344 7.054688 48.953125 7.535156 C 48.804688 8.382812 48.992188 10.363281 48.726562 11.113281 C 48.585938 11.511719 48.339844 11.890625 48.117188 11.960938 C 47.941406 12.019531 47.734375 11.890625 47.539062 11.746094 C 47.210938 11.507812 46.863281 10.777344 46.476562 10.441406 C 46.152344 10.152344 45.78125 9.9375 45.414062 9.789062 C 45.074219 9.644531 44.617188 9.46875 44.359375 9.515625 C 44.175781 9.542969 43.941406 9.710938 43.949219 9.804688 C 43.957031 9.898438 44.203125 9.933594 44.367188 10.085938 C 44.714844 10.402344 45.503906 11.296875 45.738281 11.75 C 45.878906 12.003906 45.925781 12.199219 45.929688 12.40625 C 45.929688 12.613281 45.898438 12.8125 45.738281 13.007812 C 45.445312 13.382812 44.28125 14.171875 43.84375 14.148438 C 43.605469 14.144531 43.359375 13.917969 43.304688 13.753906 C 43.253906 13.605469 43.328125 13.382812 43.410156 13.265625 C 43.484375 13.167969 43.59375 13.09375 43.714844 13.082031 C 43.855469 13.0625 44.101562 13.101562 44.207031 13.203125 C 44.3125 13.304688 44.398438 13.539062 44.371094 13.6875 C 44.34375 13.839844 44.21875 14.042969 44.070312 14.09375 C 43.910156 14.152344 43.542969 14.078125 43.417969 13.964844 C 43.3125 13.863281 43.261719 13.636719 43.3125 13.464844 C 43.386719 13.238281 43.734375 12.949219 43.992188 12.773438 C 44.269531 12.597656 44.878906 12.675781 44.949219 12.433594 C 45.0625 12.039062 43.5 10.789062 43.222656 10.296875 C 43.089844 10.074219 43.058594 9.941406 43.027344 9.753906 C 43.003906 9.585938 42.992188 9.398438 43.09375 9.230469 C 43.242188 8.984375 43.671875 8.707031 44.007812 8.59375 C 44.347656 8.480469 44.722656 8.503906 45.125 8.597656 C 45.652344 8.726562 46.394531 9.105469 46.875 9.4375 C 47.277344 9.722656 47.644531 10.128906 47.875 10.425781 C 48.035156 10.625 48.238281 10.863281 48.1875 10.988281 C 48.148438 11.09375 47.8125 11.21875 47.710938 11.132812 C 47.417969 10.902344 47.765625 8.378906 47.96875 7.355469 C 48.101562 6.65625 48.292969 5.988281 48.550781 5.589844 C 48.710938 5.34375 48.917969 5.199219 49.113281 5.089844 C 49.269531 5.003906 49.414062 4.953125 49.574219 4.945312 C 49.730469 4.941406 49.910156 4.960938 50.054688 5.023438 C 50.199219 5.097656 50.316406 5.183594 50.453125 5.355469 C 50.6875 5.667969 50.972656 6.316406 51.148438 6.863281 C 51.359375 7.46875 51.527344 8.367188 51.578125 8.847656 C 51.597656 9.132812 51.675781 9.382812 51.566406 9.523438 C 51.453125 9.644531 51.015625 9.75 50.925781 9.644531 C 50.722656 9.40625 51.605469 7.503906 52 6.820312 C 52.269531 6.355469 52.574219 5.964844 52.851562 5.785156 C 53.03125 5.664062 53.230469 5.632812 53.402344 5.621094 C 53.558594 5.613281 53.722656 5.625 53.875 5.730469 C 54.105469 5.898438 54.371094 6.328125 54.503906 6.757812 C 54.691406 7.335938 54.773438 8.335938 54.703125 8.910156 C 54.65625 9.320312 54.578125 9.851562 54.390625 9.925781 C 54.246094 9.992188 53.847656 9.800781 53.804688 9.621094 C 53.742188 9.285156 54.757812 8.339844 55.253906 7.824219 C 55.714844 7.347656 56.199219 6.847656 56.660156 6.578125 C 57.023438 6.363281 57.363281 6.183594 57.714844 6.195312 C 58.070312 6.207031 58.519531 6.417969 58.738281 6.601562 C 58.898438 6.738281 58.984375 6.894531 59.046875 7.085938 C 59.136719 7.335938 59.183594 7.660156 59.148438 8.035156 C 59.089844 8.65625 58.734375 9.695312 58.425781 10.410156 C 58.160156 11.03125 57.914062 11.390625 57.472656 12.085938 C 56.714844 13.304688 54.683594 16.457031 54.144531 16.9375 C 54.011719 17.046875 53.953125 17.078125 53.859375 17.085938 C 53.765625 17.089844 53.621094 17.078125 53.554688 17 C 53.449219 16.898438 53.429688 16.421875 53.429688 16.421875 " clip-rule="nonzero"/></clipPath><clipPath id="b96c4cf61a"><path d="M 35 17 L 41 17 L 41 29 L 35 29 Z M 35 17 " clip-rule="nonzero"/></clipPath><clipPath id="07adcabca9"><path d="M 35.152344 17.746094 L 38.898438 17.140625 L 40.683594 28.164062 L 36.9375 28.773438 Z M 35.152344 17.746094 " clip-rule="nonzero"/></clipPath><clipPath id="848f84fc34"><path d="M 37.105469 18.09375 C 38.183594 27.558594 38.300781 27.210938 38.535156 27.125 C 38.921875 26.984375 39.945312 26.898438 40.246094 27.023438 C 40.398438 27.089844 40.464844 27.207031 40.515625 27.324219 C 40.566406 27.441406 40.589844 27.59375 40.550781 27.726562 C 40.496094 27.875 40.3125 28.109375 40.148438 28.167969 C 39.988281 28.226562 39.714844 28.191406 39.570312 28.089844 C 39.429688 27.988281 39.308594 27.722656 39.296875 27.550781 C 39.289062 27.414062 39.34375 27.261719 39.4375 27.167969 C 39.546875 27.058594 39.824219 26.933594 39.984375 26.9375 C 40.121094 26.933594 40.261719 27.019531 40.355469 27.097656 C 40.445312 27.179688 40.53125 27.320312 40.550781 27.445312 C 40.570312 27.566406 40.566406 27.738281 40.507812 27.859375 C 40.449219 27.980469 40.382812 28.050781 40.222656 28.140625 C 39.832031 28.34375 38.375 28.550781 37.855469 28.554688 C 37.609375 28.5625 37.433594 28.5625 37.28125 28.476562 C 37.125 28.390625 37.003906 28.238281 36.910156 28.035156 C 36.765625 27.726562 36.707031 27.375 36.621094 26.746094 C 36.378906 25.152344 35.757812 19.175781 35.976562 18.101562 C 36.03125 17.84375 36.105469 17.738281 36.214844 17.640625 C 36.3125 17.5625 36.480469 17.535156 36.609375 17.546875 C 36.738281 17.554688 36.875 17.628906 36.953125 17.726562 C 37.03125 17.824219 37.105469 18.09375 37.105469 18.09375 " clip-rule="nonzero"/></clipPath><clipPath id="6263ecd110"><path d="M 12 83 L 28 83 L 28 135 L 12 135 Z M 12 83 " clip-rule="nonzero"/></clipPath><clipPath id="e8f0869882"><path d="M 14.601562 82.6875 L 27.621094 83.230469 L 25.457031 135.300781 L 12.441406 134.757812 Z M 14.601562 82.6875 " clip-rule="nonzero"/></clipPath><clipPath id="0f53872ca7"><path d="M 18.257812 134.976562 C 15.632812 134.96875 13.707031 134.21875 13.074219 133.421875 C 12.632812 132.839844 12.714844 132.171875 12.648438 131.296875 C 12.546875 129.953125 12.835938 127.957031 13.125 126.015625 C 13.476562 123.664062 13.933594 121.417969 14.785156 118.210938 C 16.1875 112.917969 19.304688 103.527344 21.417969 97.285156 C 23.121094 92.210938 24.96875 84.828125 26.257812 83.59375 C 26.578125 83.300781 26.992188 83.214844 27.195312 83.324219 C 27.394531 83.4375 27.582031 83.855469 27.523438 84.058594 C 27.464844 84.261719 27.089844 84.554688 26.882812 84.597656 C 26.675781 84.640625 26.425781 84.476562 26.328125 84.316406 C 26.234375 84.109375 26.203125 83.644531 26.3125 83.492188 C 26.421875 83.34375 26.890625 83.210938 27.09375 83.269531 C 27.296875 83.328125 27.492188 83.59375 27.527344 84.007812 C 27.734375 86.382812 21.421875 100.890625 19.164062 108.152344 C 17.378906 113.996094 15.550781 119.582031 14.847656 124.132812 C 14.351562 127.402344 13.574219 131.230469 14.492188 132.65625 C 15.023438 133.503906 16.457031 133.71875 17.125 133.746094 C 17.535156 133.761719 17.914062 133.367188 18.164062 133.480469 C 18.417969 133.59375 18.710938 133.964844 18.699219 134.222656 C 18.6875 134.480469 18.257812 134.976562 18.257812 134.976562 " clip-rule="nonzero"/></clipPath></defs><g clip-path="url(#2e05992358)"><g clip-path="url(#9dd6a607ec)"><g clip-path="url(#a24ce64ba6)"><path fill="#194a81" d="M 30.441406 21.257812 L 35.804688 19.96875 L 36.59375 23.257812 L 31.230469 24.542969 Z M 30.441406 21.257812 " fill-opacity="1" fill-rule="nonzero"/></g></g></g><g clip-path="url(#142a94b591)"><g clip-path="url(#8a7b3b0142)"><g clip-path="url(#1f3dcbd2b4)"><path fill="#194a81" d="M 40.378906 19.6875 L 45.546875 18.445312 L 46.371094 21.878906 L 41.203125 23.121094 Z M 40.378906 19.6875 " fill-opacity="1" fill-rule="nonzero"/></g></g></g><g clip-path="url(#234b94c740)"><g clip-path="url(#004efcf961)"><g clip-path="url(#6f245009aa)"><path fill="#194a81" d="M 13.542969 79.980469 L 78.105469 82.660156 L 75.683594 141.066406 L 11.117188 138.382812 Z M 13.542969 79.980469 " fill-opacity="1" fill-rule="nonzero"/></g></g></g><g clip-path="url(#9f511011d0)"><g clip-path="url(#3b6362cf48)"><g clip-path="url(#cf5dfc8116)"><path fill="#194a81" d="M 8.074219 28.296875 L 71.164062 30.917969 L 68.785156 88.191406 L 5.695312 85.570312 Z M 8.074219 28.296875 " fill-opacity="1" fill-rule="nonzero"/></g></g></g><g clip-path="url(#af0301a8bf)"><g clip-path="url(#23140c93a6)"><g clip-path="url(#543d7896d1)"><path fill="#194a81" d="M 38.875 29.960938 L 43.863281 28.765625 L 44.496094 31.402344 L 39.511719 32.597656 Z M 38.875 29.960938 " fill-opacity="1" fill-rule="nonzero"/></g></g></g><g clip-path="url(#a79fa7f595)"><g clip-path="url(#03e4b703b0)"><g clip-path="url(#83d7fcabc8)"><path fill="#194a81" d="M 45.148438 26.671875 L 53.828125 24.585938 L 56.769531 36.828125 L 48.089844 38.914062 Z M 45.148438 26.671875 " fill-opacity="1" fill-rule="nonzero"/></g></g></g><g clip-path="url(#d278915fa4)"><g clip-path="url(#e5576a9efc)"><g clip-path="url(#895dde9a82)"><path fill="#194a81" d="M 35.816406 32.882812 L 51.613281 29.085938 L 54.640625 41.6875 L 38.839844 45.480469 Z M 35.816406 32.882812 " fill-opacity="1" fill-rule="nonzero"/></g></g></g><g clip-path="url(#7b7ef018b6)"><g clip-path="url(#85f256233d)"><g clip-path="url(#c3576e604c)"><path fill="#194a81" d="M 26.199219 33.007812 L 38.886719 29.960938 L 41.691406 41.640625 L 29.007812 44.6875 Z M 26.199219 33.007812 " fill-opacity="1" fill-rule="nonzero"/></g></g></g><g clip-path="url(#a1741adf1b)"><g clip-path="url(#aef2106dd9)"><g clip-path="url(#a7af5a0317)"><path fill="#194a81" d="M 7.742188 24.050781 L 29.152344 18.90625 L 33.277344 36.089844 L 11.867188 41.230469 Z M 7.742188 24.050781 " fill-opacity="1" fill-rule="nonzero"/></g></g></g><g clip-path="url(#6684f2785f)"><g clip-path="url(#c6fa515747)"><g clip-path="url(#d36ebdce2d)"><path fill="#194a81" d="M 24.839844 13.277344 L 47.886719 7.742188 L 50.433594 18.355469 L 27.390625 23.890625 Z M 24.839844 13.277344 " fill-opacity="1" fill-rule="nonzero"/></g></g></g><g clip-path="url(#53dbe50512)"><g clip-path="url(#cf53637fda)"><g clip-path="url(#f9f4e62897)"><path fill="#194a81" d="M 44.367188 19.574219 L 49.613281 18.3125 L 52.832031 31.710938 L 47.585938 32.972656 Z M 44.367188 19.574219 " fill-opacity="1" fill-rule="nonzero"/></g></g></g><g clip-path="url(#2a3227f2e7)"><g clip-path="url(#d8b1604705)"><g clip-path="url(#8432bf6d54)"><path fill="#194a81" d="M 46.257812 17.15625 L 49.890625 16.285156 L 50.976562 20.8125 L 47.347656 21.683594 Z M 46.257812 17.15625 " fill-opacity="1" fill-rule="nonzero"/></g></g></g><g clip-path="url(#933dd289f4)"><g clip-path="url(#b643ff6287)"><g clip-path="url(#e56eb94db7)"><path fill="#194a81" d="M 47.4375 17.957031 L 63.292969 14.148438 L 72.695312 53.292969 L 56.839844 57.101562 Z M 47.4375 17.957031 " fill-opacity="1" fill-rule="nonzero"/></g></g></g><g clip-path="url(#9a885c5a76)"><g clip-path="url(#bc53db8110)"><g clip-path="url(#aa44816a4e)"><path fill="#194a81" d="M 0.613281 138.324219 L 30.113281 131.238281 L 33.285156 144.441406 L 3.785156 151.527344 Z M 0.613281 138.324219 " fill-opacity="1" fill-rule="nonzero"/></g></g></g><g clip-path="url(#ca36446aa2)"><g clip-path="url(#ee38800f3c)"><g clip-path="url(#70de71e572)"><path fill="#194a81" d="M 48.117188 135.921875 L 71.445312 130.316406 L 74.976562 145.027344 L 51.648438 150.628906 Z M 48.117188 135.921875 " fill-opacity="1" fill-rule="nonzero"/></g></g></g><g clip-path="url(#7af1f68e02)"><g clip-path="url(#277994b423)"><g clip-path="url(#6f453d3187)"><path fill="#194a81" d="M 5.878906 13.449219 L 13.65625 11.582031 L 17.4375 27.316406 L 9.660156 29.1875 Z M 5.878906 13.449219 " fill-opacity="1" fill-rule="nonzero"/></g></g></g><g clip-path="url(#68f2353729)"><g clip-path="url(#3474be9d79)"><g clip-path="url(#222b86c79e)"><path fill="#194a81" d="M 19.171875 11.976562 L 25.203125 10.53125 L 27.84375 21.527344 L 21.816406 22.976562 Z M 19.171875 11.976562 " fill-opacity="1" fill-rule="nonzero"/></g></g></g><g clip-path="url(#8239d6c6c7)"><g clip-path="url(#f63477bbc7)"><g clip-path="url(#abb1145fe1)"><path fill="#194a81" d="M 40.898438 6.394531 L 58.5 2.164062 L 61.78125 15.820312 L 44.179688 20.046875 Z M 40.898438 6.394531 " fill-opacity="1" fill-rule="nonzero"/></g></g></g><g clip-path="url(#b96c4cf61a)"><g clip-path="url(#07adcabca9)"><g clip-path="url(#848f84fc34)"><path fill="#194a81" d="M 34.460938 17.265625 L 39.402344 16.464844 L 41.367188 28.609375 L 36.425781 29.410156 Z M 34.460938 17.265625 " fill-opacity="1" fill-rule="nonzero"/></g></g></g><g clip-path="url(#6263ecd110)"><g clip-path="url(#e8f0869882)"><g clip-path="url(#0f53872ca7)"><path fill="#194a81" d="M 12.691406 80.613281 L 29.695312 81.320312 L 27.355469 137.640625 L 10.355469 136.933594 Z M 12.691406 80.613281 " fill-opacity="1" fill-rule="nonzero"/></g></g></g></svg>