<svg xmlns="http://www.w3.org/2000/svg" xmlns:xlink="http://www.w3.org/1999/xlink" width="63" zoomAndPan="magnify" viewBox="0 0 47.25 42.749999" height="57" preserveAspectRatio="xMidYMid meet" version="1.0"><defs><clipPath id="5d1a00c083"><path d="M 0 3 L 46.511719 3 L 46.511719 41.554688 L 0 41.554688 Z M 0 3 " clip-rule="nonzero"/></clipPath><clipPath id="7ce2a51fd8"><path d="M 5 0.210938 L 9 0.210938 L 9 4 L 5 4 Z M 5 0.210938 " clip-rule="nonzero"/></clipPath></defs><g clip-path="url(#5d1a00c083)"><path fill="#1c3c75" d="M 24.660156 14.128906 C 25.5 13.707031 26.300781 13.257812 27.140625 12.890625 C 27.976562 12.523438 28.824219 12.195312 29.753906 12.109375 C 30.207031 12.066406 30.644531 11.890625 31.097656 11.847656 C 31.667969 11.792969 32.242188 11.800781 32.816406 11.808594 C 33.390625 11.8125 33.960938 11.855469 34.535156 11.882812 C 35.160156 12.191406 35.902344 12.066406 36.515625 12.425781 C 38.007812 12.730469 39.25 13.570312 40.519531 14.34375 C 40.902344 14.582031 41.21875 14.933594 41.566406 15.230469 C 42.890625 16.363281 43.871094 17.773438 44.75 19.257812 C 44.949219 19.597656 45.074219 19.984375 45.21875 20.359375 C 45.527344 21.160156 45.789062 21.972656 46.023438 22.800781 C 46.117188 23.132812 46.195312 23.464844 46.21875 23.804688 C 46.324219 25.351562 46.308594 26.898438 46.238281 28.449219 C 46.207031 29.144531 45.867188 29.773438 45.835938 30.464844 C 45.492188 31.3125 45.285156 32.207031 44.890625 33.039062 C 43.839844 35.253906 42.378906 37.140625 40.492188 38.691406 C 39.648438 39.382812 38.691406 39.898438 37.714844 40.394531 C 36.839844 40.839844 35.910156 41.105469 34.96875 41.359375 C 34.644531 41.449219 34.292969 41.457031 33.949219 41.488281 C 33.496094 41.527344 33.042969 41.539062 32.59375 41.6875 C 32.15625 41.832031 31.683594 41.816406 31.238281 41.6875 C 30.902344 41.585938 30.570312 41.53125 30.226562 41.507812 C 28.289062 41.390625 26.566406 40.675781 24.9375 39.667969 C 24.109375 39.152344 23.371094 38.515625 22.597656 37.925781 C 22.464844 37.824219 22.316406 37.753906 22.148438 37.652344 C 21.457031 37.925781 20.816406 38.316406 20.085938 38.488281 C 19.863281 38.535156 19.65625 38.632812 19.433594 38.691406 C 18.605469 38.910156 17.777344 39.121094 16.945312 39.324219 C 16.78125 39.367188 16.605469 39.367188 16.433594 39.378906 C 16.320312 39.386719 16.203125 39.390625 16.089844 39.390625 C 14.828125 39.40625 13.542969 39.59375 12.316406 39.265625 C 10.324219 38.734375 8.386719 38.035156 6.605469 36.957031 C 6.363281 36.808594 6.128906 36.640625 5.910156 36.457031 C 5.335938 35.984375 4.824219 35.441406 4.214844 35.003906 C 3.941406 34.808594 3.730469 34.515625 3.511719 34.253906 C 3.324219 34.039062 3.171875 33.789062 2.976562 33.585938 C 2.066406 32.660156 1.527344 31.523438 1.121094 30.324219 C 0.789062 29.351562 0.40625 28.394531 0.25 27.367188 C 0.0585938 27 0.0546875 26.59375 0.0390625 26.195312 C 0.0195312 25.679688 0 25.160156 0 24.644531 C -0.0078125 22.875 0.207031 21.578125 0.839844 19.945312 C 1.191406 19.039062 1.589844 18.144531 2.121094 17.328125 C 2.8125 16.257812 3.695312 15.359375 4.757812 14.648438 C 4.847656 14.589844 4.976562 14.546875 5.082031 14.554688 C 5.238281 14.570312 5.390625 14.636719 5.546875 14.679688 C 5.503906 14.824219 5.507812 14.984375 5.4375 15.035156 C 4.25 15.902344 3.535156 17.15625 2.726562 18.335938 C 2.472656 18.707031 2.285156 19.140625 2.132812 19.566406 C 1.785156 20.53125 1.472656 21.515625 1.125 22.542969 C 1.105469 23.234375 1.0625 23.980469 1.058594 24.726562 C 1.050781 26.1875 1.042969 26.292969 1.445312 27.773438 C 1.699219 28.707031 2.027344 29.625 2.367188 30.535156 C 2.773438 31.621094 3.445312 32.550781 4.246094 33.382812 C 4.644531 33.796875 5.058594 34.195312 5.464844 34.601562 C 6.414062 35.539062 7.511719 36.273438 8.734375 36.78125 C 9.574219 37.132812 10.402344 37.53125 11.292969 37.757812 C 11.902344 37.914062 12.5 38.101562 13.109375 38.253906 C 13.328125 38.308594 13.566406 38.292969 13.796875 38.296875 C 14.253906 38.300781 14.714844 38.292969 15.171875 38.292969 C 15.746094 38.292969 16.324219 38.324219 16.863281 38.0625 C 17.960938 37.996094 18.976562 37.578125 20.015625 37.261719 C 20.390625 37.148438 20.746094 36.945312 21.097656 36.765625 C 21.183594 36.71875 21.222656 36.582031 21.285156 36.488281 C 21.1875 36.203125 21.003906 36.003906 20.625 35.890625 C 20.480469 35.914062 20.246094 35.914062 20.039062 35.992188 C 19.1875 36.328125 18.3125 36.582031 17.417969 36.777344 C 17.027344 36.863281 16.640625 36.972656 16.238281 36.980469 C 15.550781 36.988281 14.863281 36.988281 14.175781 37.015625 C 13.074219 37.058594 12.011719 36.8125 10.964844 36.535156 C 9.855469 36.238281 8.796875 35.757812 7.839844 35.136719 C 5.984375 33.9375 4.421875 32.441406 3.453125 30.410156 C 3.230469 29.945312 3.027344 29.472656 2.777344 29.023438 C 2.460938 28.457031 2.449219 27.8125 2.253906 27.214844 C 2.132812 26.839844 2.125 26.429688 2.097656 26.03125 C 2.066406 25.632812 2.078125 25.226562 2.066406 24.824219 C 2.007812 22.246094 2.917969 19.988281 4.449219 17.992188 C 5.464844 16.667969 6.710938 15.558594 8.207031 14.765625 C 8.660156 14.527344 9.105469 14.28125 9.597656 14.015625 C 8.589844 13.867188 8.410156 13.851562 7.6875 14.054688 C 7.355469 14.148438 7.027344 14.226562 6.679688 14.226562 C 6.417969 14.226562 6.363281 14.175781 6.339844 13.796875 C 6.601562 13.46875 6.984375 13.332031 7.359375 13.210938 C 7.957031 13.011719 8.546875 12.800781 9.183594 12.738281 C 9.371094 12.71875 9.429688 12.632812 9.621094 12.292969 C 9.378906 11.691406 8.933594 11.234375 8.496094 10.785156 C 8.015625 10.285156 7.613281 9.730469 7.21875 9.167969 C 7.019531 8.894531 6.882812 8.574219 6.71875 8.269531 C 7.433594 6.800781 8.351562 5.507812 9.390625 4.402344 C 10.378906 3.929688 11.339844 3.863281 12.320312 3.871094 C 13.984375 3.882812 15.648438 3.871094 17.21875 3.871094 C 17.570312 4.015625 17.847656 4.105469 17.875 4.449219 C 17.773438 4.675781 17.585938 4.816406 17.363281 4.875 C 17.144531 4.9375 16.910156 4.96875 16.683594 4.964844 C 15.742188 4.933594 15.792969 5.339844 16.109375 6.023438 C 16.253906 6.335938 16.390625 6.652344 16.535156 6.976562 C 16.613281 7.523438 16.753906 8.082031 16.503906 8.628906 C 16.21875 8.566406 16.039062 8.421875 15.941406 8.203125 C 15.539062 7.320312 15.019531 6.488281 14.78125 5.53125 C 14.757812 5.421875 14.683594 5.324219 14.613281 5.234375 C 14.464844 5.023438 14.257812 4.96875 14.015625 5.042969 C 13.625 5.40625 13.449219 5.902344 13.277344 6.378906 C 13.050781 7.03125 12.773438 7.65625 12.503906 8.285156 C 12.441406 8.433594 12.476562 8.621094 12.46875 8.8125 C 12.636719 8.875 12.785156 8.972656 12.945312 8.976562 C 13.804688 9.007812 14.667969 9.007812 15.523438 9.042969 C 15.804688 9.054688 16.082031 9.132812 16.472656 9.199219 C 16.773438 9.121094 16.9375 8.695312 17.269531 8.484375 C 17.652344 8.234375 18.035156 7.976562 18.433594 7.75 C 18.777344 7.554688 19.144531 7.390625 19.507812 7.207031 C 19.425781 6.605469 19.050781 6.164062 18.808594 5.664062 C 18.640625 5.304688 18.382812 4.984375 18.34375 4.570312 C 18.339844 4.523438 18.351562 4.460938 18.378906 4.414062 C 18.441406 4.296875 18.542969 4.25 18.667969 4.289062 C 18.777344 4.320312 18.890625 4.34375 18.980469 4.402344 C 19.417969 4.699219 19.765625 5.085938 20 5.546875 C 20.4375 6.414062 20.964844 7.234375 21.230469 8.183594 C 21.246094 8.230469 21.304688 8.265625 21.34375 8.308594 C 21.511719 8.328125 21.683594 8.347656 21.855469 8.367188 C 21.917969 8.453125 21.980469 8.542969 22.070312 8.660156 C 21.710938 9.878906 20.679688 10.546875 19.796875 11.335938 C 19.746094 11.515625 19.765625 11.695312 19.960938 11.734375 C 20.300781 11.808594 20.609375 11.957031 20.9375 12.050781 C 21.996094 12.359375 22.953125 12.851562 23.828125 13.515625 C 24.101562 13.722656 24.382812 13.921875 24.652344 14.113281 Z M 38.273438 38.664062 C 38.351562 38.617188 38.421875 38.570312 38.496094 38.519531 C 38.457031 38.53125 38.402344 38.527344 38.378906 38.550781 C 38.347656 38.589844 38.332031 38.652344 38.3125 38.703125 C 38.234375 38.75 38.164062 38.796875 38.089844 38.84375 C 38.125 38.835938 38.175781 38.835938 38.199219 38.808594 C 38.234375 38.769531 38.25 38.710938 38.273438 38.664062 Z M 39.308594 37.976562 C 39.507812 37.945312 39.640625 37.847656 39.648438 37.632812 C 39.863281 37.617188 40.003906 37.527344 39.992188 37.289062 C 40.222656 37.292969 40.347656 37.183594 40.339844 36.941406 C 40.644531 36.996094 40.878906 36.878906 41.089844 36.667969 C 41.296875 36.457031 41.4375 36.234375 41.386719 35.925781 C 41.492188 35.894531 41.625 35.894531 41.699219 35.828125 C 41.910156 35.636719 42.117188 35.433594 42.289062 35.210938 C 43.882812 33.128906 44.902344 30.808594 45.191406 28.191406 C 45.222656 27.90625 45.25 27.621094 45.328125 27.351562 C 45.410156 27.070312 45.414062 26.789062 45.445312 26.507812 C 45.519531 25.863281 45.273438 25.269531 45.21875 24.648438 C 45.160156 23.960938 45.027344 23.300781 44.875 22.628906 C 44.382812 20.453125 43.300781 18.613281 41.84375 16.964844 C 40.878906 15.875 39.683594 15.097656 38.449219 14.375 C 37.867188 14.035156 37.199219 13.832031 36.554688 13.601562 C 36.351562 13.527344 36.105469 13.566406 35.878906 13.554688 C 35.808594 13.472656 35.753906 13.351562 35.667969 13.320312 C 35.351562 13.21875 35.023438 13.167969 34.699219 13.328125 C 34.71875 13.359375 34.726562 13.402344 34.75 13.414062 C 35.128906 13.550781 35.515625 13.542969 35.90625 13.527344 C 35.90625 13.660156 35.953125 13.753906 36.058594 13.800781 C 37.476562 14.425781 38.824219 15.152344 39.945312 16.25 C 40.105469 16.40625 40.304688 16.519531 40.382812 16.574219 C 40.753906 17.035156 41.042969 17.390625 41.324219 17.746094 C 42.230469 18.867188 42.9375 20.113281 43.417969 21.457031 C 43.878906 22.738281 44.234375 24.058594 44.234375 25.453125 C 44.234375 26.648438 44.242188 27.851562 44.164062 29.046875 C 44.144531 29.332031 44.121094 29.617188 44.042969 29.890625 C 43.484375 31.8125 42.898438 33.714844 41.621094 35.308594 C 41.550781 35.394531 41.492188 35.5 41.453125 35.605469 C 41.417969 35.707031 41.421875 35.828125 41.40625 35.9375 C 40.925781 36.144531 40.613281 36.523438 40.390625 36.980469 C 40.203125 37.023438 40.082031 37.128906 40.039062 37.320312 C 39.847656 37.359375 39.726562 37.464844 39.699219 37.667969 C 39.507812 37.707031 39.375 37.800781 39.359375 38.015625 C 39.273438 38.050781 39.183594 38.089844 39.097656 38.125 C 39.121094 38.15625 39.152344 38.1875 39.175781 38.222656 C 39.222656 38.140625 39.273438 38.058594 39.320312 37.980469 Z M 22.082031 18.34375 C 22.285156 18.3125 22.371094 18.171875 22.425781 17.992188 C 22.75 17.679688 23.070312 17.359375 23.105469 16.867188 C 22.855469 16.46875 22.484375 16.203125 22.085938 15.96875 C 21.34375 15.535156 20.578125 15.144531 19.777344 14.824219 C 19.566406 14.738281 19.355469 14.632812 19.132812 14.605469 C 18.726562 14.558594 18.367188 14.332031 17.976562 14.296875 C 17.558594 14.257812 17.273438 13.914062 16.863281 13.902344 C 16.363281 14.074219 15.960938 14.394531 15.578125 14.742188 C 15.191406 15.097656 14.730469 15.332031 14.261719 15.539062 C 14.175781 15.578125 14.046875 15.523438 13.925781 15.511719 C 13.84375 15.375 13.757812 15.230469 13.679688 15.09375 C 13.355469 15.144531 13.03125 15.195312 12.773438 15.238281 C 12.261719 15.097656 12.027344 14.582031 11.390625 14.617188 C 10.964844 14.78125 10.425781 14.972656 9.902344 15.195312 C 8.34375 15.855469 7.070312 16.902344 5.898438 18.109375 C 5.050781 18.984375 4.390625 19.96875 3.863281 21.066406 C 3.585938 21.644531 3.457031 22.261719 3.316406 22.867188 C 2.992188 24.277344 3.066406 25.714844 3.265625 27.140625 C 3.675781 28.390625 4.003906 29.671875 4.839844 30.734375 C 4.980469 30.914062 5.085938 31.121094 5.234375 31.296875 C 5.902344 32.085938 6.609375 32.847656 7.425781 33.480469 C 8.28125 34.148438 9.207031 34.699219 10.261719 35.050781 C 12.917969 35.945312 13.765625 35.941406 15.640625 35.914062 C 16.230469 35.902344 16.75 35.640625 17.324219 35.597656 C 18.195312 35.535156 18.988281 35.207031 19.765625 34.832031 C 19.847656 34.792969 19.886719 34.660156 19.976562 34.527344 C 19.847656 34.246094 19.710938 33.9375 19.566406 33.628906 C 18.902344 32.226562 18.324219 30.800781 18.226562 29.230469 C 18.21875 29.0625 18.175781 28.886719 18.117188 28.730469 C 17.984375 28.402344 17.976562 28.0625 17.976562 27.714844 C 17.976562 27.140625 17.976562 26.566406 17.976562 25.992188 C 17.976562 25.589844 17.996094 25.195312 18.140625 24.808594 C 18.21875 24.601562 18.222656 24.359375 18.257812 24.132812 C 18.5 22.476562 19.058594 20.917969 19.859375 19.457031 C 20.273438 18.707031 20.789062 18.015625 21.277344 17.308594 C 21.40625 17.125 21.582031 16.960938 21.769531 16.839844 C 21.898438 16.753906 22.082031 16.753906 22.265625 16.707031 C 22.351562 16.882812 22.46875 17.027344 22.484375 17.183594 C 22.507812 17.464844 22.46875 17.753906 22.457031 18.039062 C 22.21875 18.035156 22.128906 18.171875 22.109375 18.386719 C 21.882812 18.386719 21.789062 18.523438 21.753906 18.726562 C 21.410156 18.835938 21.394531 19.117188 21.410156 19.410156 C 21.21875 19.40625 21.089844 19.519531 21 19.667969 C 20.609375 20.296875 20.253906 20.945312 20.023438 21.65625 C 19.722656 22.574219 19.320312 23.464844 19.285156 24.449219 C 19.101562 24.996094 19.007812 25.550781 19.015625 26.128906 C 19.023438 26.871094 19 27.617188 19.054688 28.355469 C 19.09375 28.859375 19.230469 29.359375 19.347656 29.859375 C 19.492188 30.464844 19.601562 31.09375 19.835938 31.667969 C 20.570312 33.46875 21.46875 35.179688 22.890625 36.5625 C 23.054688 36.71875 23.191406 36.90625 23.351562 37.070312 C 24.292969 38 25.402344 38.707031 26.5625 39.316406 C 27.160156 39.632812 27.828125 39.816406 28.449219 40.058594 L 29.328125 40.058594 C 29.390625 40.140625 29.445312 40.292969 29.515625 40.296875 C 29.902344 40.34375 30.292969 40.371094 30.679688 40.367188 C 30.839844 40.367188 30.878906 40.269531 30.761719 40.195312 C 30.300781 40.09375 29.796875 40.105469 29.296875 40.09375 C 29.230469 40.007812 29.175781 39.867188 29.09375 39.851562 C 28.199219 39.628906 27.398438 39.1875 26.605469 38.734375 C 25.65625 38.195312 24.78125 37.558594 24.0625 36.71875 C 23.988281 36.632812 23.898438 36.558594 23.832031 36.464844 C 23.132812 35.492188 22.402344 34.542969 21.753906 33.539062 C 20.734375 31.964844 19.898438 29.242188 19.949219 27.546875 C 19.984375 26.464844 19.972656 25.375 19.992188 24.289062 C 20 23.890625 20.101562 23.507812 20.191406 23.117188 C 20.453125 22 20.785156 20.917969 21.3125 19.898438 C 21.386719 19.757812 21.359375 19.566406 21.378906 19.398438 C 21.535156 19.371094 21.660156 19.289062 21.691406 19.140625 C 21.722656 19 21.707031 18.84375 21.710938 18.699219 C 21.964844 18.726562 22.039062 18.566406 22.066406 18.359375 Z M 26.9375 29.40625 C 26.753906 29.460938 26.679688 29.609375 26.609375 29.769531 C 26.171875 30.710938 25.597656 31.550781 24.96875 32.375 C 24.511719 32.964844 23.957031 33.460938 23.503906 33.988281 C 23.476562 34.441406 23.628906 34.6875 24.136719 34.734375 C 25.15625 33.273438 26.191406 31.773438 26.894531 30.007812 L 26.894531 29.375 C 27.175781 29.304688 27.210938 29.125 27.109375 28.878906 C 26.90625 29.011719 26.992188 29.234375 26.933594 29.410156 Z M 25.898438 17.996094 C 25.945312 18.089844 25.992188 18.183594 26.035156 18.273438 C 26.066406 18.234375 26.125 18.183594 26.117188 18.15625 C 26.082031 18.039062 25.984375 17.996094 25.859375 18.035156 C 25.886719 17.746094 25.886719 17.464844 25.742188 17.160156 C 25.015625 16.085938 23.996094 15.246094 23.039062 14.332031 C 22.746094 14.050781 22.386719 13.863281 22.019531 13.707031 C 21.394531 13.429688 20.765625 13.148438 20.109375 12.953125 C 19.621094 12.804688 19.101562 12.78125 18.617188 12.585938 C 18.410156 12.5 18.199219 12.703125 18.089844 13.058594 C 18.195312 13.097656 18.300781 13.152344 18.40625 13.179688 C 20.25 13.667969 21.933594 14.496094 23.480469 15.605469 C 23.90625 15.910156 24.265625 16.25 24.554688 16.695312 C 24.898438 17.21875 25.324219 17.6875 25.890625 17.992188 Z M 14.15625 14.203125 C 14.320312 14.179688 14.519531 14.203125 14.640625 14.113281 C 15.136719 13.734375 15.605469 13.3125 16.097656 12.917969 C 16.894531 12.28125 17.730469 11.675781 18.511719 11.011719 C 19.207031 10.417969 19.851562 9.773438 20.515625 9.140625 C 20.59375 9.070312 20.621094 8.949219 20.707031 8.785156 C 20.390625 8.664062 20.4375 8.183594 19.949219 8.105469 C 19.050781 8.585938 18.261719 9.359375 17.246094 9.734375 C 16.777344 9.757812 16.320312 9.785156 15.953125 10.328125 C 15.523438 11.496094 14.964844 12.738281 14.238281 13.898438 C 14.183594 13.984375 14.203125 14.121094 14.191406 14.234375 C 14.113281 14.285156 14.03125 14.339844 13.953125 14.394531 C 13.988281 14.421875 14.023438 14.449219 14.0625 14.476562 C 14.09375 14.382812 14.125 14.292969 14.15625 14.199219 Z M 34.5 38.980469 C 34.71875 38.890625 34.871094 38.808594 35.039062 38.761719 C 36.671875 38.300781 38.09375 37.476562 39.261719 36.238281 C 39.617188 35.863281 39.988281 35.503906 40.335938 35.125 C 40.566406 34.867188 40.789062 34.601562 40.984375 34.324219 C 42.222656 32.527344 42.898438 30.667969 43.132812 28.429688 C 43.152344 28.257812 43.132812 28.074219 43.199219 27.921875 C 43.402344 27.421875 43.398438 26.90625 43.359375 26.390625 C 43.289062 25.480469 43.171875 24.570312 42.976562 23.683594 C 42.597656 22.003906 41.964844 20.425781 40.929688 19.007812 C 40 17.738281 38.910156 16.671875 37.597656 15.828125 C 36.773438 15.296875 35.875 14.894531 34.933594 14.660156 C 34.054688 14.441406 33.171875 14.148438 32.230469 14.238281 C 31.777344 14.28125 31.3125 14.25 30.855469 14.273438 C 30.628906 14.28125 30.402344 14.320312 30.179688 14.371094 C 28.820312 14.675781 27.886719 15.035156 26.679688 15.738281 C 26.539062 15.820312 26.441406 15.976562 26.316406 16.105469 C 26.566406 16.578125 26.792969 17.035156 27.042969 17.488281 C 27.507812 18.347656 27.910156 19.234375 28.152344 20.179688 C 28.375 21.0625 28.675781 21.929688 28.703125 22.855469 C 28.714844 23.136719 28.820312 23.414062 28.875 23.695312 C 29.007812 24.4375 29.042969 25.171875 28.851562 25.910156 C 28.792969 26.128906 28.75 26.355469 28.722656 26.582031 C 28.65625 27.089844 28.683594 27.613281 28.464844 28.101562 C 28.253906 28.574219 28.375 29.136719 28.078125 29.589844 C 27.980469 30.402344 27.617188 31.121094 27.242188 31.828125 C 26.519531 33.195312 25.675781 34.492188 24.703125 35.691406 C 24.71875 35.945312 24.90625 36.089844 25.066406 36.230469 C 25.417969 36.523438 25.789062 36.789062 26.148438 37.074219 C 27.054688 37.796875 28.078125 38.308594 29.171875 38.660156 C 29.605469 38.796875 30.015625 39.042969 30.496094 39.011719 C 31.132812 38.96875 31.734375 39.214844 32.304688 39.296875 C 32.695312 39.210938 33.023438 39.117188 33.367188 39.066406 C 33.707031 39.015625 34.050781 39.015625 34.507812 38.980469 Z M 22.839844 32.851562 C 23.570312 32.292969 24.1875 31.683594 24.664062 30.976562 C 25.167969 30.226562 25.667969 29.46875 25.972656 28.59375 C 26.238281 27.839844 26.460938 27.085938 26.644531 26.304688 C 26.910156 25.171875 27.007812 24.0625 26.660156 22.9375 C 26.609375 22.773438 26.609375 22.597656 26.582031 22.429688 C 26.394531 21.097656 25.816406 19.621094 24.519531 18.199219 C 24.417969 18.089844 24.226562 18.0625 24.082031 17.996094 C 23.921875 18.125 23.773438 18.214844 23.667969 18.34375 C 22.929688 19.222656 22.304688 20.183594 21.898438 21.253906 C 21.515625 22.257812 21.097656 23.265625 21.058594 24.371094 C 21.046875 24.652344 20.996094 24.9375 20.921875 25.210938 C 20.742188 25.890625 20.742188 26.574219 20.902344 27.242188 C 20.996094 27.636719 21.042969 28.023438 21.070312 28.421875 C 21.097656 28.824219 21.128906 29.21875 21.320312 29.585938 C 21.40625 30.574219 21.933594 31.417969 22.242188 32.328125 C 22.316406 32.535156 22.464844 32.71875 22.839844 32.855469 Z M 11.289062 8.496094 C 11.484375 8.21875 11.621094 7.914062 11.722656 7.585938 C 11.808594 7.316406 11.914062 7.054688 12.03125 6.796875 C 12.167969 6.488281 12.339844 6.191406 12.476562 5.882812 C 12.609375 5.597656 12.953125 5.417969 12.886719 4.9375 C 11.945312 5.097656 10.984375 4.855469 10.046875 5.074219 C 9.46875 5.890625 8.910156 6.675781 8.335938 7.480469 C 8.472656 7.625 8.5625 7.816406 8.691406 7.84375 C 9.523438 8.023438 10.332031 8.273438 11.144531 8.527344 C 11.183594 8.542969 11.242188 8.507812 11.285156 8.496094 Z M 8.71875 9.160156 C 9.550781 10.398438 10.558594 11.414062 11.382812 12.574219 C 11.515625 12.761719 11.683594 12.921875 11.847656 13.085938 C 11.96875 13.203125 12.113281 13.300781 12.242188 13.402344 C 12.347656 13.335938 12.398438 13.238281 12.351562 13.117188 C 11.996094 12.207031 11.738281 11.28125 11.628906 10.308594 C 11.609375 10.152344 11.46875 10.011719 11.375 9.847656 C 10.671875 9.601562 9.976562 9.351562 9.269531 9.125 C 9.125 9.078125 8.945312 9.140625 8.71875 9.160156 Z M 13.585938 13.074219 C 13.628906 13.058594 13.695312 13.054688 13.710938 13.027344 C 14.164062 12.109375 14.664062 11.214844 15.121094 10.125 C 14.238281 10.214844 13.449219 10.019531 12.652344 10.183594 C 12.601562 10.195312 12.558594 10.242188 12.507812 10.273438 C 12.609375 10.746094 13.261719 12.667969 13.4375 12.996094 C 13.457031 13.035156 13.535156 13.046875 13.582031 13.074219 Z M 33.285156 12.972656 C 32.828125 12.910156 32.382812 12.890625 31.859375 13.011719 C 32.351562 13.144531 32.773438 13.144531 33.199219 13.0625 C 33.230469 13.054688 33.25 13.011719 33.285156 12.972656 Z M 33.285156 12.972656 " fill-opacity="1" fill-rule="nonzero"/></g><path fill="#1c3c75" d="M 22.121094 5.25 C 21.695312 5.171875 21.398438 5.546875 21 5.5625 C 20.953125 5.5625 20.898438 5.535156 20.851562 5.507812 C 20.746094 5.445312 20.714844 5.34375 20.746094 5.214844 C 20.761719 5.160156 20.765625 5.097656 20.796875 5.058594 C 21.109375 4.734375 21.390625 4.359375 21.753906 4.097656 C 22.347656 3.667969 22.953125 3.246094 23.625 2.933594 C 23.792969 2.855469 24.027344 2.867188 24.082031 2.996094 C 24.121094 3.089844 24.101562 3.203125 24.109375 3.351562 C 23.964844 3.488281 23.820312 3.671875 23.632812 3.789062 C 23.097656 4.125 22.648438 4.554688 22.203125 4.992188 C 22.132812 5.0625 22.117188 5.1875 22.074219 5.289062 L 22.117188 5.25 Z M 22.121094 5.25 " fill-opacity="1" fill-rule="nonzero"/><path fill="#1c3c75" d="M 6.832031 4.398438 C 6.632812 4.617188 6.425781 4.648438 6.195312 4.550781 C 6.089844 4.507812 5.988281 4.441406 5.910156 4.363281 C 5.207031 3.695312 4.507812 3.019531 3.890625 2.324219 C 3.847656 2.101562 3.84375 1.917969 4.027344 1.84375 C 4.117188 1.804688 4.257812 1.835938 4.355469 1.878906 C 4.515625 1.945312 4.65625 2.046875 4.804688 2.132812 C 5.320312 2.410156 5.6875 2.855469 6.0625 3.285156 C 6.355469 3.628906 6.582031 4.03125 6.832031 4.394531 Z M 6.832031 4.398438 " fill-opacity="1" fill-rule="nonzero"/><g clip-path="url(#7ce2a51fd8)"><path fill="#1c3c75" d="M 6.113281 0.25 C 6.308594 0.324219 6.515625 0.402344 6.777344 0.5 C 7.425781 1.308594 8.148438 2.113281 8.59375 3.109375 C 8.632812 3.195312 8.585938 3.328125 8.546875 3.421875 C 8.5 3.546875 8.21875 3.554688 8.101562 3.453125 C 8.015625 3.375 7.925781 3.308594 7.84375 3.226562 C 7.726562 3.105469 7.597656 2.984375 7.503906 2.84375 C 7 2.09375 6.5 1.335938 6.007812 0.574219 C 5.941406 0.464844 5.996094 0.347656 6.117188 0.253906 Z M 6.113281 0.25 " fill-opacity="1" fill-rule="nonzero"/></g><path fill="#1c3c75" d="M 4.464844 4.941406 C 4.984375 5.097656 5.417969 5.230469 5.875 5.371094 C 5.953125 5.507812 6.039062 5.648438 6.125 5.792969 C 6.003906 5.847656 5.902344 5.917969 5.796875 5.933594 C 5.628906 5.953125 5.453125 5.953125 5.28125 5.929688 C 4.777344 5.847656 4.277344 5.726562 3.769531 5.664062 C 3.316406 5.605469 2.855469 5.597656 2.375 5.566406 C 2.304688 5.40625 2.234375 5.265625 2.171875 5.117188 C 2.5625 4.960938 3.328125 4.902344 4.464844 4.941406 Z M 4.464844 4.941406 " fill-opacity="1" fill-rule="nonzero"/><path fill="#1c3c75" d="M 22.078125 5.289062 C 22.59375 5.230469 23.015625 4.90625 23.492188 4.742188 C 23.929688 4.589844 24.363281 4.511719 24.816406 4.582031 C 24.898438 4.597656 24.96875 4.703125 25.042969 4.765625 C 24.980469 4.859375 24.941406 4.976562 24.859375 5.039062 C 24.359375 5.414062 23.773438 5.632812 23.199219 5.863281 C 22.898438 5.984375 22.539062 5.976562 22.199219 5.996094 C 22.105469 6.003906 22.003906 5.910156 21.886719 5.855469 C 21.964844 5.65625 22.039062 5.449219 22.117188 5.25 L 22.074219 5.289062 Z M 22.078125 5.289062 " fill-opacity="1" fill-rule="nonzero"/><path fill="#1c3c75" d="M 22.492188 7.199219 C 22.539062 6.980469 22.695312 6.835938 22.914062 6.757812 C 23.019531 6.722656 23.128906 6.683594 23.238281 6.679688 C 23.964844 6.65625 24.695312 6.640625 25.421875 6.632812 C 25.523438 6.632812 25.628906 6.707031 25.726562 6.746094 C 25.820312 7.023438 25.605469 7.121094 25.359375 7.292969 C 24.667969 7.433594 23.878906 7.421875 23.097656 7.421875 C 22.871094 7.421875 22.644531 7.414062 22.488281 7.199219 Z M 22.492188 7.199219 " fill-opacity="1" fill-rule="nonzero"/></svg>