<svg xmlns="http://www.w3.org/2000/svg" xmlns:xlink="http://www.w3.org/1999/xlink" width="142" zoomAndPan="magnify" viewBox="0 0 106.5 100.499997" height="134" preserveAspectRatio="xMidYMid meet" version="1.0"><defs><clipPath id="94962ddb82"><path d="M 98 55 L 105.988281 55 L 105.988281 92 L 98 92 Z M 98 55 " clip-rule="nonzero"/></clipPath><clipPath id="18ae620da9"><path d="M 0.015625 96 L 32 96 L 32 99.257812 L 0.015625 99.257812 Z M 0.015625 96 " clip-rule="nonzero"/></clipPath><clipPath id="2d48481ddd"><path d="M 0.015625 63 L 29 63 L 29 67 L 0.015625 67 Z M 0.015625 63 " clip-rule="nonzero"/></clipPath></defs><path fill="#1c3c75" d="M 72.632812 87.597656 C 73.058594 88.140625 73.390625 88.566406 73.761719 89.039062 C 71.5 89.503906 69.332031 89.945312 67.011719 90.417969 C 65.59375 89.992188 63.996094 90.136719 62.410156 90.433594 C 62.046875 90.503906 61.691406 90.757812 61.347656 90.71875 C 59.003906 90.472656 56.65625 90.921875 54.320312 90.703125 C 54.085938 90.679688 53.871094 90.527344 53.652344 90.441406 C 53.289062 89.96875 53.464844 89.527344 53.714844 89.117188 C 53.714844 88.84375 53.746094 88.605469 53.714844 88.371094 C 53.621094 87.761719 53.496094 87.15625 53.398438 86.546875 C 53.117188 84.839844 52.785156 83.136719 52.589844 81.417969 C 52.414062 79.832031 52.554688 78.222656 52.132812 76.625 C 51.886719 75.6875 51.980469 74.660156 51.964844 73.667969 C 51.957031 72.550781 52.011719 71.445312 52.027344 70.332031 C 52.027344 69.460938 52.035156 68.601562 52.320312 67.757812 C 52.4375 67.410156 52.546875 67.03125 52.523438 66.667969 C 52.367188 64.265625 53.179688 62.035156 53.683594 59.753906 C 53.898438 58.792969 54.070312 57.816406 54.304688 56.648438 C 55.285156 53.921875 56.65625 51.164062 58.460938 48.617188 C 59.46875 47.191406 60.667969 45.953125 61.90625 44.746094 C 62.542969 44.125 63.292969 43.714844 64.300781 43.476562 C 64.617188 43.699219 65.082031 43.917969 65.390625 44.265625 C 66.863281 45.945312 68.140625 47.757812 69.09375 49.800781 C 71.570312 55.144531 73.011719 60.710938 72.996094 66.636719 C 72.996094 68.488281 72.792969 70.34375 73.265625 72.179688 C 73.351562 72.523438 73.226562 72.917969 73.210938 73.28125 C 73.183594 74.132812 73.199219 74.992188 73.136719 75.84375 C 73.066406 76.828125 72.824219 77.808594 72.863281 78.785156 C 72.996094 81.75 72.949219 84.71875 72.648438 87.566406 Z M 59.382812 50.660156 C 58.761719 50.972656 58.554688 51.480469 58.65625 52.148438 C 58.296875 52.164062 58.042969 52.355469 57.972656 52.683594 C 57.902344 52.992188 57.933594 53.316406 57.917969 53.644531 C 57.515625 53.671875 57.300781 53.945312 57.152344 54.269531 C 56.070312 56.65625 55.339844 59.371094 54.945312 62.53125 C 54.480469 62.734375 54.28125 63.042969 54.535156 63.554688 C 54.890625 63.261719 54.773438 62.828125 54.867188 62.460938 C 55.921875 61.78125 57.066406 61.550781 58.304688 61.75 C 58.421875 61.765625 58.546875 61.734375 58.671875 61.726562 C 58.5625 62.765625 59.011719 63.5625 59.722656 64.265625 C 60.078125 63.734375 60.15625 63.175781 60.070312 62.601562 C 59.800781 61.898438 59.195312 61.84375 58.601562 61.789062 C 58.074219 60.984375 57.546875 60.1875 57.121094 59.527344 C 57.003906 58.085938 57.089844 56.894531 57.609375 55.742188 C 57.910156 55.058594 57.917969 54.316406 57.863281 53.582031 C 58.578125 53.308594 58.578125 52.699219 58.609375 52.085938 C 59.40625 51.847656 59.351562 51.203125 59.320312 50.570312 C 59.4375 50.554688 59.570312 50.570312 59.660156 50.515625 C 59.722656 50.484375 59.730469 50.351562 59.769531 50.273438 C 59.597656 50.21875 59.476562 50.351562 59.398438 50.660156 Z M 63.039062 60.21875 C 64.253906 61.617188 64.972656 63.308594 65.632812 65.027344 C 65.671875 65.125 65.769531 65.234375 65.863281 65.289062 C 65.964844 65.34375 66.105469 65.320312 66.234375 65.335938 C 67.34375 64.167969 67.496094 62.394531 68.722656 61.300781 C 68.960938 61.285156 69.226562 61.199219 69.410156 61.277344 C 69.734375 61.417969 69.898438 61.945312 69.78125 62.222656 C 68.90625 64.265625 68.039062 66.3125 67.691406 68.78125 C 67.414062 73.101562 67.574219 77.679688 67.722656 82.253906 C 67.785156 84.089844 68.195312 85.917969 68.457031 87.746094 C 68.472656 87.855469 68.597656 87.945312 68.738281 88.140625 C 69.402344 88.007812 70.117188 87.871094 70.773438 87.738281 C 70.914062 87.445312 71.105469 87.234375 71.113281 87.011719 C 71.207031 85.28125 71.316406 83.546875 71.324219 81.820312 C 71.355469 77.121094 71.324219 72.429688 71.339844 67.726562 C 71.339844 65.125 71.144531 62.5625 70.671875 59.984375 C 70.308594 58.019531 69.605469 56.191406 69.03125 54.308594 C 68.125 51.3125 66.644531 48.625 64.765625 46.148438 C 64.5625 45.882812 64.191406 45.75 63.90625 45.574219 C 62.804688 46.09375 61.992188 46.773438 61.691406 47.921875 C 61.820312 48.019531 61.90625 48.144531 62.015625 48.160156 C 62.238281 48.199219 62.503906 48.246094 62.710938 48.167969 C 63.167969 47.996094 63.570312 47.6875 64.183594 47.835938 C 64.421875 47.996094 64.765625 48.160156 65.027344 48.414062 C 65.382812 48.757812 65.753906 49.121094 65.964844 49.546875 C 66.5625 50.761719 67.117188 52 67.621094 53.261719 C 68.449219 55.347656 68.480469 57.578125 68.800781 59.777344 C 68.140625 59.921875 67.574219 60.03125 67.035156 60.292969 C 66.335938 60.628906 65.578125 60.371094 64.84375 60.355469 C 64.277344 60.339844 63.859375 59.542969 63.039062 60.226562 Z M 62.582031 62.964844 C 62.378906 63.121094 62.070312 63.230469 62.007812 63.414062 C 61.660156 64.460938 61.195312 65.511719 61.09375 66.597656 C 60.785156 69.796875 60.621094 73.023438 61.203125 76.207031 C 61.472656 77.679688 61.636719 79.132812 61.605469 80.621094 C 61.558594 83.105469 61.859375 85.546875 62.457031 87.953125 C 62.511719 88.15625 62.773438 88.3125 62.953125 88.488281 L 65.5 88.488281 C 65.734375 88.265625 65.910156 88.101562 66.089844 87.929688 C 66.105469 85.671875 66.058594 83.433594 65.753906 81.242188 C 65.5 79.398438 65.328125 77.5625 65.382812 75.710938 C 65.5 71.832031 64.632812 68.117188 63.503906 64.453125 C 63.332031 63.910156 63.160156 63.292969 62.582031 62.972656 Z M 59.777344 88.542969 C 59.878906 88.328125 60.078125 88.101562 60.070312 87.886719 C 60.039062 86.777344 60.109375 85.632812 59.855469 84.5625 C 59.445312 82.859375 59.40625 81.132812 59.265625 79.414062 C 59.171875 78.304688 59.15625 77.183594 58.957031 76.089844 C 58.769531 75.109375 58.65625 74.125 58.746094 73.140625 C 59.003906 70.246094 58.238281 67.503906 57.484375 64.769531 C 57.394531 64.4375 57.097656 64.195312 56.671875 64.273438 C 56.269531 64.746094 55.976562 65.3125 55.875 65.910156 C 55.558594 67.726562 55.222656 69.554688 55.0625 71.398438 C 54.796875 74.363281 54.914062 77.347656 55.199219 80.289062 C 55.441406 82.75 55.597656 85.214844 55.703125 87.683594 C 55.71875 88.039062 55.84375 88.386719 55.90625 88.699219 C 57.175781 89.324219 57.78125 89.300781 59.777344 88.542969 Z M 60.761719 60.054688 C 61 59.660156 61.171875 59.472656 61.242188 59.25 C 61.574219 58.1875 61.589844 57.113281 61.210938 56.066406 C 61.109375 55.789062 60.753906 55.59375 60.496094 55.355469 C 59.414062 57.074219 59.257812 57.398438 59.226562 58.34375 C 59.210938 58.960938 59.398438 59.527344 59.878906 59.96875 C 60.09375 59.992188 60.320312 60.007812 60.753906 60.046875 Z M 62.636719 52.867188 C 63.90625 52.683594 64.355469 51.878906 64.386719 50.792969 C 64.402344 50.136719 64.058594 49.664062 63.355469 49.5 C 62.433594 50.179688 61.875 51.0625 61.84375 52.3125 C 62.125 52.503906 62.402344 52.707031 62.636719 52.867188 Z M 65.734375 55.269531 C 65.097656 55.585938 64.765625 56.058594 64.695312 56.722656 C 64.640625 57.234375 64.742188 57.707031 65.019531 58.125 C 65.320312 58.574219 65.734375 58.761719 66.367188 58.503906 C 66.972656 57.296875 66.722656 56.222656 65.734375 55.269531 Z M 62.71875 55.238281 L 62.589844 55.515625 L 62.8125 55.53125 Z M 62.71875 55.238281 " fill-opacity="1" fill-rule="nonzero"/><path fill="#1c3c75" d="M 31.902344 49.160156 C 32 48.6875 32.015625 48.160156 32.226562 47.742188 C 34.300781 43.683594 36.003906 39.433594 38.367188 35.523438 C 38.421875 35.429688 38.40625 35.296875 38.429688 35.199219 C 38.40625 34.703125 38.019531 34.625 37.660156 34.554688 C 37.421875 34.507812 37.136719 34.460938 36.933594 34.554688 C 35.539062 35.191406 34.03125 34.980469 32.753906 35.113281 C 31.953125 35.421875 31.683594 36.003906 31.414062 36.535156 C 30.359375 38.628906 29.335938 40.734375 28.324219 42.847656 C 26.71875 46.191406 24.746094 49.320312 22.792969 52.464844 C 22.46875 52.984375 22.089844 53.480469 21.398438 53.550781 C 21.398438 53.550781 21.476562 53.621094 21.476562 53.621094 C 21.65625 53.03125 21.75 52.402344 22.019531 51.863281 C 22.949219 49.980469 23.832031 48.058594 24.929688 46.277344 C 25.851562 44.792969 26.652344 43.257812 27.269531 41.65625 C 27.90625 40.015625 28.703125 38.519531 29.863281 37.195312 C 30.257812 36.746094 30.484375 36.140625 30.769531 35.652344 C 30.667969 35.492188 30.636719 35.351562 30.570312 35.328125 C 29.5625 35.003906 28.625 35.050781 27.796875 35.902344 C 26.664062 38.867188 25.1875 41.71875 23.585938 44.511719 C 22.601562 46.230469 21.695312 47.988281 20.78125 49.746094 C 19.238281 52.714844 17.730469 55.695312 16.195312 58.660156 C 15.972656 59.09375 15.671875 59.480469 15.445312 59.820312 C 15.097656 59.859375 14.886719 59.675781 15.003906 59.410156 C 16.335938 56.351562 17.683594 53.308594 19.070312 50.273438 C 19.480469 49.375 20.0625 48.554688 20.464844 47.65625 C 20.859375 46.757812 21.027344 45.746094 21.476562 44.882812 C 22.230469 43.46875 22.933594 42.035156 23.660156 40.609375 C 24.054688 39.84375 24.398438 39.054688 24.753906 38.265625 C 25.054688 37.597656 25.730469 37.125 25.769531 36.335938 C 25.660156 35.910156 25.335938 35.761719 24.96875 35.753906 C 23.738281 35.730469 22.5 35.753906 21.453125 35.753906 C 20.820312 36.066406 20.378906 36.28125 19.9375 36.492188 C 19.9375 36.492188 20.007812 36.550781 20.007812 36.550781 C 19.742188 36.3125 19.480469 36.066406 19.140625 35.753906 C 18.574219 35.753906 17.960938 35.730469 17.359375 35.761719 C 17.132812 35.777344 16.910156 35.917969 16.566406 36.050781 C 16.289062 36.753906 16.035156 37.566406 15.65625 38.308594 C 15.214844 39.175781 14.648438 39.992188 14.152344 40.835938 C 13.71875 41.570312 13.300781 42.320312 12.859375 43.058594 C 10.960938 46.199219 9.171875 49.40625 7.46875 52.667969 C 5.945312 55.59375 4.277344 58.460938 2.660156 61.339844 C 2.550781 61.527344 2.28125 61.617188 2.085938 61.75 C 2.085938 61.75 2.15625 61.8125 2.15625 61.8125 C 2.070312 61.191406 2.09375 60.582031 2.335938 59.992188 C 5.023438 53.332031 8.066406 46.859375 12.09375 40.882812 C 13.082031 38.875 14.40625 37.101562 15.996094 35.382812 C 19.03125 34.207031 22.296875 33.703125 25.652344 33.640625 C 27.015625 33.617188 28.371094 33.546875 29.734375 33.484375 C 30.476562 33.457031 31.25 33.53125 31.945312 33.324219 C 33.644531 32.828125 35.378906 32.90625 37.097656 32.835938 C 39.441406 32.742188 41.796875 32.703125 44.144531 32.625 C 44.753906 32.601562 45.382812 32.574219 45.976562 32.425781 C 47.929688 31.945312 49.914062 32.078125 51.886719 32.054688 C 52.484375 32.054688 53.085938 32.292969 53.753906 32.433594 C 53.992188 32.230469 54.320312 32.03125 54.550781 31.75 C 56.914062 28.894531 59.25 26.011719 61.464844 23.039062 C 61.820312 22.558594 62.355469 22.195312 62.851562 21.832031 C 63 21.722656 63.308594 21.738281 63.511719 21.800781 C 63.78125 21.894531 63.867188 22.140625 63.796875 22.40625 C 63.734375 22.636719 63.679688 22.894531 63.5625 23.101562 C 63.332031 23.535156 63.09375 23.976562 62.789062 24.363281 C 60.398438 27.359375 58.183594 30.488281 55.628906 33.355469 C 54.234375 34.925781 52.941406 36.582031 51.625 38.21875 C 49.144531 41.300781 46.683594 44.398438 44.214844 47.488281 C 42.363281 49.808594 40.527344 52.132812 38.675781 54.449219 C 38.367188 54.828125 38.003906 55.160156 37.714844 55.46875 C 37.390625 55.492188 37.152344 55.292969 37.265625 55.074219 C 37.808594 54.105469 38.382812 53.164062 39.007812 52.25 C 41.953125 47.972656 45.050781 43.808594 48.140625 39.632812 C 48.945312 38.542969 49.867188 37.535156 50.726562 36.484375 C 51.34375 35.722656 52.058594 35.019531 52.34375 34.027344 C 51.894531 33.703125 50.867188 33.625 49.261719 33.796875 C 48.664062 34.183594 48.054688 34.570312 47.441406 34.964844 L 47.511719 35.027344 C 47.28125 34.765625 47.039062 34.5 46.761719 34.183594 C 44.707031 34.546875 42.625 34.113281 40.691406 34.484375 C 40.410156 34.742188 40.171875 34.863281 40.0625 35.058594 C 38.304688 38.394531 36.625 41.773438 34.664062 45.007812 C 34.039062 46.054688 33.527344 47.160156 32.914062 48.222656 C 32.675781 48.632812 32.371094 49.035156 31.816406 49.089844 C 31.816406 49.089844 31.894531 49.160156 31.894531 49.160156 Z M 31.902344 49.160156 " fill-opacity="1" fill-rule="nonzero"/><path fill="#1c3c75" d="M 83.117188 8.226562 C 83.464844 8.414062 83.621094 8.730469 83.722656 9.101562 C 83.867188 9.691406 84.039062 10.269531 84.199219 10.898438 C 84.085938 10.992188 83.921875 11.222656 83.707031 11.285156 C 82.28125 11.703125 80.839844 11.964844 79.339844 11.9375 C 77.488281 11.898438 75.636719 11.988281 73.785156 12.050781 C 73.5625 12.050781 73.34375 12.207031 73.050781 12.316406 C 72.351562 13.367188 72.910156 14.683594 72.484375 15.832031 C 72.34375 15.96875 72.160156 15.90625 72.058594 15.589844 C 71.742188 14.546875 71.453125 13.484375 71.144531 12.4375 C 71.113281 12.339844 70.976562 12.277344 70.867188 12.175781 C 70.433594 12.382812 69.992188 12.59375 69.542969 12.8125 C 69.324219 12.734375 69.039062 12.71875 68.898438 12.570312 C 68.582031 12.246094 68.828125 11.90625 69.007812 11.59375 C 69.070312 11.488281 69.15625 11.402344 69.242188 11.308594 C 70.292969 10.09375 71.183594 8.777344 72.050781 7.421875 C 73.445312 5.246094 75.015625 3.183594 76.574219 1.117188 C 77.230469 0.242188 78.023438 -0.539062 78.71875 -1.320312 C 78.648438 -3.390625 78.585938 -5.363281 78.523438 -7.300781 C 78.160156 -8.136719 77.152344 -7.816406 76.683594 -8.398438 C 76.789062 -9.328125 77.695312 -9.351562 78.253906 -9.792969 C 78.859375 -10.667969 78.324219 -11.746094 78.78125 -12.75 C 79.011719 -12.859375 79.324219 -13.015625 79.671875 -13.183594 C 79.878906 -12.96875 80.042969 -12.796875 80.214844 -12.621094 C 80.3125 -11.746094 80.414062 -10.890625 80.492188 -10.265625 C 80.824219 -9.53125 81.390625 -9.554688 81.832031 -9.328125 C 81.886719 -8.601562 81.011719 -8.648438 80.707031 -7.902344 C 80.65625 -6.089844 80.121094 -4.03125 81.097656 -1.800781 C 82.960938 0.21875 84.597656 2.683594 85.898438 5.359375 C 86.121094 5.824219 86.199219 6.289062 86.105469 6.785156 C 86.105469 6.785156 86.152344 6.746094 86.152344 6.746094 C 85.933594 6.664062 85.640625 6.632812 85.507812 6.476562 C 85.046875 5.902344 84.640625 5.277344 84.183594 4.695312 C 83.804688 4.214844 83.378906 3.773438 82.945312 3.285156 C 82.800781 3.582031 82.589844 3.796875 82.628906 3.945312 C 83.046875 5.375 83.265625 6.824219 83.195312 8.320312 C 82.824219 8.195312 82.605469 7.917969 82.480469 7.550781 C 81.863281 5.6875 81.234375 3.828125 80.546875 1.769531 C 80.191406 2.875 79.886719 3.789062 79.601562 4.710938 C 79.277344 5.757812 79.742188 6.933594 79.058594 7.917969 C 78.175781 7.40625 78.835938 6.3125 78.230469 5.71875 C 77.679688 5.871094 77.402344 6.265625 77.175781 6.722656 C 77.015625 7.058594 76.804688 7.359375 76.410156 7.453125 L 76.496094 7.53125 C 76.472656 6.707031 76.488281 5.902344 76.882812 5.128906 C 77.085938 4.734375 77.085938 4.230469 77.167969 3.78125 C 77.582031 3.6875 77.75 3.386719 77.820312 3.015625 C 77.867188 2.773438 77.867188 2.527344 77.890625 2.285156 C 78.007812 2.195312 78.128906 2.101562 78.183594 2.054688 C 78.144531 2.109375 78.050781 2.242188 77.96875 2.363281 C 77.316406 2.652344 77.167969 3.191406 77.230469 3.835938 C 77.007812 3.898438 76.699219 3.890625 76.558594 4.035156 C 75.21875 5.492188 74.320312 7.289062 72.902344 8.683594 C 72.601562 8.976562 72.625 9.757812 72.871094 10.0625 C 73.128906 10.371094 73.507812 10.496094 73.863281 10.417969 C 74.460938 10.285156 75.03125 10.0625 75.777344 9.820312 C 76.699219 9.75 77.851562 10.117188 78.835938 9.371094 C 79.246094 9.660156 79.632812 9.9375 80.003906 10.199219 C 80.894531 10.199219 81.753906 10.199219 82.613281 10.191406 C 82.722656 10.191406 82.832031 10.078125 82.929688 10.023438 C 83.289062 9.449219 83.117188 8.839844 83.101562 8.234375 Z M 79.398438 0.0351562 C 79.5 0.0195312 79.625 0.0195312 79.710938 -0.0351562 C 79.765625 -0.0664062 79.765625 -0.183594 79.785156 -0.261719 C 79.59375 -0.308594 79.484375 -0.191406 79.476562 0.101562 C 79.316406 0.203125 79.144531 0.296875 78.980469 0.398438 C 79.058594 0.460938 79.128906 0.523438 79.207031 0.582031 C 79.277344 0.398438 79.339844 0.21875 79.40625 0.0351562 Z M 79.398438 0.0351562 " fill-opacity="1" fill-rule="nonzero"/><path fill="#1c3c75" d="M 39.761719 98.097656 C 39.164062 97.457031 39.15625 97.441406 39.960938 96.828125 C 41.207031 96.652344 42.410156 96.976562 43.765625 97.183594 C 44.847656 97.054688 46.046875 96.628906 47.289062 97 C 47.890625 97.183594 48.488281 97.121094 49.113281 97.039062 C 51.933594 96.667969 54.765625 96.449219 57.609375 96.480469 C 58.34375 96.488281 59.105469 96.503906 59.824219 96.363281 C 61.535156 96.015625 63.269531 96.054688 64.996094 96.046875 C 66.730469 96.046875 68.441406 96.015625 70.128906 95.527344 C 71.578125 95.109375 73.113281 95.09375 74.527344 95.496094 C 77.238281 96.261719 79.902344 95.976562 82.597656 95.566406 C 83.8125 95.378906 85.039062 95.21875 86.269531 95.109375 C 87.367188 95.007812 88.492188 95.117188 89.566406 94.722656 C 89.898438 94.597656 90.296875 94.605469 90.667969 94.597656 C 94.121094 94.519531 97.582031 94.453125 101.035156 94.675781 C 101.128906 94.675781 101.222656 94.769531 101.320312 94.824219 C 100.84375 95.449219 100.144531 95.691406 99.417969 95.8125 C 98.8125 95.914062 98.1875 95.90625 97.574219 95.960938 C 95.730469 96.132812 93.871094 96.023438 92.054688 96.488281 C 91.355469 96.667969 90.582031 96.566406 89.839844 96.574219 C 87.617188 96.589844 85.386719 96.574219 83.234375 97.246094 C 80.160156 97.519531 77.09375 97.992188 74.042969 97.03125 C 73.082031 96.726562 72.058594 96.71875 71.097656 96.945312 C 68.054688 97.65625 64.980469 97.679688 61.890625 97.664062 C 61.28125 97.664062 60.667969 97.75 60.0625 97.828125 C 59.453125 97.90625 58.855469 98.082031 58.246094 98.097656 C 55.164062 98.199219 52.074219 98.269531 48.992188 98.347656 C 48.371094 98.363281 47.734375 98.292969 47.140625 98.433594 C 44.667969 99.019531 42.246094 98.757812 39.769531 98.089844 Z M 39.761719 98.097656 " fill-opacity="1" fill-rule="nonzero"/><path fill="#1c3c75" d="M 98.039062 47.625 C 97.496094 47.5625 97.171875 47.167969 96.863281 46.796875 C 94.492188 43.941406 91.9375 41.253906 89.457031 38.496094 C 88.382812 37.304688 87.390625 36.027344 86.261719 34.894531 C 83.203125 31.835938 80.492188 28.453125 77.582031 25.253906 C 77.253906 24.890625 76.96875 24.480469 76.71875 24.0625 C 76.574219 23.820312 76.707031 23.613281 77.023438 23.519531 C 79.375 25.65625 81.753906 27.808594 84.300781 30.109375 C 84.617188 30.503906 85.074219 31.078125 85.546875 31.628906 C 85.609375 31.703125 85.773438 31.703125 85.933594 31.75 C 86.011719 31.394531 86.183594 31.03125 86.152344 30.683594 C 85.859375 27.609375 86.011719 24.519531 85.632812 21.4375 C 85.324219 18.875 85.402344 16.257812 85.355469 13.65625 C 85.347656 13.050781 85.488281 12.4375 85.648438 11.851562 C 85.75 11.480469 86.105469 11.347656 86.5 11.464844 C 86.609375 11.671875 86.78125 11.875 86.832031 12.105469 C 87.066406 13.183594 86.71875 14.351562 87.3125 15.375 C 87.273438 16.226562 87.238281 17.085938 87.207031 17.9375 C 87.183594 18.546875 86.980469 19.222656 87.167969 19.765625 C 87.679688 21.257812 87.351562 22.699219 87.066406 24.070312 C 87.207031 25.007812 87.375 25.859375 87.4375 26.71875 C 87.523438 27.824219 87.609375 28.933594 87.183594 30.015625 C 86.8125 30.96875 86.972656 31.960938 87.042969 32.921875 C 87.65625 34.199219 88.507812 35.257812 89.382812 36.296875 C 91.449219 38.75 93.578125 41.160156 95.636719 43.621094 C 96.429688 44.566406 97.140625 45.589844 97.8125 46.613281 C 97.992188 46.882812 97.929688 47.316406 97.976562 47.679688 L 98.03125 47.617188 Z M 98.039062 47.625 " fill-opacity="1" fill-rule="nonzero"/><g clip-path="url(#94962ddb82)"><path fill="#1c3c75" d="M 98.734375 62.570312 C 100.539062 61.578125 101.292969 60.054688 101.050781 58.027344 L 100.972656 58.101562 C 101.328125 58.070312 101.695312 58.035156 101.988281 58.011719 C 102.824219 57.179688 103.050781 55.925781 104.203125 55.492188 C 105.109375 55.957031 105.480469 56.46875 105.277344 57.097656 C 104.976562 58.035156 104.613281 58.945312 104.265625 59.921875 C 105.140625 63.230469 105.511719 66.660156 105.558594 70.128906 C 105.597656 72.722656 105.683594 75.308594 105.992188 77.894531 C 106.230469 79.847656 106.070312 81.84375 106.128906 83.828125 C 106.207031 86.429688 106.03125 89.007812 105.347656 91.53125 C 105.316406 91.640625 105.195312 91.71875 105.054688 91.878906 C 104.960938 91.507812 104.820312 91.191406 104.8125 90.875 C 104.691406 86.792969 104.582031 82.710938 104.472656 78.632812 C 104.472656 78.382812 104.503906 78.128906 104.457031 77.886719 C 103.707031 74.21875 104.0625 70.492188 103.824219 66.800781 C 103.714844 65.195312 103.777344 63.578125 103.3125 62.019531 C 103.25 61.804688 103.0625 61.617188 102.941406 61.425781 C 101.335938 62.601562 101.011719 64.886719 99.199219 65.855469 C 98.621094 65.589844 98.496094 65.101562 98.324219 64.617188 C 98.480469 63.925781 98.652344 63.214844 98.8125 62.5 L 98.734375 62.578125 Z M 98.734375 62.570312 " fill-opacity="1" fill-rule="nonzero"/></g><path fill="#1c3c75" d="M 67.519531 30.589844 C 67.839844 30.761719 68.226562 30.867188 68.464844 31.117188 C 69.9375 32.617188 71.441406 34.097656 72.816406 35.683594 C 76.402344 39.78125 79.894531 43.957031 83.660156 47.90625 C 86.144531 50.507812 88.226562 53.433594 90.441406 56.261719 C 91.890625 58.109375 93.253906 60.023438 94.65625 61.914062 C 94.964844 62.332031 95.042969 62.8125 94.988281 63.3125 L 95.058594 63.238281 C 94.207031 62.910156 93.6875 62.199219 93.175781 61.527344 C 92.199219 60.246094 91.101562 59.101562 90.03125 57.910156 C 86.902344 54.441406 83.835938 50.910156 80.753906 47.402344 C 78.972656 45.363281 77.191406 43.328125 75.425781 41.285156 C 72.933594 38.402344 70.457031 35.515625 67.976562 32.617188 C 67.824219 32.433594 67.738281 32.191406 67.621094 31.992188 C 67.414062 31.503906 67.511719 31.015625 67.589844 30.527344 C 67.589844 30.527344 67.519531 30.597656 67.519531 30.597656 Z M 67.519531 30.589844 " fill-opacity="1" fill-rule="nonzero"/><path fill="#1c3c75" d="M 72.824219 25.269531 C 73.351562 25.230469 73.808594 25.417969 74.15625 25.78125 C 75.1875 26.835938 76.210938 27.902344 77.199219 28.996094 C 77.773438 29.628906 78.316406 30.3125 78.820312 31.007812 C 80.257812 33.015625 81.910156 34.839844 83.574219 36.652344 C 83.984375 37.101562 84.339844 37.613281 84.710938 38.101562 C 87.167969 41.339844 89.777344 44.449219 92.371094 47.578125 C 93.863281 49.382812 95.34375 51.195312 96.824219 53 C 97.148438 53.394531 97.335938 53.828125 97.257812 54.355469 L 97.296875 54.316406 C 96.894531 54.339844 96.582031 54.136719 96.328125 53.867188 C 94.902344 52.320312 93.484375 50.761719 92.082031 49.191406 C 91.339844 48.363281 90.644531 47.488281 89.882812 46.671875 C 87.011719 43.589844 84.308594 40.371094 81.699219 37.0625 C 80.167969 35.121094 78.5 33.285156 76.914062 31.378906 C 75.652344 29.855469 74.421875 28.296875 73.183594 26.757812 C 72.863281 26.363281 72.671875 25.914062 72.679688 25.394531 L 72.824219 25.253906 Z M 72.824219 25.269531 " fill-opacity="1" fill-rule="nonzero"/><path fill="#1c3c75" d="M 94.328125 57.28125 C 93.027344 56.539062 92.105469 55.402344 91.1875 54.253906 C 90.339844 53.195312 89.527344 52.09375 88.566406 51.148438 C 85.828125 48.453125 83.496094 45.433594 81.273438 42.320312 C 80.699219 41.523438 80.136719 40.703125 79.46875 39.992188 C 77.953125 38.378906 76.75 36.492188 75.03125 35.050781 C 74.382812 34.507812 73.839844 33.789062 73.390625 33.058594 C 72.34375 31.363281 71.027344 29.910156 69.675781 28.476562 C 69.242188 28.019531 68.976562 27.46875 69.0625 26.804688 L 69 26.867188 C 69.234375 26.933594 69.527344 26.925781 69.683594 27.074219 C 72.585938 29.925781 75.527344 32.726562 77.992188 36.011719 C 80.058594 38.765625 82.367188 41.355469 84.566406 44.015625 C 85.269531 44.875 85.980469 45.730469 86.648438 46.621094 C 88.351562 48.886719 90.015625 51.179688 91.960938 53.261719 C 92.796875 54.152344 93.429688 55.238281 94.097656 56.277344 C 94.273438 56.554688 94.214844 56.988281 94.269531 57.34375 L 94.335938 57.273438 Z M 94.328125 57.28125 " fill-opacity="1" fill-rule="nonzero"/><path fill="#1c3c75" d="M 86.871094 62.507812 C 86.332031 62.539062 86.003906 62.074219 85.546875 61.945312 C 85.222656 61.851562 84.851562 61.929688 84.503906 61.929688 C 84.496094 62.089844 84.457031 62.222656 84.488281 62.238281 C 85.820312 62.917969 86.382812 64.152344 86.6875 65.5 C 86.988281 66.824219 86.972656 68.183594 86.664062 69.609375 C 86.429688 69.378906 86.214844 69.261719 86.152344 69.089844 C 85.78125 68.046875 85.457031 66.984375 85.089844 65.941406 C 84.929688 65.460938 84.605469 65.085938 84.09375 64.816406 C 83.84375 65.027344 83.574219 65.257812 83.347656 65.453125 C 82.929688 68.835938 82.945312 69.105469 83.628906 70.539062 C 84.6875 71.011719 85.820312 70.34375 86.902344 70.734375 C 87.058594 70.878906 87.230469 71.035156 87.476562 71.265625 C 87.25 71.523438 87.074219 71.933594 86.796875 72.019531 C 85.253906 72.453125 83.699219 72.808594 82.140625 73.1875 C 81.902344 73.25 81.660156 73.296875 81.421875 73.351562 C 80.957031 73.03125 80.800781 72.652344 81.148438 72.140625 C 81.289062 71.941406 81.359375 71.699219 81.453125 71.484375 C 81.628906 70.230469 81.453125 69.015625 81.117188 67.875 C 81.226562 67.210938 81.320312 66.605469 81.414062 66.015625 C 81.21875 65.839844 81.058594 65.652344 80.871094 65.511719 C 80.214844 65.011719 80.011719 64.5625 80.222656 64.019531 C 80.265625 63.902344 80.273438 63.777344 80.335938 63.671875 C 81.066406 62.355469 82.09375 61.292969 83.324219 60.441406 C 84.597656 59.558594 86.375 60.238281 86.886719 61.804688 C 86.957031 62.019531 86.871094 62.285156 86.855469 62.53125 L 86.871094 62.515625 Z M 86.871094 62.507812 " fill-opacity="1" fill-rule="nonzero"/><g clip-path="url(#18ae620da9)"><path fill="#1c3c75" d="M 0.894531 97.90625 C 1.160156 97.5625 1.375 97.285156 1.617188 96.96875 C 2.109375 96.921875 2.597656 96.835938 3.085938 96.835938 C 6.058594 96.8125 9.027344 96.804688 12 96.8125 C 12.496094 96.8125 13.007812 96.804688 13.480469 96.921875 C 16.027344 97.542969 18.636719 97.472656 21.222656 97.542969 C 23.691406 97.601562 26.171875 97.535156 28.648438 97.527344 C 29.507812 97.527344 30.375 97.503906 31.054688 97.601562 C 31.421875 97.820312 31.382812 98.003906 31.054688 98.128906 C 29.546875 98.703125 27.988281 99.035156 26.363281 99.121094 C 24.636719 99.214844 22.894531 98.972656 21.183594 99.375 C 19.488281 98.925781 17.714844 99.246094 16.027344 98.886719 C 12.84375 98.207031 9.628906 98.386719 6.425781 98.386719 C 4.9375 98.386719 3.449219 98.371094 1.972656 98.308594 C 1.632812 98.292969 1.304688 98.074219 0.894531 97.914062 Z M 0.894531 97.90625 " fill-opacity="1" fill-rule="nonzero"/></g><path fill="#1c3c75" d="M 23.769531 69.964844 C 24.296875 70.144531 24.691406 70.175781 24.96875 70.375 C 25.984375 71.113281 26.78125 72.035156 27.183594 73.304688 C 27.0625 73.605469 26.929688 73.9375 26.6875 74.535156 C 26.664062 75.363281 26.703125 76.472656 26.582031 77.5625 C 26.472656 78.53125 26.179688 79.484375 25.992188 80.351562 C 26.109375 80.792969 26.203125 81.140625 26.308594 81.574219 C 24.753906 82.125 23.164062 82.085938 21.578125 81.90625 C 21.371094 81.882812 21.183594 81.652344 20.914062 81.464844 C 21.019531 81.179688 21.144531 80.871094 21.246094 80.605469 C 22.507812 80.296875 23.699219 80.511719 24.761719 80.699219 C 24.953125 80.414062 25.085938 80.3125 25.085938 80.21875 C 25.03125 78.5 24.976562 76.78125 24.871094 75.0625 C 24.839844 74.558594 24.550781 74.15625 24.039062 73.953125 C 23.1875 74.527344 22.753906 75.410156 22.28125 76.300781 C 22.199219 76.890625 22.121094 77.492188 22.019531 78.097656 C 22.003906 78.207031 21.871094 78.289062 21.789062 78.390625 C 21.191406 77.980469 21.390625 77.347656 21.355469 76.789062 C 21.316406 76.175781 21.316406 75.574219 21.308594 74.992188 C 20.503906 74.765625 20.207031 75.511719 19.648438 75.625 C 19.542969 75.449219 19.285156 75.191406 19.339844 75.09375 C 20.347656 73.101562 21.671875 71.367188 23.777344 69.957031 Z M 22.917969 72.894531 C 23.296875 72.785156 23.597656 72.589844 23.660156 72.15625 C 23.753906 72.117188 23.863281 72.101562 23.941406 72.042969 C 23.980469 72.011719 23.980469 71.917969 23.996094 71.847656 C 23.792969 71.832031 23.699219 71.957031 23.730469 72.226562 C 23.316406 72.316406 23.074219 72.5625 22.996094 72.96875 C 22.902344 72.984375 22.800781 72.992188 22.722656 73.03125 C 22.671875 73.054688 22.640625 73.132812 22.601562 73.195312 C 22.707031 73.09375 22.816406 72.992188 22.917969 72.902344 Z M 22.917969 72.894531 " fill-opacity="1" fill-rule="nonzero"/><g clip-path="url(#2d48481ddd)"><path fill="#1c3c75" d="M 1.335938 63.246094 C 1.476562 63.4375 1.609375 63.632812 1.746094 63.824219 C 2.320312 64.144531 2.949219 64.019531 3.558594 64.019531 C 5.78125 64.019531 8.003906 63.941406 10.1875 64.492188 C 10.777344 64.636719 11.417969 64.601562 12.03125 64.601562 C 15.121094 64.601562 18.210938 64.585938 21.300781 64.5625 C 22.160156 64.5625 23.011719 64.539062 23.871094 64.296875 C 24.566406 64.105469 25.335938 64.097656 26.070312 64.074219 C 26.796875 64.050781 27.546875 63.941406 28.300781 64.289062 C 28.167969 64.40625 28.058594 64.585938 27.929688 64.609375 C 26.84375 64.808594 25.691406 64.691406 24.675781 65.265625 C 24.574219 65.328125 24.445312 65.351562 24.320312 65.359375 C 21.363281 65.558594 18.464844 66.328125 15.484375 66.28125 C 12.527344 66.234375 9.542969 66.480469 6.625 65.785156 C 5.023438 65.816406 3.425781 65.855469 1.660156 65.886719 C 1.257812 65.738281 0.617188 65.652344 0.230469 65.085938 C 0.570312 64.460938 0.601562 63.625 1.421875 63.320312 C 1.421875 63.320312 1.328125 63.246094 1.328125 63.246094 Z M 1.335938 63.246094 " fill-opacity="1" fill-rule="nonzero"/></g><path fill="#1c3c75" d="M 42.957031 52.0625 C 42.941406 51.542969 43.144531 51.101562 43.453125 50.707031 C 45.429688 48.175781 47.386719 45.628906 49.378906 43.113281 C 51.066406 40.972656 52.769531 38.859375 54.496094 36.761719 C 55.199219 35.902344 55.976562 35.105469 56.757812 34.308594 C 58.144531 32.890625 59.546875 31.496094 60.953125 30.109375 C 61.109375 29.953125 61.386719 29.933594 61.613281 29.847656 C 61.613281 29.847656 61.550781 29.785156 61.550781 29.785156 C 61.480469 30.140625 61.511719 30.582031 61.320312 30.835938 C 58.632812 34.222656 56.089844 37.730469 53.226562 40.980469 C 51.34375 43.117188 49.59375 45.363281 47.742188 47.523438 C 46.535156 48.933594 45.265625 50.289062 43.996094 51.644531 C 43.765625 51.894531 43.375 52 43.058594 52.179688 C 43.058594 52.179688 42.949219 52.070312 42.949219 52.070312 Z M 42.957031 52.0625 " fill-opacity="1" fill-rule="nonzero"/><path fill="#1c3c75" d="M 46.046875 62.460938 C 46.046875 62.585938 46 62.726562 46.046875 62.828125 C 46.960938 64.792969 47.085938 66.84375 46.785156 68.953125 C 46.714844 69.441406 46.722656 69.933594 46.382812 70.335938 C 46 69.964844 45.972656 69.476562 45.984375 68.992188 C 46.023438 67.472656 45.5 66.078125 45.011719 64.691406 C 44.910156 64.414062 44.484375 64.25 44.242188 64.066406 C 43.679688 64.3125 43.359375 64.675781 43.238281 65.179688 C 42.890625 66.613281 42.5625 68.054688 42.222656 69.492188 C 42.167969 69.726562 42.074219 69.949219 42 70.175781 C 41.535156 69.5 41.394531 68.90625 41.347656 67.710938 C 41.308594 66.859375 41.671875 66 41.269531 65.1875 C 40.90625 65.15625 40.566406 65.125 40.269531 65.101562 C 39.859375 64.628906 39.890625 64.121094 40 63.648438 C 40.203125 62.789062 40.710938 62.082031 41.292969 61.441406 C 41.953125 60.710938 42.640625 60 43.664062 59.769531 C 45.636719 60.078125 46.992188 61.238281 47.992188 62.894531 C 48.140625 63.144531 48.0625 63.375 47.84375 63.5625 C 47.226562 63.230469 46.597656 62.886719 45.976562 62.546875 C 45.621094 61.820312 44.769531 61.84375 44.222656 61.402344 C 43.585938 61.535156 43.160156 61.875 43.058594 62.546875 C 42.972656 62.625 42.898438 62.703125 42.8125 62.78125 C 42.867188 62.679688 42.925781 62.578125 42.980469 62.46875 C 44.003906 62.238281 45.019531 62.4375 46.039062 62.46875 Z M 46.046875 62.460938 " fill-opacity="1" fill-rule="nonzero"/><path fill="#1c3c75" d="M 9.574219 55.847656 C 9.589844 55.484375 9.515625 55.082031 9.644531 54.765625 C 11.605469 50.140625 13.648438 45.566406 16.257812 41.269531 C 17.140625 39.8125 17.847656 38.226562 19.0625 36.976562 C 19.324219 36.714844 19.597656 36.492188 20 36.535156 C 20 36.535156 19.929688 36.476562 19.929688 36.476562 C 19.898438 36.839844 19.96875 37.242188 19.828125 37.558594 C 18.605469 40.339844 17.480469 43.15625 15.808594 45.746094 C 14.292969 48.089844 13.066406 50.628906 11.699219 53.070312 C 11.226562 53.914062 10.699219 54.734375 10.148438 55.539062 C 10.039062 55.703125 9.730469 55.726562 9.523438 55.8125 C 9.523438 55.8125 9.574219 55.855469 9.574219 55.855469 Z M 9.574219 55.847656 " fill-opacity="1" fill-rule="nonzero"/><path fill="#1c3c75" d="M 98.378906 89.597656 C 98.277344 89.210938 98.140625 88.90625 98.125 88.597656 C 98.0625 87.613281 98.039062 86.628906 98 85.648438 C 97.984375 85.152344 97.984375 84.664062 97.929688 84.175781 C 97.738281 82.347656 97.503906 80.519531 97.34375 78.683594 C 97.1875 76.972656 97.296875 75.214844 96.960938 73.535156 C 96.542969 71.453125 96.542969 69.386719 96.582031 67.292969 C 96.589844 66.824219 96.722656 66.34375 96.878906 65.40625 C 97.210938 66.675781 97.410156 67.488281 97.644531 68.292969 C 97.882812 69.121094 98.203125 69.925781 98.386719 70.765625 C 98.574219 71.601562 98.734375 72.453125 98.757812 73.304688 C 98.898438 78.59375 98.867188 83.890625 98.605469 89.171875 C 98.605469 89.277344 98.496094 89.386719 98.386719 89.597656 Z M 98.378906 89.597656 " fill-opacity="1" fill-rule="nonzero"/><path fill="#1c3c75" d="M 13.324219 55.863281 L 13.324219 54.496094 C 14.199219 52.714844 15.074219 50.667969 16.179688 48.757812 C 18.101562 45.449219 19.300781 41.78125 21.390625 38.566406 C 21.453125 38.464844 21.578125 38.410156 21.695312 38.316406 C 21.789062 38.488281 22.003906 38.699219 21.957031 38.804688 C 20.214844 43.554688 18.179688 48.175781 15.609375 52.542969 C 14.925781 53.695312 14.363281 54.945312 13.238281 55.773438 L 13.316406 55.847656 Z M 13.324219 55.863281 " fill-opacity="1" fill-rule="nonzero"/><path fill="#1c3c75" d="M 9.925781 68.199219 C 10.015625 68.574219 10.148438 68.882812 10.171875 69.199219 C 10.34375 71.152344 10.28125 73.132812 10.882812 75.03125 C 10.921875 76.988281 10.96875 78.949219 10.992188 80.914062 C 11.015625 82.519531 10.769531 84.089844 10.289062 85.625 C 10.257812 85.722656 10.117188 85.785156 10.007812 85.886719 C 9.878906 85.753906 9.652344 85.640625 9.628906 85.492188 C 9.523438 84.640625 9.398438 83.78125 9.40625 82.929688 C 9.445312 78.515625 9.507812 74.101562 9.582031 69.6875 C 9.589844 69.207031 9.535156 68.695312 9.925781 68.199219 Z M 9.925781 68.199219 " fill-opacity="1" fill-rule="nonzero"/><path fill="#1c3c75" d="M 25.9375 52.132812 C 25.953125 51.769531 25.851562 51.351562 26 51.046875 C 26.742188 49.5 27.554688 47.988281 28.316406 46.449219 C 29.074219 44.914062 30.003906 43.46875 30.824219 41.964844 C 31.527344 40.679688 32.203125 39.371094 32.914062 38.085938 C 33.269531 37.441406 33.695312 36.847656 34.101562 36.234375 C 34.160156 36.140625 34.292969 36.089844 34.394531 36.011719 C 34.464844 36.09375 34.609375 36.1875 34.59375 36.265625 C 34.542969 36.613281 34.503906 36.976562 34.363281 37.289062 C 32.859375 40.640625 31.335938 43.988281 29.320312 47.082031 C 28.394531 48.515625 27.625 50.066406 26.765625 51.542969 C 26.582031 51.863281 26.285156 52.085938 25.875 52.0625 L 25.9375 52.117188 Z M 25.9375 52.132812 " fill-opacity="1" fill-rule="nonzero"/><path fill="#1c3c75" d="M 76.535156 19.546875 C 76.707031 19.804688 76.882812 20.089844 77.054688 20.34375 C 76.488281 21.121094 75.707031 20.941406 75 21.042969 C 74.28125 21.152344 73.578125 21.390625 72.847656 21.492188 C 71.996094 21.605469 71.136719 21.644531 70.277344 21.675781 C 69.542969 21.699219 68.808594 21.675781 68.070312 21.667969 C 67.34375 21.660156 66.613281 21.636719 65.972656 21.621094 C 65.160156 20.839844 65.167969 20.832031 65.949219 20.105469 C 66.707031 20.074219 67.558594 20.027344 68.410156 20.019531 C 69.757812 19.996094 71.097656 19.972656 72.429688 19.640625 C 73.746094 19.308594 75.109375 19.40625 76.535156 19.554688 Z M 76.535156 19.546875 " fill-opacity="1" fill-rule="nonzero"/><path fill="#1c3c75" d="M 42.972656 37.21875 C 42.972656 37.457031 43.027344 37.722656 42.957031 37.9375 C 42.8125 38.394531 42.632812 38.859375 42.394531 39.277344 C 40.402344 42.753906 38.519531 46.292969 36.238281 49.601562 C 36.121094 49.769531 35.835938 49.824219 35.625 49.933594 L 35.515625 49.832031 C 35.554688 49.476562 35.484375 49.066406 35.640625 48.773438 C 37.523438 45.101562 39.527344 41.5 41.945312 38.15625 C 42.222656 37.769531 42.492188 37.351562 43.035156 37.289062 L 42.972656 37.234375 Z M 42.972656 37.21875 " fill-opacity="1" fill-rule="nonzero"/><path fill="#1c3c75" d="M 47.433594 34.980469 C 47.417969 35.21875 47.488281 35.507812 47.386719 35.707031 C 45.53125 39.175781 43.757812 42.691406 41.386719 45.851562 C 41.261719 46.015625 40.96875 46.046875 40.75 46.140625 L 40.820312 46.199219 C 40.835938 45.953125 40.773438 45.683594 40.867188 45.472656 C 42.492188 41.871094 44.46875 38.472656 46.867188 35.335938 C 46.992188 35.175781 47.292969 35.152344 47.511719 35.058594 L 47.441406 34.996094 Z M 47.433594 34.980469 " fill-opacity="1" fill-rule="nonzero"/><path fill="#1c3c75" d="M 41.9375 72.683594 C 42.191406 71.871094 42.554688 71.507812 43.035156 71.5625 C 43.390625 71.601562 43.78125 71.578125 44.113281 71.691406 C 44.824219 71.949219 45.507812 72.027344 46.234375 71.753906 C 46.488281 71.660156 46.945312 72.140625 46.960938 72.414062 C 46.976562 72.660156 46.839844 72.800781 46.527344 72.832031 C 45.445312 72.933594 44.359375 73.046875 43.277344 73.125 C 42.789062 73.15625 42.316406 73.046875 41.945312 72.683594 Z M 41.9375 72.683594 " fill-opacity="1" fill-rule="nonzero"/><path fill="#1c3c75" d="M 18.519531 58.824219 C 18.519531 58.699219 18.511719 58.574219 18.542969 58.460938 C 19.015625 56.941406 19.8125 55.578125 20.617188 54.222656 C 20.78125 53.945312 21.183594 53.8125 21.476562 53.621094 C 21.476562 53.621094 21.398438 53.550781 21.398438 53.550781 C 21.421875 53.78125 21.4375 54.015625 21.460938 54.261719 C 21.199219 55.414062 20.378906 56.296875 19.859375 57.34375 C 19.65625 57.753906 19.347656 58.125 19.039062 58.476562 C 18.898438 58.628906 18.636719 58.660156 18.433594 58.753906 C 18.433594 58.753906 18.519531 58.824219 18.519531 58.824219 Z M 18.519531 58.824219 " fill-opacity="1" fill-rule="nonzero"/><path fill="#1c3c75" d="M 42.238281 52.828125 C 42.222656 53.1875 42.199219 53.542969 42.183594 53.992188 C 41.457031 54.75 40.710938 55.546875 39.929688 56.304688 C 39.777344 56.453125 39.496094 56.46875 39.273438 56.539062 C 39.273438 56.539062 39.328125 56.59375 39.328125 56.59375 C 39.34375 56.359375 39.289062 56.082031 39.394531 55.894531 C 40.125 54.664062 40.914062 53.488281 42.292969 52.875 L 42.238281 52.820312 Z M 42.238281 52.828125 " fill-opacity="1" fill-rule="nonzero"/><path fill="#1c3c75" d="M 35.625 49.933594 C 35.484375 51.125 34.90625 52.109375 34.136719 52.984375 C 33.921875 53.222656 33.589844 53.355469 33.300781 53.542969 L 33.386719 53.621094 C 33.519531 52.296875 34.109375 51.164062 34.921875 50.148438 C 35.050781 49.988281 35.316406 49.933594 35.515625 49.832031 C 35.515625 49.832031 35.625 49.933594 35.625 49.933594 Z M 35.625 49.933594 " fill-opacity="1" fill-rule="nonzero"/><path fill="#1c3c75" d="M 101.019531 51.328125 C 100.066406 50.894531 99.503906 50.203125 99.542969 49.113281 L 99.480469 49.175781 C 100.5 49.570312 100.933594 50.34375 100.941406 51.40625 Z M 101.019531 51.328125 " fill-opacity="1" fill-rule="nonzero"/><path fill="#1c3c75" d="M 97.296875 61 C 96.359375 60.550781 95.722656 59.898438 95.839844 58.761719 L 95.769531 58.832031 C 96.785156 59.234375 97.28125 59.96875 97.21875 61.078125 Z M 97.296875 61 " fill-opacity="1" fill-rule="nonzero"/><path fill="#1c3c75" d="M 9.984375 90.394531 C 9.28125 89.664062 9.761719 88.984375 9.878906 87.738281 C 10.289062 89.378906 10.28125 89.378906 9.984375 90.394531 Z M 9.984375 90.394531 " fill-opacity="1" fill-rule="nonzero"/><path fill="#1c3c75" d="M 71.214844 23.914062 C 72.421875 24.023438 72.46875 24.054688 72.824219 25.269531 L 72.679688 25.410156 C 71.925781 25.144531 71.53125 24.566406 71.292969 23.84375 Z M 71.214844 23.914062 " fill-opacity="1" fill-rule="nonzero"/><path fill="#1c3c75" d="M 2.085938 61.734375 C 2.070312 62.355469 2.011719 62.949219 1.335938 63.238281 C 1.335938 63.238281 1.429688 63.3125 1.429688 63.3125 C 1.453125 62.996094 1.4375 62.671875 1.507812 62.363281 C 1.578125 62.035156 1.824219 61.84375 2.164062 61.796875 L 2.09375 61.734375 Z M 2.085938 61.734375 " fill-opacity="1" fill-rule="nonzero"/><path fill="#1c3c75" d="M 17.699219 60.277344 C 17.644531 60.859375 17.566406 61.425781 16.964844 61.734375 L 17.039062 61.820312 C 17.0625 61.578125 17.0625 61.332031 17.109375 61.09375 C 17.179688 60.71875 17.359375 60.417969 17.785156 60.355469 L 17.699219 60.285156 Z M 17.699219 60.277344 " fill-opacity="1" fill-rule="nonzero"/><path fill="#1c3c75" d="M 36.253906 59.496094 C 36.230469 59.738281 36.222656 59.984375 36.175781 60.226562 C 36.152344 60.339844 36.082031 60.535156 36.019531 60.535156 C 35.726562 60.558594 35.625 60.363281 35.8125 60.078125 C 35.933594 59.882812 36.152344 59.746094 36.328125 59.574219 C 36.328125 59.574219 36.253906 59.496094 36.253906 59.496094 Z M 36.253906 59.496094 " fill-opacity="1" fill-rule="nonzero"/><path fill="#1c3c75" d="M 17.785156 60.347656 C 17.808594 59.738281 17.871094 59.132812 18.519531 58.824219 L 18.433594 58.753906 C 18.371094 59.351562 18.394531 59.992188 17.699219 60.277344 Z M 17.785156 60.347656 " fill-opacity="1" fill-rule="nonzero"/><path fill="#1c3c75" d="M 8.777344 57.289062 C 8.761719 57.515625 8.761719 57.746094 8.722656 57.972656 C 8.667969 58.265625 8.53125 58.40625 8.375 58.3125 C 8.296875 58.265625 8.25 58.132812 8.242188 58.035156 C 8.234375 57.925781 8.242188 57.777344 8.3125 57.714844 C 8.46875 57.570312 8.660156 57.46875 8.847656 57.34375 C 8.847656 57.34375 8.785156 57.289062 8.785156 57.289062 Z M 8.777344 57.289062 " fill-opacity="1" fill-rule="nonzero"/><path fill="#1c3c75" d="M 35.632812 58.09375 C 35.65625 57.855469 35.671875 57.605469 35.710938 57.367188 C 35.734375 57.25 35.804688 57.058594 35.859375 57.050781 C 36.128906 57.035156 36.246094 57.234375 36.074219 57.515625 C 35.957031 57.707031 35.734375 57.847656 35.554688 58.003906 C 35.554688 58.003906 35.632812 58.085938 35.632812 58.085938 Z M 35.632812 58.09375 " fill-opacity="1" fill-rule="nonzero"/><path fill="#1c3c75" d="M 8.847656 57.351562 C 8.800781 56.710938 8.738281 56.058594 9.582031 55.847656 L 9.53125 55.804688 C 9.605469 56.460938 9.691406 57.128906 8.777344 57.289062 L 8.839844 57.34375 Z M 8.847656 57.351562 " fill-opacity="1" fill-rule="nonzero"/><path fill="#1c3c75" d="M 32.566406 55.074219 C 32.464844 55.632812 32.542969 56.285156 31.832031 56.523438 L 31.910156 56.601562 C 31.953125 56.011719 31.910156 55.378906 32.652344 55.144531 L 32.566406 55.066406 Z M 32.566406 55.074219 " fill-opacity="1" fill-rule="nonzero"/><path fill="#1c3c75" d="M 28.84375 54.308594 C 28.84375 54.539062 28.863281 54.78125 28.828125 55.003906 C 28.773438 55.308594 28.609375 55.4375 28.429688 55.355469 C 28.355469 55.316406 28.292969 55.175781 28.277344 55.074219 C 28.261719 54.96875 28.277344 54.8125 28.347656 54.75 C 28.507812 54.601562 28.710938 54.496094 28.894531 54.363281 C 28.894531 54.363281 28.835938 54.300781 28.835938 54.300781 Z M 28.84375 54.308594 " fill-opacity="1" fill-rule="nonzero"/><path fill="#1c3c75" d="M 32.652344 55.144531 C 32.753906 54.5625 32.714844 53.921875 33.386719 53.613281 L 33.300781 53.535156 C 33.242188 54.128906 33.179688 54.734375 32.566406 55.066406 Z M 32.652344 55.144531 " fill-opacity="1" fill-rule="nonzero"/><path fill="#1c3c75" d="M 24.472656 55.128906 C 24.472656 54.8125 24.4375 54.480469 24.503906 54.167969 C 24.582031 53.84375 24.847656 53.65625 25.203125 53.636719 L 25.140625 53.582031 C 25.171875 54.207031 25.140625 54.804688 24.40625 55.050781 L 24.472656 55.121094 Z M 24.472656 55.128906 " fill-opacity="1" fill-rule="nonzero"/><path fill="#1c3c75" d="M 25.203125 53.636719 C 25.117188 52.96875 25.140625 52.355469 25.9375 52.132812 L 25.875 52.078125 C 25.898438 52.714844 25.945312 53.355469 25.132812 53.582031 L 25.195312 53.636719 Z M 25.203125 53.636719 " fill-opacity="1" fill-rule="nonzero"/><path fill="#1c3c75" d="M 30.421875 52.148438 C 30.421875 51.929688 30.398438 51.722656 30.40625 51.503906 C 30.421875 51.023438 30.644531 50.714844 31.15625 50.667969 L 31.085938 50.605469 C 31.109375 51.234375 31.070312 51.824219 30.34375 52.0625 L 30.421875 52.140625 Z M 30.421875 52.148438 " fill-opacity="1" fill-rule="nonzero"/><path fill="#1c3c75" d="M 31.15625 50.667969 C 31.15625 50.042969 31.171875 49.421875 31.902344 49.160156 L 31.824219 49.089844 C 31.785156 49.695312 31.816406 50.335938 31.085938 50.605469 Z M 31.15625 50.667969 " fill-opacity="1" fill-rule="nonzero"/><path fill="#1c3c75" d="M 39.234375 48.355469 C 39.210938 48.59375 39.195312 48.839844 39.15625 49.082031 C 39.140625 49.199219 39.078125 49.398438 39.023438 49.40625 C 38.769531 49.429688 38.652344 49.230469 38.808594 48.949219 C 38.917969 48.75 39.140625 48.609375 39.3125 48.445312 C 39.3125 48.445312 39.234375 48.363281 39.234375 48.363281 Z M 39.234375 48.355469 " fill-opacity="1" fill-rule="nonzero"/><path fill="#1c3c75" d="M 40.09375 47.695312 C 40.078125 47.066406 40.007812 46.417969 40.8125 46.1875 L 40.742188 46.125 C 40.765625 46.75 40.683594 47.324219 40.015625 47.617188 Z M 40.09375 47.695312 " fill-opacity="1" fill-rule="nonzero"/><path fill="#1c3c75" d="M 43.035156 37.273438 C 42.988281 36.636719 43.207031 36.132812 43.773438 35.792969 C 43.773438 35.792969 43.695312 35.707031 43.695312 35.707031 C 43.695312 35.925781 43.695312 36.132812 43.695312 36.351562 C 43.695312 36.832031 43.476562 37.148438 42.980469 37.21875 L 43.042969 37.273438 Z M 43.035156 37.273438 " fill-opacity="1" fill-rule="nonzero"/><path fill="#1c3c75" d="M 86.886719 8.210938 C 86.277344 7.902344 86.105469 7.375 86.152344 6.738281 L 86.105469 6.777344 C 86.445312 6.816406 86.703125 7.011719 86.773438 7.335938 C 86.832031 7.644531 86.804688 7.972656 86.8125 8.289062 L 86.886719 8.203125 Z M 86.886719 8.210938 " fill-opacity="1" fill-rule="nonzero"/><path fill="#1c3c75" d="M 86.8125 8.296875 C 87.113281 8.28125 87.25 8.382812 87.246094 8.589844 C 87.175781 8.566406 87.074219 8.566406 87.035156 8.519531 C 86.964844 8.433594 86.933594 8.320312 86.886719 8.210938 C 86.886719 8.210938 86.8125 8.296875 86.8125 8.296875 Z M 86.8125 8.296875 " fill-opacity="1" fill-rule="nonzero"/><path fill="#1c3c75" d="M 71.292969 23.84375 C 71 23.769531 70.882812 23.636719 70.945312 23.464844 C 71.019531 23.503906 71.128906 23.527344 71.160156 23.589844 C 71.207031 23.691406 71.199219 23.8125 71.214844 23.921875 L 71.292969 23.851562 Z M 71.292969 23.84375 " fill-opacity="1" fill-rule="nonzero"/><path fill="#1c3c75" d="M 67.566406 25.308594 C 67.289062 25.253906 67.164062 25.136719 67.203125 24.96875 C 67.273438 25 67.367188 25.023438 67.398438 25.078125 C 67.453125 25.167969 67.460938 25.285156 67.484375 25.386719 L 67.558594 25.308594 Z M 67.566406 25.308594 " fill-opacity="1" fill-rule="nonzero"/><path fill="#1c3c75" d="M 67.492188 25.386719 C 67.953125 25.410156 68.210938 25.648438 68.25 26.121094 L 68.320312 26.050781 C 67.871094 26.003906 67.644531 25.734375 67.566406 25.308594 Z M 67.492188 25.386719 " fill-opacity="1" fill-rule="nonzero"/><path fill="#1c3c75" d="M 69.0625 26.8125 C 68.597656 26.765625 68.359375 26.5 68.320312 26.050781 L 68.25 26.121094 C 68.722656 26.144531 68.976562 26.394531 69.007812 26.871094 L 69.070312 26.8125 Z M 69.0625 26.8125 " fill-opacity="1" fill-rule="nonzero"/><path fill="#1c3c75" d="M 63.136719 28.359375 C 63.214844 28.226562 63.292969 28.089844 63.378906 27.957031 C 63.355469 28.019531 63.355469 28.097656 63.308594 28.128906 C 63.238281 28.1875 63.144531 28.226562 63.0625 28.273438 C 63.0625 28.273438 63.136719 28.359375 63.136719 28.359375 Z M 63.136719 28.359375 " fill-opacity="1" fill-rule="nonzero"/><path fill="#1c3c75" d="M 63.054688 28.28125 C 62.929688 28.652344 62.710938 28.941406 62.300781 29.027344 L 62.378906 29.101562 C 62.449219 28.675781 62.679688 28.414062 63.128906 28.359375 L 63.054688 28.273438 Z M 63.054688 28.28125 " fill-opacity="1" fill-rule="nonzero"/><path fill="#1c3c75" d="M 66.097656 29.019531 C 65.769531 29.035156 65.625 28.925781 65.664062 28.683594 C 65.738281 28.707031 65.855469 28.699219 65.894531 28.753906 C 65.964844 28.847656 65.988281 28.980469 66.027344 29.085938 C 66.027344 29.085938 66.097656 29.019531 66.097656 29.019531 Z M 66.097656 29.019531 " fill-opacity="1" fill-rule="nonzero"/><path fill="#1c3c75" d="M 62.308594 29.027344 C 62.238281 29.460938 62.039062 29.761719 61.558594 29.785156 L 61.621094 29.847656 C 61.660156 29.375 61.921875 29.132812 62.386719 29.109375 L 62.308594 29.035156 Z M 62.308594 29.027344 " fill-opacity="1" fill-rule="nonzero"/><path fill="#1c3c75" d="M 66.832031 29.753906 C 66.328125 29.769531 66.089844 29.511719 66.097656 29.011719 L 66.027344 29.078125 C 66.460938 29.132812 66.722656 29.375 66.761719 29.816406 L 66.832031 29.746094 Z M 66.832031 29.753906 " fill-opacity="1" fill-rule="nonzero"/><path fill="#1c3c75" d="M 67.589844 30.519531 C 67.171875 30.433594 66.925781 30.171875 66.832031 29.761719 L 66.761719 29.832031 C 67.117188 29.984375 67.375 30.234375 67.527344 30.597656 L 67.597656 30.527344 Z M 67.589844 30.519531 " fill-opacity="1" fill-rule="nonzero"/><path fill="#1c3c75" d="M 43.773438 35.800781 C 43.878906 35.675781 43.988281 35.5625 44.097656 35.4375 C 44.066406 35.507812 44.042969 35.601562 43.988281 35.632812 C 43.902344 35.683594 43.785156 35.683594 43.6875 35.714844 C 43.6875 35.714844 43.765625 35.800781 43.765625 35.800781 Z M 43.773438 35.800781 " fill-opacity="1" fill-rule="nonzero"/><path fill="#1c3c75" d="M 39.320312 48.4375 C 39.417969 48.027344 39.589844 47.6875 40.09375 47.695312 L 40.015625 47.617188 C 39.914062 48.027344 39.722656 48.355469 39.234375 48.355469 L 39.3125 48.4375 Z M 39.320312 48.4375 " fill-opacity="1" fill-rule="nonzero"/><path fill="#1c3c75" d="M 97.984375 47.679688 C 98.390625 47.746094 98.644531 47.992188 98.734375 48.414062 L 98.78125 48.371094 C 98.277344 48.371094 98.070312 48.089844 98.039062 47.625 L 97.984375 47.6875 Z M 97.984375 47.679688 " fill-opacity="1" fill-rule="nonzero"/><path fill="#1c3c75" d="M 98.734375 48.414062 C 99.253906 48.390625 99.449219 48.703125 99.480469 49.167969 L 99.542969 49.105469 C 99 49.160156 98.796875 48.863281 98.78125 48.371094 Z M 98.734375 48.414062 " fill-opacity="1" fill-rule="nonzero"/><path fill="#1c3c75" d="M 101.761719 52.0625 C 101.328125 52.007812 101.113281 51.730469 101.019531 51.328125 L 100.941406 51.40625 C 101.398438 51.4375 101.601562 51.730469 101.6875 52.140625 Z M 101.761719 52.0625 " fill-opacity="1" fill-rule="nonzero"/><path fill="#1c3c75" d="M 30.34375 52.070312 C 30.234375 52.210938 30.128906 52.339844 30.019531 52.480469 C 30.042969 52.402344 30.050781 52.289062 30.105469 52.25 C 30.1875 52.1875 30.3125 52.179688 30.421875 52.148438 C 30.421875 52.148438 30.34375 52.070312 30.34375 52.070312 Z M 30.34375 52.070312 " fill-opacity="1" fill-rule="nonzero"/><path fill="#1c3c75" d="M 43.066406 52.171875 C 43.011719 52.675781 42.75 52.90625 42.238281 52.828125 L 42.292969 52.882812 C 42.292969 52.417969 42.476562 52.125 42.957031 52.070312 L 43.066406 52.179688 Z M 43.066406 52.171875 " fill-opacity="1" fill-rule="nonzero"/><path fill="#1c3c75" d="M 101.6875 52.140625 C 101.800781 52.242188 101.917969 52.335938 101.972656 52.378906 C 101.933594 52.320312 101.847656 52.195312 101.761719 52.0625 C 101.761719 52.0625 101.6875 52.140625 101.6875 52.140625 Z M 101.6875 52.140625 " fill-opacity="1" fill-rule="nonzero"/><path fill="#1c3c75" d="M 28.902344 54.371094 C 28.996094 54.167969 29.097656 53.96875 29.191406 53.765625 C 29.617188 54.292969 29.191406 54.285156 28.84375 54.308594 C 28.84375 54.308594 28.902344 54.371094 28.902344 54.371094 Z M 28.902344 54.371094 " fill-opacity="1" fill-rule="nonzero"/><path fill="#1c3c75" d="M 98.046875 55.042969 C 97.542969 55.058594 97.304688 54.8125 97.289062 54.324219 L 97.25 54.363281 C 97.753906 54.363281 97.953125 54.648438 97.976562 55.113281 Z M 98.046875 55.042969 " fill-opacity="1" fill-rule="nonzero"/><path fill="#1c3c75" d="M 24.40625 55.050781 C 24.3125 55.238281 24.226562 55.421875 24.132812 55.609375 C 23.761719 55.097656 24.210938 55.175781 24.472656 55.128906 L 24.40625 55.058594 Z M 24.40625 55.050781 " fill-opacity="1" fill-rule="nonzero"/><path fill="#1c3c75" d="M 97.984375 55.113281 C 98.417969 55.175781 98.664062 55.421875 98.726562 55.855469 L 98.796875 55.789062 C 98.285156 55.804688 98.085938 55.515625 98.046875 55.050781 L 97.976562 55.121094 Z M 97.984375 55.113281 " fill-opacity="1" fill-rule="nonzero"/><path fill="#1c3c75" d="M 13.246094 55.789062 C 13.191406 56.097656 13.082031 56.238281 12.90625 56.207031 C 12.929688 56.121094 12.9375 55.996094 12.992188 55.957031 C 13.082031 55.894531 13.214844 55.894531 13.324219 55.863281 Z M 13.246094 55.789062 " fill-opacity="1" fill-rule="nonzero"/><path fill="#1c3c75" d="M 98.726562 55.847656 C 99.152344 55.917969 99.394531 56.167969 99.472656 56.59375 L 99.546875 56.523438 C 99.03125 56.554688 98.804688 56.285156 98.804688 55.789062 L 98.734375 55.855469 Z M 98.726562 55.847656 " fill-opacity="1" fill-rule="nonzero"/><path fill="#1c3c75" d="M 22.972656 57.328125 C 23.019531 57.011719 23.144531 56.878906 23.320312 56.925781 C 23.289062 57.011719 23.289062 57.144531 23.226562 57.179688 C 23.136719 57.234375 23.003906 57.234375 22.886719 57.257812 C 22.886719 57.257812 22.964844 57.335938 22.964844 57.335938 Z M 22.972656 57.328125 " fill-opacity="1" fill-rule="nonzero"/><path fill="#1c3c75" d="M 31.832031 56.523438 C 31.730469 56.671875 31.621094 56.808594 31.519531 56.957031 C 31.542969 56.878906 31.542969 56.761719 31.589844 56.722656 C 31.675781 56.65625 31.800781 56.640625 31.910156 56.601562 C 31.910156 56.601562 31.832031 56.523438 31.832031 56.523438 Z M 31.832031 56.523438 " fill-opacity="1" fill-rule="nonzero"/><path fill="#1c3c75" d="M 39.265625 56.539062 C 39.234375 57.011719 39 57.273438 38.511719 57.273438 L 38.582031 57.34375 C 38.621094 56.886719 38.855469 56.625 39.328125 56.601562 Z M 39.265625 56.539062 " fill-opacity="1" fill-rule="nonzero"/><path fill="#1c3c75" d="M 99.472656 56.59375 C 99.851562 56.703125 100.097656 56.949219 100.214844 57.328125 L 100.292969 57.25 C 99.84375 57.210938 99.570312 56.988281 99.546875 56.515625 L 99.472656 56.585938 Z M 99.472656 56.59375 " fill-opacity="1" fill-rule="nonzero"/><path fill="#1c3c75" d="M 12.308594 57.722656 L 12.09375 57.832031 L 12.125 57.578125 Z M 12.308594 57.722656 " fill-opacity="1" fill-rule="nonzero"/><path fill="#1c3c75" d="M 22.894531 57.257812 C 22.808594 57.40625 22.722656 57.5625 22.640625 57.707031 C 22.65625 57.636719 22.648438 57.539062 22.695312 57.5 C 22.769531 57.429688 22.878906 57.390625 22.972656 57.335938 C 22.972656 57.335938 22.894531 57.257812 22.894531 57.257812 Z M 22.894531 57.257812 " fill-opacity="1" fill-rule="nonzero"/><path fill="#1c3c75" d="M 38.511719 57.273438 C 38.5 57.753906 38.296875 58.046875 37.769531 58.019531 L 37.832031 58.078125 C 37.886719 57.636719 38.132812 57.382812 38.582031 57.34375 L 38.515625 57.273438 Z M 38.511719 57.273438 " fill-opacity="1" fill-rule="nonzero"/><path fill="#1c3c75" d="M 95.082031 58.011719 C 94.585938 58.019531 94.390625 57.714844 94.320312 57.28125 L 94.253906 57.351562 C 94.746094 57.34375 94.941406 57.636719 95.003906 58.078125 L 95.074219 58.011719 Z M 95.082031 58.011719 " fill-opacity="1" fill-rule="nonzero"/><path fill="#1c3c75" d="M 101.050781 58.019531 C 100.625 57.933594 100.371094 57.683594 100.292969 57.25 L 100.214844 57.328125 C 100.46875 57.585938 100.726562 57.839844 100.980469 58.101562 L 101.058594 58.027344 Z M 101.050781 58.019531 " fill-opacity="1" fill-rule="nonzero"/><path fill="#1c3c75" d="M 35.554688 58.019531 C 35.441406 58.140625 35.332031 58.257812 35.214844 58.382812 C 35.253906 58.320312 35.269531 58.226562 35.332031 58.1875 C 35.417969 58.132812 35.53125 58.125 35.632812 58.09375 C 35.632812 58.09375 35.554688 58.011719 35.554688 58.011719 Z M 35.554688 58.019531 " fill-opacity="1" fill-rule="nonzero"/><path fill="#1c3c75" d="M 37.769531 58.019531 C 37.683594 58.4375 37.433594 58.679688 37.019531 58.746094 L 37.089844 58.816406 C 37.160156 58.390625 37.390625 58.132812 37.832031 58.078125 Z M 37.769531 58.019531 " fill-opacity="1" fill-rule="nonzero"/><path fill="#1c3c75" d="M 95.839844 58.761719 C 95.328125 58.777344 95.105469 58.488281 95.089844 58.011719 L 95.019531 58.078125 C 95.453125 58.148438 95.691406 58.414062 95.777344 58.832031 L 95.847656 58.761719 Z M 95.839844 58.761719 " fill-opacity="1" fill-rule="nonzero"/><path fill="#1c3c75" d="M 11.441406 59.023438 L 11.496094 59.25 L 11.324219 59.226562 Z M 11.441406 59.023438 " fill-opacity="1" fill-rule="nonzero"/><path fill="#1c3c75" d="M 37.019531 58.746094 C 36.996094 59.234375 36.726562 59.464844 36.253906 59.496094 L 36.328125 59.574219 C 36.46875 59.210938 36.710938 58.9375 37.089844 58.816406 Z M 37.019531 58.746094 " fill-opacity="1" fill-rule="nonzero"/><path fill="#1c3c75" d="M 97.21875 61.078125 C 97.675781 61.109375 97.898438 61.378906 97.96875 61.804688 L 98.046875 61.726562 C 97.644531 61.640625 97.410156 61.378906 97.296875 61 Z M 97.21875 61.078125 " fill-opacity="1" fill-rule="nonzero"/><path fill="#1c3c75" d="M 16.964844 61.726562 C 16.855469 61.867188 16.746094 61.996094 16.636719 62.136719 C 16.667969 62.058594 16.667969 61.953125 16.722656 61.914062 C 16.808594 61.851562 16.933594 61.84375 17.039062 61.8125 C 17.039062 61.8125 16.964844 61.726562 16.964844 61.726562 Z M 16.964844 61.726562 " fill-opacity="1" fill-rule="nonzero"/><path fill="#1c3c75" d="M 98.8125 62.492188 C 98.441406 62.355469 98.1875 62.097656 98.046875 61.726562 L 97.96875 61.804688 C 98.371094 61.914062 98.621094 62.175781 98.734375 62.570312 Z M 98.8125 62.492188 " fill-opacity="1" fill-rule="nonzero"/><path fill="#1c3c75" d="M 86.855469 62.523438 C 87.136719 62.460938 87.328125 62.570312 87.375 62.84375 C 87.390625 62.910156 87.246094 63.003906 87.167969 63.089844 C 87.066406 62.894531 86.972656 62.703125 86.871094 62.507812 Z M 86.855469 62.523438 " fill-opacity="1" fill-rule="nonzero"/><path fill="#1c3c75" d="M 94.988281 63.308594 C 95.476562 63.308594 95.660156 63.617188 95.730469 64.042969 L 95.808594 63.964844 C 95.398438 63.886719 95.164062 63.625 95.058594 63.238281 L 94.988281 63.3125 Z M 94.988281 63.308594 " fill-opacity="1" fill-rule="nonzero"/><path fill="#1c3c75" d="M 95.738281 64.042969 C 96.03125 64.082031 96.164062 64.1875 96.140625 64.375 C 96.070312 64.34375 95.980469 64.328125 95.941406 64.28125 C 95.878906 64.1875 95.855469 64.074219 95.816406 63.964844 Z M 95.738281 64.042969 " fill-opacity="1" fill-rule="nonzero"/><path fill="#1c3c75" d="M 76.417969 7.453125 C 76.378906 7.683594 76.347656 7.925781 76.292969 8.15625 C 76.273438 8.273438 76.226562 8.382812 76.1875 8.496094 C 75.707031 8.234375 76.03125 7.964844 76.195312 7.707031 C 76.25 7.613281 76.394531 7.582031 76.496094 7.523438 C 76.496094 7.523438 76.410156 7.445312 76.410156 7.445312 Z M 76.417969 7.453125 " fill-opacity="1" fill-rule="nonzero"/></svg>