<svg xmlns="http://www.w3.org/2000/svg" xmlns:xlink="http://www.w3.org/1999/xlink" width="127" zoomAndPan="magnify" viewBox="0 0 95.25 48" height="64" preserveAspectRatio="xMidYMid meet" version="1.0"><defs><clipPath id="18737906dd"><path d="M 23 5 L 93.175781 5 L 93.175781 45 L 23 45 Z M 23 5 " clip-rule="nonzero"/></clipPath><clipPath id="9878e126c6"><path d="M 7 30 L 23 30 L 23 46.285156 L 7 46.285156 Z M 7 30 " clip-rule="nonzero"/></clipPath><clipPath id="a31de78a81"><path d="M 0.605469 0 L 87 0 L 87 41 L 0.605469 41 Z M 0.605469 0 " clip-rule="nonzero"/></clipPath></defs><g clip-path="url(#18737906dd)"><path fill="#1c3c75" d="M 82.117188 39.53125 C 81.996094 39.59375 81.8125 39.632812 81.773438 39.726562 C 81.617188 40.132812 81.519531 40.558594 81.367188 40.960938 C 81.003906 41.933594 80.386719 42.734375 79.628906 43.425781 C 78.832031 44.160156 77.894531 44.472656 76.832031 44.375 C 75.96875 44.300781 75.101562 44.21875 74.246094 44.058594 C 73.761719 43.96875 73.273438 43.753906 72.84375 43.507812 C 72.175781 43.132812 71.78125 42.527344 71.691406 41.757812 C 71.632812 41.253906 71.632812 40.742188 71.566406 40.246094 C 71.554688 40.152344 71.332031 39.996094 71.261719 40.015625 C 70.921875 40.148438 70.523438 39.8125 70.226562 40.132812 C 69.851562 40.535156 69.386719 40.648438 68.855469 40.652344 C 67.550781 40.664062 66.246094 40.703125 64.9375 40.707031 C 58.046875 40.742188 51.152344 40.765625 44.257812 40.804688 C 40.921875 40.820312 37.585938 40.859375 34.246094 40.875 C 33.519531 40.875 32.796875 40.832031 32.070312 40.820312 C 31.5625 40.8125 31.054688 40.789062 30.550781 40.839844 C 29.257812 40.964844 27.96875 41.105469 26.664062 40.871094 C 26.175781 40.78125 25.652344 40.878906 25.148438 40.871094 C 24.714844 40.871094 24.28125 40.839844 23.847656 40.816406 C 23.648438 40.804688 23.445312 40.527344 23.523438 40.355469 C 23.570312 40.230469 23.652344 40.054688 23.75 40.03125 C 24.097656 39.953125 24.460938 39.898438 24.816406 39.894531 C 30.039062 39.835938 35.265625 39.84375 40.484375 39.726562 C 49.84375 39.511719 59.207031 39.554688 68.566406 39.433594 C 68.855469 39.433594 69.148438 39.421875 69.4375 39.410156 C 69.835938 39.390625 70.085938 39.160156 70.132812 38.722656 C 70.238281 37.710938 70.375 36.710938 70.667969 35.730469 C 71.054688 34.445312 71.757812 33.359375 72.660156 32.398438 C 73.480469 31.527344 74.523438 31.023438 75.691406 30.785156 C 76.769531 30.566406 77.867188 30.585938 78.9375 30.796875 C 79.816406 30.964844 80.554688 31.441406 81.101562 32.15625 C 82.40625 33.859375 83.320312 35.726562 83.460938 37.910156 C 83.476562 38.191406 83.496094 38.472656 83.507812 38.707031 C 83.6875 38.832031 83.785156 38.960938 83.910156 38.992188 C 84.546875 39.140625 85.179688 39.304688 85.820312 39.390625 C 86.539062 39.492188 87.265625 39.527344 87.988281 39.566406 C 88.824219 39.613281 89.789062 38.921875 89.945312 38.140625 C 90.097656 37.359375 90.195312 36.566406 90.296875 35.777344 C 90.335938 35.496094 90.328125 35.214844 90.347656 34.855469 C 90.03125 34.796875 89.757812 34.71875 89.480469 34.695312 C 88.832031 34.644531 88.171875 34.660156 87.527344 34.585938 C 86.492188 34.46875 85.8125 33.777344 85.65625 32.757812 C 85.421875 31.171875 86.066406 30.089844 87.65625 29.289062 C 87.960938 29.132812 88.359375 29.105469 88.707031 29.113281 C 89.5 29.128906 90.289062 29.203125 91.011719 29.246094 C 91.398438 28.953125 91.507812 28.605469 91.542969 28.238281 C 91.675781 26.941406 91.835938 25.640625 91.90625 24.339844 C 92.105469 20.558594 92 16.796875 91.191406 13.082031 C 91.054688 12.445312 90.894531 11.789062 90.589844 11.226562 C 89.761719 9.699219 89.054688 8.097656 87.90625 6.757812 C 87.53125 6.324219 87.277344 5.789062 86.980469 5.300781 C 86.964844 5.277344 87.035156 5.191406 87.078125 5.152344 C 87.132812 5.113281 87.207031 5.078125 87.265625 5.082031 C 87.726562 5.113281 88.082031 5.378906 88.386719 5.691406 C 89.042969 6.371094 89.601562 7.125 90.046875 7.96875 C 90.484375 8.804688 90.9375 9.632812 91.378906 10.460938 C 92.003906 11.632812 92.195312 12.933594 92.421875 14.210938 C 92.585938 15.140625 92.675781 16.082031 92.816406 17.015625 C 92.976562 18.09375 93.027344 19.179688 93 20.269531 C 92.980469 21.070312 93.027344 21.863281 93.011719 22.664062 C 92.964844 25.34375 92.871094 28.015625 92.113281 30.621094 C 91.890625 31.382812 91.765625 32.160156 91.753906 32.976562 C 91.734375 34.945312 91.160156 36.839844 90.78125 38.753906 C 90.710938 39.089844 90.476562 39.40625 90.261719 39.695312 C 89.945312 40.125 89.503906 40.355469 88.953125 40.355469 C 87.140625 40.355469 85.335938 40.371094 83.523438 40.292969 C 82.871094 40.265625 82.4375 39.96875 82.078125 39.476562 C 82.375 39.328125 82.46875 39.0625 82.433594 38.765625 C 82.421875 38.664062 82.273438 38.578125 82.191406 38.488281 C 82.15625 38.550781 82.082031 38.609375 82.082031 38.671875 C 82.089844 38.953125 82.117188 39.242188 82.132812 39.523438 Z M 75.996094 40.347656 C 76.601562 40.273438 77.089844 40 77.375 39.441406 C 77.785156 38.640625 77.867188 37.796875 77.714844 36.921875 C 77.65625 36.582031 77.257812 36.351562 76.886719 36.457031 C 75.453125 36.847656 74.785156 38.476562 75.558594 39.707031 C 75.707031 39.949219 75.886719 40.171875 76.050781 40.402344 C 75.964844 40.527344 75.695312 40.28125 75.695312 40.582031 C 75.796875 40.503906 75.894531 40.429688 75.996094 40.355469 Z M 81.734375 35.414062 C 81.734375 35.613281 81.746094 35.816406 81.734375 36.011719 C 81.71875 36.203125 81.761719 36.289062 81.871094 36.234375 C 81.894531 36.222656 81.878906 36.109375 81.867188 36.042969 C 81.8125 35.847656 81.753906 35.660156 81.695312 35.46875 C 81.378906 34.574219 80.871094 33.789062 80.355469 33.003906 C 79.929688 32.363281 79.328125 31.984375 78.59375 31.839844 C 76.199219 31.363281 73.773438 32.398438 72.613281 34.378906 C 71.785156 35.785156 71.484375 37.328125 71.289062 38.910156 C 71.28125 38.972656 71.3125 39.050781 71.339844 39.113281 C 71.367188 39.175781 71.425781 39.289062 71.453125 39.285156 C 71.582031 39.265625 71.789062 39.230469 71.8125 39.160156 C 72.183594 37.992188 72.542969 36.824219 72.882812 35.648438 C 73.132812 34.785156 73.65625 34.109375 74.253906 33.472656 C 74.667969 33.035156 75.175781 32.757812 75.773438 32.726562 C 77.480469 32.632812 79.085938 32.875 80.320312 34.226562 C 80.664062 34.601562 80.992188 34.980469 81.347656 35.339844 C 81.425781 35.417969 81.601562 35.398438 81.734375 35.421875 Z M 91.148438 31.410156 C 91.148438 31.410156 91.148438 31.355469 91.148438 31.28125 C 91.148438 30.78125 90.871094 30.417969 90.398438 30.390625 C 89.753906 30.355469 89.089844 30.285156 88.453125 30.382812 C 87.105469 30.582031 86.722656 31.253906 86.855469 32.484375 C 86.867188 32.558594 86.875 32.628906 86.902344 32.691406 C 87.007812 32.976562 87.175781 33.242188 87.472656 33.289062 C 88.328125 33.417969 89.1875 33.535156 90.042969 33.597656 C 90.320312 33.621094 90.585938 33.433594 90.746094 33.160156 C 91.054688 32.648438 91.160156 32.089844 91.148438 31.410156 Z M 91.148438 31.410156 " fill-opacity="1" fill-rule="nonzero"/></g><g clip-path="url(#9878e126c6)"><path fill="#1c3c75" d="M 8.269531 39.308594 C 8.128906 39.273438 7.992188 39.226562 7.851562 39.203125 C 7.589844 39.164062 7.484375 38.976562 7.492188 38.753906 C 7.503906 38.46875 7.53125 38.167969 7.628906 37.90625 C 8.042969 36.824219 8.460938 35.746094 8.921875 34.683594 C 9.15625 34.15625 9.441406 33.640625 9.773438 33.171875 C 10.777344 31.738281 12.125 30.839844 13.894531 30.648438 C 14.398438 30.59375 14.902344 30.535156 15.40625 30.480469 C 17.105469 30.296875 18.578125 30.863281 19.78125 32.011719 C 21.683594 33.828125 22.859375 36.027344 22.886719 38.726562 C 22.886719 39.003906 22.765625 39.28125 22.683594 39.558594 C 22.671875 39.589844 22.578125 39.613281 22.523438 39.613281 C 22.453125 39.613281 22.347656 39.605469 22.324219 39.558594 C 22.1875 39.308594 22.011719 39.058594 21.964844 38.792969 C 21.777344 37.636719 21.46875 36.53125 20.984375 35.46875 C 20.652344 34.730469 20.222656 34.074219 19.734375 33.4375 C 19.050781 32.539062 18.132812 31.984375 17.09375 31.609375 C 16.824219 31.507812 16.535156 31.453125 16.246094 31.417969 C 15.742188 31.355469 13.304688 31.730469 12.832031 31.914062 C 11.851562 32.292969 11.0625 32.894531 10.585938 33.851562 C 10.332031 34.367188 10.085938 34.886719 9.84375 35.410156 C 9.824219 35.453125 9.863281 35.542969 9.894531 35.597656 C 9.921875 35.636719 10.019531 35.679688 10.03125 35.667969 C 10.308594 35.4375 10.554688 35.164062 10.84375 34.953125 C 11.90625 34.195312 13.023438 33.546875 14.277344 33.125 C 15.640625 32.667969 16.890625 32.886719 17.972656 33.71875 C 19.589844 34.964844 20.574219 36.625 20.71875 38.707031 C 20.953125 42.117188 20 43.976562 17.1875 45.863281 C 16.203125 46.519531 15.136719 46.6875 14.082031 46.324219 C 12.359375 45.730469 10.738281 44.90625 9.617188 43.367188 C 9.230469 42.835938 8.894531 42.300781 8.777344 41.628906 C 8.648438 40.847656 8.4375 40.078125 8.261719 39.304688 Z M 15.898438 40.859375 C 16.402344 40.21875 16.210938 39.476562 16.15625 38.777344 C 16.066406 37.632812 14.71875 37.03125 13.71875 37.636719 C 13.347656 37.863281 13.019531 38.136719 12.796875 38.519531 C 12.425781 39.148438 12.667969 40.03125 13.328125 40.375 C 13.722656 40.585938 14.140625 40.675781 14.578125 40.53125 C 14.917969 40.417969 15.25 40.277344 15.613281 40.136719 C 15.726562 40.386719 15.84375 40.644531 15.957031 40.898438 C 15.792969 40.910156 15.625 40.921875 15.460938 40.933594 C 15.5 40.953125 15.546875 41 15.574219 40.988281 C 15.6875 40.953125 15.792969 40.902344 15.902344 40.859375 Z M 15.898438 40.859375 " fill-opacity="1" fill-rule="nonzero"/></g><g clip-path="url(#a31de78a81)"><path fill="#1c3c75" d="M 51.429688 0.105469 C 55.699219 0.1875 60.855469 0.203125 66.003906 0.414062 C 69.121094 0.539062 72.238281 0.703125 75.332031 1.128906 C 77.847656 1.476562 80.347656 1.90625 82.820312 2.496094 C 83.964844 2.769531 85.007812 3.238281 85.953125 3.9375 C 86.140625 4.074219 86.28125 4.359375 86.191406 4.433594 C 85.992188 4.605469 85.789062 4.5 85.585938 4.433594 C 84.820312 4.195312 84.074219 3.921875 83.296875 3.738281 C 81.183594 3.226562 79.089844 2.617188 76.9375 2.289062 C 75.4375 2.0625 73.929688 1.875 72.402344 1.835938 C 71.316406 1.808594 70.238281 1.617188 69.152344 1.574219 C 66.976562 1.492188 64.800781 1.480469 62.632812 1.414062 C 61.835938 1.386719 61.042969 1.277344 60.246094 1.226562 C 59.597656 1.183594 58.945312 1.152344 58.296875 1.148438 C 55.539062 1.136719 52.777344 1.21875 50.023438 1.097656 C 48.058594 1.011719 46.113281 1.085938 44.15625 1.101562 C 41.980469 1.125 39.800781 1.136719 37.621094 1.085938 C 35.433594 1.035156 33.269531 1.238281 31.117188 1.558594 C 28.679688 1.917969 26.242188 2.316406 23.8125 2.722656 C 21.808594 3.058594 19.8125 3.433594 17.8125 3.796875 C 15.53125 4.214844 13.246094 4.621094 10.96875 5.066406 C 10.1875 5.21875 9.394531 5.398438 8.65625 5.679688 C 7.117188 6.261719 5.859375 7.214844 5.082031 8.710938 C 4.8125 9.222656 4.558594 9.75 4.351562 10.285156 C 3.269531 13.074219 2.511719 15.9375 2.265625 18.925781 C 2.015625 21.964844 2.039062 25.011719 1.953125 28.050781 C 1.949219 28.269531 1.917969 28.503906 1.976562 28.703125 C 2.351562 29.910156 2.226562 31.144531 2.234375 32.375 C 2.246094 33.609375 2.289062 34.84375 2.378906 36.074219 C 2.433594 36.796875 2.585938 37.511719 2.730469 38.21875 C 2.851562 38.8125 3.332031 39.21875 3.957031 39.285156 C 4.460938 39.339844 4.96875 39.339844 5.472656 39.394531 C 5.757812 39.425781 6.035156 39.519531 6.3125 39.59375 C 6.472656 39.636719 6.515625 39.761719 6.445312 39.9375 C 6.421875 39.996094 6.375 40.066406 6.328125 40.089844 C 5.707031 40.34375 5.0625 40.375 4.410156 40.265625 C 4.050781 40.207031 3.703125 40.117188 3.347656 40.039062 C 2.316406 39.816406 1.6875 39.15625 1.46875 38.15625 C 1.3125 37.453125 1.25 36.722656 1.21875 36 C 1.128906 33.898438 1.132812 31.789062 0.992188 29.691406 C 0.792969 26.714844 0.9375 23.738281 0.976562 20.765625 C 1.011719 18.21875 1.496094 15.71875 2.175781 13.261719 C 2.527344 12.003906 2.890625 10.757812 3.375 9.535156 C 4.554688 6.574219 6.777344 4.875 9.808594 4.238281 C 11.648438 3.847656 13.488281 3.4375 15.375 3.234375 C 17.027344 3.054688 18.664062 2.65625 20.285156 2.273438 C 23.472656 1.527344 26.707031 1.09375 29.945312 0.707031 C 30.664062 0.621094 31.386719 0.523438 32.09375 0.382812 C 33.601562 0.078125 35.125 0.0546875 36.648438 0.0507812 C 39.042969 0.0390625 41.433594 0.0625 43.824219 0.0117188 C 46.070312 -0.0351562 48.308594 0.140625 51.4375 0.109375 Z M 51.429688 0.105469 " fill-opacity="1" fill-rule="nonzero"/></g><path fill="#1c3c75" d="M 66.964844 36.980469 C 67.636719 35.449219 68.304688 34.003906 68.910156 32.535156 C 69.570312 30.9375 70.53125 29.632812 72.140625 28.878906 C 72.335938 28.789062 72.519531 28.664062 72.695312 28.535156 C 73.050781 28.261719 73.300781 27.90625 73.300781 27.433594 C 73.300781 26.859375 73.394531 26.25 73.246094 25.707031 C 72.707031 23.6875 72.910156 21.65625 73.117188 19.648438 C 73.289062 17.980469 73.3125 16.320312 73.339844 14.652344 C 73.359375 13.203125 73.3125 11.75 73.292969 10.304688 C 73.292969 10.085938 73.328125 9.863281 73.292969 9.648438 C 73.03125 8.214844 72.96875 6.769531 73.007812 5.316406 C 73.011719 5.042969 72.757812 4.734375 72.503906 4.675781 C 70.738281 4.253906 68.964844 3.910156 67.125 4.105469 C 66.132812 4.210938 65.121094 4.265625 64.019531 4.035156 C 64.214844 3.804688 64.316406 3.570312 64.480469 3.503906 C 65.996094 2.910156 67.578125 2.714844 69.179688 2.953125 C 70.46875 3.136719 71.738281 3.4375 73.019531 3.679688 C 73.691406 3.804688 74.054688 4.289062 74.148438 5.085938 C 74.167969 5.300781 74.164062 5.523438 74.128906 5.734375 C 73.90625 7.039062 74.015625 8.332031 74.203125 9.621094 C 74.644531 12.726562 74.566406 15.832031 74.335938 18.949219 C 74.25 20.179688 74.207031 21.410156 74.175781 22.644531 C 74.160156 23.222656 74.136719 23.824219 74.269531 24.378906 C 74.527344 25.46875 74.363281 26.527344 74.320312 27.613281 C 74.273438 28.648438 73.816406 29.210938 72.992188 29.652344 C 72.226562 30.058594 71.445312 30.464844 70.953125 31.234375 C 70.722656 31.605469 70.441406 31.953125 70.292969 32.347656 C 69.667969 33.96875 68.714844 35.453125 68.320312 37.171875 C 68.179688 37.789062 67.710938 38.125 67.058594 38.183594 C 65.460938 38.332031 63.871094 38.210938 62.285156 38.078125 C 61.898438 38.046875 61.625 37.773438 61.484375 37.425781 C 61.351562 37.09375 61.234375 36.734375 61.210938 36.386719 C 61.167969 35.808594 61.183594 35.222656 61.210938 34.644531 C 61.253906 33.707031 61.324219 32.761719 61.402344 31.820312 C 61.558594 29.867188 61.617188 27.917969 61.582031 25.953125 C 61.515625 21.75 61.550781 17.546875 61.523438 13.339844 C 61.515625 11.664062 61.878906 10.027344 62.003906 8.363281 C 62.066406 7.5 62.28125 6.648438 62.066406 5.769531 C 62.023438 5.585938 62.117188 5.34375 62.199219 5.152344 C 62.25 5.035156 62.386719 4.914062 62.507812 4.882812 C 62.601562 4.859375 62.789062 4.945312 62.832031 5.03125 C 63.210938 5.839844 63.3125 6.683594 63.164062 7.574219 C 62.96875 8.714844 62.8125 9.863281 62.839844 11.03125 C 62.847656 11.316406 62.816406 11.609375 62.753906 11.890625 C 62.386719 13.535156 62.378906 15.183594 62.585938 16.847656 C 62.75 18.140625 62.832031 19.445312 62.707031 20.753906 C 62.667969 21.183594 62.714844 21.621094 62.726562 22.054688 C 62.75 22.921875 62.890625 23.785156 62.726562 24.65625 C 62.664062 25 62.75 25.375 62.777344 25.730469 C 62.902344 27.472656 62.839844 29.203125 62.648438 30.941406 C 62.453125 32.738281 62.335938 34.554688 62.453125 36.371094 C 62.476562 36.722656 62.808594 37.078125 63.144531 37.09375 C 64.085938 37.132812 65.023438 37.183594 65.964844 37.179688 C 66.3125 37.179688 66.664062 37.042969 66.957031 36.980469 Z M 66.964844 36.980469 " fill-opacity="1" fill-rule="nonzero"/><path fill="#1c3c75" d="M 50.230469 5.496094 C 50.136719 5.304688 50.011719 5.117188 49.949219 4.914062 C 49.859375 4.636719 50.082031 4.285156 50.335938 4.246094 C 50.40625 4.230469 50.476562 4.203125 50.542969 4.199219 C 53.144531 4.070312 55.746094 4.105469 58.347656 4.21875 C 58.886719 4.242188 59.324219 4.617188 59.410156 5.136719 C 59.585938 6.207031 59.746094 7.277344 59.878906 8.355469 C 60.003906 9.355469 59.980469 10.371094 60.179688 11.367188 C 60.234375 11.648438 60.230469 11.945312 60.203125 12.234375 C 60.074219 13.671875 59.941406 15.113281 59.785156 16.546875 C 59.726562 17.082031 59.429688 17.433594 58.859375 17.601562 C 57.816406 17.914062 56.789062 18.199219 55.699219 18.289062 C 54.765625 18.367188 53.828125 18.527344 52.917969 18.753906 C 51.480469 19.117188 50.378906 18.582031 49.394531 17.613281 C 49.128906 17.351562 48.96875 17.027344 48.964844 16.652344 C 48.953125 15.929688 48.964844 15.207031 48.964844 14.480469 C 48.988281 12.238281 49.007812 10 49.03125 7.753906 C 49.035156 7.320312 49.046875 6.886719 49.0625 6.453125 C 49.082031 5.949219 49.382812 5.675781 49.847656 5.558594 C 49.988281 5.523438 50.125 5.480469 50.265625 5.441406 C 50.175781 8.832031 50.292969 12.222656 50.113281 15.609375 C 50.105469 15.757812 50.113281 15.902344 50.121094 16.042969 C 50.164062 17.015625 50.777344 17.613281 51.796875 17.648438 C 52.59375 17.675781 53.394531 17.6875 54.148438 17.394531 C 55.121094 17.023438 56.136719 17.046875 57.144531 17.054688 C 57.644531 17.058594 58.140625 17.175781 58.667969 17.246094 C 58.75 17 58.890625 16.792969 58.863281 16.609375 C 58.710938 15.523438 58.808594 14.449219 58.917969 13.367188 C 58.980469 12.722656 59.011719 12.070312 59.007812 11.425781 C 58.996094 9.539062 58.664062 7.6875 58.382812 5.835938 C 58.347656 5.617188 57.976562 5.265625 57.789062 5.265625 C 55.625 5.285156 53.453125 5.304688 51.289062 5.335938 C 50.933594 5.339844 50.574219 5.433594 50.222656 5.484375 Z M 50.230469 5.496094 " fill-opacity="1" fill-rule="nonzero"/><path fill="#1c3c75" d="M 63.25 32.210938 C 63.226562 30.902344 63.304688 29.609375 63.570312 28.320312 C 63.851562 26.972656 63.929688 25.589844 63.894531 24.207031 C 63.878906 23.699219 63.863281 23.191406 63.863281 22.683594 C 63.863281 22.277344 64.199219 21.777344 64.589844 21.695312 C 65.511719 21.503906 66.4375 21.332031 67.367188 21.199219 C 68.011719 21.109375 68.671875 21.125 69.316406 21.042969 C 69.675781 20.996094 70.027344 20.855469 70.359375 21.085938 C 70.855469 21.433594 71.167969 21.910156 71.277344 22.503906 C 71.304688 22.644531 71.328125 22.792969 71.3125 22.933594 C 71.226562 24.035156 71.382812 25.105469 71.621094 26.171875 C 71.777344 26.867188 71.667969 27.476562 71.023438 27.890625 C 69.507812 28.859375 68.421875 30.171875 67.863281 31.902344 C 67.777344 32.175781 67.625 32.433594 67.480469 32.683594 C 66.292969 34.78125 66.4375 34.527344 64.160156 35.050781 C 63.597656 35.179688 63.285156 34.886719 63.253906 34.386719 C 63.210938 33.664062 63.246094 32.9375 63.246094 32.214844 Z M 65.21875 22.640625 C 65.015625 22.984375 65.054688 23.347656 65.070312 23.710938 C 65.125 25.242188 65.0625 26.753906 64.746094 28.261719 C 64.558594 29.183594 64.488281 30.132812 64.367188 31.066406 C 64.269531 31.796875 64.351562 32.515625 64.503906 33.230469 C 64.5625 33.507812 64.882812 33.695312 65.160156 33.628906 C 65.683594 33.507812 66.113281 33.21875 66.347656 32.746094 C 66.695312 32.03125 67.003906 31.292969 67.285156 30.546875 C 67.707031 29.425781 68.367188 28.503906 69.351562 27.8125 C 69.648438 27.609375 69.941406 27.378906 70.1875 27.117188 C 70.324219 26.972656 70.441406 26.714844 70.414062 26.53125 C 70.210938 25.164062 70.199219 23.789062 70.171875 22.414062 C 70.171875 22.234375 69.902344 22.050781 69.683594 22.105469 C 68.757812 22.347656 67.8125 22.335938 66.871094 22.300781 C 66.28125 22.277344 65.734375 22.371094 65.21875 22.636719 Z M 65.21875 22.640625 " fill-opacity="1" fill-rule="nonzero"/><path fill="#1c3c75" d="M 66.699219 5.777344 C 68.140625 4.859375 69.425781 4.875 70.722656 5.152344 C 71.160156 5.246094 71.511719 5.625 71.535156 6.085938 C 71.625 7.960938 72.007812 9.804688 71.804688 11.714844 C 71.617188 13.429688 71.75 15.191406 71.847656 16.933594 C 71.945312 18.621094 71.367188 18.863281 70.15625 19.265625 C 69.816406 19.378906 69.441406 19.425781 69.082031 19.445312 C 67.925781 19.492188 66.769531 19.523438 65.628906 19.789062 C 65.425781 19.832031 65.195312 19.78125 64.980469 19.753906 C 64.675781 19.714844 64.273438 19.324219 64.230469 19.039062 C 64.207031 18.898438 64.171875 18.753906 64.167969 18.609375 C 64.085938 15.128906 64.015625 11.652344 64.53125 8.191406 C 64.625 7.550781 64.621094 6.894531 64.683594 6.25 C 64.707031 6.007812 64.914062 5.90625 65.113281 5.816406 C 65.289062 5.738281 65.414062 5.765625 65.472656 5.9375 C 65.542969 6.140625 65.632812 6.347656 65.632812 6.550781 C 65.640625 7.78125 65.425781 9.003906 65.585938 10.242188 C 65.652344 10.726562 65.4375 11.238281 65.375 11.738281 C 65.191406 13.183594 65.109375 14.625 65.25 16.078125 C 65.316406 16.722656 65.242188 17.382812 65.238281 18.03125 C 65.238281 18.3125 65.511719 18.617188 65.765625 18.625 C 67.226562 18.667969 68.652344 18.425781 70.066406 18.09375 C 70.324219 18.035156 70.574219 17.734375 70.578125 17.460938 C 70.585938 14.558594 70.804688 11.660156 70.644531 8.757812 C 70.605469 8.035156 70.488281 7.316406 70.40625 6.597656 C 70.378906 6.351562 70.070312 6.035156 69.835938 6.011719 C 69.472656 5.980469 69.117188 5.949219 68.753906 5.921875 C 68.175781 5.875 67.597656 5.839844 66.699219 5.777344 Z M 66.699219 5.777344 " fill-opacity="1" fill-rule="nonzero"/><path fill="#1c3c75" d="M 13.78125 18.972656 C 13.066406 17.136719 13.074219 15.253906 13.113281 13.378906 C 13.144531 11.859375 13.269531 10.339844 13.40625 8.828125 C 13.46875 8.109375 13.640625 7.402344 13.800781 6.699219 C 13.90625 6.242188 14.230469 5.933594 14.675781 5.816406 C 15.234375 5.671875 15.804688 5.515625 16.371094 5.488281 C 17.601562 5.429688 18.835938 5.402344 20.0625 5.460938 C 20.773438 5.5 21.480469 5.710938 22.183594 5.875 C 22.472656 5.945312 22.710938 6.148438 22.769531 6.457031 C 23.160156 8.515625 23.597656 10.550781 23.554688 12.6875 C 23.511719 14.527344 23.167969 16.269531 22.683594 18.011719 C 22.648438 18.121094 22.519531 18.203125 22.425781 18.289062 C 22.3125 18.390625 22.070312 18.117188 22.03125 17.859375 C 21.929688 17.0625 21.871094 16.273438 22.066406 15.484375 C 22.574219 13.398438 22.4375 11.316406 22.089844 9.226562 C 21.972656 8.515625 21.882812 7.792969 21.734375 7.089844 C 21.695312 6.914062 21.457031 6.65625 21.320312 6.65625 C 19.445312 6.710938 17.558594 6.519531 15.6875 6.792969 C 14.855469 6.914062 14.699219 7.164062 14.59375 8.074219 C 14.410156 9.652344 14.523438 11.25 14.242188 12.824219 C 14.0625 13.832031 14.21875 14.84375 14.304688 15.855469 C 14.410156 17.054688 14.304688 17.679688 13.785156 18.964844 Z M 13.78125 18.972656 " fill-opacity="1" fill-rule="nonzero"/><path fill="#1c3c75" d="M 84.0625 18.082031 C 84.285156 19.222656 84.136719 20.230469 83.847656 21.199219 C 83.515625 22.300781 83.691406 22.402344 84.800781 22.449219 C 85.011719 22.457031 85.222656 22.523438 85.429688 22.570312 C 85.476562 22.585938 85.507812 22.652344 85.574219 22.730469 C 84.828125 23.054688 84.039062 23.164062 83.253906 23.277344 C 81.59375 23.527344 79.929688 23.398438 78.269531 23.277344 C 77.847656 23.242188 77.421875 23.09375 77.015625 22.941406 C 76.65625 22.804688 76.40625 22.5 76.414062 22.113281 C 76.414062 21.390625 76.445312 20.664062 76.53125 19.949219 C 76.714844 18.363281 76.734375 16.773438 76.742188 15.179688 C 76.757812 12.9375 76.808594 10.6875 76.863281 8.445312 C 76.867188 8.164062 76.960938 7.882812 77.015625 7.601562 C 77.046875 7.445312 77.398438 7.21875 77.511719 7.289062 C 77.628906 7.359375 77.761719 7.453125 77.816406 7.570312 C 77.902344 7.761719 77.980469 7.984375 77.972656 8.1875 C 77.960938 9.199219 77.921875 10.210938 77.886719 11.21875 C 77.871094 11.796875 77.800781 12.378906 77.828125 12.953125 C 77.925781 14.984375 77.738281 17.003906 77.691406 19.03125 C 77.675781 19.824219 77.550781 20.613281 77.484375 21.40625 C 77.460938 21.675781 77.703125 21.976562 77.988281 22.003906 C 78.566406 22.058594 79.140625 22.117188 79.71875 22.132812 C 80.621094 22.160156 80.734375 22.050781 81.101562 21.105469 C 81.445312 20.230469 81.792969 19.355469 82.171875 18.496094 C 82.285156 18.234375 82.484375 18.011719 82.65625 17.785156 C 82.804688 17.585938 83.144531 17.550781 83.421875 17.699219 C 83.609375 17.800781 83.792969 17.910156 84.066406 18.066406 Z M 82.761719 20.710938 L 82.652344 20.703125 L 82.6875 20.902344 L 82.765625 20.710938 Z M 82.761719 20.710938 " fill-opacity="1" fill-rule="nonzero"/><path fill="#1c3c75" d="M 55.886719 22.539062 C 53.863281 23.265625 51.851562 23.460938 49.816406 23.433594 C 49.453125 23.429688 49.082031 23.339844 48.738281 23.410156 C 47.578125 23.644531 46.421875 23.546875 45.261719 23.488281 C 43.808594 23.417969 42.363281 23.386719 40.921875 23.625 C 40.707031 23.660156 40.480469 23.710938 40.273438 23.679688 C 38.882812 23.464844 37.527344 23.785156 36.164062 23.910156 C 34.144531 24.097656 32.121094 24.171875 30.09375 24.125 C 29.078125 24.101562 28.0625 24.171875 27.050781 24.226562 C 26.328125 24.265625 25.605469 24.378906 24.882812 24.414062 C 24.308594 24.441406 23.722656 24.421875 23.175781 24.183594 C 23.003906 24.109375 22.960938 23.988281 23.03125 23.863281 C 23.066406 23.796875 23.09375 23.707031 23.144531 23.6875 C 23.414062 23.589844 23.683594 23.453125 23.960938 23.429688 C 25.121094 23.351562 26.277344 23.277344 27.4375 23.261719 C 30.558594 23.226562 33.671875 23.027344 36.78125 22.753906 C 39.671875 22.5 42.574219 22.445312 45.480469 22.410156 C 46.566406 22.394531 47.65625 22.339844 48.742188 22.308594 C 49.972656 22.269531 51.203125 22.164062 52.433594 22.203125 C 53.585938 22.242188 54.734375 22.429688 55.886719 22.554688 Z M 55.886719 22.539062 " fill-opacity="1" fill-rule="nonzero"/><path fill="#1c3c75" d="M 9.132812 19.175781 C 7.761719 19.914062 6.308594 19.859375 4.867188 19.859375 C 4.640625 19.859375 4.320312 19.511719 4.292969 19.277344 C 4.28125 19.203125 4.238281 19.128906 4.25 19.066406 C 4.578125 17.136719 4.34375 15.140625 4.953125 13.246094 C 5.269531 12.28125 5.554688 11.304688 5.9375 10.367188 C 6.375 9.277344 7.074219 8.351562 7.914062 7.527344 C 8.402344 7.054688 8.90625 6.675781 9.636719 6.792969 C 9.773438 6.816406 9.925781 6.800781 10.0625 6.761719 C 10.394531 6.664062 10.710938 6.382812 11.046875 6.753906 C 11.332031 7.0625 11.214844 7.429688 11.238281 7.78125 C 11.375 10.320312 11.167969 12.855469 11.070312 15.386719 C 11.042969 16.105469 11.082031 16.839844 10.808594 17.53125 C 10.785156 17.589844 10.722656 17.648438 10.664062 17.671875 C 10.488281 17.746094 10.386719 17.679688 10.328125 17.519531 C 10.023438 16.683594 10.003906 15.816406 10.023438 14.945312 C 10.0625 13.132812 10.09375 11.316406 10.109375 9.503906 C 10.113281 8.855469 10.058594 8.199219 10.03125 7.554688 C 9.84375 7.546875 9.660156 7.480469 9.578125 7.542969 C 8.46875 8.394531 7.574219 9.4375 7.019531 10.730469 C 6.007812 13.089844 5.496094 15.5625 5.421875 18.125 C 5.414062 18.5 5.6875 18.832031 6.066406 18.871094 C 7.074219 18.980469 8.082031 19.070312 9.132812 19.175781 Z M 9.132812 19.175781 " fill-opacity="1" fill-rule="nonzero"/><path fill="#1c3c75" d="M 33.285156 6.289062 C 31.699219 6.496094 30.109375 6.605469 28.507812 6.480469 C 28.148438 6.453125 27.78125 6.464844 27.417969 6.464844 C 25.863281 6.464844 25.800781 6.738281 25.8125 8.101562 C 25.828125 11.21875 25.863281 14.34375 25.898438 17.464844 C 25.898438 17.601562 25.960938 17.734375 25.996094 17.882812 C 26.394531 18.339844 26.9375 18.054688 27.414062 18.125 C 27.984375 18.21875 28.566406 18.25 29.140625 18.335938 C 29.628906 18.40625 30.109375 18.515625 30.679688 18.625 C 30.523438 18.761719 30.457031 18.875 30.375 18.886719 C 29.796875 18.960938 29.21875 19.058594 28.644531 19.074219 C 27.480469 19.113281 26.335938 19.28125 25.207031 19.515625 C 24.875 19.058594 24.910156 18.535156 24.871094 18.035156 C 24.617188 14.78125 24.511719 11.515625 24.59375 8.25 C 24.613281 7.519531 24.648438 6.800781 24.933594 6.117188 C 25.085938 5.757812 25.332031 5.488281 25.710938 5.421875 C 26.277344 5.316406 26.859375 5.195312 27.425781 5.21875 C 28.804688 5.273438 30.179688 5.386719 31.550781 5.523438 C 31.972656 5.5625 32.394531 5.726562 32.789062 5.890625 C 32.960938 5.960938 33.070312 6.1875 33.210938 6.34375 L 33.269531 6.292969 Z M 33.285156 6.289062 " fill-opacity="1" fill-rule="nonzero"/><path fill="#1c3c75" d="M 51.929688 36.695312 C 51.351562 37.058594 50.730469 37.175781 50.089844 37.273438 C 48.011719 37.59375 45.925781 37.769531 43.808594 37.765625 C 38.441406 37.746094 33.070312 37.824219 27.703125 37.855469 C 27.054688 37.855469 26.402344 37.832031 25.75 37.785156 C 25.550781 37.765625 25.355469 37.621094 25.171875 37.515625 C 25.128906 37.492188 25.132812 37.394531 25.109375 37.328125 C 25.042969 37.152344 25.097656 37.03125 25.28125 36.988281 C 25.554688 36.929688 25.835938 36.839844 26.121094 36.835938 C 27.714844 36.820312 29.3125 36.855469 30.90625 36.824219 C 34.238281 36.765625 37.574219 36.675781 40.910156 36.59375 C 41.199219 36.585938 41.488281 36.566406 41.78125 36.5625 C 44.898438 36.53125 48.015625 36.5 51.132812 36.476562 C 51.394531 36.476562 51.679688 36.40625 51.933594 36.6875 Z M 51.929688 36.695312 " fill-opacity="1" fill-rule="nonzero"/><path fill="#1c3c75" d="M 88.609375 16.121094 C 88.5625 17.351562 88.527344 18.582031 88.46875 19.8125 C 88.433594 20.539062 88.324219 21.253906 87.976562 21.910156 C 87.921875 22.007812 87.746094 22.058594 87.613281 22.101562 C 87.46875 22.144531 87.355469 22.050781 87.335938 21.867188 C 87.292969 21.441406 87.214844 21.003906 87.234375 20.578125 C 87.273438 19.710938 87.371094 18.84375 87.4375 17.976562 C 87.523438 16.894531 87.695312 15.8125 87.671875 14.730469 C 87.644531 13.359375 87.511719 11.976562 87.15625 10.648438 C 86.660156 8.800781 85.332031 7.726562 83.535156 7.238281 C 81.652344 6.726562 79.800781 6.070312 77.84375 5.851562 C 77.773438 5.84375 77.671875 5.832031 77.644531 5.78125 C 77.539062 5.609375 77.421875 5.425781 77.378906 5.234375 C 77.367188 5.167969 77.546875 4.992188 77.65625 4.972656 C 78.601562 4.820312 79.535156 4.945312 80.453125 5.183594 C 81.574219 5.476562 82.691406 5.785156 83.792969 6.144531 C 84.402344 6.34375 85.007812 6.617188 85.574219 6.925781 C 86.996094 7.707031 87.792969 8.96875 88.183594 10.507812 C 88.449219 11.566406 88.617188 12.628906 88.550781 13.730469 C 88.5 14.519531 88.539062 15.320312 88.539062 16.113281 C 88.5625 16.113281 88.585938 16.113281 88.609375 16.113281 Z M 88.609375 16.121094 " fill-opacity="1" fill-rule="nonzero"/><path fill="#1c3c75" d="M 37.308594 17.800781 C 40.332031 17.539062 43.125 17.679688 46.183594 18.292969 C 44.378906 18.839844 42.820312 18.945312 41.246094 18.914062 C 40.230469 18.890625 39.21875 18.863281 38.210938 18.890625 C 37.359375 18.914062 37.042969 18.859375 36.808594 17.925781 C 36.578125 17.015625 36.402344 16.113281 36.582031 15.144531 C 36.722656 14.371094 36.667969 13.558594 36.652344 12.765625 C 36.636719 11.824219 36.605469 10.878906 36.523438 9.945312 C 36.453125 9.191406 36.671875 8.527344 36.925781 7.820312 C 37.097656 7.96875 37.207031 8.050781 37.304688 8.152344 C 37.347656 8.199219 37.394531 8.277344 37.398438 8.339844 C 37.628906 11.226562 37.898438 14.113281 37.480469 17 C 37.449219 17.214844 37.394531 17.421875 37.316406 17.800781 Z M 37.308594 17.800781 " fill-opacity="1" fill-rule="nonzero"/><path fill="#1c3c75" d="M 33.222656 6.34375 C 33.761719 6.621094 34.15625 7.015625 34.257812 7.640625 C 34.316406 8 34.382812 8.355469 34.417969 8.714844 C 34.65625 11.09375 34.75 13.476562 34.488281 15.855469 C 34.382812 16.785156 34.191406 17.707031 33.992188 18.625 C 33.914062 18.976562 33.652344 19.257812 33.285156 19.394531 C 33.015625 19.492188 32.917969 19.484375 32.277344 19.257812 C 32.886719 18.417969 33.167969 17.464844 33.253906 16.445312 C 33.347656 15.367188 33.453125 14.285156 33.507812 13.203125 C 33.535156 12.632812 33.484375 12.050781 33.445312 11.472656 C 33.390625 10.679688 33.324219 9.890625 33.234375 9.101562 C 33.121094 8.160156 33.167969 7.222656 33.289062 6.289062 L 33.230469 6.339844 Z M 33.222656 6.34375 " fill-opacity="1" fill-rule="nonzero"/><path fill="#1c3c75" d="M 47.972656 8.4375 C 47.578125 10.027344 47.808594 11.910156 47.730469 13.777344 C 47.683594 14.855469 47.605469 15.9375 47.519531 17.015625 C 47.5 17.21875 47.40625 17.433594 47.3125 17.617188 C 47.246094 17.734375 47.125 17.871094 47.007812 17.898438 C 46.925781 17.917969 46.746094 17.78125 46.714844 17.675781 C 46.425781 16.773438 46.308594 15.847656 46.488281 14.902344 C 46.808594 13.261719 46.703125 11.597656 46.820312 9.945312 C 46.890625 9.011719 46.894531 8.074219 46.953125 7.136719 C 46.964844 6.941406 47.09375 6.742188 47.203125 6.570312 C 47.300781 6.40625 47.425781 6.429688 47.5625 6.558594 C 48.046875 7.011719 47.972656 7.597656 47.972656 8.4375 Z M 47.972656 8.4375 " fill-opacity="1" fill-rule="nonzero"/><path fill="#1c3c75" d="M 42.132812 5.902344 C 40.617188 5.730469 39.113281 5.84375 37.617188 6.085938 C 37.324219 6.128906 37.035156 6.105469 36.804688 5.902344 C 36.707031 5.816406 36.613281 5.667969 36.613281 5.546875 C 36.613281 5.425781 36.730469 5.304688 36.8125 5.191406 C 36.855469 5.140625 36.925781 5.09375 36.988281 5.085938 C 39.128906 4.777344 41.273438 4.511719 43.441406 4.667969 C 44.308594 4.730469 45.144531 4.925781 45.953125 5.234375 C 45.988281 5.25 46.019531 5.335938 46.015625 5.386719 C 46.011719 5.453125 45.988281 5.539062 45.941406 5.585938 C 45.652344 5.835938 45.289062 5.894531 44.929688 5.902344 C 43.996094 5.921875 43.0625 5.90625 42.125 5.90625 Z M 42.132812 5.902344 " fill-opacity="1" fill-rule="nonzero"/><path fill="#1c3c75" d="M 16.199219 23.992188 C 11.8125 24.734375 8.359375 24.890625 5.777344 24.460938 C 5.898438 24.285156 5.976562 24.039062 6.113281 24.003906 C 6.597656 23.867188 7.097656 23.730469 7.597656 23.710938 C 10.421875 23.605469 13.246094 23.613281 16.066406 23.894531 C 16.113281 23.898438 16.152344 23.957031 16.199219 23.992188 Z M 16.199219 23.992188 " fill-opacity="1" fill-rule="nonzero"/><path fill="#1c3c75" d="M 3.882812 34.132812 C 4.375 33.730469 4.742188 33.484375 5.035156 33.175781 C 5.578125 32.617188 5.472656 31.722656 4.8125 31.277344 C 4.335938 30.953125 3.804688 30.714844 3.316406 30.414062 C 3.226562 30.359375 3.203125 30.1875 3.171875 30.0625 C 3.171875 30.050781 3.289062 29.992188 3.355469 29.96875 C 3.425781 29.945312 3.496094 29.941406 3.570312 29.933594 C 4.6875 29.820312 5.535156 30.292969 6.199219 31.160156 C 6.640625 31.734375 6.675781 32.375 6.289062 32.980469 C 5.820312 33.722656 5.222656 34.039062 3.882812 34.132812 Z M 3.882812 34.132812 " fill-opacity="1" fill-rule="nonzero"/><path fill="#1c3c75" d="M 17.269531 19.410156 C 16.839844 19.4375 16.40625 19.480469 15.972656 19.488281 C 15.757812 19.488281 15.542969 19.433594 15.332031 19.402344 C 15.152344 19.375 14.941406 19.070312 15.023438 18.917969 C 15.082031 18.804688 15.15625 18.652344 15.261719 18.617188 C 15.53125 18.515625 15.820312 18.402344 16.09375 18.417969 C 17.386719 18.488281 18.679688 18.601562 19.972656 18.710938 C 20.011719 18.710938 20.09375 18.8125 20.085938 18.824219 C 20.011719 18.9375 19.933594 19.128906 19.839844 19.144531 C 18.984375 19.265625 18.128906 19.351562 17.269531 19.453125 C 17.269531 19.4375 17.269531 19.425781 17.265625 19.410156 Z M 17.269531 19.410156 " fill-opacity="1" fill-rule="nonzero"/><path fill="#1c3c75" d="M 17.742188 11.3125 L 17.710938 11.121094 L 17.820312 11.136719 Z M 17.742188 11.3125 " fill-opacity="1" fill-rule="nonzero"/><path fill="#1c3c75" d="M 40.371094 11.183594 L 40.445312 11.007812 L 40.480469 11.191406 Z M 40.371094 11.183594 " fill-opacity="1" fill-rule="nonzero"/><path fill="#1c3c75" d="M 17.019531 12.351562 C 16.996094 12.40625 16.984375 12.488281 16.945312 12.5 C 16.832031 12.542969 16.777344 12.460938 16.820312 12.300781 C 16.828125 12.261719 16.902344 12.238281 16.941406 12.207031 C 16.96875 12.25 16.996094 12.300781 17.023438 12.347656 Z M 17.019531 12.351562 " fill-opacity="1" fill-rule="nonzero"/></svg>