<?xml version="1.0" encoding="UTF-8"?><svg id="Layer_1" xmlns="http://www.w3.org/2000/svg" viewBox="0 0 196.62 170.34"><path d="M157.6,106.89c-2.1,.18-4.09-.27-6.12-.77-4.01-.99-8.05-1.84-11.98-3.16-1.96-.66-3.98-1.21-5.81-2.14-2.54-1.29-5.21-2.41-7.43-4.28-.97-.82-1.99-1.6-3.07-2.26-4.95-3.01-9.15-6.94-13.13-11.08-2.98-3.1-5.92-6.24-8.69-9.55-2.99-3.55-5.56-7.36-8.21-11.14-1.47-2.09-2.7-4.32-3.89-6.58-.96-1.83-2.02-3.62-3-5.44-.53-.98-1.07-1.97-1.49-3-1.79-4.43-3.85-8.76-5.39-13.29-.2-.58-.61-1.09-.92-1.62-.98,.48-1.82,.91-2.68,1.31-.59,.27-1.15,.15-2.24-.41,.26-.4,.45-.87,.79-1.16,.61-.51,1.29-.93,1.98-1.33,1.66-.97,3.21-2.08,4.76-3.67,1.33-2.03,2.92-4.22,4.08-6.69,.26-.56,.7-1.07,1.46-1l-.11-.08c.1,.97-.02,1.89-.4,2.8-.24,.57-.35,1.22-.41,1.84-.02,.2,.31,.43,.51,.69,2.35-1.38,4.4-3.14,6.26-5.12,1.34-1.42,2.98-2.33,4.68-3,.49,.17,.7,.45,.5,.65-1.76,1.84-3.55,3.64-5.31,5.48-.28,.29-.4,.74-.6,1.12,.25,.12,.4,.26,.54,.25,1.91-.03,3.81-.07,5.77-.11,1.59-.7,3.19-1.4,4.67-2.05,1.48-.95,2.25-2.4,3.35-3.54,.44-.45,.9-.91,1.62-.86l-.09-.09c-.07,.47-.08,.96-.24,1.4-.37,1.02-1.04,1.93-1.15,3.05,1.07,.61,2.2,.24,3.29,.17,.78-.05,1.58-.27,2.31-.55,2.54-.98,5.01-2.07,6.89-4.19,.62-.7,1.53-1.14,2.18-1.61,2.39-.43,4.61-.41,6.82-.05,.92,.33,1.84,.58,2.52,1.3-.03,.1-.04,.27-.1,.28-.3,.09-.61,.2-.91,.18-3.04-.15-6.06,.05-8.98,.29-1.48,1.45-2.84,2.79-4.29,4.21,2.79,.79,5.55,1.3,8.62,1.04,.97-.53,2.17-1.03,3.19-1.77,1.43-1.04,2.93-1.88,4.58-2.47,.13-.05,.22-.23,.33-.35,0,0-.08,.08-.08,.08,.32,0,.65-.06,.95,0,1.68,.38,3.36,.79,4.94,1.17,.23,.31,.09,.56-.33,.57-2.72,.04-5.31,.72-7.89,1.44-1.62,.98-3.23,1.95-4.9,2.95,1.89,1.16,3.86,1.5,5.92,1.5,2.05,0,4.11,.04,6.16,.06,0,0-.1-.11-.1-.11-.18,.25-.31,.59-.55,.74-.81,.49-1.67,.92-2.19,1.2-3.46,.68-6.29-.75-9.21-.99-1.03-.65-1.97-1.24-3.02-1.9-3.12,.06-6.23-.54-9.47-1.36-2.66,.59-5.48,.91-8.12-.21-4.93,1.99-3.8,1.87-10.13,3.06-.1,.28-.19,.56-.3,.87,2.9,4.73,5.76,9.51,8.74,14.23,3.41,5.39,7.24,10.49,11.24,15.45,6.52,8.07,13.49,15.73,20.83,23.06,1.01,1.01,2,2.06,2.91,3.17,.26,.31,.19,.89,.27,1.34l.07-.08c-.41-.23-.9-.37-1.21-.69-5.99-6-12.07-11.91-17.89-18.07-8.15-8.61-15.29-18.04-21.49-28.16-1.42-2.32-2.77-4.68-4.04-7.08-.51-.96-.73-2.08-1.1-3.15-1.16-.94-2.75-.64-3.79-1.46-.67,.18-1.21,.19-1.58,.45-1.05,.72-2.03,1.54-3.11,2.37-.41,.07-.87,.17-1.34,.21-.89,.08-1.46,.54-1.83,1.55,.31,1.06,.57,2.31,1.03,3.48,2.6,6.7,5.32,13.36,8.8,19.67,3.72,6.73,7.97,13.09,12.84,19.05,3.96,4.85,8.34,9.27,12.9,13.52,2.45,2.28,5.12,4.33,7.75,6.41,.87,.69,1.95,1.1,2.89,1.7,5.13,3.29,10.46,6.17,16.38,7.78,4.27,1.83,8.8,2.75,13.26,3.92,.25,.06,.42,.43,.62,.66l.09-.11Z"/><path d="M173.94,132.8c-.68,.12-1.22-.16-1.76-.53-1.06-.73-1.39-2.17-2.64-2.72-.17,.24-.44,.45-.46,.69-.13,1.27-.16,2.55,.26,3.79,.35,1.06,.66,2.13,.91,2.97,1.25,1.82,2.63,3.13,4.35,4.18,.86,.22,1.78,.46,2.69,.7-.09,.81-.67,1.03-1.3,1.23-1.13,.03-2.16-.45-3.38-.8-.87-.7-1.85-1.49-2.81-2.27-.19,.17-.36,.24-.37,.33-.11,.94-.18,1.89-.26,2.68,.67,1.83,1.37,3.45,2.3,4.94,1.03,1.67,2.31,3.08,4.43,3.35,.12,.02,.22,.22,.44,.44-.69,.12-1.3,.28-1.92,.33-1.16,.11-2.24-.19-3.11-.98-.71-.64-1.33-1.37-2.03-2.02-.19-.17-.5-.21-.76-.31-.07,.16-.19,.31-.18,.46,.04,2.58,.63,5.07,1.76,7.37,.86,1.77,2.28,3.07,4.18,3.63,1-.17,1.94-.33,2.88-.47,.15-.02,.31,.06,.63,.13,.19,.26,.59,.6,.68,1,.3,1.42,.33,2.85-.18,4.25-.16,.43-.21,.9-.32,1.38,1.25,1.1,2.72,.83,4.27,.92,.75-.27,1.63-.71,2.55-.88,1.09-.2,2.22-.22,3.34-.22,2.71,0,5.4,.33,8.49,.24-.54,.44-.7,.69-.88,.7-2.54,.17-5.09,.11-7.59,.87-1.19,.36-2.56,.39-3.81,.23-2.89-.37-5.75,.07-8.61,.1-.61,.24-1.2,.47-2.03,.8-1.98,.18-4.22,.06-6.4,.76-1.01,.33-2.28,.3-3.32,.02-2.37-.64-4.76-.41-7.15-.49-.64-.02-1.28,0-1.94,0-.9,.25-1.82,.51-2.69,.75-1.83,.03-3.57-.13-5.29-.56-2.47-.62-4.94-1.27-7.42-1.86-.93-.22-1.88-.43-2.83-.45-2.87-.08-5.75-.01-8.63-.12-2.45-.09-4.76,.57-7.03,1.25-2.86,.86-5.66,.93-8.5,.26-1.6-.38-3.15-.41-4.73,.01-2.5,.66-5.05,.78-7.61,.54-2.24-.21-4.46-.17-6.7-.05-2.07,.11-4.16,.09-6.23,.11-5.44,.04-10.87,.05-16.31,.12-1.27,.02-2.53,.27-3.85,.42-.59-.15-1.1-.47-1.23-1.25,.32-.3,.66-.62,1.09-1.03,.55-.08,1.18-.23,1.8-.24,6.07-.17,12.15-.35,18.22-.2,2.08,.05,4.16-.02,6.23-.03,2.08-.01,4.17-.14,6.23,0,4.32,.3,8.62-.09,12.93-.04,3.05,.04,6.02-.78,9.02-.68,.79-.35,1.52-.67,2.54-1.12,1.14-.06,2.57-.18,4-.19,2.24-.01,4.48,.17,6.71,.06,3.41-.18,6.67,.52,9.91,1.41,1.08,.3,2.16,.57,3.23,.9,1.87,.58,3.71,.7,5.65,.16,1.21-.33,2.54-.26,3.81-.27,2.39-.01,4.79,.02,7.18,.1,.62,.02,1.24,.36,1.86,.37,.42,0,.85-.32,1.2-.46,.39-1.13-.41-1.91-.51-2.9-.47-.57-.96-1.18-1.5-1.84,0-.44-.11-.95,.02-1.38,.53-1.7,.71-3.41,.7-5.19-.02-2.23,.02-4.48,.58-6.67,.12-.46,.1-.95,.15-1.43,.24-2.4-.08-4.79-.03-7.18,.05-2.23,.41-4.43,.21-6.69-.33-3.72-.24-3.74,.98-7.56-.16-.37-.34-.8-.57-1.36-.43,.3-.92,.48-1.14,.83-2.02,3.13-3.27,6.59-3.85,10.24-.38,2.36-1.1,4.65-1.17,7.08-.03,1.25-.55,2.47-.81,3.72-.22,1.08,.06,2.24-.52,3.31-.16-.19-.41-.36-.43-.54-.12-1.92-.18-3.83,.42-5.7,.19-.6,.28-1.25,.28-1.88,0-2.73,.43-5.4,.89-8.08,.61-3.51,1.71-6.77,3.88-9.63,.29-.38,.44-.85,.7-1.25,.26-.4,.57-.76,.9-1.21,.53-.23,1.1-.48,1.68-.73,.44,.35,.81,.63,1.11,.87q1.04,4.72,3.82,9.26c.24,.4,.37,.86,.55,1.29l.09-.08Zm2.33,28.45c-1.54,.4-3.09,.77-4.6,.17-1.85-.91-2.9-2.54-4.04-4.07-.56,.53-.5,1.15-.3,1.73,.73,2.1,1.51,4.19,2.28,6.33,.55,.73,1.11,1.52,2.48,1.87,1.07-.06,2.49-.14,3.91-.25,.13,0,.25-.19,.37-.3,.58-2.97,.56-3.74-.09-5.48Z"/><path d="M59.59,75.21c.14,.97-.05,1.88-.38,2.8-.26,.73-.29,1.54-.38,2.1,.79,2.23,2.46,3.61,3.58,5.66,.25,.81,.57,1.87,.85,2.76-.33,1.44-.49,2.72-1.27,3.78-.75,1.01-1.54,1.98-2.33,2.99,.66,1.51,1.35,2.93,1.9,4.4,.38,1.04,.59,2.15,.8,3.24,.12,.62,.09,1.27,.09,1.91,0,1.1,.19,2.22-.35,3.45-.65-1.37-.25-2.75-.56-4.02q-1.95-5.07-3.95-7.53c-.91-.66-1.98-.93-3.08-1.19-.91-.21-1.78-.56-2.72-.87-1.15,1.06-1.08,2.55-1.43,3.9,.2,2.54,.95,4.97,1.57,7.43l.1-.1c-.88-.17-1.35-.84-1.66-1.56-.97-2.21-1.59-4.5-1.51-6.94,.02-.79,0-1.58,0-2.6-1.12,.89-2.08,1.65-3.14,2.48-.49,1.26-.93,2.62-1.53,3.91-.54,1.14-1.26,2.19-1.93,3.34,1.45,2.74,2.27,5.65,2.97,8.75,.04,1.43,.1,3.01-.3,4.99-1.6-4.89-2.53-9.59-5.2-13.62-.27-.06-.55-.11-.92-.19-.53,2.06-.22,4.11-.02,6.37,.93,2.01,1.93,4.18,2.96,6.33,.35,.73,.67,1.44,.6,2.27l.09-.09c-.71-.03-1.15-.53-1.47-1.04-.66-1.07-1.18-2.22-1.83-3.29-.23-.37-.69-.59-1.08-.91-.49,1.32-.31,2.58-.02,3.78,.66,2.75,1.45,5.47,2.73,8.02,.71,1.4,1.41,2.81,2.05,4.25,.25,.56,.31,1.2,.46,1.81l.12-.11c-.76-.32-1.32-.87-1.77-1.55-1.52-2.25-2.93-4.56-4.15-6.99-.2-.4-.58-.72-.88-1.08l.07,.09c-.08-.63-.04-1.31-.26-1.89-.82-2.15-.95-4.34-.69-6.84,.25-.66,.58-1.55,.96-2.56-.23-.83-.51-1.74-.72-2.67-.48-2.05-.09-3.8,1.85-4.96,.13-.08,.2-.23,.32-.37,.38-.84-.4-1.45-.5-2.22-.11-.78-.32-1.55-.5-2.33-.07-.31-.27-.6-.3-.91-.11-1.27-.09-2.55-.27-3.8-.18-1.25-.98-2.36-.9-3.69,0-.16,.06-.31,.08-.47q.93-.89,1.93-.41c.37,1.37,.75,2.75,1.07,3.93,.74,1.2,1.77,1.64,3.01,2.13h2.62c.46-.25,.93-.43,1.29-.72,.49-.4,.97-.85,1.33-1.36,.55-.78,1.03-1.61,1.48-2.45,.22-.4,.29-.88,.42-1.29-.86-.88-1.86-.31-2.76-.44-.95-.14-1.9-.21-2.67-.29-2.13-.86-3.97-1.79-4.85-4.24-.4-1.45-.29-3.19-.04-4.85,.79-3.04,2.76-5.07,5.13-6.77q2.99-1.15,5.52-1.26c1.71,.52,3.26,1.3,4.35,2.79,1.57,2.46,1.51,5.14,.99,7.86-.21,1.09-.6,2.15-.89,3.2-.35,.56-.68,1.11-1.04,1.7-.65,.35-1.33,.72-2,1.09,.55,.99,1.07,1.97,1.64,2.93,.58,.98,1.4,1.76,2.46,2.18,1.24,.49,2.49,.48,3.97-.33,.44-.47,1.08-1.16,1.52-1.63,.64-1.54,.58-2.79,.28-4-.92-2.43-3.38-3.96-3.63-7.02,.39-1.77,1.4-3.52,2.85-5.04l-.1-.11Zm-16.24,10.61c.78,1.02,1.27,1.11,2.29,.25-.85-.09-1.57-.17-2.29-.25-.28-1.22-1.42-1.63-2.23-2.41-.75,1.16,.36,1.59,.91,2.32,.4,.02,.86,.05,1.33,.08Zm5.62-10.24c-1.05-.52-2.14-.55-3.25-.3-.45,.1-.96,.26-1.28,.56-1.62,1.49-2.39,3.3-1.78,5.53,.18,.64,.6,1.06,1.24,1.28,1.1-.79,.85-2.37,1.77-3.12,.84-.7,1.58-1.28,2.92-1.42,.42,.09,1.16,.25,1.91,.38,.09,.02,.22-.19,.32-.29-.12-1.24-.96-1.95-1.84-2.62Zm-8.9,27.11c.87-1.19-.2-2.8,.91-3.92,1,.73,.02,2.1,.93,2.86,.6-.75,1.02-1.59,1.15-2.53,.06-.42-.12-.86-.18-1.26-1.3-.42-2.47-.8-3.61-1.16-.61,.45-.69,1.05-.69,1.69-.02,1.62,.37,3.1,1.49,4.33Zm8.28-22.48c-.32,.18-.69,.39-1.02,.57-.41,1.62-.11,2.84,1.36,3.6,1.02-.84,1.28-1.26,1.24-1.92-.07-1.02-.49-1.8-1.58-2.25Zm1.33,11.95c-.1,.09-.25,.17-.3,.29-.15,.33-.05,.63,.27,.8,.04,.02,.32-.21,.31-.29-.05-.28-.18-.55-.27-.8Z"/><path d="M54.9,56.96c-.27-.14-.61-.22-.81-.43-1.1-1.17-1.86-2.56-2.42-4.06-.55-1.48-1.07-2.98-1.6-4.46,.36-1.28,.69-2.5,1.01-3.65,1.64-2.77,3.73-4.83,7.24-5.47,.98,.26,2.2,.58,3.55,.94,1.74,1.2,3.47,2.64,4.33,4.77,.69,1.68,.53,3.47-.46,5.03-.67,1.05-1.53,1.98-2.25,2.89,.08,1.31,.83,2.15,1.48,3.04,.87,.73,1.85,1.21,3.21,1.23,.42-.17,1.02-.38,1.59-.65,2.08-.97,2.99-2.77,3.32-4.91,.24-1.58,.17-3.17-.26-4.99-.63-.99-1.4-2.19-2.14-3.36-.56-.12-1.02-.22-1.48-.32l.1,.1c-.34-.31-.63-.73-1.03-.91-.57-.26-1.21-.34-1.78-.49-.2-.32-.49-.57-.51-.84-.05-.58,.45-.74,.9-.81,.63-.09,1.27-.09,1.9-.19,.29-.05,.57-.22,.85-.34,.74-2.63,.88-4.23,.48-6.04-.18-.8-.62-1.49-1.28-1.97-.76-.56-1.59-1.03-2.38-1.54-1.36-.1-2.06,.75-2.52,1.81-.31,.72-.45,1.5-.67,2.28-.36-.1-.76-.08-.86-.25-.39-.68-.69-1.41-1.18-2.46-.26-.31-.76-.92-1.23-1.49-.1-.36-.27-.66-.27-.96-.02-1.75-.01-3.5-.01-5.53,.33-1.11,.72-2.49,1.17-3.84,.08-.23,.47-.36,.72-.54-.05,1.75-.12,3.49-.13,5.24,0,3.19,.11,3.82,.79,4.86,1.09-.36,1.83-1.21,2.68-1.99-.53-2.29-1.39-4.49-2.22-6.7-.11-.29-.26-.6-.47-.82-.2-.22-.51-.33-.77-.49,.08-.63,.09-1.28,.26-1.88,.13-.45,.5-.77,1.13-.63,1.17,2.73,2.36,5.48,2.75,8.51,.1,.76,.46,1.51,.99,2.03,.61,.52,1.25,.4,2.09,.32,1.91-1.66,4.16-3.13,6.53-4.43,1.4-.76,2.65-1.72,3.78-2.88,1.47-1.51,3.3-2.41,5.36-2.94,1.37-.35,2.67-.97,4.02-1.44,1.53-.53,1.54-.51,4.17-.13,.01,.13,.08,.29,.03,.38-.14,.27-.34,.52-.5,.77-1.35,.47-2.69,.94-3.75,1.31-.77,.79-1.31,1.34-1.85,1.9l.11,.08c-.47-.83-1.04-1.56-2.11-1.77-2.41,.56-3.97,2.32-5.36,4.22-.92,1.26-1.66,2.65-2.48,3.98-.9,1.46-1.68,3.01-3.03,4.33-.44,.22-1,.49-1.56,.77,.06-1.07,.22-2.11,.69-3.11,.24-.52,.22-1.17,.31-1.77,.39-.09,1.03-.09,.35-.67-.12-.1-.4,.35-.32,.69-.28,.07-.62,.06-.84,.22-.72,.54-1.4,1.13-1.78,2.27,.65,.57,.53,1.83,1.68,2.28q.13,4.34-.87,8.59c.19,.33,.35,.81,.67,1.12,1.78,1.73,2.88,3.78,3.25,6.25,.14,.94,.44,1.85,.65,2.72-.34,1.49-.65,2.88-.95,4.18-.51,1.32-1.33,2.31-2.34,3.11-.86,.68-1.82,1.22-2.47,1.65-.46,.58-.37,.82-.16,1.14,1.96,2.99,3.06,6.27,3.31,9.86,.08,1.1,.44,2.18,.59,3.29,.08,.56,.15,1.2-.42,1.75-.42-1.24-.96-2.41-1.2-3.64-.8-4.15-2.49-7.88-5.01-11.25-.19-.25-.36-.53-.59-.88-.71-.47-1.51-.99-2.44-1.61-.73-1.25-1.52-2.62-2.37-4.07-.62-.06-1.24-.18-1.87-.18-1.16,0-2.2-.4-3.21-.87-2.05-.96-3.28-2.5-3.07-4.9,.04-.47,.15-.94,.22-1.34,.64-1.27,1.57-2.13,2.87-2.44,1.72-.41,3.1,.36,4.57,1.66,.23,.46,.58,1.17,.93,1.9-.05,.48-.12,.95-.15,1.42-.02,.33,.16,.57,.48,.65,.14,.03,.36,0,.44-.08,.42-.47,.8-.97,1.16-1.41,.15-2.62-1.17-4.31-3.14-5.8-.82-.23-1.73-.5-2.78-.8-.8,.36-1.74,.63-2.51,1.15-1.34,.92-2.28,2.21-2.77,3.8-.23,.76-.45,1.52-.66,2.22,.48,2.58,1.01,5.06,2.12,7.38,.2,.42,.2,.93,.29,1.39l.1-.1Zm1.9-7.66c.08,.13,.14,.27,.24,.37,.06,.06,.19,.04,.28,.05-.04-.24-.24-.35-.62-.31,0-.99,.01-1.98,.02-2.98,.12-.05,.24-.08,.35-.15,.06-.04,.09-.14,.13-.21-.12,.15-.25,.31-.37,.46-.49,.1-.75,.44-.83,.89-.14,.79,.04,1.47,.81,1.88Zm2.46-2.53l-.17,.27,.23,.04-.07-.31Z"/><path d="M162.4,52.19c-3.06,.66-5.25-.84-7.13-2.95-.62-.7-.98-1.63-1.37-2.3-.13-.98-.24-1.77-.35-2.55-1.15-.98-2.69-.9-3.8-1.66-1.12,1.07-.45,2.3-1.12,4.2-.02,.03-.4,.91-.89,1.72-.61,1.01-1.55,1.59-2.73,1.73,.6-.92,1.2-1.84,1.62-2.48,.47-2.16,.87-4,1.31-6-.75-1.2-1.57-2.52-2.38-3.82-.88-.31-1.57-1.15-2.74-.68,.51,3.52,.23,7.12,.57,10.46,.47,1.1,.86,1.96,1.75,2.45,.19,.6,.29,1.26,.6,1.79,2.01,3.43,3.93,6.9,5.33,10.63,.16,.44,.44,.84,.66,1.26,.9,1.68,1.89,3.31,2.69,5.04,2.06,4.46,4.04,8.97,6.01,13.37v1.55l.1-.09c-.52-.12-.76-.52-.97-.95-2.65-5.27-5.26-10.55-7.96-15.79-1.83-3.54-3.76-7.03-5.7-10.5-1.79-3.21-3.85-6.24-6.08-9.15-1.36-1.77-2.68-3.57-3.96-5.4-.25-.35-.22-.9-.32-1.35l-.05,.05c.45,.09,1,.04,1.34,.28,1.56,1.13,2.87,2.52,4,4.09,.23,.33,.64,.53,1.05,.85,.6-1.8-.63-3.21-.64-4.79,0-1.59-.15-3.17-.23-4.87-1.03-1.12-2.24-2.18-2.68-3.65-1.37-1.15-3.03-1.25-4.51-1.79-.25-.45-.47-.86-.73-1.35,.5-.2,.93-.53,1.34-.5,.95,.08,1.87,.35,2.81,.52,1.09,.19,2.19,.42,3.29,.53,2.79,.28,5.35-.58,7.83-1.7,.19-.08,.23-.49,.35-.78-.94-1.17-2.33-1.6-3.66-2.11-.59-.23-1.25-.31-1.8-.61-.36-.2-.58-.65-.85-.96,.2-.37,.36-.65,.58-1.07-.1-.33-.21-.77-.36-1.19-1.05-2.77-.6-5.33,1.15-7.66,.36-.47,.99-.82,1.56-1.03,.38-.14,.88,.06,1.49,.13-1.17,2.04-2.67,3.7-3.42,5.7,.02,.4-.03,.74,.07,1.02,.33,.89,.72,1.77,1.01,2.47,.94,.96,1.85,1.54,3.02,1.52,.51-.52,.36-1.2,.5-1.81,.55-2.51,1.86-4.39,4.49-5.04,.57-.14,1.22-.21,1.68,.37-.39,1.44-2.2,1.3-2.54,2.2-1.23,1.64-1.91,3.08-1.55,4.77,.3,1.39,.72,2.77,2.03,3.62,.87-.67,.38-1.47,.46-2.17,.09-.79,.13-1.59,.19-2.3,.67-1.55,1.25-3.06,2.84-3.8,2.12-.54,4.1-.23,5.97,.92,1.53,.95,2.3,2.76,1.84,4.56-.32,1.25-.92,2.38-1.8,3.32-.69,.74-1.6,1.08-2.6,.91-.61-.11-1.2-.39-1.78-.65-.34-.15-.61-.2-.91,.03,.87,2.05,3.14,2.4,4.6,3.72,.08,.25-.07,.51-.48,.53-.95,.05-1.91,.03-2.87,.03l.08,.07c-.24-.49-.53-.67-.91-.12l-.19,.17c-1.94-.34-3.59-1.22-4.93-2.67-.43-.46-.88-.9-1.27-1.29-.44,.06-.78,.03-1.05,.15-.43,.19-.82,.5-1.24,.72q-3.38,1.81-7.23,2.53c.33,.39,.56,.87,.93,1.09,2.52,1.49,5.23,2.36,8.18,2.36,1.12,0,2.24-.05,3.35-.03,.27,0,.55,.22,.82,.35-.83,.83-2.02,.89-3.01,1.35-.8,.38-1.88-.14-2.63,.84,1.18,1.62,2.85,2.54,4.72,3.01,1.85,.46,3.69,1.05,5.65,1.02,.43,0,.86,.28,1.33,.45-.91,1.02-2.2,.55-3.18,1.03-.39,.19-.68,.58-1.1,.95,.42,.93,.81,1.79,1.18,2.62,1.51,1.52,3.01,2.94,4.9,3.9,.21,.1,.25,.52,.38,.79l.06-.07Zm-1.18-27.68c-.18-1.16-.7-1.77-1.37-2.21-.52-.34-1.11-.63-1.71-.77-.79-.19-1.58-.03-2.27,.47-.19,.23-.43,.46-.58,.73-.7,1.19-.58,2.44-.25,3.7,.01,.04,.14,.05,.21,.08,.42-.78,.31-2,1.64-2.04,.25,.17,.51,.34,.76,.5,.23,1.15,.55,2.2,2.17,2.05,.69-.58,1.12-1.4,1.39-2.51Z"/><path d="M33.69,148.26c.17-.8,.08-1.6-.23-2.34-.78-1.81-.93-3.68-.61-5.63,.42-.64,.85-1.3,1.28-1.95-.05-2-1.34-3.96-.17-5.99,.32,.06,.7,.02,.85,.19,.31,.35,.63,.78,.7,1.22,.76,4.29,2.61,8.15,4.58,11.97,.36,.71,.82,1.37,1.12,2.1,.17,.42,.12,.92,.17,1.39l.08-.08c-.52-.02-.9-.32-1.16-.72-1.3-2.01-2.56-4.03-3.84-6.05-.33-.52-.66-1.05-1.29-1.27-.07,.3-.25,.63-.2,.91,.23,1.25,.44,2.51,.83,3.72,.98,3.05,2.4,5.9,4.26,8.51,.68,.95,1.63,1.49,2.87,1.42,1.02-1.44,.32-3.1,.61-4.81,.19-.59,.42-1.35,.6-1.92-.38-2.23-.72-4.27-1.12-6.61-.3-.95-1.07-1.95-1.97-2.88-.46-.48-.66-1.07-.64-1.74l.11-.09c1.08,.13,1.22,1.4,2.58,1.9,.27,.09,.98,.33,1.69,.57,.1-.16,.27-.3,.26-.42-.26-2.66-1.25-5.17-1.65-7.8,0,0-.12,.11-.12,.11,.47-.05,.95-.09,1.4-.14,.18-.3,.35-.56,.51-.83,.15-2.59-1.43-4.93-.92-8.02,.33-.67,.87-1.79,1.41-2.91,.08,.04,.22,.07,.23,.11,.17,2.38,.37,4.76,.48,7.15,.05,1.11-.01,2.24-.1,3.35-.09,1.12-.08,2.22-.01,3.34,.12,1.91,.04,3.83,.03,5.75,0,.32,0,.66-.09,.95-1.42,4.03-.89,8.2-.88,12.53-.52,1.31-1.1,2.79-1.69,4.26-.57,6.4-.54,7.14,.49,9,4.46-.41,8.82,.19,12.94,2.28-.2,.16-.37,.42-.57,.44-.47,.04-.98,.06-1.42-.07-4.13-1.25-8.2-.98-12.21,.5-.3,.11-.6,.22-.56,.2-1.76-.08-3.19-.15-4.62-.21-1.92-.07-3.83-.11-5.67-.79-4.61-1.7-9.36-1.81-14-1.35-2.23,.46-4.08,1.38-5.94,2.53-.16-.46-.42-.88-.42-1.29,0-.66,.37-1.22,.92-1.6,1.19-.83,2.48-1.44,3.93-1.66,.16-.02,.32-.04,.47-.07,1.42-.24,2.83-.48,4.1-.69,2.05,.24,3.95,.52,5.86,.67,1.94,.15,3.75,.79,5.56,1.37,1.55,.49,3.1,.73,4.71,.65,.3-.01,.59-.21,1-.37-2.3-3.43-5.05-6.6-6.09-10.9,.18-.78,.39-1.7,.64-2.79-.2-.94-.43-2.02-.65-3.12,.16-1.01,.66-1.77,1.69-2.08,.7,2.36,1.31,4.75,2.14,7.07,.53,1.49,.81,2.97,.75,4.53-.36-.06-.67,.09-.67,.44,0,.35,.31,.5,.67,.45,.03,.32,.03,.64,.09,.95,.1,.48,.3,.89,.86,.98,.08,.46,.02,1.02,.26,1.37,.73,1.02,1.21,2.23,2.13,3.02,.55,.22,1.09,.23,1.18-.34,.15-.92,.05-1.88,.18-2.81,.16-1.09,.46-2.15,.7-3.25-.51-2.02-1.46-3.81-2.91-5.33-1.43-1.5-2.6-3.19-3.59-5.01-.3-.55-.68-1.07-1.09-1.55-.18-.21-.52-.29-.79-.43Z"/><path d="M36.56,47.38c.15,.62,.22,1.27,.47,1.85,.92,2.2,.81,4.34-.18,6.48-.13,.28-.15,.62-.25,1.05,.14,.33,.31,.75,.49,1.17q2.21-.55,5.08-2.5c.25-.71-.39-1.15-.52-1.75q1.26-1,3.91-.87c.12-.11,.26-.19,.35-.32,1.83-2.71,1.51-3.95-1.45-5.68-1.33-.11-2.19,1.22-3.5,1.15-.3-.21-.46-.51-.32-.83,.92-2.19,2.92-3.15,5.01-2.37,.73,.28,1.4,.73,2.12,1.12,.41,.73,.91,1.38,1.18,2.11,.57,1.56,.59,3.13-.36,4.59-.52,.8-1.11,1.56-1.8,2.53-.1,.4-.24,1.02-.39,1.64-.15,.62-.28,1.24-.49,1.84-.2,.58-.59,1.11-.38,1.77,.51,.46,1.16,.46,1.79,.55,1.13,.16,2.15,.58,3.05,1.26,.23,.17,.34,.51,.46,.8,.05,.11-.03,.28-.06,.53-.4,.11-.85,.35-1.27,.31-.79-.07-1.57-.25-2.33-.48-1.09-.33-2.19-.41-3.31-.31-3.5,.91-4.47,1.69-6.12,5.4-.15,1.09-.31,2.19-.47,3.33-.18-.12-.31-.16-.33-.23-.44-1.24-.35-2.5-.17-3.82,.59-1.78,1.28-3.55,2.77-5.21,1.03-.58,2.27-1.28,3.43-1.93,.64-.86,1.16-1.67,1.26-2.65,.05-.42-.14-.87-.24-1.39-2.33,.93-4.52,1.81-6.94,2.78-.4,1.29-.86,2.79-1.33,4.3-.4,1.31-1.27,2.18-2.5,2.74-1.22,.25-2.15-.41-3.05-1.06-.69-.5-1.39-.74-2.22-.63l.09,.1c.19-1.09,.39-2.17,.58-3.26-.1-.12-.18-.31-.3-.35-1.65-.55-3.31-1.09-4.83-1.58q-3.1-2.58-4.71-7.1c-.45-.09-.92-.19-1.38-.28l.08,.08c-.02-.35-.05-.69-.07-1.04h1.5c1.21-1.21,1.54-3.06,3.13-4.68,.75-.49,1.93-1.26,2.89-1.9,2.48-.52,4.66-.41,6.71-.02,1.92,.72,3.21,2.26,5.03,2.86,0,0-.1-.1-.1-.1Zm-4.76,13.55c-.12-.16-.25-.33-.3-.4,.07,.05,.24,.18,.4,.3-.24,.74-.48,1.47-.74,2.24,.47,.32,.86,.76,1.17,.75,.98-.02,1.55-.61,1.91-1.35,.41-.85,.83-1.73,.34-2.7-.05-.11-.22-.15-.34-.23-.92,.28-1.39,1.35-2.44,1.4Zm-3.78-2.99c.04,.12,.06,.26,.14,.36,.05,.06,.19,.04,.28,.06-.17-.11-.34-.22-.51-.33-.09-.55-.55-.69-.96-.94-1.91-1.16-2.41-2.27-1.98-4.35,.21-1,.79-1.72,1.77-2.32,.93-.27,2-.58,2.93-.84,2.14,.4,3.67,1.44,4.73,3.19,.2,.33,.32,.81,.97,.74,.32-2.27-.96-3.92-1.98-5.49-2.57-1.94-5.24-1.7-7.74-1.3-1.52,.82-2.52,1.82-3.39,3.25-.23,1.05-.5,2.28-.73,3.33,.45,1.27,.9,2.29,1.68,3.13,.91,.97,1.98,1.61,3.35,1.62,.48,0,.95-.06,1.43-.09Zm-.15-3.05c.93,.39,1.85,.42,2.57-.37,.58-.63,.57-1.4,.09-2.22-.34-.17-.75-.38-1.22-.62-.56,.24-1.12,.48-1.58,.68-.77,.98-.78,1.79,.13,2.53Z"/><path d="M168.17,119.37c-.46,.09-.93,.19-1.54,.31-1.13,1.17-2.38,2.38-3.53,3.69-.74,.83-1.5,1.62-2.34,2.36-1.79,1.59-3.16,3.53-4.37,5.6-3.22,5.49-5.77,11.27-7.78,17.3-.55,1.65-1.19,3.27-1.85,4.88-.09,.21-.5,.29-.76,.43l.08,.06c-.21-1.12-.12-2.23,.22-3.31,1.41-4.57,2.75-9.17,4.59-13.6,.67-1.62,1.4-3.22,2.2-4.79,1.53-3.02,3.48-5.73,5.94-8.08,1.5-1.43,2.95-2.93,4.39-4.42,.45-.46,.74-1.03,.61-1.8-.71-1.15-2.01-1.98-2.52-3.71v-2.53c.68-1.16,1.33-2.25,2.08-3.52,.69-.36,1.52-.81,2.18-1.16,.4,.05,.61,.01,.7,.1,.46,.42,.9,.88,1.39,1.38,.41,.05,.87,.11,1.65,.21,.39-.49,.88-1.1,1.31-1.63,1.5-.68,2.92-.29,4.34-.15,.39,.04,.82-.35,1.19-.52,.35-1.53,.4-2.93-.09-4.32-1.09-1.08-2.62-.92-4-1.63-.26,1.06-.48,1.96-.7,2.88-.11-.08-.24-.13-.25-.19-.14-1.27-.03-2.63-.46-3.78-.8-2.13-.79-4.4-1.46-6.53-.14-.45-.14-.94-.21-1.52,.27-.99,.55-2.07,.81-3.05-.1-.41-.08-.79-.26-1.01-1.08-1.4-1.89-2.94-2.53-4.66-.15-1.33-.55-2.74,.29-4.18,1.23,1.31,1.42,3.38,3.3,3.85,.52,1.56,.98,2.91,1.56,4.67,.57,.46,1.44,1.17,2.26,1.84-.71,1.18-1.49,.3-2.17,.4q-.53,1.88-.24,6.25c.19,.43,.42,1.02,.72,1.58,.3,.56,.67,1.08,.89,1.43,.8,.68,1.5,1.04,2.3,1.18,.21-.23,.54-.42,.58-.66,.1-.62,.12-1.27,.09-1.9-.13-2.38-.29-4.76-.44-7.08,.35-.64,.73-1.13,1.42-1.27l-.06-.07c.14,1.41-.02,2.84,.68,4.19,.6,1.15,.41,2.48,.47,3.75,.05,.94,.19,1.87,.35,3.35-.62,3.46-2.5,7.3-1.57,11.54-.37,.9-.69,1.79-1.1,2.65-.11,.22-.5,.29-.76,.43l.08,.07c-.11-1.11-.23-2.22-.33-3.25-.84-1.83-.86-1.81-2.17-2.4-1.26,.12-2.18,1.38-3.73,1.01-.87,.79-1.84,1.62-2.74,2.51-.15,.15-.06,.55-.08,.84,.72,.56,1.52,.39,2.28,.18,.61-.17,1.16-.51,1.74-.77,.72-.32,1.28-.98,2.14-.97,0,0-.08-.08-.08-.08-.04,.46,.05,.98-.15,1.35-.53,.98-1.35,1.72-2.57,2.43-.78,.21-1.84,.48-2.78,.73-.59-.08-1.05-.15-1.51-.21-.33,.2-.49,.5-.29,.77,.36,.5,.76,.99,1.23,1.4,.46,.41,1.09,.63,1.28,1.3,0,0,.09-.1,.09-.1Z"/><path d="M187.37,81.92c-.98,.03-1.96,.06-2.94,.09-.33-1-1.15-.94-1.95-.92-.02-.14,0-.3-.07-.43-.04-.08-.19-.09-.29-.14-.07,.22,.09,.37,.47,.46,.38,.84,1.09,1.01,1.91,.95,.07,.46,0,1.02,.23,1.36,1.79,2.56,2.66,5.38,2.73,8.5,.02,.76,.43,1.51,.57,2.28,.05,.25-.19,.56-.3,.85-.81-.45-1.86-.52-2.37-1.46,.7-.22,1.11-.76,.95-1.42-.41-1.69-.94-3.36-1.4-4.95-.67-1.01-1.28-1.93-1.78-2.69-1.22-.82-2.09-1.81-3.4-2.03-.88,.62-.91,.63-.9,.97,.04,1.11,.09,2.21,.14,3.28,.61,.85,1.11,1.67,1.73,2.38,1.06,1.2,2.25,2.25,3.62,3.11,.53,.33,1.04,.75,1.16,1.44-2.14-.2-3.81-1.35-5.29-2.77-.79-.76-1.54-1.55-2.48-2.13l.06,.07c-.42-2.52-.91-5.03-2.02-7.36-.27-.57-.65-1.08-1.03-1.69-.6-.18-1.19-.4-1.8-.55-3.11-.74-5.56-2.33-6.98-5.3-.21-.43-.41-.86-.71-1.48v-4.07c-.65-1.2-1.32-2.29-1.82-3.46-.24-.55-.18-1.25-.15-1.88,0-.21,.33-.4,.55-.65,1.49,1.91,2.96,3.79,4.31,5.51,1.47,1.09,2.88,1.82,4.55,1.81,1.03,0,1.89-.31,2.1-1.56-.5-1.29-1.02-2.62-1.58-4.05,.23-.7,.46-1.45,.77-2.39-.1-.6-.19-1.39-.39-2.15-.16-.61-.43-1.21-.71-1.78-.36-.71-.81-1.38-1.18-2.09-.28-.55-.68-1.11-.19-1.78,.89-.06,1.43,.53,1.79,1.18,.61,1.11,1.07,2.3,1.49,3.22v4.99c.48,1.27,.98,2.42,2.07,3.18,.25-.17,.6-.28,.71-.5,.81-1.75,1.81-3.37,2.9-4.96,1.19-1.74,2.64-3.21,4.38-4.38,.23-.15,.63-.21,.88-.13,.25,.09,.42,.42,.62,.64l.09-.08c-1.67,.72-2.79,2.05-3.74,3.52-1.55,2.39-2.97,4.85-4.07,7.47,0,.86,.41,1.54,.97,2.1,1.78,1.8,3.58,3.57,5.95,4.63,1.32,.59,2.44,1.46,3.3,2.64,.4,.55,.51,1.13,.38,1.78l.06-.05c-.51,0-.88-.29-1.21-.63-.9-.93-1.99-1.57-3.19-2.01-.4-.15-.9-.02-1.37-.02-.23,.51-.41,.92-.6,1.35,.89,1.41,1.98,2.52,3.41,3.29,.42,.22,.82,.46,.94,.98l.1-.1Zm-20.27-12.06c.76,2.49,1.65,4.33,3.02,5.9,.52,.59,1.17,1.06,1.78,1.55,.33,.27,.59,.21,.76-.21,0-.83-.01-1.77,0-2.72,.02-.95,.1-1.9,.08-2.85,0-.26-.29-.52-.51-.87-.72-.04-1.5-.03-2.26-.14-.76-.11-1.5-.34-2.88-.67Zm10.71,8.77c1.61-.29,2.38-1.08,2.44-2.44-.23-1.09-.79-1.75-1.82-1.95-.7-.13-1.16,.21-1.54,.78-.16,1.19-.48,2.44,.91,3.6Z"/><path d="M29.86,18.6c.07,.79,.03,1.57-.23,2.33-.84,2.55-1.47,5.15-1.51,7.85-.01,.94,.11,1.89,.29,2.81,.08,.41,.46,.77,.74,1.2,.64-.24,1.21-.45,1.78-.66l-.11-.09c.21,.22,.41,.61,.64,.64,2.61,.29,4.81,1.49,6.88,3.01,.12,.09,.29,.11,.74,.26,1.12-.04,2.54-.1,3.77-.15q3.55,1.28,4.09,2.26c-.25,.16-.51,.32-.9,.56-1.55-.54-3.18-1.12-4.83-1.66-.44-.14-.9-.04-1.16,.44,.43,.84,.85,1.69,1.33,2.64-.04,.55,.04,1.22-.15,1.8-.54,1.68-1.4,3.2-2.83,4.31-.22,.17-.58,.18-.87,.26l.07,.07c.05-.47,0-.98,.18-1.39,.51-1.16,1.2-2.24,1.4-3.9-.54-1.93-1.93-3.58-3.99-4.99-1.02-.32-2.23-.7-3.37-1.06-1.63,.43-3.15,.84-4.61,1.23-.44,.34-.88,.58-1.17,.94-.8,.97-1.54,1.99-2.36,3.06-.72-.52-1.44-1.05-2.08-1.52-3.21-.35-5.25,1.19-6.82,3.58-.63,2.1-.45,4.12,.36,6.09,.25,.59,.46,1.18,.39,1.83-.72-.29-1.44-.57-2.08-.83-5.67,2.07-6.27,2.43-10.6,6.14-.22,.19-.56,.23-.85,.34l.08,.06c-.07-.67,.1-1.27,.56-1.75,2.31-2.43,4.91-4.48,8.01-5.85,.71-.32,1.62,.06,2.23-.61-.17-1.08-.36-2.14-.5-3.22-.3-2.24,.52-4.04,2.19-5.49,.72-.62,1.47-1.2,2.19-1.78,.09-1.36-.83-2.37-1.13-3.98,0-1.51-.04-3.41,.03-5.3,.02-.47,.46-.75,1.02-.58,1.26,1.42,2.34,2.98,3.24,4.65,.32,.59,.38,1.2,.32,1.84l.09-.09c-.7-.05-1.09-.57-1.54-1.01-.55-.55-1-1.22-1.82-1.43-.38,.4-.32,.82-.1,1.27,.21,.42,.42,.84,.58,1.28,.16,.44,.2,.93,.4,1.35,.19,.41,.52,.75,.86,1.22h4.44c1.01-.86,2.2-1.86,3.21-2.71,.67-1.35-.31-2.35-.12-3.46,.32-1.85,.31-3.77,.83-5.58,.56-1.96,1.02-3.98,2.1-5.75,.13-.22,.5-.3,.77-.44l-.09-.08Z"/><path d="M183.54,125.13c-.61,.04-1.22,.03-1.82,.13-.23,.04-.41,.33-.62,.51,.46,.78,.92,1.55,1.38,2.33l.1-.1c-.65,.01-1.23-.2-1.81-.49-.83-.42-1.47-1.26-2.64-1.23-.35,1.33-.67,2.7-1.08,4.04-.11,.36-.48,.65-.89,1.19-.27-1.53-.45-2.78-.72-4.02-.27-1.24-.62-2.46-.96-3.77-.73-1.14-1.51-2.34-2.24-3.47,.24-1.41,1.89-1.17,2.32-2.24,.49-.69,.39-1.52,.51-2.29,.07-.48,.31-.88,.79-1.08l-.08-.07c.03,.63,.04,1.26,.09,1.89,.01,.13,.16,.26,.26,.41,.22-.14,.52-.23,.64-.42,.4-.68,.76-1.39,1.09-2.1,1.6-3.41,4.4-5.75,7.24-8.03,.34-.27,.9-.26,1.35-.39-.72,1.46-2.06,2.36-3.11,3.52-1.49,1.65-2.91,3.32-3.64,5.53,.49,.86,1.2,1.39,2.43,1.38,.47-.46,1.15-.93,1.55-1.58,.9-1.48,1.73-3.01,2.45-4.58,.45-.99,.68-2.1,.92-3.17,.11-.47-.14-.9-.7-1.01,.24-.44,.6-.71,1.08-.82,.9-.2,1.73,.3,1.74,1.08,.01,.78,.1,1.61-.12,2.34-.84,2.9-1.98,5.66-4.15,7.87-.44,.45-.85,.92-1.03,1.12-.77,1.19-.34,2.17-.5,3.09-.15,.93-.39,1.84-.58,2.73,.23,.62,.45,1.21,.67,1.79l.08-.08Zm-3.48-7.13c-.55-.48-1.14-.49-1.83-.25-.2,.34-.42,.74-.68,1.2,.24,.71,.49,1.43,.71,2.06,.69,.34,1.24,.6,1.78,.86,.57-.85,.57-1.14-.02-1.51-.26-.16-.56-.25-.89-.39,.32-.66,.63-1.32,.94-1.97Z"/><path d="M16.5,82.95c.15-.61,.28-1.23,.47-1.83,.74-2.43,1.53-4.85,1.62-7.44,.02-.59,.37-1.2,.66-1.74,.08-.15,.52-.1,.77-.14,.91,.75,.14,1.88,.69,2.7,.11,.06,.24,.2,.33,.18,.77-.21,1.52-.46,2.32-.71,.2-.18,.47-.36,.68-.6,.93-1.08,1.8-2.23,2.79-3.26,1.24-1.3,2.86-2.02,4.58-2.43,.93-.22,1.9-.26,2.86,.35-.26,.36-.44,.87-.79,1.04-.85,.41-1.8,.63-2.67,1-2.15,.91-3.77,2.35-4.45,4.64-.1,.7,.12,1.28,.49,1.82,.73,1.08,1.63,1.96,2.81,2.52,.73,.35,1.35,.81,1.79,1.55-2.1,1.31-2.68,3.42-2.98,5.68q1.31,1.78,5.63,2.97-1.75,.59-4.53-.12c-.83,.13-1.38,.76-2.05,1.16-2.05,1.24-4.24,2.14-6.6,2.63-.09,.02-.23-.2-.45-.41,.44-1.27,.88-2.61,1.35-3.94,.16-.45,.36-.9,.63-1.28,.16-.23,.49-.33,.75-.49l-.06-.06c.46,1.36-.3,2.46-.73,3.64-.11,.31,.09,.57,.47,.73,1.23-1.13,3.13-1.48,3.99-3.14-.27-.82-.51-1.56-.8-2.45,.28-1.12,.59-2.34,.9-3.57,.14-.07,.29-.12,.4-.22,.06-.05,.03-.2,.04-.3-.29,0-.41,.21-.35,.61-1.74,.02-3.47,.06-5.2,.03-.43,0-.86-.27-1.28-.41,.17-.78,.68-1.14,1.33-1.24,.93-.14,1.88-.17,2.83-.27,.62-.07,1.23-.18,1.83-.26-.01-.27,.03-.45-.03-.54-.96-1.24-1.93-2.47-2.88-3.68-.3,0-.66-.11-.88,.02-2.08,1.26-3.79,2.82-4.53,5.26-.17,.57-.64,1.08-1.05,1.55-.17,.2-.54,.24-.82,.35l.1,.09Z"/><path d="M141.24,1.37c.31,.03,.68-.04,.93,.1,1.74,.93,3.09,2.27,3.97,4.03,.79,1.57,1.5,3.17,2.28,4.83,.97-.64,1-1.78,1.39-2.73,.42-1.02,.96-1.99,1.43-2.95q1.46,.31,3.35-.22c1.03-.05,1.77,.68,2.57,.82,.34,.36,.59,.57,.77,.83,.73,1.05,1.37,2.14,1.78,3.38,.34,1.05,.81,2.06,1.21,3.08,1.66,.12,2.67-1.13,4.34-1.64,1.41-.33,3.15-.25,4.93,.14,.37,.24,.84,.43,1.16,.76,.78,.79,1.5,1.64,2.15,2.36,.18,.64,.33,1.09,.44,1.55,.11,.47,.17,.94,.29,1.41,.11,.46,.32,.91,.39,1.38,.07,.45,.01,.93,.01,1.51-.99-.58-1.26-1.52-1.47-2.29-.55-1.97-1.66-3.42-3.38-4.48-1.04-.51-2.14-.52-3.35-.31-1.91,.54-3.48,2.12-5.61,2.38-.82-.21-1.43-.69-1.98-1.53-.47-1.68-.99-3.51-1.42-5-.69-1.18-1.37-1.82-2.31-2.14-1.97,.23-3.1,1.54-4.13,3.27-.21,.73-.49,1.64-.73,2.57-.24,.9-.24,1.87-.73,2.72-.97-.6-1.04-1.68-1.62-2.39-1.95-2.38-3.14-5.17-4.46-7.9-.5-1.03-1.22-1.86-1.92-2.74-.17-.22-.15-.58-.22-.88,0,0-.06,.07-.06,.07Z"/><path d="M61.65,80.1c-.23-2.86,.31-5.74-.09-8.55-.71-1.57-1.83-2.68-3.25-3.65-1.81-.67-3.65-.76-5.2,.54-.47-.29-.73-.45-.98-.61-.17-.94,.36-1.55,1.11-1.88,.87-.38,1.81-.58,2.87-.91,1.29,.32,2.66,.67,4.11,1.04,.78-.75,.69-1.85,.69-2.92-.29-.11-.6-.36-.85-.31-.62,.13-1.19,.46-1.81,.6-2.36,.53-4.42-.11-6.17-1.74-1.45-1.35-2.47-2.94-2.32-5.93-.03,.15,.03-.67,.8-1.19,1.4,1.05,1.12,2.87,2.34,4.85,.47,.79,1.8,1.6,3.72,2.2,.93,.06,2.2,.15,3.35,.23,1.02-.25,1.91-.47,2.78-.69,.45,.75-.33,1.23-.14,1.83,.53,1.67,.96,3.37,1.59,4.99,.34,.87,.93,1.67,1.51,2.42,1.27,1.65,2.72,3.12,4.42,4.35,.5,.36,1,.8,1.01,1.53l.08-.1c-.64,.04-1.25-.05-1.77-.44-1.37-1.03-2.73-2.07-4.1-3.1-.37-.27-.76-.5-1.16-.77-.18,.28-.46,.5-.45,.71,.09,2.4-.72,4.6-1.52,6.79-.09,.25-.43,.42-.65,.63,0,0,.1,.1,.1,.1Z"/><path d="M26.02,66.59c-.04,.52-.34,.88-.74,1.15-2.3,1.6-4.82,2.37-7.57,1.91-2.47-.86-4.12-2.45-4.56-3.85-.84-2.4-.26-3.87-.79-5.23-.05-.12-.2-.19-.33-.3-1.5,.46-3.01,.93-4.75,1.46-1.97,.01-4.18,.53-6.41-.11-.29-.38-.58-.74-.88-1.13,.16-.64,.26-1.27,.49-1.85,.09-.24,.44-.39,.67-.58l-.11-.11c.07,.47,.13,.94,.21,1.53,2.34,.62,4.7,.55,7.08,.41,1.78-.11,3.4-.77,4.97-1.27,1.03-.92,1.98-1.77,2.78-2.48,.84-.2,1.46-.38,2.07,.27-.18,.35-.31,.79-.59,1.1-1.23,1.32-2.01,2.87-2.55,4.56-.09,.3-.08,.63-.14,1.14,.43,.83,.38,2.02,1.13,2.93q2.77,2,5.73,2.1c.92-.44,1.91-.96,2.95-1.38,.42-.17,.93-.13,1.4-.18l-.08-.07Z"/><path d="M165.31,87.68c-.23-.19-.63-.36-.67-.59-1.21-6.08-2.81-12.08-4.29-18.1-.99-4.02-2.21-7.98-3.98-11.75-.81-1.73-1.47-3.53-2.19-5.25,.25-.59,.67-.7,1.09-.4,1.05,.74,1.9,1.67,2.48,2.86,.76,1.58,1.52,3.15,2.06,4.83,1.11,3.49,2.22,6.97,2.78,10.61,.24,1.57,.53,3.15,1.02,4.66,.84,2.6,.63,5.39,1.57,7.95,.01,1.75,.03,3.5,.04,5.26l.1-.08Z"/><path d="M172.01,36.89c-.22-.87,.39-1.49,.66-2.13,.12-1.02-.91-1.29-1.15-2.03,.17-.95,1.29-.72,1.66-1.33,.73-1.05,.6-2.15,.41-3.32-.21-.36-.39-.82-.7-1.16-.42-.47-.94-.84-1.42-1.26-.33-.29-.65-.6-1.03-.95,1.59-.99,2.81-.51,3.84,.5,1.7,2.07,1.67,4.5,1.85,6.86,.54,.47,1.03,.86,1.48,1.3,.57,.55,1.24,1.06,1.61,1.73,1.79,3.18,3.53,6.38,4.15,10.04,.05,.27-.16,.59-.26,.9-1.26-1.46-1.77-3.28-2.54-4.97-.93-2.03-2.05-3.94-3.75-5.43-.47-.42-.99-.78-1.84-.67-1.13,.22-1.56,1.92-3.02,1.87l.05,.06Z"/><path d="M113.39,38.84c.89,.03,1.5,.62,1.91,1.26,2.05,3.22,4.61,6.06,6.82,9.16,.55,.77,1.11,1.55,1.74,2.26,3.36,3.8,6.75,7.59,10.13,11.38,.44,.49,.66,1.07,.63,1.73l-.14,.14c-.41-.22-.91-.35-1.21-.66-2.56-2.63-5.18-5.2-7.6-7.96-3.84-4.39-7.68-8.7-10.09-12.69-.66-1.09-1.32-2.18-1.89-3.32-.2-.4-.14-.93-.2-1.39l-.09,.09Z"/><path d="M60.64,34.92c-.29-.09-.67-.09-.86-.28-1.34-1.36-2.64-2.76-3.87-4.06-1.01-.45-1.87-.83-2.58-1.14-1.64,.25-2.41,1.21-3.09,2.71-.05,.97-.11,2.24-.17,3.46,.53,1.25,1.02,2.42,1.51,3.56-.48,.64-1.09,.74-1.68,.38-.53-.32-.98-.8-1.52-1.26-.3-1.38-.61-2.77-.92-4.17,.25-1.09,.5-2.18,.78-3.42,.49-.65,1.07-1.4,1.54-2.01,1.3-.72,2.45-1.25,3.82-1.29,1.93,.35,3.48,1.41,4.67,3,.76,1.02,1.47,2.09,2.11,3.19,.22,.37,.16,.91,.22,1.38l.04-.04Z"/><path d="M168.94,22.73q.32,3.61-.21,6.84c-.18-.17-.45-.31-.47-.47-.13-1.26-.21-2.52-.31-3.73-.6-1.69-1.26-3.29-2.31-4.69-1.02-1.09-2.31-1.63-3.73-1.95-.76-.17-1.55-.34-2.26-.65-.34-.15-.54-.63-.83-.99,.41-.18,.68-.37,.98-.41,1.26-.2,2.52-.16,3.81,.14,2.33,1.34,4.58,2.79,5.32,5.92Z"/><path d="M40.41,137.71c-.5-.06-.87-.36-1.12-.75-1.22-1.99-2.49-3.96-3.58-6.02-1.2-2.26-1.5-4.74-1.11-7.27,.07-.42,.4-.8,.61-1.2,.52-.05,.99-.09,1.45-.14l-.07-.09c.02,.47,.07,.95,.04,1.42-.15,2.09,.2,4.09,.97,6.02,.76,1.9,1.54,3.79,2.34,5.68,.31,.73,.68,1.42,.58,2.25l-.11,.09Z"/><path d="M15.79,70.48c.17,.25,.34,.49,.51,.74,0,1.04-.74,1.72-1.22,2.52-.11,.29-.26,.58-.33,.88-.25,1.07-.7,2.16-.64,3.22,.07,1.24-.67,2.08-.95,3.13-.36,1.36-.63,2.75-.96,4.21-.23-.25-.5-.4-.53-.6-.56-3.86,.27-7.57,1.4-11.22,.23-.74,.69-1.42,1.11-2.08,.36-.56,.9-.86,1.6-.8Z"/><path d="M32.78,15.74c.45,.06,.9,.11,1.41,.17,.86,1.79,1.1,3.71,1.29,5.55,.33,3.29,.43,6.62-.21,10.41-.25-.87-.46-1.26-.47-1.66-.03-3.52-.8-6.9-1.68-10.28-.36-1.37-.76-2.76-.34-4.2h0Z"/><path d="M186.34,57.05c1.17,.07,1.69,.89,1.84,1.87,.14,.93,.18,1.94,0,2.86-.61,3.13-1.43,6.21-3.04,9.01-.14,.25-.48,.38-.73,.56l.1,.1c.03-.63-.08-1.31,.11-1.89,1.22-3.64,1.76-7.37,1.53-11.21-.03-.46,.17-.93,.27-1.39l-.09,.08Z"/><path d="M163.58,60.72c-.67-.66-1.43-1.25-1.98-2-.45-.61-.74-1.38-.95-2.12-.09-.33,.19-.77,.3-1.17,.28,.08,.48,.07,.58,.17,1.19,1.25,2.37,2.51,3.38,3.58,1.83,.84,3.37,1.55,4.86,2.24,.18,.42,.06,.81-.3,.8-1.89-.06-3.7-.53-5.88-1.5Z"/><path d="M56.8,105.95c-.8-.49-1.6-.98-2.36-1.45h-.99c-.09-.12-.23-.22-.25-.34-.37-1.87-.76-3.73-1.07-5.61-.07-.44,.05-.95,.22-1.38,.18-.46,.59-.66,1.14-.33,.69,.92,.39,2.1,.63,3.17,.09,.3,.16,.62,.28,.91,.54,1.34,1.3,2.54,2.1,3.74,.23,.35,.16,.91,.22,1.37,0,0,.08-.09,.08-.09Z"/><path d="M145.15,75.19c-.46-.06-.92-.12-1.4-.18-2.48-2.17-4.67-4.61-6.92-7-.29-.31-.33-.84-.48-1.28l.19-.2c.15,.05,.35,.04,.45,.14,2.79,2.77,5.7,5.43,8.06,8.61,0,0,.1-.1,.1-.1Z"/><path d="M165.21,42.67c.46,.06,.99-.01,1.38,.2,1,.54,1.81,1.35,2.38,2.32,.72,1.23,1.33,2.54,1.97,3.82,.19,.37,.05,.57-.68,.97-.76-1-1.51-2.02-2.3-3.02-.69-.88-1.44-1.71-2.14-2.58-.41-.51-.61-1.11-.52-1.78l-.08,.07Z"/><path d="M169.81,40.95c1.98,2.22,4.11,4.34,7.17,5.82-.8,.25-1.14,.49-1.37,.41-2.64-.94-4.78-2.52-6.18-4.99-.22-.39-.21-.86,.37-1.24Z"/><path d="M158.61,34.86c.31,.03,.66-.03,.92,.1,.84,.41,1.64,.89,2.45,1.34,.45,.73,.92,1.36,1.24,2.07,.18,.39,.09,.91,.13,1.37h-.01c-.16,0-.36,.04-.47-.04-1.24-.98-2.49-1.95-3.69-2.97-.49-.42-.75-1.01-.72-1.7l.16-.16Z"/><path d="M108.69,16.74c.06-.46,.12-.93,.2-1.52,1.81-.45,3.67-.64,5.54-.62,1.38,.01,2.82-.19,4.31,.62-1.44,.68-2.84,.39-4.17,.54-1.4,.16-2.81,.14-4.29,.2-.52,.21-1.11,.44-1.69,.67l.1,.1Z"/><path d="M178.22,143.83c.65-.23,1.08-.06,1.24,.41,.4,1.23,.33,2.48-.21,3.65-.17,.37-.65,.6-1.15,1.04-.28-1.88-.51-3.53,.13-5.1Z"/><path d="M99.52,15.45c.15-.23,.3-.45,.49-.74,1.18-.19,2.41-.39,3.65-.59,1.19,.23,2.44,.27,3.48,1.11-2.29,.61-4.4,.83-6.84,.65-.27-.02-.53-.28-.79-.44Z"/><path d="M141.3,1.3c-.53,.17-1.19-.05-1.61,.5,.05,.84,.91,1.48,.62,2.42l-.02,.02c-.27-.12-.62-.17-.8-.38-.92-.99-1.1-2.22-1.04-3.52l-.1,.1c.47,0,.95-.02,1.42,0,.65,.04,1.24,.21,1.47,.92l.06-.07Z"/><path d="M178.22,151.74c.65,.59,.59,1.37,.57,2.14-.06,2.2-.07,2.2-.69,3.41-.65-1.78-.73-2.57-.41-4.9,.03-.23,.34-.43,.53-.65Z"/><path d="M171.91,38.86c1.84,.2,3.14,1.12,3.85,2.85l.1-.1c-1.84-.19-3-1.3-3.84-2.84l-.11,.09Z"/><path d="M30.93,32.14c.03-1.55,.05-3.11,.11-4.66,0-.2,.27-.4,.5-.72,.11,.56,.28,1.01,.25,1.44-.06,1.08-.17,2.16-.34,3.22-.04,.24-.41,.42-.62,.62l.11,.09Z"/><path d="M140.31,4.22c.14,.06,.34,.07,.42,.18,.71,.84,1.04,1.87,1.27,2.91,.08,.38-.1,.81-.2,1.4-.87-1.51-1.76-2.8-1.51-4.47l.02-.02Z"/><path d="M158.97,153.75c.49,1.11,.52,1.12,.1,3.46-.12-.25-.33-.48-.32-.7,0-.92-.22-1.87,.22-2.76Z"/><path d="M165.22,87.77c.23,.19,.45,.38,.7,.58,.18,1.18,.5,2.38,0,3.6-.14-.07-.28-.09-.3-.15-.44-1.34-.33-2.73-.3-4.11l-.1,.08Z"/><path d="M166.79,97.77q-.65-1.73-.09-3.68c.4,1.24,.52,2.42,.09,3.68Z"/><path d="M146.02,153.94c-.04,.93-.04,1.87-.13,2.8-.05,.47-.36,.84-.84,1.01l.11,.09c.03-.94,.03-1.88,.12-2.82,.04-.47,.34-.85,.83-1.02l-.08-.06Z"/><path d="M189.23,79.13c.25,.16,.6,.26,.73,.49,.31,.55,.52,1.16,.76,1.75-.59,.44-.94,.46-1.03,.03-.17-.77-.27-1.55-.41-2.32l-.06,.05Z"/><path d="M162.34,52.26c1.08,.08,2.2-.16,3.24,.38-1.72,.64-1.95,.59-3.17-.45l-.06,.07Z"/><path d="M163.35,39.74c1.42,.47,1.97,1.49,1.87,2.94l.08-.07c-.67-.34-1.34-.68-2-1.01l.1,.1c-.02-.64-.04-1.29-.06-1.93h.01Z"/><path d="M171.95,36.84c-.02,.67-.03,1.35-.05,2.02l.11-.09c-.73-.25-1.3-.69-1.6-1.41,.44-.51,.99-.57,1.6-.46l-.05-.06Z"/><path d="M71.12,76.28c.6,0,1.21-.02,1.81,.04,.36,.04,.56,.35,.4,.53-.17,.19-.51,.37-.75,.34-.61-.07-1.14-.37-1.38-1l-.08,.1Z"/><path d="M175.78,134.86c.15,.02,.3,.03,.44,.06q1.23,.29,1.46,1.82l.11-.1c-.93-.33-1.43-1.1-1.9-1.89l-.1,.1Z"/><path d="M157.51,107c.78,.07,1.55,.14,2.55,.23-1.12,.67-1.88,.61-2.46-.34,0,0-.09,.11-.09,.11Z"/><path d="M145.04,157.75c-.12,.48,.1,1.07-.42,1.45-.39-.68-.05-1.07,.52-1.36l-.11-.09Z"/><path d="M177.68,136.74c.24,.17,.57,.28,.68,.51,.11,.21-.02,.54-.04,.81-.09-.03-.22-.03-.25-.08-.08-.13-.12-.28-.15-.43-.06-.3-.09-.61-.13-.91l-.11,.1Z"/><path d="M168.08,119.47c.48,.05,.96,.1,1.53,.4-.86,.4-1.25,.15-1.44-.5l-.09,.1Z"/><path d="M161.37,85.89c.57,.27,.97,.62,.57,1.33-.57-.35-.33-.95-.46-1.43l-.11,.1Z"/><path d="M24.1,84.84c.02,.28,.06,.56,.05,.83-.03,.62-.34,1.03-1,1.09l.06,.06c-.1-.85-.14-1.67,.97-1.91l-.08-.07Z"/><path d="M161.48,85.79c-.96-.34-.93-1.16-.96-1.96l-.1,.09c.41,.11,.71,.37,.81,.77,.09,.39,.1,.79,.14,1.19l.11-.1Z"/><path d="M24.18,84.91c.02-.29,.02-.59,.08-.87,.08-.38,.28-.54,.48-.4,.09,.06,.15,.23,.15,.36,0,.14-.01,.33-.1,.4-.21,.18-.46,.29-.7,.44,0,0,.08,.07,.08,.07Z"/><path d="M16.39,82.86c-.02,.29,0,.58-.07,.85-.05,.2-.23,.38-.35,.56-.23-.2-.28-.47-.09-.74,.16-.22,.4-.39,.61-.59l-.1-.09Z"/><path d="M68.33,67.52c-.22-.2-.46-.38-.64-.6-.08-.1-.11-.33-.05-.43,.22-.34,.38-.25,.44,.24,.04,.3,.1,.6,.15,.89l.1-.1Z"/><path d="M1.16,58.06c.02-.27,.04-.54,.05-.81,.02-.6,.29-1.01,.9-1.15l-.08-.06c.01,.81-.18,1.52-.97,1.92l.11,.11Z"/><path d="M61.52,36.93c.23,.19,.48,.37,.68,.59,.08,.09,.1,.33,.04,.44-.21,.38-.38,.3-.46-.21-.04-.31-.1-.62-.15-.92l-.11,.1Z"/><path d="M61.63,36.84c-.96-.31-1.06-1.07-.99-1.91l-.04,.04c1.08,.3,.9,1.18,.92,1.97l.11-.1Z"/><path d="M137.45,26.36c.2-.22,.38-.47,.61-.66,.1-.08,.34-.1,.44-.04,.36,.22,.27,.38-.23,.44-.31,.04-.61,.1-.92,.15,0,0,.1,.11,.1,.11Z"/><path d="M29.96,18.68c-.04-.81,.03-1.57,.93-1.92l-.1-.1c-.03,.31-.03,.63-.09,.94-.09,.48-.32,.87-.83,1l.09,.08Z"/><path d="M138.45,.34l-.48-.34c.08,.03,.19,.04,.24,.1,.07,.1,.1,.23,.14,.34l.1-.1Z"/><path d="M32.78,15.74c-.34-.02-.67-.04-1.01-.06,0,0,.1,.09,.1,.09q.43-.78,.91-.03h0Z"/><path d="M31.78,15.68c-.1,.56-.53,.79-.99,.98l.1,.1c.22-.44,.47-.85,.99-.99l-.1-.09Z"/><path d="M108.59,16.64c-.33,.33-.66,.66-.99,.99l.09,.09c.16-.51,.5-.82,1-.98l-.1-.1Z"/><path d="M132.68,18.58c-.4,.02-.6-.1-.6-.37,.11,.02,.26,0,.31,.05,.1,.11,.14,.26,.2,.4,0,0,.08-.08,.08-.08Z"/><path d="M157.55,32.99c0,.34,0,.67,.01,1.01l.04-.04c-.62,.05-.95-.28-1.07-.86l.19-.17,.47-.03,.44,.15-.08-.07Z"/><path d="M21.3,34.88c-.62,0-.89-.37-.96-.94l-.09,.09c.62,.02,.89,.38,.95,.95l.1-.1Z"/><path d="M158.46,35.02c-.6-.1-.92-.43-.86-1.06l-.04,.04c.61-.03,.95,.27,1.05,.86l-.16,.16Z"/><path d="M21.2,34.97l.35,.31c-.04-.06-.14-.23-.25-.4,0,0-.1,.1-.1,.1Z"/><path d="M113.48,38.75c-.16-.14-.31-.27-.47-.41,.08,.04,.19,.06,.24,.13,.07,.11,.1,.25,.14,.37l.09-.09Z"/><path d="M135.52,40.68c-.34,.03-.75-.31-.66-.39,.66-.6,.55,.07,.61,.43l.05-.05Z"/><path d="M163.29,41.59c-.12,.17-.23,.33-.27,.39,.05-.04,.21-.17,.38-.29l-.1-.1Z"/><path d="M175.76,41.71c.41,.02,.6,.16,.57,.42-.11-.03-.26-.02-.31-.09-.09-.12-.12-.28-.17-.43l-.1,.1Z"/><path d="M69.23,42.56c-.12,.17-.25,.33-.37,.5,.04-.08,.05-.2,.11-.25,.1-.07,.24-.1,.36-.15l-.1-.1Z"/><path d="M37.55,46.42c-.09,.57-.38,.93-.99,.96l.1,.1c.15-.5,.41-.89,.97-.99l-.07-.07Z"/><path d="M54.8,57.06l.46,.41c-.08-.05-.18-.08-.22-.14-.07-.11-.09-.24-.13-.37l-.1,.1Z"/><path d="M27.94,64.65c-.11,.54-.38,.91-.97,.95l.09,.11c.12-.53,.34-.95,.97-.96l-.09-.1Z"/><path d="M135.36,65.8c-.56-.12-.87-.45-.89-1.03l.14-.14c.57,.03,.91,.33,1.04,.88l-.28,.28Z"/><path d="M26.97,65.6c0,.63-.35,.93-.95,.99l.08,.07c0-.64,.39-.89,.96-.96l-.09-.11Z"/><path d="M136.35,66.73c-.58-.05-.89-.37-.99-.93l.28-.28c.56,.11,.85,.46,.9,1.02l-.19,.2Z"/><path d="M68.23,67.62c.15,.13,.31,.26,.38,.32-.05-.08-.16-.25-.27-.42l-.1,.1Z"/><path d="M184.42,71.36c-.13,.19-.25,.38-.38,.56,.03-.1,.02-.24,.09-.29,.11-.09,.26-.12,.39-.17,0,0-.1-.1-.1-.1Z"/><path d="M59.68,75.31c.15-.15,.3-.3,.45-.44-.05,.09-.08,.22-.15,.25-.12,.06-.26,.06-.4,.08,0,0,.1,.11,.1,.11Z"/><path d="M145.05,75.29c.32,.32,.64,.64,.96,.96l.11-.1c-.55-.09-.86-.43-.96-.96l-.1,.1Z"/><path d="M146.01,76.25c.14,.16,.28,.31,.42,.47-.07-.06-.17-.1-.21-.18-.06-.12-.07-.26-.1-.39l-.11,.1Z"/><path d="M61.54,80c-.11,.18-.23,.35-.26,.41,.05-.04,.21-.18,.36-.31,0,0-.1-.1-.1-.1Z"/><path d="M187.28,82.02c.17,.11,.34,.23,.51,.34-.09-.03-.2-.03-.25-.09-.08-.1-.11-.23-.16-.35l-.1,.1Z"/><path d="M139.37,85.78c-.58-.06-.9-.38-.96-.96l-.07,.08q.81,.16,.96,.96l.08-.08Z"/><path d="M140.32,86.75c-.58-.06-.89-.39-.95-.96l-.08,.08q.81,.16,.94,.97l.08-.09Z"/><path d="M140.24,86.83c.63,.01,.95,.33,.95,.96l.1-.1c-.5-.13-.84-.43-.97-.94l-.08,.09Z"/><path d="M142.24,88.66c-.49-.15-.79-.49-.95-.97l-.1,.1c.59,.05,.92,.37,.95,.97l.1-.11Z"/><path d="M142.14,88.76c.39-.03,.6,.09,.62,.35-.1-.02-.24,0-.29-.06-.1-.11-.15-.26-.23-.4l-.1,.11Z"/><path d="M147.06,92.47l-.52-.34c.08,.03,.19,.04,.24,.09,.08,.1,.12,.23,.18,.35l.1-.1Z"/><path d="M146.96,92.58c.16,.14,.32,.27,.47,.41-.08-.04-.19-.07-.23-.14-.07-.11-.1-.25-.14-.37l-.1,.1Z"/><path d="M51.92,106.02c.46,.19,.9,.4,.95,.98l.1-.1c-.49-.15-.81-.48-.95-.98l-.1,.1Z"/><path d="M56.72,106.03l.76,.26c-.08,.11-.16,.21-.24,.32-.15-.22-.29-.45-.44-.67l-.08,.09Z"/><path d="M52.87,107c.23,.1,.46,.19,.69,.29-.08,.1-.15,.2-.23,.3-.12-.23-.24-.46-.37-.68l-.1,.1Z"/><path d="M172.97,111.78c.06-.37,.21-.53,.43-.49-.03,.1-.04,.25-.11,.29-.11,.07-.27,.08-.4,.11l.08,.08Z"/><path d="M42.33,119.46c.4,.05,.57,.21,.5,.48-.1-.04-.24-.06-.28-.14-.07-.13-.08-.29-.12-.44l-.09,.09Z"/><path d="M183.46,125.21c.23,.14,.45,.29,.68,.43-.11,.08-.21,.17-.32,.25-.09-.25-.19-.51-.28-.76l-.08,.08Z"/><path d="M182.48,128.1c.17,.11,.34,.23,.39,.26-.04-.05-.17-.2-.3-.36l-.1,.1Z"/><path d="M174.89,133.76c-.49-.15-.86-.42-.95-.96l-.09,.08c.5,.14,.79,.49,.93,.98l.1-.1Z"/><path d="M174.79,133.86c.47,.2,.82,.5,.99,1l.1-.1c-.33-.33-.66-.67-.99-1l-.1,.1Z"/><path d="M41.37,149.22c.33-.06,.58,.06,.68,.37,.02,.06-.17,.19-.26,.29-.11-.25-.23-.49-.34-.74l-.08,.08Z"/><path d="M37.53,162.66c0-.67,0-1.34,0-2.01,1.12,.67,2.04,1.48,1.91,2.96l.08-.08c-.28-.08-.57-.14-.83-.26-.4-.18-.78-.41-1.17-.61Z"/><path d="M36.57,160.75c0-.35,0-.71,0-1.06,.57,.13,.81,.6,1.06,1.05-.35,0-.71,0-1.06,.01Z"/><path d="M39.46,163.61c.22,.13,.45,.27,.67,.4-.1,.08-.2,.17-.3,.25-.1-.25-.2-.49-.3-.74l-.08,.08Z"/><path d="M17.49,51.3c-.82-.09-1.71-.03-2.06-1.05,.91-.08,1.55,.35,2.06,1.05Z"/><path d="M16.39,53.15c-2.76,2.34-6.7,4.14-10.26,4.65-.37,.05-.61-.21-.58-.48,.01-.15,.1-.31,.21-.42,.23-.22,.46-.46,.74-.59,.72-.35,1.44-.72,2.19-.97,2.12-.7,4.25-1.35,6.61-2.09h1.2l-.1-.1Z"/><path d="M17.39,52.18c-.11,.55-.53,.78-1,.97l.1,.1c.15-.5,.41-.9,.97-.99l-.08-.08Z"/></svg>