<?xml version="1.0" encoding="UTF-8"?><svg id="Layer_1" xmlns="http://www.w3.org/2000/svg" viewBox="0 0 195.41 160.95"><path d="M155.91,32.69c-.16,.25-.27,.64-.49,.74-1.92,.77-3.87,1.49-5.81,2.23-1.5,.57-2.88,1.36-4.25,2.18-2.14,1.28-3.71,3.01-4.75,5.25-.88,1.89-1.6,3.82-1.89,5.91-.3,2.21-.61,4.43-.96,6.63-.28,1.74-.83,3.41-1.51,5.03-1.48,3.52-3.84,6.23-7.4,7.82-.72,.32-1.5,.57-2.06,1.18q1.47,4.78,1.2,8.82-1.2,2.78-3.68,5.76c0,.78,.03,1.74-.03,2.68-.13,1.98-.87,3.7-2.18,5.21-2.29,2.63-5.22,4.15-8.53,5.04-1.39,.37-2.77,.77-3.8,1.05-4.44,2.19-7.43,7.8-7.26,11.63,1.22,.56,2.51,1.16,3.71,1.71q1.92,2.72,1.7,5.81c-.17,.27-.3,.59-.53,.79-.36,.31-.78,.54-1.06,.72-1.93,.52-3.25-.21-4.33-1.58-1-1.26-1.03-3.03-2.22-4.28-2.87,1.09-4.7,3.08-5.3,6.16-.21,1.1-.45,2.19-.63,3.06,.14,1.34,.19,2.48,1.19,3.24,.77-.19,1.52-.46,2.3-.55,2.76-.31,4.97,1.61,5.14,4.43,.02,.32,.02,.64-.02,.96-.06,.47-.17,.94-.24,1.34-.23,.33-.37,.63-.6,.84-.35,.32-.76,.57-1.08,.8-1.93,.58-3.55,.17-5.03-1.02-.61-.49-1.06-1.21-1.9-1.38-.27,.12-.64,.18-.79,.39-1.32,1.84-2.06,3.96-2.86,5.99-.38,2.1-.49,4.17-.48,6.26,.04,4.73,1.23,9.15,3.56,13.27,.23,.41,.42,.86,.53,1.32,.12,.51-.2,.89-.57,1.21-.16,0-.33,.04-.48,0-.3-.1-.58-.25-.95-.41-1.49-2.03-2.5-4.36-3.23-6.82-.82-2.76-1.51-5.55-1.55-8.45-.07-4.92,1.11-9.49,3.84-13.62,.53-.8,1.03-1.61,1.49-2.32q-.66-3.67-.39-8.34c.29-.78,.59-1.69,.96-2.57,1.03-2.46,2.72-4.3,5.18-5.39,.58-.26,1.14-.55,1.41-.68,.74-.73,.8-1.37,.86-2,.43-4.18,2.62-7.47,5.34-10.48,.77-.85,1.8-1.33,2.85-1.73,1.19-.45,2.41-.83,3.63-1.22,.46-.15,.94-.18,1.4-.33,3.79-1.2,7.04-3.08,8.7-7.17,.12-.85,.72-1.97-.54-2.88-.57,.11-1.19,.23-1.99,.38-.93-.2-2.02-.43-2.97-.63-1.52-.76-2.05-1.29-3.87-3.87v-2.18c.59-1.41,1.68-1.91,3.07-1.94,1.87-.04,3.4,.8,4.79,1.91,.87,.69,1.63,1.51,2.34,2.18,.9,.11,1.39-.3,1.76-.83,1.57-2.26,1.88-4.7,.94-7.3-.38-1.05-.64-2.16-1.71-2.93-1.09-.61-2.89-.29-3.35-2.11,.48-1.07,.99-1.46,1.65-1.28,.3,.09,.64,.12,.91,.27,1.72,.99,3.4,.75,4.99-.25,1.48-.93,2.9-1.98,4.28-2.93,1.98-3.12,3.08-6.41,3.37-9.98,.05-.64,.01-1.3,.17-1.91,.4-1.54,.7-3.1,.96-4.67,.18-1.07,.57-2.15,.89-3.21,.96-3.21,3.09-5.55,5.99-7.18,3.09-1.73,6.44-2.79,9.83-3.71,.74-.2,1.58,0,2.38,0l-.07-.08Zm-41.26,47.21c.44,.76,.69,1.36,1.08,1.84,.83,1.02,1.93,1.63,3.25,1.7,.64,.03,1.27-.16,1.7-.68,.16-.2,.16-.54,.27-.94-.61-.62-1.24-1.33-1.94-1.96-.99-.91-2.17-1.25-3.5-.93-.2,.23-.4,.45-.86,.98Zm-15.18,51.37c.98-.92,1.18-1.91,.53-3.03-.42-.73-1.09-1.11-2.12-1.15-.43,.2-1.06,.39-1.55,.76-.32,.23-.44,.72-.61,1.03,.62,1.14,1.32,1.97,2.49,2.47,.38-.02,.84-.05,1.26-.08Zm3.52-18.75c-.17,.25-.5,.5-.49,.74,.05,1.34,.69,2.42,1.68,3.3,.31,.27,1.05,.37,1.31,.1,.21-.22,.45-.53,.45-.8-.02-.62-.07-1.28-.3-1.85-.46-1.15-1.33-1.76-2.64-1.49Z"/><path d="M82.06,142.14c-.38-.27-.88-.46-1.12-.82-1.85-2.81-3.35-5.78-4.27-9.04-.45-1.59-.53-3.16-.14-4.73,.35-1.39,.84-2.74,1.28-4.1,.69-2.12,1.41-4.23,2.11-6.36-.33-1.61-.65-3.17-.93-4.52-1.02-2.12-2.4-3.62-4.33-4.74-.41,.12-.92,.14-1.28,.39-.91,.64-1.75,1.38-2.63,2.09-.48,.04-.95,.09-1.35,.12-1.04-.44-1.63-1.11-1.65-2.25,.19-.38,.4-.81,.63-1.23,.57-1.05,1.48-1.66,2.59-1.97,.75-.21,1.53-.34,2.08-.46,.92-.93,1.04-1.88,.97-2.85-.14-1.92-.59-3.79-1.33-5.55-1.09-2.63-2.88-4.57-5.76-5.47-.39,.11-.84,.24-1.37,.39-.48,.79-.95,1.62-1.47,2.41-.84,1.26-2.02,2.02-3.62,2.24-.35-.17-.76-.38-1.21-.6-.15-.46-.38-.9-.42-1.36-.11-1.2,.31-2.21,1.33-2.89,.66-.44,1.37-.79,2.04-1.22,.46-.3,.79-1.22,.59-1.7-.42-1.03-.87-2.04-1.31-3.05-.96-.9-1.9-1.76-2.96-2.75-.76-.27-1.66-.58-2.47-.86-.23,.13-.43,.18-.46,.27-.23,.76-.42,1.52-.66,2.42-.74,1.3-1.79,2.47-3.22,3.28-1.39,.52-2.82,.43-4.26,.3-.85-.08-1.73-.99-1.88-1.92-.19-1.17,.06-2.22,.8-3.15,.7-.9,1.56-1.6,2.58-2.1,.99-.49,1.99-.97,2.77-1.35,.57-.81,.47-1.43,.17-2.01-.66-1.27-1.37-2.52-2.09-3.84-1.11-1.08-2.25-2.19-3.14-3.07-2.81-1.65-5.72-1.98-8.38-3-.16-1.15,.78-1.13,1.44-1.39,1.57,.26,3.14,.53,4.97,.83,5.04,2.24,8.39,6.31,10.2,11.4,.72,.92,1.58,.88,2.31,1.14,2.99,1.08,5.19,3.07,6.71,5.84,.53,.98,1.03,1.97,1.59,3.04,.37,.17,.77,.49,1.21,.55,2.69,.4,4.72,1.84,6.34,3.93,.29,.38,.57,.77,.79,1.08,.9,1.82,1.45,3.65,1.97,5.49,.45,1.59,.5,3.13-.04,4.7-.15,.44-.18,.92-.26,1.32,.46,1.02,1.38,1.43,2.16,1.94,3.22,2.09,5.22,8.7,3.9,12.08-.52,1.33-.92,2.72-1.41,4.07-.59,1.65-1.21,3.28-1.72,4.67-.2,2.06,0,3.76,.49,5.48,.7,2.46,1.51,4.87,2.69,7.15,.31,.59,.4,1.2,.32,1.85l.09-.1Zm-33.86-56.71c.65,.03,1.12,.11,1.59,.07,.46-.05,.92-.22,1.34-.33,1.16-.94,2.25-1.86,1.91-3.66-.34-.16-.73-.35-1.05-.51-1.43,.63-2.67,1.32-3.59,2.45-.39,.47-.77,.99-.19,1.99Z"/><path d="M96.41,29.83c.8-1.83,2.37-3.02,3.87-4.12,3.25-2.38,6-5.24,8.93-8.48,1.02-1.92,2.21-4.17,3.22-6.07,.5-1.97,.47-3.57,.37-5.16-.1-1.53-.78-2.73-2.04-3.56-.81-.32-1.61-.34-2.38-.11-2.8,.82-5.34,2.11-7.41,4.2-1.46,1.47-2.97,2.89-4.03,4.71-.47,.8-1.05,1.62-2.05,2.02-.35-.26-.73-.54-1.13-.83-.48-1.69-.91-3.39-1.45-5.05-.45-1.37-1.11-2.63-2.22-3.63-1.2-1.08-3.23-1.01-4.3,.23-.31,.36-.65,.72-.87,1.13-.6,1.12-1.14,2.28-1.71,3.43-.08,1.45-.2,2.88-.21,4.31-.01,1.11,.11,2.23,.15,3.16,.89,3.44,1.96,6.6,3.66,9.52,.88,1.51,1.82,2.99,2.76,4.47,.68,1.08,1.39,2.13,2.11,3.24-.19,.46-.36,.86-.53,1.26-.37-.14-.78-.17-.93-.38-1.03-1.41-2.03-2.85-3-4.3-.44-.66-.75-1.41-1.22-2.05-2.13-2.89-3.25-6.18-4-9.63-.23-1.09-.65-2.14-.83-3.23-.52-3.24,.64-8.66,2.54-11.45,1.12-1.65,1.41-1.94,4.16-3.04,2.81,.28,4.54,2.07,5.68,4.48,.61,1.28,.95,2.69,1.43,4.08,.2-.03,.55,.03,.7-.11,1.61-1.55,3.19-3.13,4.77-4.7,2.11-2.09,4.77-3.16,7.53-3.99C108.54-.02,109.2,0,109.84,0c.99,0,1.86,.37,2.62,1.01,.87,.73,1.55,1.6,2.07,2.79,.55,2.05,.46,4.27,.22,6.36q-1.41,4.09-4.37,8.99c-1.69,1.66-3.57,3.62-5.57,5.45-2.12,1.93-4.29,3.84-6.99,4.96-.43,.18-.91,.22-1.37,.32l-.05-.05Z"/><path d="M97.36,40.39c.33,2.27-.7,4.05-2.12,5.63-.63,.7-1.45,1.24-2.14,1.82-3.45,1-7.09,.81-10.79,2.75-.04,.03-.53,.44-1.06,.8-2.93,2.03-3.84,4.95-3.77,8.4,.28,.7,.51,1.47,.88,2.17,.44,.84,1,1.63,1.55,2.5,2.64,1.75,5.29,3.51,8.58,3.95,.46,.06,.91,.29,1.34,.49,.58,.27,1.13,.59,1.56,.81,1.81,1.76,2.38,3.92,2.89,6.26-.29,1.27-.61,2.66-.92,3.99-.7,1.16-1.31,2.29-2.03,3.34-1,1.44-2.08,2.8-3.34,4.06-2.37,2.37-4.64,4.86-5.74,8.86v5.04c1.01,4.46,3.26,8.35,5.3,12.23-.28,.64-.69,.74-1.13,.48-1.13-.66-2-1.6-2.59-2.77-.93-1.85-1.82-3.73-2.7-5.53-.04-3.15-1.23-6.06-.82-9.61,.43-2.79,1.86-5.57,4.1-8,1.95-2.11,3.77-4.35,5.74-6.63,.93-1.53,1.58-3.32,2-5.18-.22-1.13-.43-2.23-.63-3.25-.34-.87-.96-1.37-1.71-1.69-.88-.38-1.78-.72-2.71-.98-3.13-.86-5.92-2.37-8.6-4.47-.55-.78-1.2-1.7-1.82-2.57-.36-1.45-.72-2.84-1.12-4.47,.3-1.32,.66-2.87,1.03-4.49,.93-1.23,1.89-2.51,2.8-3.73,1.65-1.41,3.31-2.65,5.58-3.42,2.91-.25,6.13-.45,8.97-2.45,1.01-1.08,2.06-2.28,2.77-3.74,.12-.25,.47-.38,.72-.57,0,0-.08-.07-.08-.07Z"/><path d="M75.03,156.04c-.28,.47-.4,.78-.61,1-.31,.33-1.03,.22-1.22-.14-.15-.28-.35-.55-.43-.85-.12-.46-.23-.94-.24-1.41-.06-5.19-1.56-10.09-3.38-14.85-1.94-5.07-4.44-9.9-7.59-14.35-4.31-6.1-9.67-11.01-16.52-14.15-3.48-1.59-7.15-2.68-10.84-3.66-3.38-.9-6.78-1.73-10.17-2.56-.77-.19-1.56-.28-2.35-.38-.47-.06-.97,0-1.43-.1-1.24-.27-2.46-.68-3.71-.86-1.25-.18-2.52-.16-4.06-.24,.45-.27,.63-.47,.82-.48,1.12-.04,2.24,.02,3.35-.06,1.48-.11,2.83,.36,4.2,.77,2.6-.26,4.97,.97,7.52,1.11,1.57,.09,3.17,.49,4.64,1.04,1.66,.63,3.4,.83,5.09,1.28,1.69,.46,3.38,.82,4.98,1.61,.98,.48,2.13,.61,3.43,.95,1.76,.95,3.71,2.02,5.68,3.08,1.13,.61,2.13,1.38,3.12,2.2,3.23,2.68,5.79,5.95,8.17,9.35,2.19,3.13,4.28,6.33,5.87,9.84,2.19,4.82,3.68,9.84,4.89,14.97,.18,.77,.17,1.58,.26,2.38,.16,1.42,.34,2.85,.54,4.53Z"/><path d="M7.83,92.76c-1.51,.64-2.18,2.21-3.41,3.18-.82,.29-1.56,.37-1.95-.9,.63-1.94,1.32-4.04,2.03-6.22-.29-.58-.54-1.16-.85-1.7-.82-1.39-1.89-2.56-3.04-3.68-.31-.31-.43-.82-.62-1.2,.5-.61,1.1-.77,1.74-.68,1.57,.2,3.14,.45,4.69,.68,.86-.7,.63-1.76,.95-2.64,.27-.74,.5-1.52,1.1-2.12,1.03,.44,.65,1.59,1.18,2.31,.55,.76,.89,1.66,1.34,2.54,1.17,.17,2.26,.34,3.36,.5,.33,.39,.63,.75,.87,1.03,.18,1.97-1.54,2.78-2.32,4.3-.33,1.48,.03,3.02,.6,4.52,.35,.92,.47,1.86,.39,2.82-.07,.84-.44,1.54-1.24,1.9-.24,.11-.59,0-1.04-.03-1.32-1.37-1.52-3.85-3.79-4.59Z"/><path d="M188.95,85.41c-3.89,.69-7.66,1.42-11.52,1.05-.57-.05-1.19,.05-1.66-.45,1.76-.77,3.54-1.43,5.48-1.49,2.57-.08,5.07-.56,7.67-1.28,1.77-.87,3.54-1.93,4.3-3.85,.27-1.03,.05-1.77-.62-2.33-.75-.64-1.63-1.04-2.64-.89-.63,.09-1.25,.28-1.85,.48-.6,.21-1.17,.5-1.76,.74-.44,.18-.88,.34-1.41,.54-.37-.21-.75-.44-1.12-.65v-1.2c.42-.69,.92-1.49,1.5-2.43,.28-1.25,.6-2.65,.89-3.94-.42-1.33-.56-2.68-2.29-3.21-.41,.12-1.06,.21-1.59,.5-3.05,1.66-5.34,4-6.49,7.35-.73,2.11-1.53,4.19-1.74,6.45-.09,.94-.45,1.86-.64,2.79-.15,.78-.22,1.57-.3,2.18-.36,.79-.81,1.14-1.52,1.06-.16-.28-.44-.54-.45-.81-.04-.79-.06-1.6,.06-2.38,.3-2.04,1.12-3.99,1.21-6.07,1.07-3.18,2.08-6.39,4.38-8.98,.21-.24,.4-.5,.66-.84,1.63-1.4,3.44-2.68,5.94-3.38,.51,.09,1.33,.1,2.03,.41,.7,.31,1.28,.9,1.87,1.34,.41,1.15,.79,2.19,1.19,3.29-.45,1.68-.9,3.34-1.34,4.99,.39,.51,.87,.29,1.29,.1,1.77-.79,3.44-.42,5.07,.39,1.08,.54,1.67,1.46,1.82,2.64,.19,1.5-.17,2.88-1.16,4.02-1.37,1.58-2.91,2.96-5.25,3.83Z"/><path d="M150.13,108.04c-1.56,1.41-3.07,1.99-4.48,2.72-5.54,2.87-10.84,6.12-16.03,9.57-4.27,2.84-8.07,6.25-11.81,9.72-.12,.11-.26,.2-.35,.33-1.89,2.76-4.34,5.16-5.87,8.13-1.89,3.67-3.83,7.37-4.65,11.49-.25,1.25-.53,2.5-.85,3.73-.31,1.24-.66,2.47-1.04,3.68-.07,.22-.39,.36-.6,.54-.65-2.73-.7-5.06,0-7.53,2.07-7.32,5.33-13.97,10.41-19.74,2.33-2.66,4.83-5.06,7.53-7.33,2.59-2.18,5.52-3.79,8.36-5.57,1.21-.77,2.42-1.55,3.66-2.27,1.93-1.13,3.85-2.28,5.83-3.31,2.84-1.47,5.72-2.84,8.6-4.22,.23-.11,.59,.02,1.3,.06Z"/><path d="M33.1,36.09c.08,.93,.52,1.6,1.28,1.97,1,.48,2.04,.89,3.1,1.24,1.06,.35,2.15,.58,3.24,.86,1.08,.27,2.24,.12,3.27,.67,.08,.79-.44,1.08-1.06,1.23-.3,.07-.64,.1-.95,.05-.94-.15-1.88-.4-2.82-.53-.95-.13-1.91-.17-3.07-.26-.7-.31-1.63-.6-2.44-1.09-1.84-1.1-3.35-2.85-2.32-5.6,.84-1.59,2.35-2.13,4.19-2.76h4.15c1.67,.47,3.49,.99,5.43,1.54,.73-1.78,.23-3.58,.64-5.65,.62-1.37,.64-3.47,2.52-4.59,.31-.08,.61-.23,.92-.24,1.57-.06,2.6,.55,3.02,1.83,.3,.91,.49,1.85,.76,2.91-.29,3.05-.92,6.16-1.9,9.1-.28,.32-.59,.24-.64-.2-.32-2.72,.02-5.41,.42-8.23-.23-.78-.5-1.7-.76-2.6-.71-.16-.98-.07-1.14,.31-1.11,2.71-1.8,5.44-.76,8.38,.26,.73,.16,1.58,.22,2.29-.25,.33-.45,.57-.71,.9-.4-.07-.99,0-1.27-.26-1.97-1.79-4.41-2.54-6.85-3.29-1.39-.43-2.82-.58-4.25-.16-1.14,.33-2.02,.93-2.17,2.17Z"/><path d="M109.84,57.67c0,.47,.11,.98-.01,1.41-.22,.76-.55,1.49-.88,2.21-4.34,9.4-7.92,19.07-10.81,29.02-1.47,5.03-3.13,10.01-4.56,15.06-.17,.59-.56,1.13-.93,1.63-.12,.16-.52,.14-.79,.12-.1,0-.24-.22-.28-.36-.28-.95-.1-1.9,.12-2.82,.33-1.39,.67-2.78,1.09-4.15,1.9-6.06,3.83-12.12,5.78-18.17,.44-1.36,1.02-2.67,1.56-4,2.62-6.49,5.61-12.81,8.74-19.07,.22-.44,.51-.78,1.05-.82l-.06-.05Z"/><path d="M102.6,50.56c.56,.33,1.09,.64,1.49,.88,.81-.13,1.43-.28,2.05-.29,.24,0,.48,.33,.73,.51,.05,1.3-1.06,1.88-1.72,2.74-.58,.75-1.21,1.46-1.67,2.02-.22,.9-.05,1.5,.16,2.11,.26,.75,.46,1.52,.64,2.29,.14,.61-.44,1.19-1.49,1.51-.71-.55-1.46-1.13-2.18-1.69-1.26-.41-2.09,.71-3.18,.8-.35,.01-.61-.13-.77-.47-.07-.14-.13-.28-.18-.4,0-.33-.07-.66,.01-.96,.25-.92,.6-1.81,.83-2.74,.11-.44,.02-.94,.02-1.28-.66-1.47-2.27-1.96-2.81-3.36,.16-.26,.32-.52,.47-.78,.56-.44,1.22-.25,1.84-.3,.62-.05,1.25-.14,1.7-.19,1.35-1.1,1.2-2.77,2.2-3.99,.31-.07,.73-.17,1.07-.24,.65,.58,.55,1.23,.59,1.87,.04,.63,.12,1.25,.2,1.97Z"/><path d="M139.62,91.28c-.02,.53-.36,.86-.74,1.15-2.68,2.02-5.39,3.99-8.03,6.06-2.26,1.77-4.63,3.47-6.62,5.52-3.44,3.55-6.59,7.39-8.62,11.99-.97,2.19-1.88,4.41-2.85,6.6-.26,.58-.61,1.12-.94,1.66-.07,.12-.26,.18-.41,.22-.26,.07-.52-.1-.59-.49-.21-1.12-.13-2.23,.27-3.31,2.74-7.51,7.02-13.96,13.17-19.11,3.8-3.19,7.89-5.99,11.94-8.85,.65-.46,1.35-.87,2.07-1.2,.41-.18,.93-.14,1.4-.2,0,0-.04-.04-.04-.04Z"/><path d="M146.3,138.29c1.91-.18,3.34,.59,4.48,2.21-.56,1.47-1.18,2.9-1.65,4.37-.43,1.35-.71,2.75-1.05,4.15-.49,.72-1.14,1.01-2.13,.57-1.24-1.08-1.75-2.84-2.94-4.11-.89-.9-2.4-.88-3.11-2.13,0-.27-.1-.62,.02-.88,1.05-2.28,1.9-4.66,3.06-6.8,.45-.05,.74-.08,1.19-.12,.71,.91,1.48,1.89,2.24,2.86-.47-.04-.94-.07-1.39-.1q-1.23,1.03-2.27,3.99c.05,.14,.06,.33,.15,.42,1,.92,2.02,1.82,3.09,2.79,.34-.87,.63-1.6,.91-2.33,.34-.85,.67-1.7,1-2.54-.51-.55-.96-.99-1.34-1.49-.17-.23-.19-.57-.28-.86Z"/><path d="M71.52,79.72c-.25-.18-.59-.31-.73-.55-.84-1.53-1.68-3.07-2.42-4.65-1.56-3.32-3.43-6.46-5.32-9.59-2.14-3.56-4.62-6.87-7.23-10.08-1.3-1.6-2.66-3.16-3.99-4.75-.09-.11-.09-.3-.14-.45,.18-.21,.32-.54,.55-.61,.27-.09,.65-.05,.9,.08,1.29,.68,2.27,1.76,3.18,2.86,3.56,4.3,6.83,8.81,9.23,13.88,1.97,4.17,4.09,8.27,5.86,12.31v1.66l.1-.09Z"/><path d="M71.21,159.69c-.27,.48-.38,.79-.59,1.02-.25,.28-.61,.32-.79,.08-.28-.37-.55-.79-.69-1.23-.24-.75-.41-1.54-.57-2.32-.95-4.59-2.77-8.8-5.47-12.63-.73-1.04-1.52-2.05-2.39-2.98-1.74-1.87-3.56-3.66-5.32-5.52-.64-.67-1.47-1.2-1.79-2.13,.21-.35,.51-.48,.81-.25,.76,.57,1.54,1.13,2.24,1.77,1.75,1.63,3.43,3.34,5.19,4.97,4.74,4.4,7.39,9.91,8.73,16.14,.2,.93,.39,1.87,.64,3.07Z"/><path d="M120.67,56.18c-.41-1.04,.18-1.91,.18-2.87-.28-.53-.56-1.09-.85-1.65,.33-1.33,.35-1.31,1.98-1.09,.88-.57,1.79-1.15,2.65-1.7,1.31,.55,2.31,1.27,3.08,2.32,.37,1.38,.53,2.78,.39,4.2-.03,.3-.21,.58-.32,.86-.58,.52-1.16,.06-1.84,0-.42,.31-.91,.67-1.45,1.07-1.24-.44-2.6-.62-3.81-1.13Z"/><path d="M67.6,52.94c.15,.06,.34,.08,.44,.18,.21,.23,.4,.48,.55,.75,1,1.81,1.59,3.8,2.46,5.66,.88,1.87,1.79,3.72,2.49,5.68,.37,1.04,.86,2.06,1.45,2.99,.69,1.08,1.28,2.19,1.73,3.39,1.17,3.13,2.38,6.24,3.5,9.39,.13,.36-.16,.86-.29,1.45-.52-.3-1.04-.43-1.24-.75-.58-.94-1.1-1.94-1.52-2.97-1.25-3.1-2.43-6.22-3.64-9.34-.52-1.33-.94-2.71-1.55-4-.82-1.73-1.6-3.48-2.08-5.33-.4-1.57-1.28-2.91-1.86-4.39-.36-.92-.55-1.82-.36-2.79l-.08,.08Z"/><path d="M32.14,88.37c-1.04,.45-1.15,1.93-2.4,2.13-.33,.7-.66,1.4-.99,2.1-.64-1.12,.05-2.53-.85-3.65-1.22,.64-2.46,1.28-3.59,1.87-.3-.07-.46-.08-.6-.15-.14-.06-.32-.15-.37-.27-.1-.26-.26-.61-.17-.82,.27-.6,.82-.94,1.4-1.23,.57-.28,1.15-.57,1.32-1.3-.57-.46-1.17-.93-1.74-1.43-.11-.09-.21-.33-.16-.42,.12-.24,.31-.58,.51-.61,.62-.1,1.25-.07,1.88-.09,.13,.16,.25,.31,.3,.37-.06-.04-.23-.15-.39-.27,.13-.43,.26-.86,.4-1.32,.52,.1,.96,.19,1.39,.27,1.17-.3,.76-1.67,1.51-2.24q.51,.14,.65,3.49c.27,.22,.62,.5,.97,.78l-.11-.11c-.14,.43-.29,.87-.45,1.37,.35,.28,.73,.51,1.02,.83,.19,.2,.27,.51,.4,.77l.08-.09Z"/><path d="M178.08,49.95c-.82-.07-1.58,.1-2.41,.64-.28-.31-.58-.64-.97-1.07-.76,.16-1.65,.35-2.46,.53-.31-.32-.65-.51-.69-.75-.05-.26,.11-.61,.29-.84,.18-.24,.48-.4,.75-.55,.41-.24,.85-.43,1.27-.65,.28-.15,.54-.32,.82-.48,.13-1.14-1.25-1.23-1.49-2.12-.05-.37,.07-.69,.42-.78,.9-.24,1.83,.51,2.76-.04,.1-.06,.46,.29,.68,.47,.24,.2,.44,.44,.66,.66,.15,.01,.32,.07,.45,.02,.81-.31,1.01-1.17,1.55-1.73,.31-.32,.71-.55,.99-.77,1.35,.22,1.19,1.5,1.87,2.19-.76,.57-1.52,1.13-2.37,1.76,.23,.57,.44,1.12,.66,1.68,0,0,.1-.1,.1-.1-.31,.02-.63,.02-.94,.05q-1.58,.15-2.05,1.97l.11-.1Z"/><path d="M58.08,107.57c-.3-.07-.7-.04-.87-.22-.97-1.04-1.94-2.1-2.82-3.22-2.35-3-4.64-6.05-7-9.04-.98-1.25-2.08-2.4-3.04-3.51-1.64-1.44-3.66-2.14-5.09-3.64,.05-.18,.04-.38,.14-.48,.22-.21,.48-.37,.79-.6,2.36,.57,4.23,1.95,5.84,3.77,2.43,2.74,4.59,5.69,6.76,8.64,1.6,2.18,3.12,4.41,4.69,6.61,.38,.54,.6,1.11,.52,1.77l.08-.07Z"/><path d="M69.26,38.18c-.8-.76-.4-1.85-.68-2.38-.67-.69-1.1-1.14-1.48-1.54-.23-.85,.19-1.23,.82-1.48,.3-.11,.59-.24,.9-.36,.37-.82,.75-1.66,1.09-2.41,1.53-.25,1.97,1.09,3,1.7,.52-.13,1.11-.28,1.75-.44,.44,.17,.64,.59,.5,1.05-.18,.6-.49,1.16-.81,1.87,.18,.8,.39,1.69,.58,2.54-.4,.61-.86,.13-1.2,.17-1.68,0-2.85,1.51-4.49,1.28Z"/><path d="M111.76,73.99c.1,.65-.06,1.23-.37,1.82-1.33,2.53-2.66,5.05-3.92,7.61-1.12,2.27-2.16,4.57-2.64,7.11-.16,.87-.32,1.91-1.22,2.48-.76,.07-1.17-.35-1.29-1.02-.08-.45-.07-.96,.04-1.41,.64-2.63,1.64-5.13,2.94-7.51,1.59-2.93,3.4-5.72,5.33-8.44,.28-.39,.69-.63,1.21-.59l-.07-.06Z"/><path d="M33.13,20.3c0-1.09,1.17-1.45,1.46-2.36-.37-.9-1.7-.89-1.87-1.98,.78-.69,1.82-.2,3.02-.73,.3-.31,.85-.87,1.39-1.44,.49-.51,.42-1.49,1.37-1.62,.27,.75,.54,1.48,.79,2.17,.58,.09,1.05,.17,1.52,.24,0,0-.1-.1-.1-.1-.51,.78-1.02,1.57-1.56,2.39,.78,.38,1.43,.71,2.29,1.12-.82,.18-1.43,.31-2.04,.45-.89,.47-1.3,1.35-1.86,2.27-.37-.73-.68-1.35-1.02-2.03-.73,.46-1.38,.93-2.08,1.27-.41,.2-.92,.18-1.38,.26,0,0,.09,.09,.09,.09Z"/><path d="M129.09,146.99c-.13,.27-.18,.67-.39,.81-1.63,1-3.3,1.93-4.94,2.91-2.35,1.42-4.39,3.18-5.96,5.45-.45,.65-.89,1.31-1.35,1.95-.24,.33-1.03,.45-1.27,.16-.19-.23-.35-.53-.39-.83-.05-.3,0-.65,.11-.93,.18-.44,.41-.87,.68-1.26,.93-1.31,2.02-2.48,3.32-3.42,2.59-1.88,5.3-3.56,8.3-4.71,.56-.21,1.25-.11,1.87-.15,0,0,.02,.03,.02,.03Z"/><path d="M135.75,134.45c.14,.76-.06,1.59,.53,2.24-.83,1.05-1.7-.43-2.46,.03-.5,.33-.6,.75-.52,1.24,.1,.58,.59,1.15,.06,1.76-1.29-.17-1.33-1.56-2.15-2.24-.88-.1-1.8-.2-2.84-.31,.51-.74,.92-1.35,1.34-1.95-.15-.58-.3-1.15-.44-1.66,.34-.83,.77-1.46,1.55-1.71,1.03-.13,1.04,1.07,1.76,1.3,.31-.06,.62-.12,.95-.19,.75,.52,1.53,1.04,2.3,1.57l-.07-.08Z"/><path d="M17.45,131.13c-.28,.42-.57,.99-1,1.45-.96,1.03-2.22,1.23-3.46,.66-1.37-.63-1.68-.99-2.78-3.19,.19-.33,.36-.78,.66-1.09,.15-.15,.68-.18,.83-.04,.69,.62,1.31,1.33,1.96,2,.31,.31,.78,.15,1.08-.37,.07-.13,.07-.31,.1-.46-.03-1.14-1.32-1.65-1.39-2.78,1.11-.43,1.81,.35,2.51,.89,.88,.68,1.61,1.54,1.48,2.94Z"/><path d="M121.32,26.09c.3-.6,.77-.95,1.45-1.04,.97-.13,1.92-.06,2.65,.63,.55,.53,.98,1.19,1.4,1.71-.04,1.77-.85,2.79-2.31,3.35-1.76,.03-1.75,0-3.66-1.31-.24-.47-.6-1.16-.92-1.8,.18-.91,.58-1.53,1.5-1.66,.41,.64,.75,1.34,1.24,1.91,.25,.29,.75,.36,1.14,.53,.52-1.28,.28-2.03-.66-2.21-.59-.11-1.21-.08-1.82-.12Z"/><path d="M34.32,143.6c.8-.34,1.5-.64,2.19-.93,.05-.73-.87-1.48,.1-2.07,.6,.28,1.17,.55,1.74,.82,.73,.46,.75,1.37,1.34,2.05,.45,.26,.99,.57,1.52,.87,.18,.23,.09,.45-.28,.66-.27,.15-.58,.27-.79,.48-.21,.21-.28,.56-.49,.79-.2,.22-.49,.35-.83,.59-.35-.2-.76-.4-1.14-.64-.4-.26-.76-.58-1.15-.84-.4-.26-.84-.45-1.21-.74-.35-.28-.63-.65-.99-1.03Z"/><path d="M20.17,51.49c-.17-.37-.5-.78-.54-1.22-.11-1.26-.18-2.54-.15-3.81,.07-3.18,.2-6.35,.34-9.53,0-.23,.24-.45,.45-.81,.11,.58,.27,1.03,.28,1.49,.16,3.81,.08,7.63,.84,11.4,.12,.6,.02,1.28-.11,1.89-.1,.45-.46,.79-1.11,.6Z"/><path d="M15.42,52.89c-2.1-3.13-3.44-6.49-4.38-10.03-.07-.25,.17-.57,.27-.86,.12,.04,.3,.04,.34,.11,1.68,3.23,3.35,6.46,5.02,9.7,.06,.13,0,.31,0,.59-.35,.13-.74,.29-1.25,.48Z"/><path d="M139.94,82.54c-1.56-.06-2.23-.91-2.82-1.84-.43-.68-.41-1.71,.01-2.18,.46-.5,1.06-.61,1.69-.52,.46,.06,.92,.12,1.35,.28,1.85,.68,1.94,2.76,.69,3.69-.25,.18-.52,.32-.93,.57Z"/><path d="M120.03,22.72c-.87-.24-1.37-.86-1.44-1.71-.29-3.5-.1-6.99,.11-10.74,.39,.38,.65,.51,.67,.67,.27,2.21,.25,4.44,.81,6.64,.34,1.36,.2,2.85,.22,4.28,0,.28-.23,.57-.36,.86Z"/><path d="M128.09,13.52c0,.47,.16,.99,0,1.4-.96,2.5-1.82,5.03-2.53,7.62-.12,.43-.47,.8-.7,1.17-.77-.13-1.11-.61-1.31-1.24,.99-3.33,2.05-5.89,3.46-8.23,.25-.41,.6-.71,1.13-.67l-.06-.05Z"/><path d="M146.23,117.88c.57,1.21,.39,2.21-.64,3.02-.93,.38-1.86,.38-2.76-.1-.7-.37-.94-.66-1.84-2.17,.25-.36,.51-.74,.77-1.11,1.59-.51,3.12-.9,4.47,.37Z"/><path d="M164.94,72.61c-.01-.31-.03-.62-.05-1.07,.37-.11,.79-.36,1.18-.31,.44,.05,.91,.29,1.27,.57,1.16,.91,1.21,2.28,.18,3.3-.47,.47-1.03,.72-1.89,.65-.26-.13-.74-.28-1.08-.58-1.05-.94-.93-1.57,.39-2.57Z"/><path d="M155.25,58.09c1.15,.37,1.63,1.15,1.75,2.14,.09,.8-.02,1.57-.98,2.27-.37,.04-.98,.18-1.58,.13-.96-.08-1.62-1.05-1.53-2.02,.06-.66,.31-1.25,.8-1.64,.48-.38,1.08-.62,1.54-.87Z"/><path d="M15.76,115.78c.34-1.03,1.07-1.45,2.12-1.42,1.21,.03,2.06,.56,2.46,1.73,.09,.68-.2,1.22-.63,1.68-.66,.7-1.74,.81-2.54,.26-.79-.54-1.41-1.2-1.41-2.25Z"/><path d="M144.85,69.76c1.76-.85,3.15-1.59,4.59-2.18,1.31-.53,2.29-1.66,3.62-1.94,.57,.33,.76,.75,.51,1.2-.22,.4-.52,.84-.9,1.06-2.06,1.2-4.29,1.93-6.66,2.17-.28,.03-.59-.15-1.17-.31Z"/><path d="M4.59,64.34c.28-.61,.32-.92,.5-1.05,2.17-1.57,4.56-2.72,7.11-3.52,.36-.11,.83,.17,1.4,.3-.39,.47-.63,.89-.98,1.15-.37,.27-.84,.41-1.28,.58-2.04,.77-4.09,1.54-6.74,2.53Z"/><path d="M157.91,88c.67-.96,1.33-1.28,2.19-1.18,1.77,1.39,1.84,1.58,1.19,3.52-.37,.22-.76,.47-1.11,.68-.75,.06-1.29-.24-1.75-.69-.61-.6-.73-1.36-.51-2.33Z"/><path d="M21.7,56.9c.72,.51,1.08,1.15,.93,2.03-1.5,1.94-1.89,2.05-3.8,1.05-.45-.82-.95-1.63-.68-2.65,1.11-.77,2.32-.76,3.55-.42Z"/><path d="M20.78,135.35c-.31-2.4-.26-2.49,1.3-3.34,1.06,.38,2.12,.74,2.47,2-.37,1.8-.45,1.88-2.47,2.23-.36-.25-.75-.52-1.3-.9Z"/><path d="M41.65,125.9c.34-.93,1.04-1.11,1.9-.9,.83,.21,1.34,.81,1.7,1.57,0,1.08-.52,1.83-1.57,2.08-1.27,.3-2.12-.38-2.78-1.37-.06-.7,.12-1.25,.86-1.48,.06,.13,.1,.28,.18,.38,.05,.06,.18,.06,.28,.09-.19-.12-.37-.24-.56-.37Z"/><path d="M19.84,123.27c1.42-.52,2.44-.64,3.24,.44q-.12,1.72-1.93,2.71c-.91-.2-1.83-.39-2.17-1.45-.11-.71,.39-1.13,.86-1.7Z"/><path d="M19.46,65.48q.97-.98,1.86-.09c.34,1.45-.8,2.68-.6,4.17,.16,1.21,.23,2.52-.37,3.69-.13,.02-.3,.06-.3,.05-.84-2.6-.64-5.27-.58-7.81Z"/><path d="M7.13,52.94c.32-.04,.64-.14,.95-.1,1.5,.2,4.98,1.38,6.25,2.16,.21,.13,.38,.54,.35,.8-.03,.25-.29,.59-.53,.68-.26,.09-.64,0-.91-.13-1.87-.88-3.74-1.78-5.58-2.73-.22-.11-.3-.5-.45-.76l-.07,.08Z"/><path d="M140.98,61.16c.18-.12,.35-.31,.44-.28,2.33,.86,5.02,.54,7.32,2.15-.54,.24-.92,.55-1.33,.58-.62,.05-1.29,.02-1.87-.17-1.2-.38-2.39-.84-3.54-1.35-.4-.18-.68-.61-1.02-.93Z"/><path d="M29.25,61.16c-.41-.17-.84-.43-.65-.99,.08-.23,.44-.48,.71-.52,2.76-.33,4.81-.2,7.96,.47-1.41,.56-2.86,.34-4.26,.53-1.24,.16-2.48,.33-3.76,.5Z"/><path d="M141.99,123.36c.99,.39,1.52,1.08,1.42,2.18-.35,1.05-1.13,1.52-2.18,1.47-.87-.04-1.47-.49-1.58-1.43,.06-.14,.08-.32,.19-.43,.64-.69,1.31-1.35,2.16-1.79Z"/><path d="M153.12,71.16c.05-.15,.07-.34,.17-.45,1.06-1.17,2.14-2.33,3.18-3.45,.24,.03,.44,0,.54,.09,.23,.19,.41,.44,.61,.66-.04,1.05-.65,1.74-1.45,2.33-.95,.69-1.98,1.01-3.14,.73l.1,.09Z"/><path d="M150.76,97.48c-1.42,1.63-1.83,1.6-3.17-.11-.12-1.06,.32-1.76,1.35-2.07,1.38,.15,1.55,1.22,1.82,2.18Z"/><path d="M145.35,54.86c2.25,.95,2.45,1.09,4.41,3.25-.16,.22-.31,.6-.49,.62-.45,.04-1,.06-1.35-.17-1.22-.78-2.12-1.85-2.5-3.29-.04-.15,0-.31,.01-.47l-.07,.07Z"/><path d="M105.35,37.89c.16,.17,.34,.28,.32,.36-.26,1.99-.77,3.9-1.9,5.67-.29-.25-.5-.39-.65-.59-.08-.11-.05-.3-.04-.46,.12-1.95,.9-3.59,2.27-4.98Z"/><path d="M161.27,56.53c-.05-.55-.19-.89-.08-1.09,.13-.23,.46-.45,.73-.5,1.46-.25,2.77,.11,3.84,1.17-.53,.59-.53,.6-4.5,.42Z"/><path d="M32.53,121.69c.12-.32,.4-.54,.69-.38,1.38,.77,2.75,1.57,4.09,2.41,.17,.11,.29,.55,.21,.76-.12,.32-.49,.38-.84,.28-.15-.04-.31-.06-.45-.13-1.47-.69-2.76-1.59-3.7-2.93Z"/><path d="M165.41,62.96c-.99-.19-1.08-1.1-1.63-1.57-.58-.5-1.14-1.02-1.69-1.51,.17-.96,.94-1.33,1.58-.85,.9,.67,1.57,1.51,1.83,2.6,.1,.4-.06,.87-.1,1.33Z"/><path d="M39.5,129.04c.06,.51-.18,.85-.62,1.04-1.32,.59-2.69,.7-4.13,.35,.28-1.14,1.35-1.14,2.08-1.47,.82-.37,1.8-.56,2.67,.08Z"/><path d="M140.61,29.81c-2.04,.21-4.07,.37-6.06-.29-.33-.11-.48-.38-.38-.75,.03-.13,.19-.24,.32-.32,.12-.08,.27-.12,.47-.2,.72,.14,1.48,.3,2.25,.42,.78,.13,1.56,.18,2.33,.34,.47,.09,.81,.43,.99,.9l.08-.1Z"/><path d="M109.92,29.89c.04-.15,.02-.37,.12-.45,1.26-.95,2.61-1.65,4.25-1.62,.48,0,.85,.18,1.08,.61-.19,.69-.75,.99-1.35,1.16-1.37,.38-2.76,.56-4.18,.22,0,0,.07,.08,.07,.08Z"/><path d="M156.98,98.7c-.07,.29-.14,.58-.21,.87-.49,.43-1.04,.59-1.69,.37-.47-.16-.77-.47-.98-.9-.34-.7-.17-1.14,.68-1.83,.95,.17,1.72,.61,2.19,1.49Z"/><path d="M152.42,52.47c.25,.03,.63-.03,.73,.11,.73,1.05,1.01,2.2,.64,3.46-.04,.12-.18,.22-.27,.32-.65-.16-1.08-.56-1.25-1.2-.25-.9-.34-1.81,.16-2.7Z"/><path d="M58.54,5.59c.12-.35,.43-.58,.68-.38,1.12,.9,1.81,2.13,2.37,3.43,.13,.31-.05,.57-.35,.7-1.44-.86-2.17-2.24-2.7-3.76Z"/><path d="M112.7,22.24c.31,.02,.64-.05,.91,.06,1.32,.53,2.41,1.39,3.22,2.56,.13,.19,.19,.62,.07,.76-.17,.19-.53,.2-.93,.33-1.21-1.09-2.59-2.09-3.19-3.79l-.09,.09Z"/><path d="M142.79,102.6c-.7-.11-1.09-.54-1.17-1.22-.08-.67,.37-1.33,.92-1.41,.5-.07,.9,.13,1.15,.56,.16,.26,.26,.56,.38,.84-.23,.62-.63,1.06-1.28,1.24Z"/><path d="M58.97,10.5c-.9-.46-1.88-.95-2.83-1.48-.26-.14-.43-.45-.64-.68,.22-.14,.48-.45,.66-.41,1.24,.29,2.36,.84,3.18,1.86,.08,.1,.19,.3,.15,.36-.07,.12-.25,.18-.52,.34Z"/><path d="M97.44,40.46c-.15-.94-.08-1.85,.3-2.73,.36-.84,.72-1.69,1.09-2.54,.44,.53,.45,1.18,.31,1.74-.26,1.04-.63,2.06-1.03,3.06-.08,.2-.49,.27-.75,.4,0,0,.08,.07,.08,.07Z"/><path d="M114.6,47.08c.15,1.91-.42,3.54-1.89,4.81l.1,.09c-.19-1.92,.6-3.46,1.89-4.79l-.1-.11Z"/><path d="M96.46,29.88c-.51,1.43-1.55,2.26-3,2.6-.09,.02-.23-.19-.45-.39,.69-.65,1.34-1.34,2.08-1.89,.34-.26,.88-.26,1.32-.37,0,0,.05,.05,.05,.05Z"/><path d="M136.89,19.45c-.93,1.5-2.19,2.51-4.01,2.68l.08,.08c.66-1.68,1.89-2.7,3.65-3.07l.28,.3Z"/><path d="M68.89,13.56c.08-.32,.18-.68,.26-.99,1.36-.09,2.26,.41,2.88,1.46-1.12,.71-2.08,.23-3.15-.46Z"/><path d="M64.03,14.47c-.32-.23-.73-.44-1.01-.75-.23-.26-.12-.6,.13-.83,.11-.1,.21-.27,.33-.29,.58-.09,1.11-.51,1.75-.27,.64,1.23-.33,1.61-1.2,2.15Z"/><path d="M160.78,50.04c.02,.16,.08,.33,.04,.48-.37,1.43-1.13,2.56-2.67,3.25-.08-.54-.32-1.06-.17-1.38,.56-1.16,1.35-2.16,2.75-2.39,0,0,.05,.04,.05,.04Z"/><path d="M41.27,132.1c.65,.21,1,.68,1.01,1.33,0,.25-.18,.62-.39,.74-.29,.17-.58-.04-.71-.36-.24-.58-.29-1.15,.09-1.7Z"/><path d="M155.98,32.77c.2-.22,.36-.57,.6-.65,1.18-.35,2.36-.36,3.79,.14-1.64,.51-3.05,.43-4.46,.43,0,0,.07,.08,.07,.08Z"/><path d="M113.84,34.5c-.55-.13-.71-.31-.68-.57,.44-.7,1.08-1.09,1.88-1.18,.41-.05,.85,0,1.08,.63-.8,.39-1.61,.78-2.29,1.11Z"/><path d="M14.87,68.27c-.02-.63-.11-1.26-.04-1.88,.1-.82,.58-1.39,1.4-1.61,.1,.13,.29,.25,.29,.37-.04,1.14-.5,2.11-1.31,2.9-.1,.1-.3,.09-.45,.13,0,0,.1,.08,.1,.08Z"/><path d="M160.8,68.29c-.03-.91-.11-1.83-.08-2.74,.01-.44,.22-.86,.35-1.34,.97,.99,.98,1.14,.42,3.6-.26,.13-.51,.27-.77,.4,0,0,.08,.08,.08,.08Z"/><path d="M32.16,84.61c.22-1.08,1.02-1.48,1.99-1.65,.09-.01,.21,.19,.31,.3-.62,.76-1.29,1.4-2.38,1.28l.07,.07Z"/><path d="M54.75,15.83c.67-.46,1.41-.52,2.18-.36,.13,.03,.28,.14,.36,.25,.14,.2,0,.43-.4,.49-.9,.14-.91,.12-2.13-.38Z"/><path d="M139.65,91.32c.44-1.42,1.52-1.88,2.89-1.91l-.06-.07c-.43,1.42-1.44,1.99-2.86,1.94l.04,.04Z"/><path d="M136.61,19.15c.63-1.27,1.62-1.91,3.06-1.72l-.08-.08c-.43,1.3-1.44,1.86-2.7,2.1l-.28-.3Z"/><path d="M58,107.64c1.22,.58,2.03,1.43,1.91,2.89l.08-.08c-1.49-.4-1.9-1.5-1.91-2.88l-.08,.07Z"/><path d="M132.01,146.08c.17-.24,.29-.6,.52-.69,.87-.32,1.77-.39,2.62,.15-1.03,.5-2.13,.42-3.22,.44l.07,.09Z"/><path d="M62.88,114.28c-1.42-.44-1.91-1.49-1.9-2.87l-.1,.1c1.21,.57,1.91,1.48,1.9,2.86l.09-.09Z"/><path d="M44.11,132.23c.22-.17,.41-.45,.65-.48,.43-.06,.76,.33,.8,.96,.03,.44-.1,.89-.17,1.41q-.84-.67-1.28-1.89Z"/><path d="M140.53,29.91c1.08-.03,2.17-.18,3.33,.29-1.71,.74-2.02,.7-3.25-.4l-.08,.1Z"/><path d="M44.13,122.44c.21-.65,.22-1.44,1.18-1.66,.04,.47,.14,.93,.1,1.38-.05,.65-.5,.74-1.28,.29Z"/><path d="M39.82,121c-.93-.56-1.18-1.3-.59-2.29,.82,.68,.42,1.58,.49,2.39l.1-.1Z"/><path d="M135.82,134.53c.86-.98,.97-1,2.24-.46-.72,.43-1.52,.38-2.3,.38l.07,.08Z"/><path d="M129.06,146.96c.13-.42,.39-.8,.84-.84,.7-.07,1.41-.04,2.11-.05l-.07-.09c-.15,.49-.51,.8-.99,.88-.61,.1-1.24,.09-1.87,.13l-.02-.03Z"/><path d="M127.21,41.32c-.23-.16-.56-.27-.66-.49-.25-.55-.29-1.13,.08-1.74,.68,.68,.38,1.54,.48,2.3,0,0,.1-.08,.1-.08Z"/><path d="M127.12,41.4c.51,.17,.75,.56,.83,1.05,.07,.44,.09,.9-.4,1.17-.54-.7-.37-1.51-.33-2.29l-.1,.08Z"/><path d="M14.77,68.19c0,.8,.28,1.64-.44,2.33-.5-.93-.43-1.7,.54-2.24l-.1-.08Z"/><path d="M67.58,4.88c-.05,.78,.11,1.61-.41,2.43-.58-1.08-.47-1.83,.52-2.33l-.11-.1Z"/><path d="M67.69,4.97c.05-.3,.1-.6,.16-.9,.03-.15,.09-.29,.14-.43,.63,.34,.17,.68-.02,1-.07,.12-.25,.16-.38,.24,0,0,.11,.1,.11,.1Z"/><path d="M128.15,13.57c.01-.3,0-.6,.05-.89,.07-.38,.35-.59,.45-.44,.13,.21,.2,.57,.1,.78-.1,.22-.43,.34-.66,.5,0,0,.06,.05,.06,.05Z"/><path d="M66.73,17.32c-.22-.16-.53-.28-.63-.49-.09-.2,.04-.51,.08-.76,.09,.03,.22,.03,.26,.09,.08,.11,.14,.25,.16,.39,.03,.28,.02,.57,.03,.86,0,0,.1-.08,.1-.08Z"/><path d="M140.65,16.45c.2-.23,.39-.48,.62-.68,.1-.08,.34-.11,.44-.04,.35,.24,.26,.45-.23,.52-.31,.05-.62,.06-.94,.1,0,0,.1,.1,.1,.1Z"/><path d="M61.93,19.33c.01-.31,0-.63,.04-.94,.05-.4,.24-.61,.45-.51,.11,.05,.18,.24,.2,.37,.02,.14,0,.35-.08,.44-.21,.21-.47,.37-.71,.55,0,0,.1,.09,.1,.09Z"/><path d="M66.63,17.4c.21,.18,.52,.32,.61,.55,.09,.21-.06,.52-.1,.78-.09-.04-.21-.06-.26-.13-.08-.12-.13-.27-.14-.4-.02-.29-.02-.59-.02-.88,0,0-.1,.08-.1,.08Z"/><path d="M61.83,19.24c-.03,.3-.04,.61-.09,.91-.06,.4-.22,.6-.41,.49-.1-.06-.16-.24-.18-.37-.01-.14,0-.34,.09-.43,.2-.2,.45-.35,.69-.51,0,0-.1-.09-.1-.09Z"/><path d="M109.85,29.82q-.52,.64-1.32,.55c.33-.59,.92-.36,1.39-.48l-.07-.08Z"/><path d="M132.95,38.44c-.23-.15-.53-.26-.66-.47-.1-.18,0-.48,.02-.72,.1,.02,.23,.01,.28,.07,.09,.1,.16,.24,.18,.38,.04,.28,.05,.56,.08,.85l.1-.1Z"/><path d="M65.77,49c-.22-.17-.54-.3-.65-.52-.1-.2,.03-.5,.06-.76,.09,.03,.21,.04,.26,.1,.08,.12,.14,.26,.15,.4,.04,.29,.05,.58,.07,.88l.1-.09Z"/><path d="M153.77,49.07c-.04,.13-.04,.32-.13,.38-.2,.14-.33-.04-.27-.44,.02-.12,.15-.23,.24-.34,.05,.13,.11,.26,.16,.39Z"/><path d="M65.66,49.09c1.06,.26,.97,1.11,.98,1.91l.09-.08c-.43-.07-.75-.31-.85-.72-.1-.39-.08-.8-.11-1.2l-.1,.09Z"/><path d="M3.01,51.36c.13-.03,.27-.11,.39-.09,.44,.09,.49,.25,.11,.39-.11,.04-.28-.01-.4-.07-.06-.03-.07-.15-.1-.23Z"/><path d="M67.68,52.86c-.45-.04-.79-.28-.88-.71-.09-.4-.05-.82-.07-1.24l-.09,.08c1.02,.3,.94,1.15,.96,1.94l.08-.08Z"/><path d="M7.2,52.85c-.51,0-1-.07-1.57-.38,.84-.42,1.26-.18,1.5,.47l.07-.08Z"/><path d="M112.71,51.89c0,.8-.09,1.56-.97,1.91l.11,.09c.02-.41-.01-.84,.08-1.24,.1-.42,.43-.66,.89-.68l-.1-.09Z"/><path d="M145.43,54.79c-.23-.17-.55-.3-.66-.53-.1-.2,.04-.52,.07-.78,.09,.03,.23,.02,.28,.09,.09,.11,.16,.26,.18,.4,.04,.29,.04,.59,.06,.89l.07-.07Z"/><path d="M111.74,53.8c-.02,.32-.01,.64-.08,.95-.1,.48-.33,.88-.88,.98l.09,.08c-.02-.81-.12-1.67,.97-1.92l-.11-.09Z"/><path d="M110.79,55.73c-.02,.41,.01,.83-.08,1.22-.1,.41-.43,.66-.87,.73l.06,.05c-.03-.82-.15-1.68,.97-1.92l-.09-.08Z"/><path d="M111.83,74.06c-.04-.82,0-1.59,.95-1.92l-.09-.09c.09,.84,.09,1.64-.93,1.95l.07,.06Z"/><path d="M71.42,79.81c.55,.09,.78,.48,.88,.97,.06,.31,.05,.64,.07,.95l.1-.1c-.95-.33-.88-1.16-.94-1.92l-.1,.09Z"/><path d="M144.51,88.48c.09-.63,.49-.92,1.09-.95,.27-.02,.54,0,.81,0l-.11-.1c-.38,.81-1.12,.92-1.89,.95l.09,.1Z"/><path d="M32.07,88.46c.29,.02,.59,.03,.88,.08,.38,.06,.57,.23,.46,.42-.05,.1-.23,.16-.36,.17-.14,.01-.33,0-.41-.09-.19-.2-.33-.44-.49-.67,0,0-.08,.09-.08,.09Z"/><path d="M142.54,89.41c.29-1.09,1.17-.93,1.97-.93l-.09-.1c-.38,.87-1.08,1.07-1.95,.95l.06,.07Z"/><path d="M155.07,105.75c.21-.23,.39-.48,.63-.67,.1-.08,.34-.09,.45-.03,.36,.22,.27,.39-.24,.46-.31,.04-.63,.09-.94,.13,0,0,.1,.11,.1,.11Z"/><path d="M154.97,105.64c-.34,.91-1.16,.87-1.91,.97l.1,.11c.1-.55,.5-.75,.98-.84,.31-.06,.62-.08,.94-.12l-.1-.11Z"/><path d="M153.05,106.61c-.2,.22-.38,.47-.61,.66-.1,.09-.29,.11-.43,.09-.13-.02-.25-.13-.37-.2,.19-.13,.37-.31,.59-.37,.29-.08,.61-.06,.92-.08,0,0-.1-.11-.1-.11Z"/><path d="M64.78,117.16c-.8-.41-.91-1.14-.91-1.92l-.1,.11c.79,.41,.84,1.17,.91,1.92l.1-.1Z"/><path d="M82.94,143.21c.39,0,.59,.13,.6,.37-.11-.02-.25,0-.31-.06-.09-.11-.13-.27-.19-.41l-.1,.1Z"/><path d="M81.97,142.23c.67-.02,.93,.37,.97,.98l.1-.1c-.55-.1-.87-.44-.98-.97l-.09,.1Z"/><path d="M39.72,121.11c.17,.11,.33,.23,.5,.34-.08-.03-.17-.05-.22-.11-.08-.1-.12-.22-.18-.34l-.1,.1Z"/><path d="M64.68,117.26c.17,.11,.34,.23,.41,.27-.05-.06-.18-.22-.31-.38l-.1,.1Z"/><path d="M63.87,115.24c-.68,.04-.93-.36-.99-.96l-.09,.09c.6,.05,.87,.43,.98,.97l.1-.11Z"/><path d="M60.98,111.4c-.64,0-.93-.35-.99-.95l-.08,.08c.63,.02,.88,.42,.97,.98l.1-.1Z"/><path d="M146.42,87.53c.03-.15,.02-.32,.09-.44,.05-.08,.21-.08,.33-.12,.05,.22-.12,.38-.52,.47l.11,.1Z"/><path d="M31.2,85.6c.07-.57,.32-.97,.96-.99l-.07-.07c-.02,.64-.43,.88-.99,.96l.11,.11Z"/><path d="M72.36,81.74c.16,.13,.31,.26,.37,.3-.04-.06-.16-.23-.27-.4,0,0-.1,.1-.1,.1Z"/><path d="M153.02,71.07c.02,.38-.11,.56-.4,.53,.03-.09,.04-.22,.1-.26,.11-.08,.26-.12,.4-.17,0,0-.1-.09-.1-.09Z"/><path d="M112.78,72.14c.1-.55,.36-.93,.98-.93l-.1-.1c-.08,.56-.31,.98-.97,.93l.09,.09Z"/><path d="M113.76,71.2c.12-.19,.25-.39,.37-.58-.02,.1-.02,.23-.08,.29-.11,.09-.26,.13-.39,.2,0,0,.1,.1,.1,.1Z"/><path d="M160.72,68.21c-.12,.17-.25,.34-.37,.52,.02-.1,.01-.24,.07-.29,.1-.08,.25-.1,.38-.15l-.08-.08Z"/><path d="M115.58,68.23c-.05,.4-.19,.58-.43,.55,.03-.11,.03-.26,.1-.31,.12-.08,.28-.1,.43-.14l-.1-.1Z"/><path d="M115.68,68.33c.11-.17,.23-.35,.26-.4-.05,.04-.21,.17-.37,.3,0,0,.1,.1,.1,.1Z"/><path d="M161.65,49.02c.03,.61-.23,.98-.87,1.02l-.05-.04c.08-.59,.45-.84,1.01-.88l-.09-.1Z"/><path d="M161.74,49.11c.08-.14,.17-.4,.24-.39,.26,.02,.14,.16-.34,.29,0,0,.09,.1,.09,.1Z"/><path d="M114.7,47.19c.12-.23,.23-.46,.35-.69,.45,.66-.15,.5-.45,.58,0,0,.1,.11,.1,.11Z"/><path d="M132.85,38.54c.41,.02,.59,.17,.54,.46-.1-.04-.23-.05-.28-.12-.08-.13-.11-.29-.16-.44l-.1,.1Z"/><path d="M131.89,23.09c-.06,.37-.21,.53-.44,.49,.04-.09,.06-.22,.13-.26,.12-.07,.27-.08,.41-.12l-.1-.1Z"/><path d="M132.88,22.13c-.05,.61-.42,.88-.99,.96l.1,.1c.03-.61,.35-.94,.97-.98l-.08-.08Z"/><path d="M111.76,21.28c.63,0,.96,.31,.95,.96l.09-.09c-.56-.09-.88-.4-.94-.97l-.1,.1Z"/><path d="M111.85,21.19c-.15-.13-.3-.26-.35-.31,.04,.06,.14,.23,.25,.4,0,0,.1-.1,.1-.1Z"/><path d="M33.05,20.21c-.07,.39-.23,.54-.48,.47,.05-.09,.07-.23,.14-.27,.12-.07,.28-.08,.43-.11,0,0-.09-.09-.09-.09Z"/><path d="M139.68,17.43c-.02-.67,.41-.89,.97-.97l-.1-.1c.05,.68-.36,.93-.95,.99l.08,.08Z"/><path d="M40.81,14.58c.08-.55,.43-.84,.94-.97l-.1-.1c-.15,.48-.5,.77-.94,.98l.1,.1Z"/><path d="M42.61,12.55c-.14,.5-.5,.78-.97,.95l.1,.1c.12-.52,.46-.81,.96-.95l-.1-.1Z"/><path d="M42.71,12.65c.07-.14,.15-.27,.22-.41-.11,.1-.21,.21-.32,.31,0,0,.1,.1,.1,.1Z"/><path d="M129.97,9.66c-.1,.17-.21,.33-.25,.41,.07-.06,.21-.18,.36-.31,0,0-.1-.1-.1-.1Z"/><path d="M130.07,9.77c.13-.18,.25-.36,.38-.54-.03,.09-.04,.21-.11,.26-.11,.08-.25,.12-.37,.18,0,0,.1,.1,.1,.1Z"/></svg>