<?xml version="1.0" encoding="UTF-8"?><svg id="Layer_1" xmlns="http://www.w3.org/2000/svg" viewBox="0 0 225.07 154.17"><path d="M134.36,79c2.13-3.41,4.31-6.56,6.77-9.47,2.99-3.52,5.83-7.2,9.28-10.31,.46-.41,.96-.77,1.42-1.14,.35,.3,.49,.65,.27,.93-1.78,2.24-3.5,4.56-5.42,6.67-4.19,4.61-7.9,9.58-11.68,14.65-2.3,1.06-4.06,2.88-5.52,5.01-3.6,5.26-7.23,10.49-10.12,16.19-.5,.99-1.1,1.94-1.64,2.92-.39,.7-.79,1.39-1.11,2.11-2.35,5.22-4.46,10.54-6.14,16.02-.14,.45-.13,.95-.28,1.4-.7,2.11-.94,4.34-1.65,6.46-.24,.74-.2,1.58-.22,2.37-.03,1.11,0,2.23,0,3.65-.41,.65-.98,1.55-1.56,2.49-.47-.65-.41-1.3-.42-1.93-.02-2.39,.17-4.8-.76-7.09-.15-2.06-.36-4.12,.3-6.16,.39-1.2,.56-2.48,.86-3.71,.57-2.32,1.43-4.53,2.26-6.77,1.94-5.24,4.31-10.28,6.97-15.18,1.67-3.07,3.64-5.97,5.92-8.67,2.16-2.56,4.19-5.23,7.08-7.68,1.47-.75,3.31-1.7,5.41-2.78Z"/><path d="M89.55,104.97c.5,1.34,.88,2.38,1.28,3.45,.04,.28,.12,.6,.12,.91,0,2.76,.81,5.32,1.96,7.8,2.3,4.98,3.13,8.05,4.5,13.02,.22,2.69,1.3,5.24,1.32,7.97,0,.64-.02,1.3,.15,1.9,1.19,4.22,.59,8.55,.79,12.83,.02,.43-.26,.88-.4,1.32-.87-.15-1.62-.37-2.32-1.28-.28-1.31-.19-2.91-.3-4.49-.08-1.27-.05-2.55-.54-3.76-.18-.43-.29-.93-.27-1.39,.11-2.43-.81-4.69-1.21-7.03-.37-2.17-1.05-4.3-1.63-6.44-1.46-5.35-3.02-10.67-4.11-16.12-.28-1.39-.85-2.72-1.28-4.08-.19-.6-.42-1.2-.53-1.82-.18-1.01,.21-1.87,.9-2.61,.1-.11,.27-.21,.41-.22,.3-.02,.61,.02,1.16,.05Z"/><path d="M173.58,60.5c.03,.32,.01,.65,.11,.94,.16,.45,.37,.88,.61,1.29,2.56,4.42,4.54,9.1,6.44,13.83,.95,2.36,2.05,4.66,2.96,7.04,.75,1.94,1.95,3.64,3.01,5.42,.19,.31,.04,.63-.32,.88-1.53-.91-2.62-2.23-3.47-3.81-2.04-3.79-3.88-7.68-5.58-11.63-.5-1.17-.99-2.34-1.53-3.5-2.3-4.9-4.37-9.91-6.82-14.75-.11-.22,.06-.58,.12-.97,.89,.2,1.78,.4,2.7,.62,.36,.25,.81,.47,1.14,.8,2.04,2.02,4.18,3.95,5.78,6.37,.17,.26,.4,.5,.62,.73,1.54,1.62,3.12,3.2,4.62,4.87,1.49,1.66,2.87,3.42,4.34,5.1,3.15,3.6,6.34,7.17,9.49,10.78,.3,.34,.43,.82,.6,1.18-.17,.49-.42,.63-.72,.44-.8-.51-1.7-.94-2.36-1.6-2.37-2.37-4.84-4.62-6.93-7.27-1.57-2-3.48-3.74-5.24-5.59-1.1-1.16-2.27-2.25-3.08-3.65-.32-.54-.78-1.01-1.21-1.48-1.51-1.64-2.98-3.33-4.22-5.19-.26-.39-.64-.7-1.16-.74-.05-.15-.07-.32-.15-.45-.05-.08-.18-.12-.27-.17-.06,.28,.12,.46,.53,.51Z"/><path d="M172.93,91.98c-.6-1.35-.21-2.79-.34-4.19-.15-1.59-.06-3.23-.43-4.76-.34-1.41-.48-2.82-.69-4.24-.22-1.41-.75-2.79-.83-4.2-.1-1.63-.84-3.07-1.08-4.65-.21-1.39-.79-2.72-1.25-4.21-.16,.36-.34,.57-.35,.79-.06,2.08-.08,4.15-.15,6.23-.06,1.91,.07,3.84-.7,5.67-.18,.42-.12,.94-.16,1.42-.08,1.12-.14,2.23-.23,3.35-.03,.31-.11,.63-.18,.93-.67,2.62-1.01,5.31-1.73,7.92-.3,1.07-.68,2.13-1.54,2.91-.31,.01-.61,.03-.93,.04-.72-.54-.56-1.44-.96-2.17,.45-.48,.87-.92,1.35-1.43,.33-2.92,1.28-5.83,1.28-8.89,0-.47,.07-.97,.24-1.41,.53-1.38,.51-2.82,.59-4.25,.15-2.54-.12-5.12,.73-7.6,.22-3.51,.27-7.03,.07-10.54-.04-.77-.39-1.53-.59-2.25,.24-.6,.7-.57,1.17-.49,1.8,2.09,2.83,4.56,3.62,7.17,.59,1.98,1.27,3.94,1.92,5.9,.9,2.72,1.88,5.42,1.95,8.34,1.13,3.58,.82,7.27,.86,10.93,0,.79-.13,1.59-.31,2.36-.15,.65-.61,1.1-1.32,1.31Z"/><path d="M181.17,43.23c.97,.07,1.88-.08,2.82-.4,4.53-1.52,8.98-3.25,13.49-4.82,3.16-1.1,6.31-2.22,9.49-3.23,2.27-.71,4.6-1.25,6.9-1.85,.12-.03,.32,.07,.41,.17,.17,.19,.08,.47-.23,.73-1.13,.92-2.5,1.36-3.85,1.84-3.75,1.33-7.54,2.59-11.21,4.11-5.45,2.26-11.08,4-16.68,5.83-1.66,.54-3.48,.54-5.02,1.46-.96,0-1.92,.05-2.87,0-.39-.02-.57-.31-.48-.57,.05-.14,.16-.28,.28-.36,.26-.18,.55-.32,.83-.47-.39-.26-.77-.52-1.17-.8,.1-.25,.13-.6,.32-.75,.5-.39,1.05-.72,1.61-1.01,6.07-3.2,12.2-6.27,18.51-8.99,2.78-1.2,5.59-2.33,8.37-3.53,1.47-.64,3.02-.98,4.52-1.51,.11-.04,.31,.07,.41,.17,.2,.19,.17,.5-.13,.75-.36,.31-.74,.61-1.16,.81-5.72,2.83-11.44,5.68-17.19,8.45-2.44,1.18-4.96,2.18-7.42,3.3-.22,.1-.31,.49-.47,.74-.62,.04-1.25,.04-1.86,.13-.47,.07-.86,.33-1.01,.83-.5,.15-1.15-.11-1.54,.55,.71,.21,1.24,.16,1.43-.66,.64-.03,1.28-.02,1.91-.09,.48-.06,.88-.31,.99-.84Z"/><path d="M115.39,27.53c.3-.23,.49-.48,.72-.53,.8-.17,1.57,0,2.32,.33,4.69,2.03,9.12,4.54,13.39,7.34,5.59,3.66,11.14,7.4,16.69,11.12,.25,.17,.42,.47,.64,.71-.15,.91-.9,1.2-1.62,1.45-.44,.16-.94,.2-1.41,.2-1.91-.01-3.83-.05-5.74-.12-.63-.02-1.26-.16-1.88-.29-.62-.13-1.23-.45-1.85-.44-2.74,.02-5.33-.91-8-1.31-2.49-.38-4.95-1.11-7.4-1.78-2.3-.63-4.56-1.38-6.81-2.18-.72-.26-1.5-.57-1.97-1.26,.51-.52,1.15-.54,1.78-.42,1.71,.33,3.38,.85,5.11,1.16,1.7,.31,3.42,.7,5.1,1.17,2.14,.61,4.4,.67,6.52,1.39,2.88,.16,5.63,.97,8.4,1.64,1.55,.37,3.12,.57,4.71,.31,.13-.02,.25-.16,.43-.29-.33-.34-.6-.78-.99-1-5.15-2.88-10.04-6.16-14.97-9.38-3.73-2.44-7.49-4.83-11.49-6.83-.56-.28-1.07-.65-1.66-1.01Z"/><path d="M169.64,38.43c.28-.13,.67-.17,.82-.39,2.66-3.77,5.25-7.6,7.67-11.54,2.33-3.8,4.69-7.58,7.08-11.34,.42-.66,.99-1.24,1.54-1.81,.17-.18,.5-.22,.75-.33,.07,.15,.23,.33,.19,.42-.36,.88-.64,1.82-1.17,2.59-1.17,1.72-2.1,3.57-3.06,5.41-2.37,4.52-4.97,8.9-7.93,13.06-1.94,2.73-3.83,5.5-6.25,7.84-.55,.53-1.3,.86-2.35,1.53-.6,.52-.58,2-1.69,2.72-.5-.9-.46-1.84-.15-2.77,.6-1.81,1.21-3.61,1.87-5.4,.66-1.79,1.5-3.49,1.88-5.4,.34-1.7,1.11-3.31,1.56-5,.49-1.84,.74-3.74,1.24-5.58,.46-1.69,.86-3.38,1.01-5.14,.09-1.09,.52-2.16,.74-3.24,.22-1.09-.06-2.29,.53-3.28,.6-1.01,.29-2.21,.81-3.21,.05-.09,.19-.14,.29-.21,.09,.13,.25,.26,.26,.4,.17,2.7,.36,5.41-.46,8.06-.14,.45-.21,.94-.24,1.41-.11,1.59-.27,3.14-.78,4.69-.49,1.49-.42,3.12-.9,4.67-.47,1.5-.77,3.08-1.24,4.59-.47,1.52-.96,3.03-1.52,4.51-.35,.92-.55,1.83-.41,2.8-.36,0-.65,.14-.71,.46-.05,.27-.06,.61,.07,.83,.1,.18,.39-.03,.47-.44,.06-.3,.07-.62,.1-.92Z"/><path d="M57.31,59.62c.01-.48,.04-.96,.03-1.44,0-.32,.02-.66-.08-.95-.81-2.28-.66-4.74-1.36-7.02-.52-1.68-.65-3.43-1.22-5.11-.5-1.49-.48-3.12-1.01-4.66-.41-1.19-.4-2.53-.15-3.8,.08-.39,.31-.54,.58-.45,1.51,3.49,2.23,7.25,3.41,10.86,1.14,3.5,1.67,7.12,2.5,10.68,.36,1.55,.21,3.18,.12,4.65-.55,1.14-1.78,1.5-2.2,2.58-.69-.14-1.02-.69-1.32-1.22-2.66-4.73-5.58-9.3-8.39-13.94-1.49-2.46-3.03-4.88-5.06-6.95-.25-.25-.11-.58,.46-1.12,.69,.35,1.4,.7,2.16,1.09,1.41,2.32,3.48,4.12,4.96,6.42,2.07,3.22,4.13,6.45,5.89,9.85,.11,.22,.5,.3,.76,.44,.07,.53-.12,1.14,.47,1.53,.32-.7,.21-1.2-.57-1.44Z"/><path d="M39.82,71.68c-1.38-.79-2.66-.6-3.87-.67-1.43-.08-2.87-.05-4.31-.04-1.28,0-2.55,.03-3.83,.04-1.25,0-2.53,.29-3.75-.08,.04-.86,.56-1.25,1.14-1.41,.91-.25,1.9-.24,2.8-.51,3.44-1.01,6.95-.68,10.45-.69,.63,0,1.28,.05,1.9,.16,.94,.15,1.86,.41,2.8,.56,.79,.12,1.59,.13,2.35,.19,2.76,.85,5.58,1.49,7.77,3.5-.03,.29-.05,.58-.09,.95-1.68,.23-2.87-1.12-4.38-1.4-.7-.15-1.21,.31-1.91,.61-.34,.03-.81,.09-1.28,.1-3.9,.05-3.93-.02-7.49,1.16-1.51,.5-3.07,.79-4.59,1.28-3.63,1.19-7.24,2.38-10.62,4.21-.3,.16-.6,.01-.82-.3,.41-1.11,1.32-1.8,2.28-2.32,1.54-.82,3.1-1.59,4.76-2.21,3.42-1.29,6.87-2.43,10.7-3.12Z"/><path d="M29.93,61.73c1.31-.03,2.25,.51,3.19,.53,4.36,.09,8.42,1.56,12.56,2.62,1.21,.31,2.39,.71,3.55,1.06,.14-.19,.28-.3,.3-.42,.02-.15-.01-.35-.11-.46-.86-.94-1.62-2.03-2.64-2.75-2.09-1.47-3.77-3.41-5.94-4.81-2.03-1.31-4.07-2.48-6.41-3.09-.77-.2-1.52-.44-2.28-.69-.13-.04-.22-.22-.35-.35,.19-.18,.36-.47,.57-.51,2.82-.55,5.33,.45,7.79,1.64,.14,.07,.27,.18,.41,.25,5.21,2.72,9.2,6.78,12.61,11.49,.65,.9,1.38,1.74,2.03,2.55-.2,1.03-.33,1.21-.7,1.08-.29-.1-.62-.16-.86-.33-.52-.37-.99-.8-1.56-1.27-2.36,0-4.62-.81-6.94-1.31-2.48-.53-4.88-1.45-7.43-1.66-2.53-1.07-5.34-.72-7.95-1.53-1.33-.41-2.83-.25-4.26-.37-.13-.01-.36-.27-.34-.29,.13-.22,.27-.54,.47-.59,1.4-.31,2.8-.76,4.3-.79Z"/><path d="M71.8,82.59c.6,1.37,1.83,2.16,2.87,3.11,3.28,3.01,7.83,8.09,9.97,11.5,.92,1.47,1.64,3.09,2.34,4.69,.24,.55,.18,1.25,.16,1.88,0,.22-.3,.44-.54,.77-.74-1.29-1.37-2.57-2.15-3.74-2.12-3.18-4.3-6.31-6.98-9.06-2.67-2.74-4.89-5.87-7.6-8.57-.22-.22-.32-.55-.48-.82,.28-.85,.3-1.82,1.21-2.47,6.6,1.77,12.73,4.68,18.46,8.48,2.03,1.35,3.71,3.01,4.62,5.32,.1,.26,.02,.61-.03,.91-.02,.12-.18,.22-.27,.34-.14-.07-.33-.1-.42-.22-2.68-3.29-6.29-5.32-9.94-7.27-2.8-1.5-5.69-2.85-8.52-4.29-.89-.45-1.79-.62-2.77-.46-.03-.46-.02-.97-.69-.48l.79,.38Z"/><path d="M164.79,41.6c-.39,.86-.62,1.81-1.37,2.47-.3-.04-.63-.01-.89-.13-.36-.16-.44-.69-.26-1.28,.05-.15,.14-.29,.19-.44,.11-.3,.22-.6,.45-1.24,0-2.68,.01-5.71,0-8.73-.03-4.3-.07-8.6-.12-12.9,0-.96,.12-1.95-.1-2.86-.26-1.09-.14-2.18-.31-3.26-.44-2.84-.38-5.71-.12-8.56,.06-.62,.45-1.18,1.25-1.37,.11,.42,.3,.84,.33,1.27,.09,1.75,.13,3.5,.19,5.25,.03,.8-.07,1.63,.13,2.38,.95,3.59,.63,7.27,.83,10.91,.06,1.11,.06,2.23,.09,3.34,.03,1.27,.16,2.52,.4,3.78,.27,1.38,.13,2.84,.17,4.27-.84,2.13-.49,4.41-.78,6.61-.02,.16-.05,.31-.08,.47Z"/><path d="M173.91,42.01c-.43,.1-.92,.14-1.09-.42-.08-.26,.07-.61,.19-.89,.13-.28,.36-.52,.57-.76,.32-.35,.66-.69,1-1.02,6.86-6.85,13.72-13.71,20.59-20.55,.32-.32,.75-.54,1.15-.77,.11-.07,.33-.03,.47,.03,.33,.14,.5,.41,.42,.75-.07,.3-.15,.62-.33,.85-4.36,5.69-9.31,10.84-14.62,15.65-2.7,2.45-5.55,4.74-8.36,7.12Z"/><path d="M176.87,48.47c.27-.15,.53-.42,.81-.44,1.27-.09,2.55-.15,3.83-.15,5.12-.01,10.23,.02,15.35,0,1.75,0,3.48,0,5.22-.49,1.2-.34,2.54-.18,3.81-.25,2.38-.13,4.79,.03,7.11-.8,.58-.21,1.26-.16,1.9-.18,1.6-.06,3.17-.22,4.7-.74,.33-.11,.57,.16,.6,.54-.3,.28-.59,.77-.99,.88-1.83,.51-3.58,1.35-5.54,1.38-1.44,.02-2.72,.89-4.2,.87-1.44-.02-2.85,.17-4.23,.68-.58,.21-1.26,.15-1.9,.17-6.55,.25-13.11,.12-19.66,0-.63-.01-1.34,.04-1.89-.21-1.36-.63-2.83-.46-4.23-.75-.25-.05-.45-.32-.68-.49Z"/><path d="M213.36,63.82c-.7,.66-1.54,.65-2.23,.43-1.69-.52-3.4-.7-5.14-.88-1.58-.16-3.02-.97-4.63-1.04-3.28-1.18-6.7-1.89-10.01-2.98-3.61-1.19-7.15-2.59-10.69-3.96-1.32-.51-2.56-1.25-3.83-1.9-.35-.18-.35-.63-.03-1.19,3.45,.53,6.67,1.85,9.96,2.92,4.37,1.42,8.73,2.86,13.09,4.29,.75,.25,1.48,.67,2.25,.75,1.76,.19,3.34,1,5.07,1.27,1.4,.22,2.77,.66,4.13,1.09,.75,.24,1.41,.69,2.07,1.19Z"/><path d="M206.93,79.47c-.63,.09-1.17,.34-1.51,.18-2.29-1.11-4.49-2.39-6.55-3.88-2.19-1.59-4.33-3.24-6.5-4.86-.26-.19-.52-.37-.75-.59-2.99-2.88-6.46-5.19-9.4-8.12-1.01-1.01-2.07-1.97-3.27-2.78-1.18-.8-2.23-1.8-3.07-2.98,.32-.56,.63-.73,.97-.54,.83,.47,1.72,.87,2.46,1.46,3.39,2.64,6.76,5.3,10.1,8.01,3.95,3.21,7.83,6.52,11.8,9.7,1.48,1.19,3.15,2.15,4.71,3.25,.35,.25,.58,.66,.99,1.15Z"/><path d="M151.94,94.55c-.15-.21-.43-.42-.43-.64-.02-.63-.07-1.32,.15-1.88,.74-1.93,1.23-3.95,1.93-5.88,1.52-4.19,2.49-8.53,3.55-12.84,1.06-4.31,2.3-8.58,3.11-12.95,.2-1.07,.73-2.07,1.09-3.07,.26-.2,.55-.09,.59,.33,.08,.95,.15,1.92,.02,2.86-.16,1.25-.56,2.48-.77,3.73-.18,1.1-.01,2.31-.42,3.3-.86,2.1-.42,4.47-1.52,6.49-1.57,6.62-3.2,11.95-5.26,16.79-.55,1.3-1.04,2.67-2.05,3.76Z"/><path d="M108.73,54.14c.46-.09,.92-.24,1.38-.25,2.07-.07,4.13-.1,6.2-.16,.79-.02,1.64,.08,2.37-.15,2.32-.74,4.7-.74,7.08-.79,2.08-.05,4-.94,6.11-.92,1.89,.02,3.78-.07,5.67-.56,2.15-.55,4.4-.51,6.59,.03,.34,.08,.45,.4,.33,.77-.04,.13-.12,.26-.22,.36-.11,.1-.26,.22-.4,.24-.79,.08-1.58,.14-2.38,.2-1.74,.12-3.48,.06-5.17,.72-.71,.28-1.57,.18-2.36,.25-.95,.08-1.97-.04-2.84,.26-2.01,.69-4.07,.64-6.12,.77-1.27,.08-2.54,.07-3.76,.53-.43,.16-.93,.22-1.4,.22-3.18,.01-6.36,.03-9.54-.03-.79-.02-1.47-.43-1.54-1.47Z"/><path d="M149,10.93c.77,.37,1.14,1.03,1.42,1.81,1.13,3.14,1.87,6.4,2.91,9.57,.89,2.72,1.23,5.58,1.98,8.33,1.04,3.83,1.47,7.79,2.66,11.59,.28,.88,.16,1.89,.15,2.85,0,.19-.31,.38-.47,.58-1.39-1.67-1.77-3.76-2.27-5.72-.77-3.08-1.88-6.06-2.5-9.19-.43-2.17-.91-4.34-1.43-6.5-.8-3.39-1.78-6.75-2.3-10.21-.11-.77-.66-1.47-.54-2.29,.04-.28,.25-.54,.39-.81Z"/><path d="M99.3,75.46c-.65,.59-1.29,.62-1.92,.47-1.08-.25-2.12-.73-3.21-.84-1.9-.19-3.81-.23-5.72-.23-5.57,.01-11.14,.09-16.72,.12-.78,0-1.59,.22-2.31-.32,.19-1.21,1.58-.74,1.82-1.44,1.8-.44,3.43-.23,4.95-.85,.71-.28,1.56-.25,2.35-.26,3.02-.04,6.05,.03,9.07-.08,2.43-.08,4.71,.64,7.03,1.1,1.69,.34,3.24,1.2,4.65,2.3Z"/><path d="M135.08,18.35c.29,.09,.67,.09,.85,.28,.65,.7,1.29,1.41,1.82,2.2,2.66,3.94,5.25,7.93,7.92,11.86,1.69,2.49,3.45,4.94,5.25,7.35,.76,1.01,1.7,1.89,2.57,2.82,.54,.58,1.21,1.04,1.53,1.8-.22,.15-.49,.48-.65,.43-1.58-.42-2.87-1.33-3.92-2.54-3.44-3.95-6.75-8.01-9.43-12.52-1.94-3.27-4.08-6.43-5.64-9.92-.28-.62-.34-1.2-.21-1.84l-.08,.08Z"/><path d="M63.69,64.72c-.28,.08-.48-.07-.58-.46-.2-.8-.07-1.58,.28-2.32,.68-1.43,1.37-2.85,1.81-4.41,.34-1.23,.77-2.42,.81-3.71,.01-.48-.04-.99,.11-1.43,1.19-3.58,.63-7.26,.65-10.9,0-.78-.24-1.56-.37-2.34-.43-2.51-.63-5.04-.36-7.58,.01-.13,.18-.25,.28-.38,.11,.06,.28,.1,.32,.19,.67,1.77,1.36,3.55,1.37,5.49,0,.48,0,.97,.14,1.43,1.26,4.54,.71,9.17,.69,13.78-.47,2-.75,4.05-1.55,5.97-.98,2.35-2.28,4.53-3.59,6.68Z"/><path d="M49.31,114.12c-.54-.43-.51-.89-.35-1.33,1.34-3.89,2.72-7.77,4.03-11.67,1.66-4.96,3.28-9.93,4.88-14.91,.29-.9,.36-1.87,.6-2.78,.17-.63,.59-1.11,1.22-1.38,.1,.12,.29,.26,.27,.36-.25,1.55-.66,3.07-.69,4.66,0,.62-.19,1.25-.37,1.86-1.01,3.33-2.03,6.66-3.06,9.99-.94,3.03-2.15,5.97-3.32,8.91-.64,1.62-1.32,3.23-2.06,4.81-.26,.55-.76,.99-1.15,1.47Z"/><path d="M70.05,69.78c1.92-1.5,4.26-2.03,6.58-2.46,1.41-.26,2.76-.71,4.16-.96,1.4-.25,2.85-.18,4.2-.8,.55-.25,1.25-.19,1.88-.25,.63-.07,1.33,.03,1.89-.2,2.12-.85,4.38-.68,6.57-1.03,.16-.02,.31-.09,.46-.12,.9-.13,.97,0,.59,1.09-1.28,.63-2.6,1.11-4.04,1.32-1.87,.28-3.74,.68-5.56,1.22-2.28,.68-4.59,1.27-6.93,1.59-2.2,.31-4.28,1.17-6.56,1.13-.91-.02-1.83,.42-2.73,.64-.15-.1-.36-.16-.39-.27-.08-.28-.08-.57-.12-.92Z"/><path d="M92.65,51.57c-2.84,3.29-5.69,6.31-8.91,8.93-3.25,2.65-6.97,4.46-10.96,5.68-.89,.27-1.89,.18-2.84,.19-.19,0-.37-.35-.63-.6,2.06-1.3,4.3-2.14,6.38-3.29,1.68-.92,3.39-1.77,5.02-2.78,2.85-1.76,5.5-3.82,7.96-6.1,.94-.87,1.88-1.72,2.86-2.54,.27-.22,.62-.07,1.12,.5Z"/><path d="M183.59,103.85h3.05c1.36,.37,2.37,1.11,2.99,2.3,.31,.59,.34,1.25,.08,1.85-.31,.72-.74,1.4-1.15,2.14-.83,.47-1.66,.93-2.32,1.3-1.63,.27-3.06,.35-4.42-.12-1.04-.57-1.82-1.35-2.39-2.36-.43-1.06-.42-2.17-.23-3.28,.15-.85,.68-1.41,1.64-1.65,.12,.42,.3,.85,.34,1.28,.06,.63-.06,1.28,.06,1.89,.09,.43,.45,.8,.65,1.12,1.52,.53,2.92,.51,4.45,.01,.18-.32,.39-.71,.66-1.2-.52-.43-1-.83-1.52-1.26-.81,.17-1.57,.37-2.34,.45-.25,.03-.64-.19-.77-.41-.13-.22-.14-.66,0-.87,.26-.38,.66-.66,1.23-1.18Z"/><path d="M65.98,65.33c.09-.46,.03-1.04,.29-1.35,1.13-1.34,2.33-2.63,3.55-3.89,3.96-4.09,6.55-8.97,8.37-14.32,.36-1.04,.07-2.26,.88-3.17,.96,0,1.29,.24,1.18,.91-.73,4.43-2.01,8.65-4.47,12.47-2.27,3.54-5.23,6.42-8.42,9.09-.31,.26-.89,.2-1.35,.28l-.03-.03Z"/><path d="M96.29,83.8c-.02,.44-.21,.62-.58,.66-.16,.02-.33,.04-.47-.02-2.05-.85-4.04-1.92-6.16-2.51-1.98-.55-3.94-1.2-5.94-1.66-2.16-.5-4.24-1.34-6.47-1.48-1.14-.07-2.15-.55-3.18-.94-.22-.08-.35-.43-.57-.72,.47-.15,.9-.38,1.35-.41,3.04-.17,6,.25,8.93,1.06,3.67,1.01,7.31,2.08,10.66,3.94,.99,.55,1.81,1.27,2.43,2.07Z"/><path d="M49.24,77.19c-.19,.23-.33,.56-.52,.6-2.11,.39-3.78,1.52-5.33,2.95-4.25,3.92-7.51,8.55-10.14,13.67-.41,.8-.56,1.81-1.46,2.31-.66-.88-.51-1.89-.15-2.73,.88-2.03,1.72-4.14,2.97-5.95,2.15-3.13,4.41-6.2,7.31-8.74,1.1-.96,2.3-1.74,3.63-2.23,1.18-.44,2.46-.6,3.69,.12Z"/><path d="M147.55,56.68c-.03,.16,0,.36-.09,.46-.31,.35-.6,.76-.99,.98-2.77,1.54-5.42,3.29-8.24,4.74-3.95,2.03-7.74,4.34-11.59,6.56-1.51,.87-3.06,1.67-4.6,2.48-.32,.17-.72,.08-.81-.24-.06-.2,.19-.51,.33-.75,.08-.13,.2-.25,.33-.34,4.34-2.92,8.77-5.71,13.39-8.18,3.5-1.87,7.01-3.7,10.69-5.64h1.68s-.08-.08-.08-.08Z"/><path d="M61.72,86.66c.3,.04,.59,.08,.97,.13,.11,.42,.32,.87,.33,1.32,.03,2.39,0,4.78,0,7.17,0,.48,.06,.99-.09,1.42-.81,2.31-.56,4.72-.76,7.09-.19,2.23-.85,4.34-1.45,6.47-.04,.14-.16,.29-.28,.38-.24,.18-.51,.32-.77,.47-.42-.56-.35-1.19-.29-1.83,.12-1.43,.85-2.73,.81-4.2-.03-1.43,.07-2.87,.12-4.3,.02-.48-.05-.99,.1-1.43,.91-2.79,.59-5.67,.74-8.52,.06-1.11,.09-2.23,.18-3.34,.03-.29,.26-.56,.39-.84Z"/><path d="M45.99,80.21c.64-.37,1.43-.9,2.28-1.31,.39-.19,.88-.09,1.16,.38-.07,.14-.12,.31-.23,.41-1.56,1.57-3.24,3-4.33,5.01-1.66,3.07-3.14,6.2-3.89,9.64-.27,1.23-.62,2.44-.87,3.68-.22,1.07,.1,2.22-.45,3.25-.15,.29-.45,.39-.8,.29-.13-.04-.24-.15-.33-.26-.09-.12-.19-.27-.21-.41-.05-.47-.15-.96-.09-1.42,.48-3.6,1.03-7.18,2.51-10.55,1.35-3.06,2.96-5.94,5.23-8.71Z"/><path d="M154.35,62.49v1.52c-4.15,7.6-8.05,15.41-11.9,23.24-.28,.56-.65,1.08-.97,1.61-.59-.13-.67-.65-.55-.99,.83-2.22,1.65-4.45,2.62-6.62,2.72-6.1,6.08-11.87,9.33-17.69,.3-.53,.65-1.11,1.4-1.14l.07,.06Z"/><path d="M64.69,85.75c.32,.29,.76,.55,.99,.93,.82,1.37,1.24,2.9,1.72,4.42,.3,.92,.53,1.82,.61,2.78,.18,2.05,1.05,3.98,.92,6.1-.13,2.06-.05,4.14-.11,6.2-.01,.45-.2,.93-.43,1.33-.21,.37-.56,.69-1.2,.43-.28-1.5-.13-3.1-.23-4.67-.13-2.06,.17-4.17-.53-6.15-.64-1.82-.18-3.85-1.19-5.56-.18-1.58-.62-3.1-1.09-4.62-.14-.44,0-.88,.54-1.18Z"/><path d="M66.96,85.43c.52-.7,.72-.77,1.06-.46,1.19,1.09,2.12,2.35,2.9,3.78,1.54,2.82,2.43,5.89,3.48,8.89,.26,.74,.24,1.57,.35,2.36,.18,1.26,.37,2.51,.56,3.85-.44,1.06-.29,2.43-1.16,3.46-.16-.24-.45-.47-.46-.71-.14-5.7-2.12-10.9-4.25-16.07-.36-.88-.85-1.72-1.27-2.58-.42-.85-.82-1.72-1.21-2.53Z"/><path d="M54.97,83.19c-1.02,3.31-1.99,6.65-2.88,10.01-.37,1.4-.25,2.88-.78,4.21-.48,1.22-.62,2.46-.66,3.74-.02,.96-.28,1.87-.51,2.8-.3,1.22-.3,2.52-.51,3.77-.06,.39-.4,.52-.57,.39-.12-.09-.27-.24-.28-.38-.29-2.87-.1-5.73,.08-8.59,1.19-4.77,2.17-9.6,3.97-14.19,.28-.72,.79-1.37,1.29-1.97,.22-.26,.61-.11,.84,.19Z"/><path d="M211.51,18.02c-1.28,.39-2.35,.71-3.43,1.04-1.55-.39-3.07-.86-3.87-2.45-.22-.43-.38-.88-.55-1.33-.36-.95-.33-1.87,.21-2.75,.61-.99,1.37-1.76,2.66-1.71,.32,.19,.48,.45,.42,.78-.06,.3-.17,.6-.3,.88-.85,1.89-.81,2.09,.84,3.64,.91,.43,1.87,.33,2.81,.21,.74-.1,1.47-.32,2.18-.48,.69,1.1-.31,1.42-.96,2.17Z"/><path d="M208.18,82.71c0-.54-.02-.7,0-.85,.13-.89,.13-.89,1.28-.75,1.19,1.66,2.39,3.34,3.6,5,.08,.11,.26,.16,.49,.29,.34-.23,.75-.45,1.07-.76,.56-.55,1.03-1.2,1.61-1.73,.35-.32,.86-.45,1.34-.27,.24,.09,.43,.34,.64,.51q-3.25,3.99-5.61,5.73c-.29,.02-.52-.15-.57-.53-.09-.64-.15-1.29-.59-1.78-1.3-1.43-2.16-3.14-3.24-4.85Z"/><path d="M73.19,126.94c1.43-.29,2.09,.92,3.08,1.09,.67,.9,1.23,1.67,1.8,2.44,.47,.64,.94,1.28,1.4,1.9-.02,.54-.05,1.01-.06,1.41-.49,.56-1,.96-1.69,.74-.44-.14-.93-.36-1.21-.7-1.42-1.73-2.67-3.59-3.53-5.66-.14-.34,.14-.84,.22-1.22Z"/><path d="M68,115.8c0-1.02,.24-1.87,1.65-2.13,.2,.26,.64,.58,.75,1,.55,1.98,1.53,3.76,2.36,5.61,.17,.39,.11,.92,.03,1.37-.12,.69-.59,1.06-1.31,1.07-.62-.22-1.04-.68-1.35-1.23-1-1.79-1.56-3.75-2.14-5.69Z"/><path d="M76.29,123.55c-1.02-.45-.89-1.2-.64-2.19,1.98-1.86,4.73-2.71,7.15-4.02,.37,.1,.72,.1,.95,.27,.62,.43,.55,1.06,.27,1.83-2.3,1.77-5.22,2.63-7.74,4.11Z"/><path d="M21.27,105.61c-.6,.05-1.13,.07-1.3-.45-.13-.41-.1-.91-.03-1.35,.04-.29,.23-.6,.43-.81,1.72-1.81,3.46-3.62,5.22-5.4,.25-.25,.59-.2,.81,0,.11,.1,.23,.24,.26,.37,.06,.3,.18,.66,.07,.9-.37,.86-.71,1.76-1.27,2.49-1.23,1.62-2.59,3.14-4.19,4.25Z"/><path d="M64.31,131.19c1.31-1.89,2.87-3.66,4.73-5.02,.86,0,1.23,.45,1.5,1.13-.9,2.63-3.04,4.28-4.77,6.01-1.03-.02-1.53-.29-1.55-1.08-.01-.31,.05-.62,.09-1.04Z"/><path d="M185.35,5.45q-.37-2.03,.45-3.3c1.09-.45,2.18-.41,3.27-.01,.94,1.25,.95,1.98,.03,2.87-1.03,1-2.17,1.23-3.75,.45Z"/><path d="M142.84,109.47c-.49-.12-.9-.43-.95-.91-.17-1.73-.18-3.44,.48-5.12,.34-.87,.36-1.86,.67-2.74,.13-.38,.66-.62,1.04-.95,.43,.23,.8,.44,1.16,.64-.87,3.11-1.65,6.14-2.49,9.16l.08-.08Z"/><path d="M87.43,27.1c.45,.29,.9,.5,1.23,.82,.45,.44,.8,.98,1.09,1.35,.2,1.24-.52,1.95-.99,2.76-.12,.02-.29,.11-.34,.06-.64-.6-.25-1.56-.99-2.44,.01,.01-.22-.2-.53-.48-1.18-.1-2.45-.17-3.7-.32-.37-.04-.53-.36-.48-.64,.03-.15,.07-.36,.18-.43,.4-.26,.81-.63,1.24-.66,1.1-.09,2.22-.03,3.29-.03Z"/><path d="M112.91,15.79c-.42,.91-1.33,1.34-1.97,2.04-.65,.7-1.24,1.45-1.89,2.14-.64,.69-1.18,1.52-2.14,1.83-.31-.1-.47-.33-.41-.69,.17-.99,1.01-1.58,1.47-2.4,.86-1.55,2.18-2.7,3.38-3.96,.27-.28,.96-.22,1.26,.18,.18,.23,.2,.57,.3,.86Z"/><path d="M10.51,100.39c.83-.04,1.26,.43,1.63,.9,1.28,1.62,2.51,3.27,3.75,4.89-.09,.33-.17,.62-.25,.91-.66,.1-1.22-.22-1.72-.55-1.79-1.17-2.98-2.84-3.63-4.86-.12-.37,.14-.87,.23-1.29Z"/><path d="M132.25,107.87c.19-.33,.4-.71,.63-1.1,2.38,.64,4.66,1.28,6.61,2.74,.35,.26,.3,.45-.27,1.03-1.91,.47-3.42-.67-5.07-1.16-.76-.23-1.42-.7-1.9-1.51Z"/><path d="M179.7,0c1.85,.78,1.95,1.11,1.15,3.37-.54,.62-1.32,.83-2.04,1.12-.96-.33-1.64-.94-1.98-1.94,.2-1.74,1.59-2.11,2.87-2.55Z"/><path d="M164.29,132.22c.46-1.3,.46-1.31,2.47-2.49,1.38-.32,2.78-.36,4.19-.17,.4,.05,.77,.33,1.16,.5-.35,.74-1.01,.9-1.58,1.07-.89,.27-1.84,.35-2.75,.58-.9,.23-1.77,.59-2.67,.81-.24,.06-.55-.19-.83-.3Z"/><path d="M16.51,118.77c-.1-.09-.26-.16-.29-.27-.85-2.75,.3-5.23,1.11-7.83,.33-.23,.71-.49,1.19-.83,.11,.54,.37,1.02,.27,1.41-.39,1.53-.64,3.07-.9,4.62-.18,1.06-.49,2.14-1.37,2.91Z"/><path d="M169.09,138.95c-.34-.07-.73-.05-.88-.22-.16-.18-.23-.64-.11-.83,1.16-1.83,2.08-3.88,3.99-5.09,1.35-.13,1.35-.12,1.14,1.27-.64,.74-1.36,1.56-2.07,2.39-.7,.83-1.4,1.66-2.08,2.47Z"/><path d="M18.83,99.89v3.24c-.25,.37-.49,.77-.78,1.13-.08,.11-.33,.21-.42,.16-.24-.12-.59-.28-.64-.49-.31-1.21-.54-2.45-.77-3.52,.15-1.27,.62-2.23,1.16-3.23,.25,.23,.41,.31,.47,.44,.32,.71,.62,1.44,.98,2.27Z"/><path d="M110.79,10.12c-2.17-.99-2.5-1.22-5.3-3.75,.16-.71,.68-1,1.27-1.16,1.75,.6,3.16,1.62,4.13,3.16,.35,.55,.45,1.19-.1,1.74Z"/><path d="M112.25,6.69c.85-1.65,.77-3.42,.96-5.05,1.11-.61,1.38-.55,1.23,.27-.18,.99,.6,1.79,.35,2.75-.2,.76-.43,1.52-.53,2.3-.12,.94-.12,1.89-.2,2.84-.01,.13-.18,.26-.31,.35-.21,.15-.54,.08-.67-.29-.3-.9-.49-1.83-.84-3.17Z"/><path d="M158.6,55.32c-.31-.34-.62-.69-.93-1.03-.96-.51-2.21-.06-3.06-.94,.02-.29,.04-.59,.06-.89,1.16-.84,2.54-.96,3.74-1.31,.92,.98,1.5,1.87,1.59,3.01-.28,.61-.78,.95-1.4,1.15Z"/><path d="M142.76,109.55c1.45-1.23,2.9-2.46,4.25-3.61,.6-.12,1.12-.19,1.32,.34,.09,.24-.02,.66-.2,.88-1.4,1.75-2.96,3.32-5.05,4.24-.34,.15-.63,.04-.94-.35,.22-.49,.45-1.04,.69-1.58l-.08,.08Z"/><path d="M26.36,115.05c-1.27-.67-2.17-1.82-3.06-2.93-.48-.61-.78-1.37-1.14-2.01,.32-.59,.85-.7,1.21-.45,1.57,1.1,2.92,2.45,3.98,4.05,.16,.24,.23,.64,.15,.9-.17,.52-.71,.67-1.14,.44Z"/><path d="M171.13,122.29c-.31,.06-.61,.13-.93,.2-.59-.44-.61-1.06-.36-1.63,.38-.87,1.16-.94,2.01-.78,1.03,.48,1.74,1.31,2.3,2.29,.42,.73,.49,1.48-.09,2.19-1.41-.2-1.77-1.75-2.94-2.26Z"/><path d="M179.91,120.57c-.42,1.01-.92,2-1.26,3.05-.29,.89-.39,1.83-.64,2.74-.08,.3-.46,.38-.79,.19-.25-.15-.55-.39-.6-.63-.4-2.21,.4-4.03,1.98-5.55,.26-.25,.55-.21,1.31,.21Z"/><path d="M117.36,14.97q.69,1.52,.26,6.46c-.33,.16-.71,.36-1.19,.59-.9-1.56-.44-3.13-.44-4.78,.3-.61,.63-1.32,.99-2.01,.06-.12,.25-.18,.38-.27Z"/><path d="M0,80.23c.02-.41,.04-.71,.05-1.01,.12-.1,.25-.29,.36-.28,2.05,.3,3.96,1,5.68,2.01,.34,.5,.36,.92-.06,1.28-.11,.09-.29,.19-.41,.16-2-.42-4-.86-5.61-2.17Z"/><path d="M4.12,90.13c-.29-.05-.59-.09-.94-.15,.06-2.27,1.99-3.47,2.76-5.11,.53-.19,.82-.32,1.12-.4,.35-.09,.65,.04,.84,.34,.06,.1,.06,.31,0,.4-1.17,1.7-2.08,3.6-3.77,4.9Z"/><path d="M127.52,11.5q-3.34,.37-5.46-.19c-.12-.76,.42-1.03,.95-1.31q4.26-.5,5.91-.05c.05,.98-.8,1.15-1.4,1.55Z"/><path d="M172.29,125.49c0,.33,.08,.65-.02,.9-.14,.38-.78,.45-1.25,.24-1.55-.72-3.11-1.42-4.63-2.18-.21-.1-.34-.5-.38-.78-.05-.43,.45-.78,.94-.73,.31,.03,.65-.04,.92,.08,1.57,.68,3.16,1.33,4.41,2.48Z"/><path d="M10.77,78.58q-.71-1.27-.28-5.76c.25-.37,.55-.93,.95-1.4,.36-.42,.82-.31,1.32,.11-.09,.37-.19,.79-.28,1.22-.07,.31-.13,.62-.16,.94-.05,.47-.06,.95-.13,1.42-.07,.47-.18,.93-.31,1.39-.09,.3-.22,.6-.37,.88-.22,.4-.47,.78-.74,1.22Z"/><path d="M186.62,125.39q-1.31,1.44-5.66,3.22c-.23-.17-.58-.31-.64-.53-.08-.26,.03-.63,.18-.89,.15-.27,.4-.51,.66-.67,1.36-.84,2.84-1.41,4.4-1.73,.46-.1,.88,.1,1.07,.6Z"/><path d="M102.02,79.48c-1.39,.36-1.91-.34-2.25-1.32,.48-1.82,.81-2.05,3-2.04,.76,.58,.8,1.33,.36,2.07-.32,.52-.8,.94-1.11,1.29Z"/><path d="M104.98,10.04c1.86,.71,4.14,.2,5.64,1.98-.18,.18-.34,.5-.53,.52-2.24,.28-4.35-.1-6.28-1.3,.04-.77,.56-1.04,1.17-1.21Z"/><path d="M101.15,63.96c.53,.47,.58,1.1,.5,1.73-.12,1.02-.73,1.7-1.63,2.19h-.84c-.81-.83-.69-1.74-.4-2.67,.6-.78,1.45-1.07,2.37-1.24Z"/><path d="M81.79,30.11c.32,.46,.58,.84,.85,1.22,.18,.26,.36,.52,.55,.78,.78,.52,1.56,1.04,2.32,1.58,.11,.08,.12,.29,.18,.43-1.02,.58-1.02,.6-2.8,.41-.43-.42-.98-.97-1.38-1.36-.29-1.18-.36-2.1,.29-3.05Z"/><path d="M5.1,107.23c.14-.9,.65-1.56,1.22-1.63,1.4-.19,2.8-.28,4.2,0,.21,.04,.39,.36,.51,.59,.05,.09-.06,.32-.17,.42-.23,.21-.47,.44-.75,.53-.59,.18-1.2,.36-1.81,.38-1.07,.03-2.18,.33-3.19-.29Z"/><path d="M84.46,44.99c.77-.93,1.35-.83,1.96-.58,.81,.73,.89,1.59,.38,2.51-.45,.81-.7,.97-2.15,1.65-1.04-1.14-.22-2.37-.19-3.59Z"/><path d="M207.69,89.57c.1,.69,.13,.98,.18,1.29-.86,1.31-2.06,2.28-3.25,3.16-.38-.08-.73-.06-.94-.21-.34-.26-.29-.86,.05-1.23,.52-.57,1.01-1.19,1.61-1.66,.6-.47,1.33-.77,2.35-1.34Z"/><path d="M14.97,109.97c-.97,1.39-2.55,1.79-3.9,2.46-.37-.07-.68-.1-.97-.18-.13-.04-.23-.2-.35-.3,.28-.99,1.05-1.55,1.85-2.08,.98-.49,2.01-.79,3.12-.77,.09,.29,.17,.57,.26,.87Z"/><path d="M34.83,43.53c.57,.28,1.26,.61,1.77,.86,.61,.77,.43,1.34-.05,1.8-.32,.31-.75,.5-1.06,.71-.95-.04-1.63-.38-2.03-1.12-.13-.24-.14-.63-.05-.89,.21-.6,.61-1.08,1.42-1.35Z"/><path d="M225.07,40.81c-.45,.65-.88,1.35-1.86,1.18-1.03-.74-.74-2.02-1.31-3.08,.44-.14,.88-.45,1.27-.38,1.17,.2,1.72,.94,1.9,2.29Z"/><path d="M163.32,126.33c.19-.2,.36-.42,.58-.59,.11-.08,.3-.08,.46-.08,.8-.02,1.57,.11,2.24,.57,.77,.53,1.63,.99,1.85,2.15-.41,.12-.89,.43-1.25,.33-1.35-.41-2.7-.87-3.7-1.95-.1-.11-.12-.29-.18-.44Z"/><path d="M74.36,42.21q-.58-.9-.48-2.09c.5-.8,1.03-1.55,2.13-1.47,.43,.24,.71,.6,.67,1.09-.04,.61-.15,1.21-.2,1.64-.63,.83-1.28,1.13-2.13,.83Z"/><path d="M141.52,112.69c.13,.47,.42,.94,.33,1.33-.16,.77-.55,1.48-.8,2.23-.2,.6-.34,1.22-.47,1.73-.36,.27-.59,.48-.86,.63-.28,.15-.61-.01-.62-.42-.01-1.79,.65-3.39,1.57-4.89,.15-.25,.5-.37,.85-.62Z"/><path d="M184.8,133.04c-.05,.43,.02,.8-.14,1-.16,.19-.61,.35-.82,.27-1.32-.54-2.65-1.1-3.5-2.36,.03-.3,0-.62,.1-.89,.15-.39,.81-.43,1.27-.14,.13,.09,.28,.15,.41,.24,.91,.64,1.82,1.28,2.67,1.88Z"/><path d="M35.24,108.99c.66-.34,1.27-.56,1.92-.38,.29,.08,.53,.3,.8,.45,.17,1.16-.62,1.71-1.42,2.25-1.59,.14-1.62,.16-2.03-1.25,.25-.36,.52-.74,.74-1.06Z"/><path d="M18.55,82.05c.09,.29,.28,.61,.22,.85-.06,.23-.37,.51-.62,.56-1.55,.31-2.67-.52-3.69-1.51-.08-.08-.08-.35,0-.45,.17-.22,.41-.56,.61-.54,1.25,.07,2.36,.63,3.49,1.1Z"/><path d="M192.2,2.97c1.23-.08,1.85,.45,1.99,1.56-.26,1-.99,1.55-1.83,1.95-.7-.21-1.08-.67-1.35-1.24-.17-1.1,.51-1.72,1.2-2.26Z"/><path d="M219.5,37.19c.04,1.93-.27,2.21-2.15,2.08-.92-1.03-1.21-2.12-.26-3.31,.92,.25,1.78,.59,2.41,1.23Z"/><path d="M103.06,84.82c.62,.29,.88,.85,1.12,1.51-.17,1.32-.99,2.15-2.24,2.62-.67-.6-.75-1.37-.49-2.12,.29-.84,.47-1.83,1.61-2.01Z"/><path d="M121.73,16.69c-.16-.63-.27-1.25,.39-1.83,1.62,.84,2.51,2.25,3.07,4.08-.42,.12-.84,.24-1.17,.34-1.04-.73-1.72-1.61-2.29-2.58Z"/><path d="M208.29,10.14c.32-.14,.64-.4,.87-.34,1.39,.35,2.66,.96,3.45,2.24,.15,.24,.23,.64,.15,.89-.17,.53-.81,.7-1.19,.39-1.14-.93-2.63-1.62-3.28-3.18Z"/><path d="M190.12,139.85q1.21-.71,2.41,.09c.33,.76,.41,1.55,.09,2.3-.26,.62-.77,.93-1.48,.64-.67-.9-1.11-1.87-1.02-3.03Z"/><path d="M104.84,100.47c-1.1-.64-1.52-1.55-1.08-2.88,.32-.2,.71-.45,1.02-.64,1.04,.05,1.61,.55,1.64,1.45,.03,1.06-.54,1.76-1.58,2.06Z"/><path d="M37.71,122.27c.67,.35,1.51,.42,2.1,.96-.23,1.33-1.15,1.86-2.23,2.22-.8-.36-1.26-.94-1.18-1.86,.25-.63,.65-1.09,1.31-1.33Z"/><path d="M208.76,57.83c1-.13,1.94-.2,2.12,1.13-.46,.93-1.23,1.3-2.17,1.33-.82-.92-.82-1.72,.05-2.46Z"/><path d="M44.22,108c.71,.05,1.03,.53,1.27,1.1-.29,.72-.48,1.49-1.2,2.02h-.92c-.12-.41-.35-.83-.34-1.25,.04-.81,.52-1.42,1.19-1.87Z"/><path d="M58.71,33c.92-.3,1.47,.19,1.93,.86,.18,.26,.14,.54-.03,.85-.3,.56-.72,1-1.27,1.33-.39,.24-.95,0-1.07-.46-.23-.93-.31-1.84,.44-2.59Z"/><path d="M96.85,58.17c-.16,.84-.64,1.36-1.57,1.55-.32-.17-.71-.38-1.04-.56-.34-1.21,.41-1.75,1.17-2.28,1.01-.15,1.35,.43,1.44,1.29Z"/><path d="M214.14,57.53c-1.62-.48-1.81-1.21-.72-2.61,.79-.19,1.54-.2,2.11,.52,.32,1.22-.57,1.63-1.39,2.09Z"/><path d="M122.11,1.33c.61,.42,.64,.99,.53,1.6-.16,.94-.86,1.57-1.08,2.24-.49,.2-.78,.09-.83-.28-.21-1.44,.05-2.71,1.38-3.56Z"/><path d="M23.53,49.94c.41,.04,.89,.02,1.33,.14,.85,.22,1.04,1.15,.39,1.83-.21,.22-.52,.35-.8,.53-.91,.05-1.38-.52-1.59-1.31-.13-.5,.21-.86,.67-1.18Z"/><path d="M174.81,134.9c.49-.14,.77-.23,1.09-.32,.74,1.09,.76,2.23,.22,3.41-.28-.06-.55-.12-.81-.18-.6-.78-.82-1.64-.5-2.91Z"/><path d="M30.03,39.93c-1.24-.35-1.75-1.18-1.56-2.42,.04-.27,.23-.56,.44-.75,.26-.24,.99-.04,1.19,.27,.64,.98,.82,1.95-.07,2.9Z"/><path d="M46.02,40.27c-.78,.28-1.5,.32-2.02-.45v-.89c.58-.79,1.35-.65,2.11-.5q.66,.85-.09,1.84Z"/><path d="M20.67,58.63c.77-.22,1.5-.25,2.08,.63-.19,.33-.33,.81-.64,1.07-.47,.38-1.2,.25-1.67-.16-.11-.09-.22-.22-.26-.36-.13-.5,.12-.87,.49-1.18Z"/><path d="M220.14,31.92c.55-.06,1.04,.03,1.25,.5,.35,.77,.31,1.52-.47,2.07-.49,.04-.99-.01-1.22-.48-.28-.58-.33-1.21,.14-1.76,.1-.12,.21-.24,.29-.32Z"/><path d="M28.06,45.99c-.3,.02-.61,.04-.91,.06-.16-.26-.42-.51-.47-.8-.08-.45-.02-.92-.02-1.48,.49-.13,.91-.25,1.27-.35,.89,.88,.95,1.71,.14,2.56Z"/><path d="M215.11,93.32c1.23,.43,1.87,1.24,2.2,2.33-.12,.11-.22,.29-.35,.31-.29,.05-.59,.01-1.04,.01-.3-.4-.77-.85-1-1.39-.14-.33,.11-.82,.19-1.27Z"/><path d="M36.33,131.18c.73-.84,1.51-.89,2.33-.12-.18,.6-.54,1.07-1.11,1.36-.5,.26-1.13-.13-1.24-.78-.02-.15,.01-.3,.02-.45Z"/><path d="M119.43,6.92c1.38,.32,1.42,.4,.75,1.69-1.39-.33-1.44-.43-.75-1.69Z"/><path d="M54.36,116.19c.08,.34,0,.66-.32,.76-.25,.08-.57,.05-.83-.02-.38-.12-.26-.64,.24-1.06,.28-.24,.55-.27,.74-.06,.09,.1,.11,.26,.17,.39Z"/><path d="M17.71,64.8c-.38,.53-.82,.59-1.27,.42-.37-.13-.45-.43-.32-.81,.12-.36,.36-.63,.59-.49,.38,.22,.68,.58,1,.88Z"/><path d="M154.28,62.43c.08-.42,.14-.85,.25-1.26,.03-.11,.24-.27,.29-.25,.31,.14,.42,.4,.36,.73-.09,.47-.34,.77-.83,.85l-.07-.06Z"/><path d="M66.01,65.36c.05,.35-.26,.79-.4,.67-.69-.58,.01-.58,.36-.7l.03,.03Z"/><path d="M147.64,56.76c-.07-.33,.04-.58,.35-.68,.06-.02,.19,.15,.29,.23-.24,.12-.48,.25-.72,.37l.08,.08Z"/><path d="M135.16,18.27c-.39-.01-.56-.16-.53-.44,.1,.03,.25,.04,.3,.11,.08,.11,.1,.27,.15,.41,0,0,.08-.08,.08-.08Z"/><polygon points="102.03 10.4 101.89 10.08 102.21 10.11 102.03 10.4"/></svg>