<?xml version="1.0" encoding="UTF-8"?><svg id="Layer_1" xmlns="http://www.w3.org/2000/svg" viewBox="0 0 89.38 123.63"><path d="M66.73,49.02c2.02-1.99,4.26-2.44,6.75-1.74,4.67,1.32,8.86,3.63,12.76,6.46,1.29,.94,2.46,2.07,3.03,3.89,.31,1.27-.08,2.64-.76,3.94-.97,1.86-2.47,2.86-4.6,2.91-2.59,.06-5.11-.26-7.47-1.38-1.44-.69-2.87-1.4-4.26-2.18-2.41-1.35-4.35-3.23-5.86-5.56-.52-.8-1.01-1.62-1.46-2.36-.66-.39-1.21-.71-1.88-1.1-2.48,.08-4.93-.79-7.47-.99-2.53-.2-4.99-1.16-7.62-.78,.16,.37,.2,.73,.4,.88,2.54,1.95,4.9,4.1,7.19,6.33,.8,.78,1.78,1.37,2.56,2.16,.82,.85,2.07,.84,3.06,1.79,.61,1.24,1.5,2.53,2.7,3.62,1.67,1.5,3.04,3.26,4.31,5.13,1.88,2.78,3.87,5.48,5.8,8.23,2.4,3.43,4.2,7.13,5.29,11.2,.49,1.84,.73,3.76,1.56,5.52,.26,.55,.28,1.25,.31,1.88,.05,1.12,.01,2.24,.01,3.37-.99,3.54-2.35,6.94-4.08,10.19-2.03,3.82-3.73,7.77-4.71,12.01-.07,.29-.3,.55-.44,.83-.19,.38-.92,.47-1.26,.14-.34-.33-.74-.64-.96-1.03-.47-.83-.83-1.72-1.16-2.42-.31-2.24-.6-4.3-.89-6.4,.14-1.21,.37-2.47,.42-3.74,.15-3.83,.25-7.67,.34-11.51,.05-2.24,.12-4.48,.04-6.71-.08-2.39-.18-4.77-.74-7.14-.51-2.16-.76-4.4-1.12-6.6-.28-1.71-.06-3.5-.06-5.08-1.02-2.25-2.37-3.97-4.13-5.35-.92,.69-.59,1.52-.67,2.25-.08,.79-.11,1.59-.17,2.55-.5,.83-1.06,1.78-1.66,2.77,.53,.55,1.05,1.09,1.66,1.73,.29,1.98,.18,4.05,.07,5.97-1.03,4.2-2.44,8.1-4.51,11.73-.79,1.38-1.63,2.75-2.56,4.05-1.41,1.98-3.68,1.95-5.24,0-.3-.37-.61-.75-.86-1.15-.34-.54-.67-1.09-.94-1.67-.73-1.59-1.43-3.2-2.12-4.75v-4.42c2.24-6.73,6.68-11.52,13.07-14.67,.83-2.62,1.57-5.2,.28-7.84-1.76-1.8-9.53-8.86-11.04-10.01-.89-.67-1.8-1.33-2.73-1.93-.22-.14-.6-.02-.91-.02-.74,1.1-.62,2.46-1,3.52,0,.45-.03,.77,0,1.08,.12,1.11,.32,2.21,.4,3.33,.21,3.19,.61,6.39,.5,9.57-.17,4.93-.25,9.9-1.55,14.73-1.49,5.56-3.48,10.95-5.7,16.25-.24,.57-.69,1.06-1.07,1.56-.08,.11-.28,.13-.43,.2-.78-.58-.32-1.46-.53-2.2-.72-1.38-1.5-2.77-2.18-4.21-.4-.86-.7-1.79-.94-2.71-.87-3.24-1.68-6.49-1.62-9.88,0-.48,.03-.96,0-1.44-.29-4.22,.58-8.28,1.97-12.21,1.86-5.28,4.14-10.38,7.26-14.99,.69-.52,1.31-1,1.95-1.48,.52-1.41,.37-2.84,.33-4.44-3.83-4.52-7.1-9.63-10.89-14.29q-1.23,.72-1.61,2.03c.62,1.14,1.3,2.38,1.91,3.52,.33,2.03,.63,3.92,.97,6.02-.21,1.05-.45,2.31-.72,3.56-.96,4.43-3.34,7.89-7.12,10.39-.26,.17-.58,.26-1.13,.49h-3.06c-3.02-.86-4.97-2.81-6.11-6.16-.2-.96-.5-2.37-.82-3.9,.18-.82,.42-1.75,.58-2.69,.35-2.12,1.32-3.92,2.68-5.54,.41-.49,.82-.98,1.25-1.45,3.06-3.34,4.19-4.08,8.67-5.71,.92-1.1,1.67-2.31,2.05-3.8-.13-.4-.2-.89-.43-1.3-2.26-4.05-4.34-8.18-5.94-12.55-.13-.36-.61-.59-.91-.86-1.43,.83-1.91,2.26-2.89,3.63-.44,.32-1.08,.79-1.72,1.26-.18,.26-.39,.51-.52,.79-1.91,4.23-3.41,8.61-4.91,12.99-.78,2.26-1.58,4.52-2.71,6.65-.6,1.14-1.29,2.22-2.27,3.06-.47,.4-1.04,.69-1.44,.94-1.42-.14-2.24-.89-2.86-1.84-.51-.8-.89-1.69-1.38-2.66-.53-7.69,2.54-13.88,8.25-18.93,1.08-.95,2.2-1.85,3.33-2.8,1.45-.51,3.04-.82,4.47-1.9,1.18-1.71,2.45-3.54,3.76-5.42-.33-1.25-.6-2.48-.98-3.69-.73-2.32-.91-4.7-.69-7.1,.04-.42,.34-.81,.6-1.39,.37,.5,.77,.82,.88,1.22,.6,2.15,1.1,4.33,1.68,6.49,1.42,5.25,3.23,10.36,5.45,15.32,.72,1.6,1.54,3.14,2.86,4.52,2.14,.3,4.36-.13,6.58-.1,2.08,.03,4.16-.14,6.39,.34,1.15,.52,2.46,1.11,3.68,1.67,2.33,.44,4.55,.38,6.74-.28,.61-.18,1.24-.38,1.86-.41,3.99-.22,7.98-.66,12.18-.02,2.26,.72,4.5,1.94,6.56,3.47,3.46,2.58,6.87,5.2,9.77,8.46v1.76c-.53,.67-1.1,.97-1.76,.93-1.91-.11-3.85-.13-5.72-.46-1.88-.33-3.7-.97-5.54-1.49-4.15-1.17-8.3-2.28-12.53-3.12-2.5-.5-4.97-1.15-7.43-1.82-1.22-.34-2.44-.8-3.57-1.37-1.3-.65-2.41-1.57-2.92-3.03-.1-.29-.35-.53-.53-.8-.89-.76-2.04-.94-3.12-1.09-2.38-.32-4.78-.35-7.16,0-.63,.09-1.17,.47-1.14,1.51,2.38,3.33,4.91,6.81,7.44,10.3,1.32,1.82,2.8,3.49,4.42,5.04,.23,.22,.52,.36,.78,.54,.77,.33,1.57,.23,2.36,.16,2.24-.18,4.47-.06,6.71,.07,2.89,.17,5.65,.92,8.45,1.58,1.42,.34,2.44,1.36,3.79,1.77,.24-.65,.45-1.25,.78-2.14Zm18.85,8.51c.09-.35-.01-.62-.34-.74-.06-.02-.3,.19-.29,.27,.04,.36,.29,.5,.66,.44,.03,.3,.02,.61,.09,.89,.1,.4,.33,.53,.54,.34,.1-.09,.17-.26,.17-.39-.02-.51-.27-.82-.82-.82Zm-4.77-16.37c.08,.13,.12,.32,.23,.38,.33,.17,.69,.55,1-.03-.14-.05-.28-.11-.43-.14-.29-.05-.59-.09-.88-.13,.05-.53-.24-.91-.62-1.2-2.54-1.92-5.09-3.83-7.77-5.57-2.58-1.67-5.24-3.01-8.3-3.47-.32-.05-.63-.09-.95-.14q-4.32,.19-6.88,1.29c4.14,1.45,8.22,2.73,12.49,3.38,.93,.14,1.84,.5,2.73,.84,.37,.14,.41,.48,.15,.79-.49,.17-1.09,.36-1.67,.57-.02,0,0,.17,.02,.43,3.04,1.21,6.15,2.39,9.45,3,.46,.09,.95,0,1.43-.01Zm-7.72,41.37c-.05-.12-.09-.25-.16-.36-.04-.06-.14-.09-.21-.14-.03,.23,.13,.36,.47,.4-.18,1.6,.03,3.18,.37,4.74,.2,.93,.43,1.87,.5,2.81,.35,4.61,.51,9.23,.2,13.85-.12,1.75-.21,3.48-.88,5.16-.28,.7-.16,1.56-.22,2.35-.32-.35-.63-.7-.93-1.04-.23-1.79-.12-3.54,.26-5.25,.57-2.52,.52-5.09,.15-7.59-.3-2.05-.41-4.11-.69-6.15-.03-.18-.25-.34-.39-.52-.44,.59-.32,1.25-.34,1.87-.07,2.22,.15,4.49-.22,6.66-.7,4.11-.62,8.23-.68,12.36-.02,1.58-.18,3.18,.2,4.78,.28-.15,.61-.22,.71-.41,.64-1.27,1.24-2.57,1.82-3.87,.12-.27,.04-.62,.06-.94,.15-.06,.36-.07,.43-.18,1.73-2.68,3.07-5.56,4.04-8.59,.72-2.26,1.51-4.55,1.08-7.43-.42-1.26-1.03-2.9-1.5-4.58-.74-2.63-1.94-5.04-3.32-7.38-.14-.24-.48-.37-.73-.55Zm-35.47-19.19c-.13,.09-.32,.16-.38,.28-1.67,3.27-3.04,6.67-3.92,10.23-.65,2.62-1.18,5.29-1.31,8.01-.17,3.7,.63,7.29,1.3,10.89,.23,1.24,.74,2.43,1.2,3.62,.16,.41,.52,.75,.88,1.24,.19-.6,.44-1.04,.44-1.49,0-1.75-.15-3.51-.15-5.26,0-3.51,.05-7.02,.08-10.53,.72-2.97,.66-6.02,.92-9.03,.05-.63,.14-1.27,.31-1.88,.56-2.03,.64-4.09,.53-6.17,.47-.17,.57-.31,.32-.3-.08,0-.15,.26-.22,.4Zm3.45-2.4c-1.1,1.14-1.34,2.22-1.41,3.35-.24,3.97-1.29,7.87-1.22,11.87,0,.16-.03,.32-.07,.47-.88,4.09-.69,8.24-.71,12.38,0,.17,.27,.34,.51,.64,1.56-4.49,2.39-9.04,2.97-13.58,.63-4.9,.3-9.87-.08-15.13ZM9.38,25.12c-1.91,3.24-2.56,6.53-3.24,9.78-.25,1.19-.54,2.5,.09,3.75,.2-.23,.45-.42,.55-.66,1.78-4.25,3.2-8.63,4.69-12.98,.07-.21-.2-.55-.34-.91-.55,.32-1.08,.64-1.74,1.02Zm13.54,28.02c.31-.37,.65-.67,.87-1.04,.2-.35,.23-.77-.26-.99-.51,.34-.86,.82-.97,1.41-.03,.17,.21,.38,.35,.62Zm5.63-5.61c-.41,.55-.4,1.12-.12,1.72,.39-.55,.34-1.12,.12-1.72ZM2.57,37.99c-.35,.61-.38,1.19-.02,1.77,.56-.58,.56-1.16,.02-1.77Zm1.08-2.67c-.04-.13-.07-.26-.11-.4-.07,.12-.17,.23-.19,.35-.06,.39,.05,.56,.2,.42,.08-.07,.07-.25,.1-.38Zm75.44,22.63l.29,.15,.03-.24-.32,.09Z"/></svg>