<?xml version="1.0" encoding="UTF-8"?><svg id="Layer_1" xmlns="http://www.w3.org/2000/svg" viewBox="0 0 144.91 139.67"><path d="M49.71,15.88c-.84-.14-.94-.68-.71-1.52,.39-.32,.88-.72,1.45-1.19,1.08,.03,2.21-.06,3.29,.13,2.67,.46,9.99,2.81,12.75,3.95,1.94,.8,3.74,1.87,5.31,3.2,1.47,1.25,3.04,2.34,4.63,3.39,2.15,1.43,3.93,3.16,5.46,5.28,1.54-1.14,3.16-2.12,4.9-2.94,2.02-.95,3.97-2.05,5.96-3.06,2.28-1.15,4.64-2.1,7.18-2.5,1.41-.22,2.69-1.04,4.17-1.01,2.92-1.1,5.94-1.08,9.12-.71,.6,.3,1.31,.65,1.97,.98,.23,.31,.45,.55,.59,.82,.14,.28,.15,.63,.29,.91,1.38,2.9,2.07,6,2.78,9.11,.35,1.54,.9,3.05,1.43,4.55,.69,1.95,1.5,3.86,1.67,5.96,.58,1.18,.69,2.45,.71,3.74,.01,.48,0,.99,.16,1.42,.8,2.14,.58,4.43,1.02,6.6,.48,2.36,.82,4.7,.89,7.1,1.2,3.1,.67,6.3,.63,8.96-.77,3.46-2.34,6.13-2.84,9.13q-2.99,5-6.39,7.58c.93,4.49,3.31,8.6,3.72,13.26,1.17,4.46,2.48,8.88,3.05,13.49,.32,.36,.63,.71,.98,1.09,.47,.03,.97,.18,1.39,.05,2.95-.87,5.98-.92,9.02-.95,.63,0,1.27,.13,1.9,.2,1.44,.69,2.55,1.86,4.18,2.27,1.36,.35,2.57,1.24,3.67,1.81,.75,.77,.87,1.56,.84,2.37-.04,.79-.18,1.58-.27,2.3-1.3,1.97-2.88,3.57-4.65,4.94-2.16,1.68-4.64,2.85-7.3,3.44-1.25,.28-2.44,.72-3.68,1.02-1.08,.26-2.21,.29-3.24,.81-.41,.2-.93,.23-1.4,.26-2.71,.15-5.43,.3-8.15,.04-.63-.06-1.3-.12-1.86-.38-.9-.41-1.82-.54-2.79-.57-1.14-.03-2.16-.52-3.18-.98-.91-.41-1.59-1.05-2.1-1.89-.33-.55-.64-1.1-.97-1.67v-2.39c.64-.94,1.33-1.82,1.86-2.78,.56-1.02,1.35-1.79,2.27-2.42,2.23-1.54,4.46-3.1,7.46-4.12,.69-.08,1.81-.14,2.91-.34,.8-.14,1.47-.58,1.78-1.53-1.83-5.65-3.33-11.49-4.8-17.35-.81-3.24-1.82-6.42-3.18-9.6-1.79-.61-3.56-1.31-5.38-1.83-2.49-.7-4.69-2-6.96-3.15-1.02-.52-1.79-1.33-2.44-2.26-1.27-1.83-2.56-3.65-3.8-5.5-1.24-1.86-2.51-3.7-3.59-5.65-1.23-2.23-2.41-4.51-3.34-6.88-1.16-2.97-2.22-5.96-3.7-8.79-.44-.85-.88-1.71-1.14-2.62-.27-.94-.55-1.85-1.18-2.59-.66-.77-.62-1.79-1.09-2.62-.04-.08-.24-.12-.34-.1-.15,.03-.29,.12-.42,.21-.12,.1-.26,.21-.32,.35-1.69,3.98-4.27,7.46-6.37,11.21-1.95,3.48-3.95,6.92-5.93,10.39-.24,.41-.41,.86-.61,1.29-1.1,2.3-2.08,4.62-3.81,6.59-1.57,1.79-2.92,3.77-4.75,5.36-1.81,1.57-3.45,3.33-5.37,5.22-.96,.59-2.18,1.33-3.43,2.09-1.72,.39-3.48,.28-5.23,.09-.77-.08-1.51-.49-2.28-.67-.45-.11-.94-.06-1.37-.09-.21,.32-.47,.56-.53,.84-.76,3.43-1.95,6.72-3.25,9.98-.65,1.63-1.21,3.29-1.96,4.87-.68,1.45-1.25,2.93-1.88,4.39-.81,1.9-1.72,3.77-2.87,5.52-.68,1.04-1.42,2.11-1.51,3.45,1.45,.98,2.9,1.95,4.29,2.88,2.92,2.97,4.38,6.7,6.05,10.54,.05,.44,.19,1.08,.17,1.71-.04,1.6-.14,3.19-.21,4.57-.73,1.31-1.03,2.62-2.46,3.57-.88,.31-2.08,.73-3.21,1.13-.55,0-1.04,.07-1.51-.01-1.1-.19-2.18-.64-3.27-.65-2.6-.02-5.01-.9-7.49-1.44-1.71-.37-3.34-1.15-5.05-1.38-2.3-.31-4.28-1.3-6.2-2.41-2.2-1.27-4.38-2.64-6.08-4.61-.93-1.09-1.9-2.15-2.82-3.19-.33-1.46-.65-2.85-1-4.4,.53-1.19,.55-2.63,.72-4,.81-2.23,2.15-3.96,4.25-5.27,1.06-.39,2.25-.84,3.52-1.31h4.83c3.48,.82,6.35,2.21,9.31,3.38,1.08,.43,2.14,.58,3.36,.49,.3-.25,.73-.5,1.01-.86,.29-.37,.45-.84,.64-1.27,2.36-5.4,4.89-10.74,7.03-16.23,1.44-3.7,2.85-7.42,4.15-11.18,.05-.14,0-.32,0-.56-.26-.31-.49-.79-.86-1.02-3.15-1.91-5.22-4.65-6.44-8.55-.24-1.8-.39-4.03-.18-6.27,.09-.95,.28-1.88,.45-2.82,.09-.47,.29-.92,.34-1.38,.16-1.59,.27-3.18,.4-4.78,.77-1.32,.59-2.79,.65-4.21,.09-1.95,.7-3.78,1.31-5.57,.92-2.71,1.67-5.49,3.03-8.04,1.7-5.36,4.62-10.14,7.15-15.1,.36-.7,.83-1.35,1.32-1.98,.17-.21,.54-.27,.82-.39l-.1-.1c.01,.64-.03,1.26-.36,1.85-1.46,2.66-2.44,5.52-3.48,8.36-1.43,3.88-3.06,7.69-4.59,11.53-.59,1.48-1.25,2.94-1.69,4.46-.53,1.82-.87,3.71-1.29,5.56-.28,1.24-.65,2.46-.82,3.71-.17,1.26-.12,2.55-.19,3.83-.03,.64-.01,1.3-.17,1.91-.33,1.23-.74,2.44-.7,3.74,.05,1.75,.09,3.51,.13,4.83,.59,2.35,1.94,3.76,3.08,5.45,.92,.67,1.94,1.42,3.01,2.2,.37-.38,.7-.72,1.1-1.13-.62-.93-1.26-1.81-1.81-2.74-.49-.82-.9-1.69-1.31-2.55-.49-1-.95-2.02-1.31-2.79-.64-4.31,.24-8.2,1.15-12.08,.83-1.27,.46-2.84,1.02-4.16,.58-1.37,.46-2.83,.81-4.22,1.35-2.69,2.34-5.62,5.04-7.41,.16,.3,.46,.6,.4,.78-.61,1.8-1.13,3.67-1.99,5.35-.74,1.45-.9,3.06-1.6,4.49,.03,1.79-1.01,3.32-1.2,5.09-.17,1.56-.58,3.13-.92,4.68-.44,2.03-1.03,4.01-.78,6.43,.7,1.44,1.54,3.15,2.26,4.61,.96,1.37,2.52,1.1,3.23,2.12,2.12-.07,4.04-.13,5.91-.19,1.05-.56,2.03-1.09,2.97-1.59,1.29-1.74,2.03-3.72,3.41-5.3,1.26-1.44,2.46-2.95,3.55-4.52,1.82-2.61,3.86-5.09,5.17-8.03,.39-.87,.73-1.77,.98-2.69,.17-.61,.14-1.26,.21-2-.32-.28-.61-.66-1-.86-1.14-.57-2.28-1.21-3.5-1.54-1.88-.51-3.47-1.61-5.24-2.32-2.45-1.83-5.3-2.93-7.94-4.4-.4-.22-.77-.5-1.2-.78,1.08-.78,2.21-.44,3.31-.41,1.88,.46,3.51,1.51,5.18,2.41,3.52,1.88,7.07,3.69,10.89,4.89,.45,.14,.88,.37,1.42,.6,.31,.45,.67,.97,1.03,1.5-.35,1.43-.51,2.89-1.07,4.17-1.22,2.75-2.26,5.62-4.28,7.98-.93,1.08-1.62,2.36-2.43,3.55-.36,.53-.68,1.11-1.13,1.54-1.85,1.79-3.2,3.96-4.62,6.07-.81,1.2-1.71,2.31-3.05,3.33-1.01,.33-2.21,.74-3.66,1.22-.86,.03-1.98,.1-3.09,.11-1.09,0-2.17-.06-3.15-.59-.44,.81-.74,1.37-1.06,1.97,.27,.4,.53,.77,.78,1.13,1.88,.53,3.63,1.4,5.71,1.16,1.49-.42,2.79-1.32,3.98-2.41,3.16-2.94,6.28-5.93,9.06-9.24,2.26-2.7,4.23-5.59,5.24-9.04,.13-.45,.35-.88,.58-1.3,2.34-4.17,4.81-8.27,7.46-12.25,.53-.8,.97-1.66,1.56-2.41,1.89-2.41,2.99-5.24,4.43-7.89-.99-1.6-.51-3.5-1.16-5.12h-5.67c-4.01-1.09-7.47-2.71-10.75-4.7-1.49-.91-2.94-1.9-4.39-2.88-.39-.27-.69-.66-.75-1.17l-.1,.09c.32,0,.66-.08,.95,.01,.45,.14,.88,.36,1.29,.59,1.25,.7,2.42,1.59,3.74,2.1,2.96,1.15,5.83,2.57,8.95,3.28,.77,.18,1.52,.48,2.3,.58,.78,.1,1.58,.02,2.42,.02,.69-.4,1.37-.8,1.89-1.1,.67-1.04,.72-1.95,.27-3.11-2.72-2.14-5.6-4.4-8.94-7.01-.48-.25-1.45-.79-2.45-1.28-2.57-1.26-5.13-2.49-7.97-3.14-2.31-.53-4.52-1.5-6.8-2.18-.74-.22-1.57-.23-2.36-.21-.48,.01-.82,.41-.98,.9l.11-.11ZM24.66,121.48s.1,.1,.1,.1c-.06-1.1-.13-2.2-.19-3.34-3.85-2.51-8.09-3.86-12.37-5.08-.45-.13-.98-.17-1.42-.06-1.39,.32-2.75,.74-4.14,1.12-.96,.9-1.88,1.77-2.69,2.53-.43,1.06-.8,1.94-1.19,2.9v3.6c.69,2.2,1.95,3.78,3.54,5.2,1.33,1.19,2.9,1.95,4.35,2.92,2.02,1.35,4.19,2.23,6.57,2.68,.47,.09,.94,.18,1.38,.36,2.82,1.17,5.9,1.29,8.78,2.21,2.38,.13,4.75,.64,7.27,.09,.4-.36,.86-.78,1.2-1.08,1.35-3.97,2.01-4.52,.2-9.42-1.04-1.77-1.88-3.12-2.66-4.51-1.11-1.99-2.58-3.62-4.56-4.78-.32-.19-.63-.08-.88,.22,.69,1.19,1.4,2.39,2.08,3.6,.18,.31,.03,.54-.36,.64-1.31-.12-2.04-1.57-3.52-1.52-.23,.35-.45,.77-.75,1.12-.19,.22-.5,.34-.75,.5ZM119.47,39.55c-2.01-4.14-3.05-8.46-3.94-12.66-.69-.63-1.33-.54-1.85-.16-1.3,.95-2.71,1.61-4.2,2.2-1.63,.64-3.19,1.44-4.89,1.89-.61,.16-1.23,.5-1.83,.48-1.95-.05-3.73,.79-5.65,.92-2.06,.15-3.95,1.23-6.06,1.19-1.97,.83-4.05,.77-6.12,.76-1.27,0-2.55,0-3.85,0-.17,.19-.47,.39-.53,.64-.07,.27,0,.66,.17,.89,.27,.37,.66,.66,.94,.92,.7-.07,.53-1.1,1.3-.98,.06,.17,.14,.31,.17,.46,.2,1.33-.91,2.38-.74,4.24,1.17,4.42,3,9.14,5.19,13.75,1.36,2.87,2.89,5.67,3.89,8.72,.44,1.35,1.13,2.65,1.91,3.85,2.62,4,5.32,7.94,7.94,11.81,3.16,2.18,6.54,3.51,10.01,4.44,.59-.27,.82-.69,.71-1.18-.2-.92-.49-1.82-.75-2.78,.46-.28,.85-.51,1.17-.71,.74,.21,1.27,.52,1.45,1.22,.28,1.09,.6,2.16,1.79,2.77,.4-.07,.9-.06,1.32-.25,.42-.19,.85-.5,1.11-.88,.84-1.16,1.6-2.38,2.34-3.49,.15-.56,.23-1.05,.41-1.49,.86-2.07,1.3-4.27,1.59-6.46,.31-2.36,.37-4.79,.26-7.17-.1-2.04,.08-4.16-.85-6.12-.2-.41-.2-.95-.16-1.42,.23-3.23-.97-6.28-1.16-9.46-.93-1.76-.74-3.73-1.07-5.98Zm-11.97,86.07c.18,.64,.58,1.12,1.05,1.56,1.08,1,2.38,1.62,3.78,1.92,2.63,.57,5.25,1.23,8,.94,1.42-.15,2.82-.31,4.23-.61,1.7-.36,3.47-.38,5.1-1.08,1.98-.08,3.58-1.21,5.33-1.94,.58-.24,1.21-.34,1.79-.5,1.63-1.38,3.2-2.71,4.76-4.02,.39-.88,1.21-1.55,1.01-2.79-1.07-.96-2.24-2.01-3.42-3.07-1.04-.34-2.09-.68-3.15-1.03-2.22-.17-4.43-.31-6.58,.55-.57,.23-1.25,.2-1.88,.25-1.26,.11-2.57-.1-3.76,.45-1.21,.56-2.5,.32-3.74,.58-.46,.1-.9,.29-1.36,.41-1.07,.28-2.14,.55-3.34,.85-2.13,1.69-5.01,2.53-6.84,4.86-.38,.86-1,1.64-.96,2.64Zm6.13-103.44c-1.41-1.35-3.09-1.5-4.88-1.1-.62,.14-1.22,.52-1.82,.5-2.28-.04-4.3,1.1-6.51,1.3-2.79,1.08-5.83,1.56-8.29,3.45-.49,.38-1.12,.61-1.72,.81-1.21,.4-2.38,.86-3.4,1.67-.99,.78-2.36,.96-3.24,1.98,.17,.18,.34,.51,.53,.53,2.23,.19,4.49,.23,6.64-.3,1.55-.38,3.1-.61,4.65-.92,1.55-.31,3.09-.65,4.66-.92,3.91-.69,7.68-1.92,11.15-3.91,.96-.55,1.94-1.12,2.44-2.19-.07-.31-.13-.61-.2-.91Z"/><path d="M84.74,16.36c-.66-.4-.57-1.06-.45-1.6,.23-1.07,.51-2.15,.91-3.17,1.48-3.84,3.28-7.52,5.5-11,.16-.25,.47-.39,.72-.59,.29,.22,.43,.52,.29,.84-1.84,4.36-3.62,8.75-5.83,12.95-.43,.83-.76,1.71-1.13,2.57Z"/><path d="M90.99,16.93c.05-.15,.06-.33,.15-.44,3-3.37,6.15-6.57,9.92-9.09,.12-.08,.3-.05,.46-.08,0,0-.06-.07-.06-.07,.13,.66-.04,1.24-.47,1.73-2.37,2.71-4.8,5.35-7.93,7.22-.27,.16-.52,.34-.92,.61h-1.25l.11,.1Z"/><path d="M78,16.61c-.6-.27-1.1-.78-1.18-1.36-.22-1.75-1.06-3.35-1.19-5.09-.12-1.59-.04-3.19-.02-4.79,0-.13,.18-.25,.3-.41,.17,.17,.47,.34,.47,.5-.03,3.05,1.11,5.93,1.33,8.94,.04,.61,.38,1.19,.54,1.79,.03,.1-.16,.26-.25,.39Z"/><path d="M49.6,15.99c.55,.11,1.21-.09,1.61,.53-.34,.68-.68,1.35-1.01,2.01-.34-.03-.61-.05-.93-.07,.15-.86,.3-1.72,.45-2.57l-.11,.11Z"/><path d="M57.39,26.46c-.55-.09-.92-.36-.94-.97l-.1,.11c.55,.09,.96,.31,.95,.96l.1-.09Z"/><path d="M56.45,25.49c-.24-.1-.48-.2-.72-.3,.07-.09,.15-.17,.22-.26,.13,.22,.26,.45,.39,.67,0,0,.1-.11,.1-.11Z"/><path d="M46.83,24.64c.14-.2,.28-.41,.42-.61-.03,.11-.03,.27-.1,.33-.11,.09-.28,.12-.43,.18,0,0,.1,.1,.1,.1Z"/><path d="M90.89,16.83c.02,.41-.12,.6-.43,.58,.04-.1,.04-.23,.11-.29,.12-.09,.28-.13,.42-.19,0,0-.11-.1-.11-.1Z"/><path d="M92.98,58.27v-4.16c.7-.93,1.68-1.12,2.52-1.55,1.09-.12,2.2-.24,3.29-.36,.32-.11,.64-.17,.92-.32,2.82-1.48,5.74-2.69,8.82-3.52,1.22-.33,2.4-.81,3.58-1.27,1.03-.4,2.03-.85,2.94-1.24,.79,.23,1.25,.63,1.54,1.27-.47,.61-.94,1.23-1.4,1.83,.02,.35-.06,.71,.07,.95,1.32,2.4,1.71,5.1,2.56,7.65,.7,2.12,1.18,4.26,1.03,6.53-.11,1.74-.08,3.5-.12,5.14-.41,1.32-.79,2.53-1.18,3.77-1.22,2.14-3.13,3.49-5.61,4.49-1.06-.05-2.32-.11-3.63-.16-1.43-.65-2.87-1.31-4.03-1.84-3.39-2.77-5.46-6.17-7.52-9.57-1.48-2.44-2.8-4.99-3.78-7.65Zm19.17-8.53c-2.34,.68-4.79,1.24-7.13,2.27-3.2,1.4-6.51,2.56-10.09,2.57-.28,0-.56,.25-.84,.39-.09,.3-.17,.59-.27,.93,1.09,2.43,2.33,4.82,3.82,7.08,1.05,1.59,1.99,3.25,3.01,4.86,.42,.67,.84,1.36,1.36,1.95,1.38,1.54,2.76,3.1,4.57,4.33,1.3,.29,2.69,.6,4.18,.94,.8-.24,1.71-.52,2.53-.77,1.51-.99,2.18-2.41,2.56-4,.19-.77,.24-1.58,.48-2.33,.58-1.88,.47-3.78,.14-5.67-.27-1.56-.58-3.12-.98-4.65-.45-1.69-1-3.35-1.55-5-.35-1.04-.71-2.1-1.77-2.9Z"/><path d="M24.66,121.48c-.11,.23-.21,.47-.32,.7-.08-.08-.16-.17-.23-.25,.22-.12,.43-.24,.65-.35l-.1-.1Z"/><polygon points="124.01 118.36 123.95 118.07 124.15 118.11 124.01 118.36"/></svg>