<?xml version="1.0" encoding="UTF-8"?><svg id="Layer_1" xmlns="http://www.w3.org/2000/svg" viewBox="0 0 89.05 72.99"><path d="M70.62,62.87c-1.22,.82-2.15,1.44-3.19,2.14-1.94,.45-3.99,.56-5.86,.24-2.76-.76-4.21-2.51-4.89-5.1v-2.64c.75-1.65,1.85-2.77,3.29-3.53,4.29-.68,4.94-.65,9.5,.46,.18-.4,.42-.8,.55-1.24,.3-1.07,.64-2.14,.8-3.24,.23-1.57,.15-3.19,.84-4.69,.19-.41,.17-.94,.17-1.42,.01-1.61,.42-3.14,.81-4.7,.35-1.38,.24-2.83,.77-4.22,.44-1.16,.66-2.46,.15-3.77-1.62,.21-2.84,1.3-4.31,1.78-1.66,.54-3.27,1.35-5,1.53-1.6,.16-3.1,.8-4.69,.87-1.59,.07-3.19,.01-4.32,.01-1.56-.11-2.44-1.22-3.77-.63-.13,.34-.42,.76-.44,1.19-.11,2.07-.13,4.15-.22,6.23-.06,1.43-.14,2.84-.52,4.26-.33,1.21-.28,2.53-.37,3.8-.14,2.06-.09,4.13-.75,6.16-.33,1.03-.18,2.21-.24,3.29,1.01,1.23,1,2.67,1.09,4,.54,.67,1.25,.36,1.84,.53,.14,.04,.27,.16,.38,.27,.19,.21,.17,.51-.14,.76-.37,.3-.76,.61-1.19,.79-1.04,.41-2.1,.74-3.38,1.18h-4.96c-5.77-2.24-6.27-2.72-9.03-8.59-.23-2.01-.49-4.07,.13-6.28,.32-.37,.74-.84,1.04-1.18,.48-.17,.78-.35,1.08-.36,.79-.04,1.59-.01,2.3-.01,2.16,.54,3.74,1.92,5.49,3.26,.93,1.09,1.72,2.5,2.97,3.35,.51,.01,.82-.11,.9-.42,.12-.45,.2-.93,.21-1.4,.1-2.39,.16-4.79,.25-7.19,.03-.8-.07-1.65,.18-2.38,.76-2.17,.59-4.42,.74-6.64,.1-1.43,.07-2.85,.53-4.26,.29-.89,.27-1.89,.33-2.84,.15-2.22,.26-4.45,.38-6.53,.51-.77,1.16-.9,1.76-.67,1.37,.52,2.79,.67,4.23,.67,3.52,0,7.03,.04,10.55,.02,1.27,0,2.53-.11,3.78-.5,1.05-.33,2.19-.37,3.3-.51,.95-.12,1.76-.82,2.76-.69,.3,.04,.58,.21,.87,.32-.27,1.07-1.27,1.33-2.03,1.83,0,.12-.05,.28,0,.32,.6,.47,1.49,.66,1.52,1.78-.24,.62-.53,1.36-.85,2.21-.07,1.32-.14,2.76-.21,4.19-.05,.96-.07,1.91-.46,2.82-.12,.29-.24,.62-.23,.92,.07,3.06-.94,5.97-1.19,8.99-.07,.79-.26,1.57-.43,2.34-.1,.47-.35,.92-.36,1.38-.03,2.09-.78,4.07-.94,6.12-.1,1.31-.27,2.5-.96,3.63-.31,.51-.35,1.2-.55,1.98Zm-34.84-8.7c.03,.3,.06,.6,.08,.92,1.06-.1,2.09-.25,2.95-.97-1.03-.63-2.04-.76-3.04,.05Zm16.32-26.84c-.08,.25-.21,.53-.16,.76,.11,.46,.38,.47,.53,.02,.07-.22-.04-.51-.1-.76,0-.03-.27-.04-.28-.01Z"/><path d="M6.06,37.1c-1.05-.75-1.83-1.31-2.72-1.95-.7-.9-1.48-1.91-2.24-2.88-.39-1.42-.77-2.8-1.1-3.98,.15-1.19,.67-2,1.09-2.86,.69-.69,1.56-1.1,2.59-1.54,.64-.03,1.44-.11,2.23-.11,1.12,0,2.24,.07,2.44,.07,4.45,.76,7.26,2.97,10.32,4.64,.2-.37,.47-.63,.47-.9-.07-3.52-.18-7.03-.28-10.55,0-.32,.03-.66-.07-.95-1-3.12-.54-6.34-.64-9.52-.03-1.09,.27-2.2,.43-3.41-.11-.46-.26-1.06-.38-1.55,.61-1.04,1.37-1.54,2.56-1.61,1.08,.35,2.29,.74,3.72,1.2,2.07,1.66,4.32,3.45,6.56,5.24,.31,.07,.66,.25,.92,.17,.75-.23,1.45-.59,2.19-.85,.34-.12,.63,.04,.83,.35-.27,1.34-1.57,1.96-2.17,3.05-.3,.98-.16,1.88,.32,2.78,.31,.58,.3,1.22-.04,1.84-.66,.7-1.52,1.11-2.6,1.51h-2.79c-1.27-.86-2.59-1.75-3.64-2.47-1.32-1.37-1.89-2.98-3.35-3.81-.26-.02-.44,.18-.43,.58,.02,.47,.03,.97,.18,1.41,.32,.92,.5,1.84,.53,2.81,.15,5.28,.06,10.55,.07,15.57-.99,1.62-1.78,3-2.65,4.33-.34,.53-.8,1-1.26,1.44-.7,.65-1.45,1.25-2.22,1.91-.89,.27-1.82,.48-2.71,.83-1.26,.49-2.47,.47-3.73-.03-.74-.29-1.52-.46-2.44-.73Zm7.99-6.67c.26-.1,.53-.2,.79-.29-.11-.09-.2-.22-.33-.27-.32-.13-.59-.05-.74,.25-.02,.05,.17,.21,.27,.31ZM30.16,12.05l.16-.19-.26-.04,.1,.23Z"/><path d="M69.62,12.46h-5.18c-3.69-1.55-7.04-3.81-11.37-4.75-1.81-.04-4.03-.32-6.22,.38-.81,.26-.89,.12-.69-1.29,.43-.3,.94-.68,1.48-.99,.27-.15,.61-.18,.92-.24,1.39-.3,2.69-.97,4.19-.79,1.59,.2,3.1,.71,4.58,1.26,1.34,.49,2.6,1.19,3.89,1.81,1,.48,1.97,1.05,3,1.46,.88,.35,1.82,.55,2.74,.82,.3-.04,.65-.01,.92-.14,1.32-.61,2.84-.36,4.14-1.08,1.94-1.08,3.97-2.02,5.89-3.13,1.23-.71,2.38-1.56,3.77-1.9,.45,.15,.54,.37,.33,.68-.7,1.1-1.71,1.89-2.74,2.62-2.86,2.03-5.82,3.89-9.65,5.28Z"/><path d="M2.33,49.05c1.87-.44,3.46-.31,5.17-.17,.47,.21,1.04,.49,1.63,.73,1.85,.76,3.2,2.11,4.13,3.8,.91,1.66,1.84,3.35,2.07,5.29,.15,1.29,.84,2.38,1.38,3.5,.87,1.01,1.9,1.09,3.03,.59,1.74-.76,3.46-1.58,5.23-2.29,.37-.15,.89,.08,1.49,.15-.31,.52-.47,.96-.77,1.26-.45,.44-.96,.85-1.5,1.17-1.24,.71-2.52,1.35-3.76,2.01-.94,.23-1.87,.46-2.81,.69-.44-.15-.89-.31-1.34-.45-.81-.25-1.4-.79-1.76-1.51-.5-.99-1.06-1.94-1.29-3.06-.23-1.08-.61-2.13-.98-3.18-.75-2.15-1.83-4.06-4.26-5.5-1.55-.36-3.56-.81-5.55-1.31-.22-.06-.46-.44-.49-.69-.03-.26,.2-.55,.4-1.04Z"/><path d="M67.46,16.64v-.86c.5-.73,1.37-.78,1.91-1.16,.44-.1,.74-.19,1.05-.23,.31-.04,.63-.05,.95-.06,4.25-.08,8.05-1.53,11.54-3.84,1.71-1.13,3.35-2.39,5.05-3.62,.23,0,.6-.11,.8,.02,.39,.27,.35,.86,.03,1.23-.21,.24-.4,.49-.61,.73-1.58,1.82-3.58,3.1-5.52,4.47-.78,.55-1.6,1.02-2.69,1.7-1.78,.61-3.87,1.33-5.96,2.04q-4.59,.31-6.55-.44Z"/><path d="M20.65,71.39c-.6,.82-1.57,1-2.54,1.43-.99,.06-2.1,.15-3.21,.17-.79,.02-1.59-.07-2.43-.11-.83-.38-1.7-.78-2.48-1.14-2.27-1.71-3.91-3.81-5.25-6.21-1.08-1.92-2.35-3.73-3.52-5.56,.28-.37,.59-.5,.9-.32,.55,.31,1.14,.6,1.56,1.04,1.21,1.26,2.5,2.49,3.48,3.91,1.28,1.86,2.79,3.45,4.59,5.04,.72,.33,1.59,.72,2.41,1.09,1.97,.05,3.88,.08,5.78,.17,.24,.01,.47,.31,.7,.47Z"/></svg>